<?xml version="1.0" standalone="no"?><!DOCTYPE svg PUBLIC "-//W3C//DTD SVG 1.1//EN" "http://www.w3.org/Graphics/SVG/1.1/DTD/svg11.dtd"><svg class="icon" width="200px" height="200.00px" viewBox="0 0 1024 1024" version="1.1" xmlns="http://www.w3.org/2000/svg"><path d="M325.028183 813.311206c-11.573989 0-22.531978-6.923993-27.119974-18.319982-6.025994-14.971985 1.225999-31.995969 16.197984-38.023963 13.645987-5.495995 33.081968-23.077977 45.227956-37.607963 10.35599-12.383988 28.783972-14.025986 41.16796-3.679997 12.381988 10.35399 14.031986 28.783972 3.679996 41.16796-5.653994 6.761993-35.507965 41.15996-68.249933 54.341947a29.135972 29.135972 0 0 1-10.903989 2.121998z" fill="#498A68" /><path d="M578.221935 866.859153c136.383867 0 293.335714 0 408.237602-73.357928 19.661981-12.551988 8.289992-42.871958-14.831986-39.783961-90.991911 12.145988-167.421837-11.013989-211.005794-48.533953l-182.399822 161.675842z" fill="#5CB38E" /><path d="M812.069707 736.133281c-1.519999 43.555957-8.205992 87.031915-35.053966 123.17988-66.485935 7.543993-134.895868 7.543993-198.791806 7.543992l182.399822-161.675842c13.969986 12.027988 31.327969 22.565978 51.44595 30.95197z" opacity=".1" /><path d="M656.863859 999.895024c-13.087987 0-26.061975-5.685994-34.949966-16.645984-24.663976-30.41397-31.881969-71.63793-33.593968-100.867902-1.453999-24.811976 0.374-57.931943 7.729993-75.991925 9.369991-22.997978 35.603965-34.039967 58.603943-24.675976 22.459978 9.149991 33.521967 34.389966 25.299975 56.985944-4.175996 16.619984-4.037996 68.375933 11.803988 87.913914 15.639985 19.285981 12.683988 47.601954-6.603993 63.241938a44.803956 44.803956 0 0 1-28.289972 10.039991z m22.483978-159.621845l-0.016 0.042 0.016-0.042zM500.928011 999.895024c-13.089987 0-26.061975-5.685994-34.949966-16.645984-24.663976-30.41397-31.881969-71.63793-33.591967-100.867902-1.453999-24.813976 0.374-57.937943 7.731992-75.995925 9.373991-22.993978 35.615965-34.033967 58.605943-24.669976 22.455978 9.151991 33.515967 34.391966 25.293975 56.985944-4.175996 16.619984-4.039996 68.371933 11.803989 87.911914 15.639985 19.285981 12.685988 47.601954-6.603994 63.241938a44.803956 44.803956 0 0 1-28.289972 10.039991z m22.485978-159.621845c-0.006 0.016-0.014 0.03-0.018 0.046a0.272 0.272 0 0 1 0.018-0.046z" fill="#498A68" /><path d="M918.349603 615.989398c-4.147996-20.31598-24.357976-33.203968-44.777956-29.601971l-115.423887 20.35198c-43.061958 7.593993-71.20793 50.077951-60.489941 93.251909 9.195991 37.041964 45.321956 61.72394 83.181918 56.895945 23.049977-2.937997 42.161959-15.775985 53.883948-33.545967 1.687998-2.559998 4.707995-3.803996 7.735992-3.321997a49.219952 49.219952 0 0 0 18.545982-0.59c23.537977-5.265995 40.049961-27.465973 38.351963-51.525949-0.02-0.296-0.044-0.591999-0.07-0.885999-0.486-5.471995 1.859998-10.69199 6.087994-14.199987 10.39599-8.627992 15.889984-22.547978 12.973987-36.827964z" fill="#E5E5E5" /><path d="M697.657819 699.991316c9.195991 37.041964 45.321956 61.72394 83.179918 56.897945a76.439925 76.439925 0 0 0 20.369981-5.511995c0.907999-14.011986 1.109999-28.111973 1.109998-42.059959 0-37.973963-9.651991-73.867928-26.751973-105.647897l-17.419983 3.071997c-43.061958 7.589993-71.20793 50.075951-60.487941 93.249909zM535.823977 926.611095c-15.843985-19.539981-15.979984-71.29193-11.803989-87.911914 8.221992-22.595978-2.835997-47.833953-25.293975-56.985944-22.989978-9.363991-49.231952 1.675998-58.605943 24.669976-7.359993 18.059982-9.185991 51.18195-7.731992 75.995925 0.635999 10.865989 2.037998 23.393977 4.809995 36.403965 28.733972 8.787991 62.955939 13.707987 103.351899 14.975985a45.045956 45.045956 0 0 0-4.725995-7.147993zM679.955836 838.697181c8.221992-22.597978-2.841997-47.835953-25.299975-56.985944-23.001978-9.363991-49.233952 1.679998-58.603943 24.675976-7.355993 18.059982-9.183991 51.17995-7.729993 75.991925 0.869999 14.847986 3.175997 32.793968 8.453992 50.843951 34.735966-1.827998 64.653937-6.561994 90.229912-14.349986-11.053989-23.015978-10.755989-65.425936-7.049993-80.175922z" opacity=".1" /><path d="M356.970151 708.219308c0 104.967897 14.257986 180.919823 205.2778 180.919824s205.2778-75.953926 205.277799-180.919824c0-104.967897-91.90591-190.059814-205.277799-190.059814s-205.2778 85.091917-205.2778 190.059814z" fill="#5CB38E" /><path d="M356.970151 708.219308c0-0.835999 0.022-1.667998 0.034-2.501997 42.755958-10.971989 127.565875-14.163986 186.581818 48.555952 43.005958 45.703955 49.229952 95.025907 44.615957 134.359869a639.479376 639.479376 0 0 1-25.953975 0.508c-191.019813 0-205.2778-75.953926-205.2778-180.921824z" fill="#9BDFC1" /><path d="M601.219913 521.595491c94.733907 16.857984 166.307838 93.995908 166.307837 186.625817 0 97.193905-12.247988 169.501834-165.707838 179.679825 85.203917-86.483916 68.723933-265.051741-0.599999-366.305642z" opacity=".05" /><path d="M373.822135 244.435761a189.319815 189.319815 0 0 1 157.915846-84.893917h78.119923c111.063892 0 201.099804 90.035912 201.099804 201.099804v92.45791c0 99.679903-80.805921 180.483824-180.483824 180.483823H216.360289c-74.671927 0-135.205868-60.533941-135.205868-135.205868v-62.925938c0-74.671927 60.533941-135.205868 135.205868-135.205868h53.645947a124.459878 124.459878 0 0 0 103.815899-55.809946z" fill="#5CB38E" /><path d="M701.719815 497.039515m-13.839987 0a13.839986 13.839986 0 1 0 27.679973 0 13.839986 13.839986 0 1 0-27.679973 0Z" opacity=".1" /><path d="M603.319911 518.159494m-13.839987 0a13.839986 13.839986 0 1 0 27.679973 0 13.839986 13.839986 0 1 0-27.679973 0Z" opacity=".1" /><path d="M659.639856 565.359448m-13.839987 0a13.839986 13.839986 0 1 0 27.679973 0 13.839986 13.839986 0 1 0-27.679973 0Z" opacity=".1" /><path d="M645.795869 307.779699a34.883966 17.895983 0 1 0 69.767932 0 34.883966 17.895983 0 1 0-69.767932 0Z" fill="#FFA8CB" /><path d="M411.596098 307.779699a34.883966 17.895983 0 1 0 69.767932 0 34.883966 17.895983 0 1 0-69.767932 0Z" fill="#FFA8CB" /><path d="M490.742021 286.78972c-14.317986 0-27.777973-5.577995-37.897963-15.703985a14.999985 14.999985 0 0 1 0.006-21.211979 14.993985 14.993985 0 0 1 21.211979 0.006 23.425977 23.425977 0 0 0 16.679984 6.911993c6.299994 0 12.223988-2.453998 16.679983-6.911993a14.995985 14.995985 0 0 1 21.21398-0.006 14.999985 14.999985 0 0 1 0.006 21.211979c-10.12199 10.12599-23.581977 15.703985-37.899963 15.703985zM636.423878 286.78972c-14.317986 0-27.777973-5.577995-37.897962-15.703985a14.999985 14.999985 0 0 1 0.005999-21.211979 14.993985 14.993985 0 0 1 21.21198 0.006c4.455996 4.457996 10.37799 6.911993 16.679983 6.911993s12.223988-2.453998 16.679984-6.911993a14.991985 14.991985 0 0 1 21.211979-0.006 14.999985 14.999985 0 0 1 0.006 21.211979c-10.11999 10.12599-23.579977 15.703985-37.897963 15.703985zM243.120263 548.817464a51.62395 51.62395 0 0 1-38.913962-17.719983 14.995985 14.995985 0 0 1 1.451998-21.161979 14.991985 14.991985 0 0 1 21.161979 1.451999c4.117996 4.721995 10.05799 7.431993 16.299985 7.431992s12.183988-2.709997 16.299984-7.431992a14.995985 14.995985 0 0 1 21.161979-1.451999 14.999985 14.999985 0 0 1 1.451999 21.161979 51.61995 51.61995 0 0 1-38.913962 17.719983z" fill="#495059" /><path d="M287.22022 370.879638m-13.839987 0a13.839986 13.839986 0 1 0 27.679973 0 13.839986 13.839986 0 1 0-27.679973 0Z" fill="#495059" /><path d="M199.020306 370.879638m-13.839987 0a13.839986 13.839986 0 1 0 27.679973 0 13.839986 13.839986 0 1 0-27.679973 0Z" fill="#495059" /><path d="M654.535861 164.527839c89.559913 20.31798 156.423847 100.401902 156.423847 196.111809v92.45791c0 99.679903-80.805921 180.483824-180.483824 180.483823h-109.517893c159.495844-92.799909 186.531818-347.89766 133.57787-469.053542z" opacity=".05" /><path d="M538.443974 810.503208a29.079972 29.079972 0 0 1-15.443985-4.437995c-13.691987-8.545992-17.865983-26.575974-9.319991-40.265961 17.713983-28.381972 42.785958-45.615955 51.025951-51.27995l0.683999-0.471999c13.291987-9.165991 31.485969-5.825994 40.65196 7.457992 9.165991 13.285987 5.825994 31.485969-7.457993 40.651961l-0.767999 0.527999c-6.365994 4.377996-23.281977 16.003984-34.551966 34.059967-5.539995 8.881991-15.069985 13.757987-24.819976 13.757986z" fill="#498A68" /><path d="M582.717931 124.645878c-72.16393 0-194.29381-13.125987-194.29381-62.321939C388.424121 13.125987 510.554001 0 582.717931 0c72.16593 0 194.29581 13.125987 194.29581 62.323939 0.002 49.195952-122.129881 62.321939-194.29581 62.321939z m-164.08784-62.321939c2.081998 3.315997 13.621987 12.399988 46.815954 20.38998 31.963969 7.693992 73.613928 11.931988 117.273886 11.931989s85.307917-4.237996 117.275885-11.931989c33.193968-7.989992 44.733956-17.073983 46.815955-20.38998-2.081998-3.317997-13.621987-12.399988-46.815955-20.38998C668.029848 34.237967 626.379888 29.999971 582.717931 29.999971c-43.659957 0-85.309917 4.237996-117.275886 11.933988-33.191968 7.989992-44.729956 17.071983-46.811954 20.38998z m328.461679 0.55h0.02-0.02z" fill="#FAE17C" /><path d="M231.996273 973.04305a14.961985 14.961985 0 0 1-10.607989-4.391996l-101.149901-101.147901a14.999985 14.999985 0 1 1 21.215979-21.213979l101.149901 101.147901a14.999985 14.999985 0 0 1-10.60799 25.605975zM276.93223 928.107094a14.961985 14.961985 0 0 1-10.60799-4.391996l-101.147901-101.147901a14.999985 14.999985 0 0 1 21.213979-21.21398l101.147901 101.147902a14.999985 14.999985 0 0 1-10.605989 25.605975z" fill="#495059" /><path d="M85.910416 916.829105a15.003985 15.003985 0 0 1-10.60799-25.607975l134.807869-134.805869a14.999985 14.999985 0 0 1 21.213979 21.21398l-134.807868 134.805868a14.947985 14.947985 0 0 1-10.60599 4.393996z" fill="#FAE17C" /><path d="M305.666201 958.861064l-27.915972 27.915972c-49.629952 49.629952-130.385873 49.629952-180.015824 0l-62.691939-62.691938c-10.09599-10.09599-10.09599-26.465974 0-36.561965s26.465974-10.09599 36.561964 0l62.691939 62.691939c29.469971 29.469971 77.421924 29.469971 106.891895 0l27.915973-27.915973c29.469971-29.469971 29.469971-77.421924 0-106.891895l-62.691939-62.691939c-10.09599-10.09599-10.09599-26.465974 0-36.561964s26.465974-10.09599 36.561965 0l62.691938 62.691938c49.629952 49.629952 49.629952 130.385873 0 180.015825z" fill="#FAE17C" /></svg>