<?xml version="1.0" standalone="no"?><!DOCTYPE svg PUBLIC "-//W3C//DTD SVG 1.1//EN" "http://www.w3.org/Graphics/SVG/1.1/DTD/svg11.dtd"><svg class="icon" width="200px" height="200.00px" viewBox="0 0 1024 1024" version="1.1" xmlns="http://www.w3.org/2000/svg"><path d="M429.99442 912.041563C32.104865 982.679839-1.947268 682.676667 11.220784 528.428064c1.148004-13.444053 14.152055-22.636088 27.164106-19.064074 28.27011 7.76203 54.972215 20.626081 70.490275 34.758135 3.838015 3.494014 9.906039 0.196001 9.056036-4.924019-13.810054-83.352326-35.200138-258.813011 20.928081-381.907492 7.892031-17.308068 28.300111-24.964098 45.576178-17.004066 51.590202 23.776093 125.602491 90.768355 153.5806 134.888527 4.218016 6.652026 14.340056 4.896019 16.060063-2.790011 13.788054-61.598241 48.300189-151.840593 87.05634-195.548764 13.534053-15.26406 37.350146-15.848062 51.440201-1.098004 40.216157 42.098164 80.570315 117.66446 93.294365 159.846624 1.982008 6.572026 10.908043 7.64603 14.396056 1.734007 28.496111-48.314189 83.018324-87.998344 124.240485-110.812433 18.986074-10.508041 42.446166 2.364009 43.918172 24.014094 6.720026 98.796386 0.794003 329.223286-42.982168 442.513729-2.56801 6.646026 4.586018 12.88605 10.830042 9.452036 29.638116-16.306064 87.454342-42.406166 147.002574-37.584146 9.330036 0.756003 17.762069 5.836023 23.128091 13.506052 82.618323 118.052461 92.334361 300.391173-155.652608 342.457338-102.660401 17.418068-178.778698-34.028133-320.753253-8.824034z" fill="#FAE17C" /><path d="M770.64175 212.166829a150.902589 150.902589 0 0 0-25.058098-2.114008c-8.742034 0-17.570069 0.774003-26.240102 2.304009l-50.338197 8.876034c-5.560022 0.982004-11.240044 1.478006-16.880066 1.478006-12.70405 0.002-25.204098-2.55601-36.798143-7.306029-5.554022 7.076028-10.626042 14.392056-15.064059 21.920086-3.488014 5.914023-12.412048 4.840019-14.396056-1.734007-5.23602-17.360068-15.158059-40.376158-27.820109-64.384251C523.030783 144.400564 479.682614 129.440506 435.18444 129.440506c-10.002039 0-20.054078 0.798003-29.972117 2.288009-23.09809 44.538174-41.834163 99.098387-51.1362 140.648549-1.722007 7.69003-11.848046 9.446037-16.068063 2.792011-18.110071-28.556112-55.500217-66.67626-93.612365-96.474377-21.252083 14.390056-39.912156 32.692128-55.074215 54.344212-32.638127 46.612182-45.170176 103.142403-35.288138 159.178622l15.298059 86.756339a193.176755 193.176755 0 0 0 54.566214 103.972406c-16.300064 27.398107-25.4941 57.852226-26.928106 89.398349-32.502127 21.540084-78.276306 33.752132-127.448497 33.754132-14.052055 0-28.506111-0.978004-42.962168-2.908011a45.020176 45.020176 0 0 0-3.468014-0.314001c10.18204 40.700159 26.818105 80.602315 52.796206 115.000449 67.698264 23.996094 139.504545 30.976121 199.894781 33.790132l0.454002 0.214001c0.762003 24.038094 0.816003 49.196192 0.036 59.330231a65.144254 65.144254 0 0 0-0.038 9.514038c37.528147 3.504014 80.120313 2.308009 128.400502-4.614018 0.264001-7.77003 0.574002-23.15009 0.490002-41.294162 2.866011 0.038 5.754022 0.056 8.660033 0.056 6.242024 0 12.364048-0.084 18.334072-0.254001 0.210001 15.992062 0.05 29.726116-0.478002 36.590143-0.014 0.190001-0.018 0.380001-0.03 0.570003 49.604194-8.632034 91.154356-7.916031 128.634502-4.110016 0.306001-14.104055 0.476002-36.970144-0.192-60.188236 21.994086-11.972047 38.35415-27.986109 49.774194-48.65419 9.646038-17.460068 15.638061-38.054149 18.588073-64.14625 17.87807-10.462041 43.182169-28.378111 61.120238-53.880211 15.626061-22.218087 10.26404-53.010207-11.952046-68.638268a48.972191 48.972191 0 0 0-28.318111-8.972035 49.374193 49.374193 0 0 0-30.67612 10.704042 192.11275 192.11275 0 0 0-7.112027-16.512064l119.916468-21.144083c31.404123-96.588377 40.498158-257.323005 39.248153-364.071422z" opacity=".05" /><path d="M896.550242 221.002863c-0.874003 0-1.752007-0.076-2.62601-0.232001l-47.718187-8.484033a15.000059 15.000059 0 0 1-12.142047-17.394068 14.994059 14.994059 0 0 1 17.394068-12.142047l31.426123 5.588022 2.71401-34.746136a15.000059 15.000059 0 0 1 14.440057-13.822054l29.670116-1.018004-2.826011-20.840081a15.000059 15.000059 0 0 1 12.84805-16.880066 14.992059 14.992059 0 0 1 16.880066 12.84805l5.05402 37.278145a14.998059 14.998059 0 0 1-14.350057 17.006067l-32.852128 1.128004-2.960011 37.878148a15.004059 15.004059 0 0 1-14.952059 13.832054zM925.864357 367.803437a15.000059 15.000059 0 0 1-14.062055-20.214079l11.926046-32.192126a15.000059 15.000059 0 0 1 20.808082-8.190032l31.496123 15.850062 10.054039-22.474088a15.000059 15.000059 0 0 1 27.386107 12.250048l-16.464064 36.806144a14.994059 14.994059 0 0 1-20.43408 7.274028l-30.54012-15.36806-6.100023 16.464064a15.014059 15.014059 0 0 1-14.070055 9.794039zM965.12451 535.778093a15.000059 15.000059 0 0 1-14.140055-9.996039l-8.180032-23.11409-9.532037 5.396021a15.002059 15.002059 0 0 1-14.780058-26.108102l25.094098-14.208056a15.000059 15.000059 0 0 1 21.530084 8.050032l7.56803 21.382083 15.170059-10.614041a15.000059 15.000059 0 0 1 20.828081 3.606014l12.546049 17.666069a15.002059 15.002059 0 0 1-24.458095 17.372068l-3.924016-5.522022-19.126074 13.380052a14.974058 14.974058 0 0 1-8.596034 2.710011z" fill="#A3E3FF" /><path d="M595.955068 724.218829c-10.032039 0-19.720077-5.434021-24.694097-14.938058-7.132028-13.626053-1.866007-30.452119 11.758046-37.584147 8.868035-4.640018 30.852121-17.368068 43.43817-35.262138 8.850035-12.578049 26.222102-15.602061 38.796152-6.756026 12.578049 8.848035 15.604061 26.218102 6.756026 38.796151-18.890074 26.858105-47.684186 44.460174-63.166247 52.564206a27.706108 27.706108 0 0 1-12.88805 3.180012z" fill="#498A68" /><path d="M398.562297 832.221251c-129.946508 0-279.491092 0-388.96752-69.896273-18.734073-11.960047-7.898031-40.84816 14.132056-37.906148 86.696339 11.574045 159.520623-10.494041 201.044785-46.242181l173.790679 154.044602z" fill="#5CB38E" /><path d="M175.753427 707.666764c1.448006 41.500162 7.818031 82.922324 33.40013 117.366459 63.348247 7.188028 128.528502 7.188028 189.40874 7.188028l-173.790679-154.044602c-13.312052 11.458045-29.852117 21.500084-49.018191 29.490115z" opacity=".1" /><path d="M340.38807 958.977746c-1.104004 0-2.212009-0.042-3.332013-0.128-23.590092-1.814007-41.242161-22.408088-39.428154-45.99818 1.646006-21.408084-0.12-92.808363-3.190013-108.620424-7.050028-21.226083 3.492014-44.574174 24.506096-53.136208 21.916086-8.926035 46.912183 1.600006 55.838218 23.508092 11.552045 28.352111 8.802034 137.964539 8.274032 144.820565-1.730007 22.470088-20.50208 39.554155-42.668166 39.554155z m-44.974176-152.094594l0.02 0.05-0.02-0.05zM495.754677 958.977746c-1.104004 0-2.214009-0.042-3.332013-0.128-23.590092-1.814007-41.242161-22.408088-39.428154-45.99818 1.646006-21.408084-0.12-92.808363-3.190013-108.620424-7.050028-21.226083 3.492014-44.574174 24.506096-53.136208 21.908086-8.926035 46.912183 1.596006 55.838218 23.508092 11.552045 28.352111 8.802034 137.964539 8.274032 144.820565-1.730007 22.470088-20.50208 39.554155-42.668166 39.554155zM450.782501 806.883152l0.02 0.05-0.02-0.05z" fill="#498A68" /><path d="M539.082846 879.721436c-0.034-36.414142-1.606006-87.12834-8.936035-105.12041-8.926035-21.912086-33.930133-32.434127-55.838218-23.508092-21.014082 8.562033-31.556123 31.910125-24.506096 53.136208 2.46401 12.68005 4.084016 61.082239 3.782015 90.810354 33.074129-2.168008 61.41424-7.226028 85.498334-15.31806zM318.941986 751.092934c-21.014082 8.562033-31.554123 31.910125-24.506096 53.136208 2.146008 11.050043 3.654014 49.240192 3.806015 78.552306 24.306095 7.028027 52.636206 11.244044 85.394334 12.80405 0.396002-35.604139-0.378001-100.180391-8.856035-120.986472-8.926035-21.906086-33.922133-32.432127-55.838218-23.506092z" opacity=".1" /><path d="M609.37112 681.07066c0 100.012391-13.586053 172.380673-195.588764 172.380674s-195.588764-72.368283-195.588764-172.380674 87.568342-181.088707 195.588764-181.088707 195.588764 81.076317 195.588764 181.088707z" fill="#5CB38E" /><path d="M609.37112 681.07066c0-0.798003-0.022-1.590006-0.032-2.384009-40.738159-10.454041-121.544475-13.494053-177.774694 46.264181-40.97616 43.54617-46.906183 90.540354-42.510166 128.0185 7.878031 0.320001 16.112063 0.484002 24.728096 0.484002 182.004711-0.002 195.588764-72.370283 195.588764-172.382674z" fill="#9BDFC1" /><path d="M376.650211 503.253966c-90.262353 16.064063-158.458619 89.56035-158.458619 177.816694 0 92.606362 11.670046 161.502631 157.886617 171.198669-81.182317-82.400322-65.480256-252.538986 0.572002-349.015363z" opacity=".05" /><path d="M566.076951 207.134809a180.386705 180.386705 0 0 0-162.222633-53.532209l-73.302287 12.926051c-104.214407 18.376072-173.800679 117.75446-155.424607 221.968867l15.29806 86.756338c16.492064 93.530365 105.682413 155.982609 199.214778 139.490545l388.573518-68.516267c70.066274-12.354048 116.850456-79.170309 104.496408-149.236583l-10.412041-59.044231c-12.354048-70.066274-79.170309-116.850456-149.236583-104.496408l-50.338196 8.876035a118.590463 118.590463 0 0 1-106.646417-35.192138z" fill="#5CB38E" /><path d="M743.203039 494.718344a66.318259 72.738284 80.003 1 0-23.02525-130.622677 66.318259 72.738284 80.003 1 0 23.02525 130.622677Z" fill="#495059" /><path d="M300.199913 498.421947m-13.186052 0a13.186052 13.186052 0 1 0 26.372103 0 13.186052 13.186052 0 1 0-26.372103 0Z" opacity=".1" /><path d="M396.020287 501.941961m-13.186052 0a13.186052 13.186052 0 1 0 26.372103 0 13.186052 13.186052 0 1 0-26.372103 0Z" opacity=".1" /><path d="M351.000111 555.56217m-13.186051 0a13.186052 13.186052 0 1 0 26.372103 0 13.186052 13.186052 0 1 0-26.372103 0Z" opacity=".1" /><path d="M324.262007 291.72514a15.004059 15.004059 0 0 1-14.754058-12.400049l-2.876011-16.310064a15.000059 15.000059 0 0 1 12.170047-17.376067 15.000059 15.000059 0 0 1 17.376068 12.168047l2.876011 16.310064a15.000059 15.000059 0 0 1-14.792057 17.608069zM460.960541 267.621045a15.008059 15.008059 0 0 1-14.756058-12.398048l-2.876011-16.310064a15.004059 15.004059 0 0 1 29.546115-5.21002l2.876011 16.310064a15.000059 15.000059 0 0 1-14.790057 17.608068z" fill="#495059" /><path d="M330.24803 259.639014a15.200059 15.200059 0 0 1-2.62201-0.230001l-33.848132-5.968023a15.000059 15.000059 0 0 1 5.20802-29.544115l33.848132 5.968023a15.000059 15.000059 0 0 1-2.58601 29.774116zM444.426476 239.504936a15.000059 15.000059 0 0 1-7.514029-27.99211l29.764116-17.184067a15.000059 15.000059 0 0 1 15.000059 25.980102l-29.764117 17.184067a14.926058 14.926058 0 0 1-7.486029 2.012008z" fill="#495059" /><path d="M668.26135 311.441217m-13.186051 0a13.186052 13.186052 0 1 0 26.372103 0 13.186052 13.186052 0 1 0-26.372103 0Z" fill="#495059" /><path d="M751.021674 296.84116m-13.186052 0a13.186052 13.186052 0 1 0 26.372103 0 13.186052 13.186052 0 1 0-26.372103 0Z" fill="#495059" /><path d="M289.457871 178.600698c-80.676315 33.882132-130.164508 120.090469-114.328447 209.89682l15.29806 86.756338c16.492064 93.530365 105.684413 155.984609 199.214778 139.490545l102.764401-18.12007C327.388019 535.936094 259.815755 301.045176 289.457871 178.600698z" opacity=".05" /><path d="M360.076147 739.104887c-3.828015 0-7.71603-0.794003-11.432045-2.47001-32.664128-14.732058-53.120208-40.568158-59.840234-49.058191l-0.488002-0.614003c-9.566037-12.042047-7.56003-29.558115 4.482018-39.124152 12.040047-9.566037 29.558115-7.56003 39.124153 4.482017l0.546002 0.688003c4.640018 5.862023 18.764073 23.700093 39.072152 32.860128 14.020055 6.324025 20.258079 22.814089 13.936055 36.832144-4.646018 10.30204-14.786058 16.404064-25.400099 16.404064z" fill="#498A68" /><path d="M703.637489 683.774671a8.104032 8.104032 0 0 1 4.662018-10.470041l23.876093-9.166036c8.746034-3.358013 16.468064-3.504014 22.722089-0.720003 5.304021 2.362009 9.440037 6.974027 11.930046 13.458053l0.076001 0.198001c4.148016 10.808042 1.310005 19.564076-5.722023 26.206102l15.416061 8.738034c2.190009 1.302005 3.776015 2.49601 4.680018 4.854019 1.622006 4.224017-0.860003 8.334033-4.494018 9.728038-3.438013 1.320005-6.338025 0.518002-8.974035-1.062004l-19.490076-11.578045a5.792023 5.792023 0 0 0-5.03602-0.428002l-6.042023 2.320009a3.666014 3.666014 0 0 0-2.108008 4.736019l4.318016 11.250044c1.578006 4.112016-0.152001 8.950035-4.196016 10.696042a8.046031 8.046031 0 0 1-10.798042-4.528018l-20.820081-54.232212z m40.378157 14.148055c7.370029-2.830011 10.086039-8.382033 7.860031-14.176055l-0.076-0.198001c-2.49001-6.484025-8.292032-8.090032-15.660061-5.26202l-11.452045 4.396017a3.836015 3.836015 0 0 0-2.206009 4.956019l4.832019 12.586049a3.836015 3.836015 0 0 0 4.956019 2.206009l11.746046-4.508018zM791.583832 707.294763l32.072125-57.490225c2.232009-3.962015 5.836023-6.154024 10.404041-5.734022l0.980004 0.09c4.568018 0.422002 7.60203 3.226013 9.068035 7.53003l21.014082 62.388243c1.178005 3.392013 0.816003 5.822023-3.434013 9.304037a6.516025 6.516025 0 0 1-4.698018 1.464005c-3.912015-0.364001-6.312025-2.888011-7.51203-6.506025l-2.312009-7.176028a8.372033 8.372033 0 0 0-7.200028-5.770023l-22.490088-2.076008a8.374033 8.374033 0 0 0-8.138032 4.360017l-3.858015 7.148028c-1.716007 3.132012-4.726018 4.828019-8.206032 4.508018-4.350017-0.402002-7.402029-4.194016-7.000027-8.544033 0.11-1.192005 0.656003-2.348009 1.310005-3.496014z m48.132188-19.670077l-5.860023-18.580073c-0.542002-1.716007-2.882011-1.932008-3.728014-0.344001l-9.160036 17.194067c-0.682003 1.280005 0.160001 2.844011 1.606006 2.976012l15.022059 1.386005a2.030008 2.030008 0 0 0 2.120008-2.63201zM696.29746 762.180977c-0.250001-0.922004-0.488002-2.042008-0.436002-2.946011 0.248001-4.316017 4.048016-7.320029 8.366033-7.070028a7.814031 7.814031 0 0 1 7.210028 5.956023l9.772038 37.380146c0.536002 2.050008 3.382013 2.222009 4.160016 0.250001l14.052055-35.614139c1.414006-3.542014 4.270017-5.898023 8.184032-5.672022l1.206005 0.07c3.914015 0.226001 6.486025 2.792011 7.476029 6.574026l9.864039 36.994145c0.546002 2.048008 3.392013 2.206009 4.160016 0.23l14.006055-36.00814c1.178005-2.954012 3.932015-5.312021 7.74803-5.09202 4.216016 0.244001 7.444029 3.652014 7.202028 7.868031-0.052 0.904004-0.424002 2.090008-0.778003 2.976011l-22.860089 54.078212c-1.632006 3.834015-4.682018 6.074024-8.396033 5.860022l-1.606006-0.092c-3.716015-0.214001-6.394025-2.68601-7.56803-6.780026l-9.278036-33.038129c-0.738003-2.62401-4.376017-2.834011-5.410021-0.312002l-13.018051 31.752124c-1.638006 3.934015-4.580018 6.080024-8.296032 5.866023l-1.608007-0.092c-3.714015-0.214001-6.486025-2.792011-7.66603-6.786027l-16.486064-56.35222zM814.291921 755.840953a8.238032 8.238032 0 0 1 6.708026-9.524038l25.6121-4.442017c9.382037-1.628006 17.110067-0.254001 22.800089 3.752015 4.824019 3.398013 8.042031 8.812034 9.248036 15.766061l0.036 0.212001c2.010008 11.594045-2.54201 19.766077-10.860042 25.008098l13.654053 11.746046c1.928008 1.728007 3.274013 3.232013 3.712015 5.762022 0.786003 4.532018-2.49601 8.140032-6.396025 8.816035-3.688014 0.640003-6.422025-0.730003-8.740034-2.826012l-17.192067-15.41006a5.790023 5.790023 0 0 0-4.858019-1.394005l-6.586026 1.142004a3.666014 3.666014 0 0 0-2.986012 4.238017l2.104008 12.126047c0.766003 4.412017-1.912007 8.896035-6.288024 9.840039-4.664018 1.006004-9.070035-1.990008-9.876039-6.640026l-10.092039-58.172227z m37.482146 22.052086c7.906031-1.372005 11.706046-6.374025 10.628042-12.59005l-0.036-0.212c-1.206005-6.956027-6.676026-9.698038-14.580057-8.328033l-12.346049 2.142008a3.836015 3.836015 0 0 0-3.124012 4.436018l2.364009 13.626053a3.836015 3.836015 0 0 0 4.436018 3.124012l12.658049-2.198008z" fill="#FFFFFF" /></svg>