<?xml version="1.0" standalone="no"?><!DOCTYPE svg PUBLIC "-//W3C//DTD SVG 1.1//EN" "http://www.w3.org/Graphics/SVG/1.1/DTD/svg11.dtd"><svg class="icon" width="200px" height="200.00px" viewBox="0 0 1024 1024" version="1.1" xmlns="http://www.w3.org/2000/svg"><path d="M711.65983 839.937078c-0.147999 0.024-0.295998 0.048-0.445997 0.068-16.575903 2.391986-31.951813-9.103947-34.343799-25.679849-3.153982-21.847872-14.345916-39.947766-18.557891-46.759726l-0.503997-0.815996c-8.783949-14.259916-4.343975-32.937807 9.913942-41.719755 14.263916-8.773949 32.937807-4.341975 41.719755 9.915942l0.449997 0.727995c5.451968 8.815948 22.039871 35.647791 26.999842 69.98959 2.369986 16.421904-8.897948 31.669814-25.231852 34.273799z" fill="#498A68" /><path d="M471.141239 885.972809c-141.501171 0-304.344217 0-423.557518-76.111554-20.39988-13.023924-8.60195-44.479739 15.38791-41.277758 94.405447 12.601926 173.704982-11.427933 218.922717-50.355705l189.246891 167.745017z" fill="#5CB38E" /><path d="M228.520661 750.341603c1.577991 45.189735 8.51395 90.297471 36.369787 127.803252 68.981596 7.827954 139.95918 7.827954 206.252791 7.827954l-189.244891-167.743017c-14.495915 12.475927-32.50581 23.411863-53.377687 32.111811z" opacity=".1" /><path d="M407.793611 1024c-1.201993 0-2.409986-0.046-3.627979-0.137999-25.687849-1.975988-44.909737-24.401857-42.933749-50.091707 1.79199-23.311863-0.127999-101.059408-3.473979-118.277307-7.677955-23.111865 3.801978-48.537716 26.683843-57.861661 23.86586-9.719943 51.083701 1.73999 60.803644 25.59785 12.579926 30.871819 9.583944 150.22712 9.007947 157.697076-1.879989 24.467857-22.321869 43.071748-46.459727 43.073748z m-48.969713-165.61903zM576.976619 1024c-1.201993 0-2.409986-0.046-3.627978-0.137999-25.687849-1.975988-44.909737-24.401857-42.933749-50.091707 1.79199-23.311863-0.129999-101.059408-3.47398-118.277307-7.677955-23.111865 3.801978-48.537716 26.683844-57.861661 23.86386-9.719943 51.083701 1.73999 60.803644 25.59785 12.579926 30.873819 9.585944 150.22712 9.009947 157.697076-1.879989 24.467857-22.323869 43.071748-46.461728 43.073748z m-48.971713-165.61703z" fill="#498A68" /><path d="M624.160343 937.696506c-0.038-39.651768-1.74799-94.873444-9.729943-114.46733-9.719943-23.85786-36.939784-35.317793-60.803644-25.59785-22.881866 9.323945-34.361799 34.747796-26.683844 57.861661 2.681984 13.807919 4.447974 66.51761 4.117976 98.887421 36.011789-2.365986 66.871608-7.869954 93.099455-16.683902zM384.441747 797.631326c-22.881866 9.323945-34.361799 34.747796-26.683843 57.861661 2.337986 12.033929 3.977977 53.621686 4.143975 85.539499 26.465845 7.653955 57.317664 12.243928 92.987456 13.943918 0.431997-38.769773-0.409998-109.087361-9.643944-131.745228-9.719943-23.85986-36.937784-35.319793-60.803644-25.59985z" opacity=".1" /><path d="M700.697894 721.379773c0 108.907362-14.793913 187.7089-212.980752 187.7089s-212.980752-78.803538-212.980752-187.7089c0-108.907362 95.355441-197.192845 212.980752-197.192844s212.980752 88.287483 212.980752 197.192844z" fill="#5CB38E" /><path d="M700.697894 721.379773c0-0.867995-0.024-1.72999-0.035999-2.595985-44.35974-11.383933-132.351225-14.695914-193.582866 50.377705-44.619739 47.419722-51.077701 98.591422-46.289729 139.401183 8.57795 0.347998 17.545897 0.525997 26.927842 0.525997 198.186839 0.002 212.980752-78.801538 212.980752-187.7089z" fill="#9BDFC1" /><path d="M447.283379 527.752908c-98.287424 17.491898-172.548989 97.523429-172.548989 193.628865 0 100.841409 12.707926 175.86297 171.926993 186.422908-88.403482-89.729474-71.305582-274.998389 0.621996-380.051773z" opacity=".05" /><path d="M683.211997 240.192593a196.430849 196.430849 0 0 0-163.84304-88.081484H438.317432c-115.231325 0-208.644777 93.413453-208.644778 208.644777v95.927438c0 103.419394 83.837509 187.256903 187.256903 187.256903h429.653483c77.473546 0 140.279178-62.805632 140.279178-140.279178v-65.287618c0-77.473546-62.805632-140.279178-140.279178-140.279178h-55.659674a129.119243 129.119243 0 0 1-107.711369-57.90166z" fill="#5CB38E" /><path d="M342.99999 502.281057m-14.359916 0a14.359916 14.359916 0 1 0 28.719832 0 14.359916 14.359916 0 1 0-28.719832 0Z" opacity=".1" /><path d="M445.099392 524.180929m-14.359916 0a14.359916 14.359916 0 1 0 28.719832 0 14.359916 14.359916 0 1 0-28.719832 0Z" opacity=".1" /><path d="M386.679734 573.160642m-14.359916 0a14.359916 14.359916 0 1 0 28.719832 0 14.359916 14.359916 0 1 0-28.719832 0Z" opacity=".1" /><path d="M410.755593 284.094335a14.999912 14.999912 0 0 1-14.999912-14.999912v-18.033894c0-8.285951 6.715961-14.999912 14.999912-14.999912s14.999912 6.713961 14.999912 14.999912v18.033894a14.999912 14.999912 0 0 1-14.999912 14.999912zM561.904708 284.094335a14.999912 14.999912 0 0 1-14.999913-14.999912v-18.033894c0-8.285951 6.715961-14.999912 14.999913-14.999912s14.999912 6.713961 14.999912 14.999912v18.033894a14.999912 14.999912 0 0 1-14.999912 14.999912z" fill="#495059" /><path d="M429.743482 243.774572a15.053912 15.053912 0 0 1-4.001977-0.543997l-37.959777-10.483939a15.001912 15.001912 0 0 1 7.985953-28.91783l37.957778 10.483938a14.999912 14.999912 0 0 1-3.981977 29.461828zM542.916819 243.774572a14.999912 14.999912 0 0 1-3.983977-29.463828l37.957778-10.483938a14.999912 14.999912 0 0 1 7.985953 28.91783l-37.957778 10.483939a14.895913 14.895913 0 0 1-4.001976 0.545997zM847.469034 555.432746a14.961912 14.961912 0 0 1-11.313933-5.14397c-4.379974-5.023971-10.697937-7.903954-17.335899-7.903954s-12.957924 2.879983-17.335898 7.903954a14.997912 14.997912 0 0 1-21.163876 1.449991 14.999912 14.999912 0 0 1-1.449992-21.161876c10.077941-11.561932 24.639856-18.193893 39.951766-18.193893s29.873825 6.629961 39.951766 18.193893a14.995912 14.995912 0 0 1-1.451991 21.161876 14.939912 14.939912 0 0 1-9.851943 3.693979z" fill="#495059" /><path d="M773.05747 371.381824m-14.359915 0a14.359916 14.359916 0 1 0 28.719831 0 14.359916 14.359916 0 1 0-28.719831 0Z" fill="#495059" /><path d="M864.576934 371.381824m-14.359916 0a14.359916 14.359916 0 1 0 28.719832 0 14.359916 14.359916 0 1 0-28.719832 0Z" fill="#495059" /><path d="M391.965703 157.287078c-92.921456 21.079876-162.293049 104.16939-162.293049 203.468808v95.927438c0 103.419394 83.837509 187.256903 187.256903 187.256903h113.627334c-165.48303-96.281436-193.530866-360.951885-138.591188-486.653149z" opacity=".05" /><path d="M473.777224 845.973043a30.199823 30.199823 0 0 1-3.937977-0.255998c-16.607903-2.151987-28.325834-17.361898-26.171847-33.967801 2.839983-21.903872-3.079982-42.357752-5.307969-50.059707l-0.265998-0.923995c-4.627973-16.093906 4.667973-32.893807 20.761878-37.52178 16.097906-4.621973 32.893807 4.667973 37.519781 20.761879l0.239998 0.825995c2.883983 9.965942 11.657932 40.289764 7.193958 74.717562-1.979988 15.27991-15.021912 26.423845-30.031824 26.423845z" fill="#498A68" /><path d="M476.895206 136.149202a14.933912 14.933912 0 0 1-10.131941-3.943977 14.999912 14.999912 0 0 1-0.921995-21.191875l17.2199-18.78789H452.677348a14.999912 14.999912 0 0 1-10.30794-25.897849l35.299793-33.395804-31.791814-2.995982A14.999912 14.999912 0 0 1 448.691371 0.068l64.715621 6.099964a14.999912 14.999912 0 0 1 8.901948 25.829849l-31.949813 30.229822h26.799843a14.999912 14.999912 0 0 1 11.057935 25.135853l-40.259764 43.919743a14.953912 14.953912 0 0 1-11.061935 4.865971z" fill="#495059" /></svg>