<?xml version="1.0" standalone="no"?><!DOCTYPE svg PUBLIC "-//W3C//DTD SVG 1.1//EN" "http://www.w3.org/Graphics/SVG/1.1/DTD/svg11.dtd"><svg t="1627593640650" class="icon" viewBox="0 0 1024 1024" version="1.1" xmlns="http://www.w3.org/2000/svg" p-id="2625" xmlns:xlink="http://www.w3.org/1999/xlink" width="200" height="200"><defs><style type="text/css">@font-face { font-family: feedback-iconfont; src: url("//at.alicdn.com/t/font_1031158_1uhr8ri0pk5.eot?#iefix") format("embedded-opentype"), url("//at.alicdn.com/t/font_1031158_1uhr8ri0pk5.woff2") format("woff2"), url("//at.alicdn.com/t/font_1031158_1uhr8ri0pk5.woff") format("woff"), url("//at.alicdn.com/t/font_1031158_1uhr8ri0pk5.ttf") format("truetype"), url("//at.alicdn.com/t/font_1031158_1uhr8ri0pk5.svg#iconfont") format("svg"); }
</style></defs><path d="M323.084178 789.302339a83.428 74.2 44.999 1 0 104.932815-104.936477 83.428 74.2 44.999 1 0-104.932815 104.936477Z" fill="#806C6C" p-id="2626"></path><path d="M628.516 813.264c128.942 0 277.332 0 385.964-69.356 18.59-11.868 7.838-40.532-14.022-37.614-86.026 11.484-158.288-10.414-199.492-45.886l-172.45 152.856z" fill="#5CB38E" p-id="2627"></path><path d="M849.604 689.672c-1.438 41.178-7.758 82.282-33.142 116.46-62.858 7.132-127.536 7.132-187.946 7.132l172.448-152.854c13.208 11.368 29.62 21.332 48.64 29.262z" opacity=".1" p-id="2628"></path><path d="M686.242 939.04c-21.998 0.002-40.622-16.95-42.338-39.248-0.524-6.804-3.254-115.562 8.208-143.7 8.858-21.742 33.662-32.182 55.406-23.33 20.852 8.496 31.314 31.664 24.318 52.726-3.05 15.694-4.798 86.542-3.164 107.78 1.802 23.408-15.714 43.846-39.122 45.648-1.11 0.084-2.214 0.124-3.308 0.124z m44.624-150.92l-0.018 0.048 0.018-0.048zM532.074 939.04c-21.998 0.002-40.622-16.95-42.338-39.248-0.524-6.806-3.254-115.568 8.212-143.704 8.862-21.74 33.672-32.176 55.41-23.324 20.852 8.5 31.312 31.666 24.314 52.728-3.05 15.698-4.802 86.538-3.166 107.776 1.802 23.408-15.714 43.846-39.122 45.648-1.112 0.084-2.216 0.124-3.31 0.124z m44.622-150.912l-0.016 0.046 0.016-0.046z" fill="#498A68" p-id="2629"></path><path d="M553.356 732.764c-21.736-8.852-46.546 1.584-55.41 23.324-7.276 17.856-8.834 68.178-8.868 104.31 23.9 8.032 52.02 13.048 84.838 15.202-0.302-29.494 1.308-77.52 3.752-90.108 6.998-21.062-3.46-44.228-24.312-52.728zM707.518 732.762c-21.744-8.852-46.548 1.588-55.406 23.33-8.412 20.652-9.18 84.724-8.784 120.05 32.504-1.548 60.618-5.732 84.734-12.706 0.15-29.084 1.644-66.98 3.774-77.948 6.994-21.062-3.466-44.23-24.318-52.726z" opacity=".1" p-id="2630"></path><path d="M419.334 663.28c0 99.24 13.48 171.05 194.078 171.05s194.078-71.81 194.078-171.05-86.892-179.69-194.078-179.69-194.078 80.45-194.078 179.69z" fill="#5CB38E" p-id="2631"></path><path d="M419.334 663.28c0-0.79 0.022-1.576 0.032-2.366 40.424-10.374 120.604-13.39 176.402 45.906 40.66 43.21 46.544 89.84 42.182 127.028-7.816 0.318-15.988 0.48-24.538 0.48-180.598 0.002-194.078-71.808-194.078-171.048z" fill="#9BDFC1" p-id="2632"></path><path d="M650.258 486.838c89.564 15.938 157.234 88.868 157.234 176.442 0 91.892-11.58 160.254-156.666 169.876 80.554-81.764 64.974-250.588-0.568-346.318z" opacity=".05" p-id="2633"></path><path d="M435.268 224.8a178.99 178.99 0 0 1 149.3-80.264h73.858c105.004 0 190.128 85.122 190.128 190.128v87.414c0 94.24-76.398 170.638-170.638 170.638h-391.52c-70.598 0-127.828-57.23-127.828-127.828v-59.492c0-70.598 57.23-127.828 127.828-127.828h50.72a117.678 117.678 0 0 0 98.152-52.768z" fill="#5CB38E" p-id="2634"></path><path d="M745.28 463.62m-13.084 0a13.084 13.084 0 1 0 26.168 0 13.084 13.084 0 1 0-26.168 0Z" opacity=".1" p-id="2635"></path><path d="M652.26 483.58m-13.084 0a13.084 13.084 0 1 0 26.168 0 13.084 13.084 0 1 0-26.168 0Z" opacity=".1" p-id="2636"></path><path d="M705.48 528.22m-13.084 0a13.084 13.084 0 1 0 26.168 0 13.084 13.084 0 1 0-26.168 0Z" opacity=".1" p-id="2637"></path><path d="M692.4 284.68a32.98 16.92 0 1 0 65.96 0 32.98 16.92 0 1 0-65.96 0Z" fill="#FFA8CB" p-id="2638"></path><path d="M471 284.68a32.98 16.92 0 1 0 65.96 0 32.98 16.92 0 1 0-65.96 0Z" fill="#FFA8CB" p-id="2639"></path><path d="M683.542 266.138a14.998 14.998 0 0 1-15-15v-16.434c0-8.286 6.714-15 15-15s15 6.714 15 15v16.434a15 15 0 0 1-15 15zM545.808 266.138a14.998 14.998 0 0 1-15-15v-16.434c0-8.286 6.714-15 15-15s15 6.714 15 15v16.434a15 15 0 0 1-15 15zM311.696 513.396a49.62 49.62 0 0 1-37.41-17.036 15 15 0 0 1 22.618-19.71 19.616 19.616 0 0 0 14.792 6.748 19.62 19.62 0 0 0 14.792-6.746 14.996 14.996 0 0 1 21.162-1.456 15 15 0 0 1 1.456 21.162 49.62 49.62 0 0 1-37.41 17.038z" fill="#495059" p-id="2640"></path><path d="M353.38 344.34m-13.084 0a13.084 13.084 0 1 0 26.168 0 13.084 13.084 0 1 0-26.168 0Z" fill="#495059" p-id="2641"></path><path d="M270 344.34m-13.084 0a13.084 13.084 0 1 0 26.168 0 13.084 13.084 0 1 0-26.168 0Z" fill="#495059" p-id="2642"></path><path d="M700.664 149.254c84.674 19.208 147.888 94.924 147.888 185.41v87.414c0 94.24-76.398 170.638-170.638 170.638h-103.542c150.798-87.74 176.358-328.918 126.292-443.462z" opacity=".05" p-id="2643"></path><path d="M312.488 699.854c4.19-31.036-18.344-59.424-49.38-63.62-52.97-7.164-91.812 4.876-129.142 39.124-5.948 5.456-4.158 15.116 3.242 18.338 30.338 13.212 54.516 46.504 111.484 54.51 30.976 4.354 59.606-17.314 63.796-48.352z" fill="#FAE17C" p-id="2644"></path><path d="M586.918 773.91l-82.806 3.884a469.392 469.392 0 0 1-200.076-34.578 11.07 11.07 0 0 1-6.762-11.782l9.206-65.51a11.068 11.068 0 0 1 9.746-9.46 469.416 469.416 0 0 1 201.856 21.91l78.528 26.558a35.44 35.44 0 0 1 23.742 38.506 35.442 35.442 0 0 1-33.434 30.472z" fill="#80B0E3" p-id="2645"></path><path d="M402.666 654.948a469.288 469.288 0 0 0-86.438 1.516 11.066 11.066 0 0 0-9.746 9.46l-9.206 65.51a11.07 11.07 0 0 0 6.762 11.782 469.306 469.306 0 0 0 82.672 25.282l15.956-113.55z" fill="#495059" p-id="2646"></path><path d="M600.372 748.66c-11.142 0-21.638-6.79-25.834-17.824-5.42-14.264 1.748-30.224 16.014-35.644 20.042-7.616 30.066-14.484 41.552-24.492 11.506-10.026 28.96-8.824 38.984 2.682s8.824 28.96-2.682 38.984c-15.098 13.156-30.778 24.054-58.224 34.484a27.542 27.542 0 0 1-9.81 1.81z" fill="#498A68" p-id="2647"></path><path d="M316.498 791.412H12.646A12.646 12.646 0 0 1 0 778.766V427.92a12.646 12.646 0 0 1 12.646-12.646h303.852a12.646 12.646 0 0 1 12.646 12.646v350.844a12.646 12.646 0 0 1-12.646 12.648z" fill="#E5E5E5" p-id="2648"></path><path d="M100.228 415.274H12.646A12.646 12.646 0 0 0 0 427.92v350.844a12.646 12.646 0 0 0 12.646 12.646h204.922c-126.8-90.376-132.03-284.914-117.34-376.136z" opacity=".05" p-id="2649"></path><path d="M272.406 975.172a15.004 15.004 0 0 1-14.372-10.732l-93.46-314.61L71.112 964.44a14.992 14.992 0 0 1-18.65 10.108 15 15 0 0 1-10.108-18.65l107.84-363.012a15 15 0 0 1 28.756 0l107.84 363.012a14.998 14.998 0 0 1-14.384 19.274z" fill="#806C6C" p-id="2650"></path><path d="M243.524 877.922H95.598c-8.286 0-15-6.714-15-15s6.714-15 15-15h147.926c8.286 0 15 6.714 15 15s-6.716 15-15 15z" fill="#806C6C" p-id="2651"></path><path d="M781.194 195.896L521.598 173.186a56.73 56.73 0 0 1-40.678-22.798c-13.32-18.024-8.8-43.534 9.902-55.884l29.558-19.522a157.972 157.972 0 0 1 100.832-25.554l83.376 7.294a157.972 157.972 0 0 1 94.862 42.676l25.718 24.358c16.272 15.412 16.294 41.318 0.046 56.754a56.734 56.734 0 0 1-44.02 15.386z" fill="#495059" p-id="2652"></path></svg>