<?xml version="1.0" standalone="no"?><!DOCTYPE svg PUBLIC "-//W3C//DTD SVG 1.1//EN" "http://www.w3.org/Graphics/SVG/1.1/DTD/svg11.dtd"><svg class="icon" width="200px" height="200.00px" viewBox="0 0 1024 1024" version="1.1" xmlns="http://www.w3.org/2000/svg"><path d="M151.242014 138.997995c0 48.575998 18.053999 90.219996 43.003998 120.573995 9.836 11.968 24.583999 18.815999 40.069999 18.405999 130.535995-3.448 190.463993-87.993997 223.093991-138.979994C424.780003 88.011997 364.852006 3.464 234.316011 0.018c-15.485999-0.41-30.233999 6.438-40.069999 18.405999-24.949999 30.353999-43.003998 71.997997-43.003998 120.573996zM763.57999 138.997995c0 48.575998-18.053999 90.219996-43.003998 120.573995-9.836 11.968-24.583999 18.815999-40.071999 18.405999-130.535995-3.448-190.463993-87.993997-223.093991-138.979994C490.042001 88.011997 549.967999 3.464 680.503993 0.018c15.485999-0.41 30.233999 6.438 40.071999 18.405999 24.949999 30.353999 43.003998 71.997997 43.003998 120.573996z" fill="#CD5B5B" /><path d="M601.133997 99.277996c29.553999 0 53.511998-23.957999 53.511997-53.511998 0-16.467999-7.452-31.185999-19.153999-41.001998-34.935999 6.646-63.705998 19.609999-87.593996 35.563998-0.18 1.788-0.274 3.602-0.274 5.436 0 29.555999 23.957999 53.513998 53.509998 53.513998zM762.91199 123.375995c-9.314-7.918-21.351999-12.72-34.541998-12.719999-29.553999 0-53.511998 23.957999-53.511998 53.509998 0 29.553999 23.957999 53.511998 53.511998 53.511997 7.08 0 13.815999-1.418 19.995999-3.925999 9.474-22.195999 15.213999-47.373998 15.213999-74.755997 0-5.294-0.252-10.494-0.668-15.62z" fill="#FAE17C" /><path d="M541.051999 175.941993c-0.53 0-1.062-0.03-1.6-0.086-15.431999-1.636-59.097998-9.76-88.321997-23.235999a14.999999 14.999999 0 0 1 0-27.243999c29.217999-13.473999 72.885997-21.599999 88.321997-23.235999a14.999999 14.999999 0 0 1 3.164 29.831999c-7.684 0.816-21.901999 3.298-37.181999 7.026 15.281999 3.726 29.497999 6.21 37.181999 7.025999a14.999999 14.999999 0 0 1-1.564 29.917999z" opacity=".1" /><path d="M373.770005 175.941993a14.999999 14.999999 0 0 1-1.564-29.917999c7.684-0.814 21.899999-3.298 37.181999-7.025999-15.281999-3.726-29.497999-6.208-37.181999-7.026a14.999999 14.999999 0 0 1-13.333999-16.498 14.991999 14.991999 0 0 1 16.497999-13.333999c15.435999 1.636 59.103998 9.762 88.321997 23.235999a15.003999 15.003999 0 0 1 0 27.243999c-29.223999 13.475999-72.887997 21.599999-88.321997 23.235999a15.401999 15.401999 0 0 1-1.6 0.086z" opacity=".1" /><path d="M515.96 138.997995c0-21.967999-10.768-34.903999-27.001999-41.369999-2.038-0.812-3.62-2.392-4.824-4.224-5.728-8.72-19.859999-9.408-26.721999-9.407999s-20.993999 0.688-26.721999 9.407999c-1.204 1.834-2.786 3.412-4.824 4.224-16.235999 6.466-27.001999 19.401999-27.001999 41.369999s10.766 34.903999 27.001999 41.369998c2.038 0.812 3.62 2.392 4.824 4.224 5.728 8.72 19.861999 9.408 26.721999 9.407999 6.862 0 20.993999-0.688 26.721999-9.407999 1.204-1.832 2.786-3.412 4.824-4.224 16.233999-6.466 27.001999-19.401999 27.001999-41.369998z" fill="#CD5B5B" /><path d="M321.248007 168.167993c-29.553999 0-53.511998 23.957999-53.511997 53.511998 0 20.725999 11.806 38.661998 29.037998 47.549998 30.289999-8.036 55.545998-20.927999 76.731997-36.125998a53.619998 53.619998 0 0 0 1.252-11.424c0.002-29.553999-23.955999-53.511998-53.509998-53.511998zM194.244012 18.423999a189.205993 189.205993 0 0 0-24.159999 37.863999c9.644 14.053999 25.807999 23.281999 44.139999 23.281999 29.553999 0 53.511998-23.957999 53.511998-53.511998 0-8.622-2.088-16.737999-5.71-23.949999A288.619989 288.619989 0 0 0 234.314011 0.018c-15.483999-0.41-30.231999 6.438-40.069999 18.405999z" fill="#FAE17C" /><path d="M717.247992 836.603967c-10.484 0-20.625999-5.632-25.911999-15.525999-10.074-18.847999-26.223999-31.637999-32.303999-36.449999l-0.726-0.576c-12.692-10.086-14.805999-28.549999-4.722-41.241998 10.084-12.696 28.549999-14.803999 41.239999-4.722l0.65 0.516c7.868 6.23 31.807999 25.185999 47.637998 54.807998 7.642 14.295999 2.244 32.079999-12.052 39.721998a29.259999 29.259999 0 0 1-13.811999 3.47z" fill="#498A68" /><path d="M472.448002 890.385965c-136.977995 0-294.611988 0-410.013984-73.677997-19.747999-12.608-8.326-43.057998 14.895999-39.957998 91.387996 12.2 168.151993-11.062 211.923992-48.743998l183.193993 162.379993z" fill="#5CB38E" /><path d="M237.584011 759.09397c1.526 43.743998 8.242 87.409997 35.205998 123.715996 66.775997 7.576 135.483995 7.578 199.657993 7.577999l-183.193993-162.379993c-14.029999 12.078-31.463999 22.661999-51.669998 31.085998z" opacity=".1" /><path d="M411.080004 1023.99996a45.015998 45.015998 0 0 1-32.215999-13.511999c-17.477999-17.789999-17.223999-46.381998 0.566-63.859998 11.142-10.946 17.847999-29.751999 17.084-47.909998-0.498-11.844-4.174-19.151999-6.376-20.977999-19.193999-15.921999-21.845999-44.389998-5.924-63.585998 15.923999-19.193999 44.391998-21.847999 63.587998-5.922 23.587999 19.567999 37.421999 50.353998 38.947998 86.691997 1.842 43.825998-14.615999 87.239997-44.025998 116.133996A45.023998 45.023998 0 0 1 411.080004 1023.99996zM639.789995 1010.291961c-24.939999 0-45.157998-20.217999-45.157998-45.157999 0-9.41-4.918-27.365999-15.902-46.261998-10.834-18.635999-22.093999-28.567999-26.647999-30.447999-23.047999-9.528-34.009999-35.935999-24.481999-58.985997 9.528-23.045999 35.933999-34.009999 58.983998-24.481999 55.395998 22.897999 98.363996 104.907996 98.363996 160.177993 0 24.939999-20.217999 45.157998-45.157998 45.157999z" fill="#498A68" /><path d="M586.585997 804.955969c-23.049999-9.528-49.455998 1.436-58.983998 24.481999-9.526 23.047999 1.434 49.457998 24.481999 58.985997 4.554 1.88 15.813999 11.812 26.647999 30.447999 6.148 10.576 10.392 20.853999 12.94 29.505999 34.021999-7.442 61.463998-19.321999 83.187997-35.905999-15.859999-45.151998-48.921998-91.249996-88.273997-107.515995zM447.802003 808.229968c-19.195999-15.923999-47.663998-13.271999-63.587998 5.922-15.923999 19.195999-13.269999 47.663998 5.924 63.585998 2.202 1.826 5.878 9.136 6.376 20.977999 0.764 18.157999-5.942 36.963999-17.084 47.909998-0.11 0.108-0.2 0.228-0.31 0.336 27.797999 6.682 60.171998 10.244 97.605996 10.854 7.366-19.735999 10.932-41.259998 10.024-62.893998-1.526-36.337999-15.359999-67.125997-38.947998-86.691997z" opacity=".1" /><path d="M694.663993 731.057971c0 105.423996-14.319999 181.707993-206.171992 181.707993S282.320009 836.481967 282.320009 731.057971s92.305996-190.887993 206.171992-190.887992 206.171992 85.463997 206.171992 190.887992z" fill="#5CB38E" /><path d="M694.663993 731.057971c0-0.84-0.022-1.676-0.034-2.513999-42.941998-11.02-128.119995-14.225999-187.393993 48.765998-43.193998 45.903998-49.443998 95.437996-44.809998 134.943994 8.304 0.338 16.983999 0.51 26.065999 0.51 191.851993 0.002 206.171992-76.281997 206.171992-181.705993z" fill="#9BDFC1" /><path d="M449.352002 543.619979c-95.145996 16.931999-167.031993 94.405996-167.031993 187.437992 0 97.617996 12.302 170.239993 166.429993 180.461993-85.575997-86.859997-69.023997-266.20399 0.602-367.899985z" opacity=".05" /><path d="M677.737994 265.25599a190.143993 190.143993 0 0 0-158.603994-85.263997h-78.459997c-111.547996 0-201.973992 90.427996-201.973992 201.973992v92.859996c0 100.111996 81.157997 181.269993 181.269993 181.269993h415.915983c74.995997 0 135.793995-60.795998 135.793995-135.793994v-63.199998c0-74.995997-60.795998-135.793995-135.793995-135.793995h-53.879998a124.995995 124.995995 0 0 1-104.267995-56.051997z" fill="#5CB38E" /><path d="M809.009988 597.177977c-29.577999 0-53.557998-23.977999-53.557998-53.557998v-28.827999c0-13.657999 11.072-24.729999 24.73-24.729999h57.653997c13.657999 0 24.729999 11.072 24.729999 24.729999v28.827999c0.002 29.579999-23.977999 53.557998-53.555998 53.557998z" fill="#495059" /><path d="M348.420006 518.95998m-13.899999 0a13.899999 13.899999 0 1 0 27.799999 0 13.899999 13.899999 0 1 0-27.799999 0Z" opacity=".1" /><path d="M447.240003 540.159979m-13.9 0a13.899999 13.899999 0 1 0 27.799999 0 13.899999 13.899999 0 1 0-27.799999 0Z" opacity=".1" /><path d="M390.680005 587.579977m-13.9 0a13.899999 13.899999 0 1 0 27.799999 0 13.899999 13.899999 0 1 0-27.799999 0Z" opacity=".1" /><path d="M334.506007 328.859987a35.033999 17.973999 0 1 0 70.067997 0 35.033999 17.973999 0 1 0-70.067997 0Z" fill="#FFA8CB" /><path d="M569.723998 328.859987a35.035999 17.973999 0 1 0 70.071997 0 35.035999 17.973999 0 1 0-70.071997 0Z" fill="#FFA8CB" /><path d="M560.309998 308.231988a14.999999 14.999999 0 0 1-14.999999-14.999999v-17.458c0-8.286 6.716-14.999999 14.999999-14.999999s14.999999 6.714 15 14.999999v17.458a14.999999 14.999999 0 0 1-15 14.999999zM438.858003 309.759988a14.999999 14.999999 0 0 1-15-15c0-5.44-4.424-9.866-9.863999-9.865999s-9.864 4.426-9.864 9.865999c0 8.286-6.716 14.999999-14.999999 15s-14.999999-6.714-15-15c0-21.981999 17.881999-39.865998 39.863999-39.865998s39.863998 17.881999 39.863998 39.865998a14.999999 14.999999 0 0 1-14.999999 15z" fill="#495059" /><path d="M764.71999 392.239985m-13.899999 0a13.899999 13.899999 0 1 0 27.799999 0 13.899999 13.899999 0 1 0-27.799999 0Z" fill="#495059" /><path d="M853.299987 392.239985m-13.9 0a13.899999 13.899999 0 1 0 27.799999 0 13.899999 13.899999 0 1 0-27.799999 0Z" fill="#495059" /><path d="M395.804005 185.001993c-89.949996 20.405999-157.103994 100.839996-157.103994 196.963992v92.859996c0 100.111996 81.157997 181.269993 181.269993 181.269993h109.993995c-160.191994-93.205996-187.343993-349.413986-134.159994-471.093981z" opacity=".05" /><path d="M509.37 836.637967c-10.49 0-20.631999-5.636-25.917999-15.533999-10.07-18.859999-26.229999-31.655999-32.315999-36.473999l-0.732-0.58c-12.692-10.084-14.805999-28.547999-4.719999-41.241998 10.084-12.692 28.549999-14.803999 41.241998-4.718l0.654 0.516c7.872 6.236 31.829999 25.205999 47.657998 54.847998 7.636 14.301999 2.232 32.081999-12.067999 39.717998a29.203999 29.203999 0 0 1-13.8 3.466z" fill="#498A68" /></svg>