<?xml version="1.0" standalone="no"?><!DOCTYPE svg PUBLIC "-//W3C//DTD SVG 1.1//EN" "http://www.w3.org/Graphics/SVG/1.1/DTD/svg11.dtd"><svg class="icon" width="200px" height="200.00px" viewBox="0 0 1024 1024" version="1.1" xmlns="http://www.w3.org/2000/svg"><path d="M303.785407 282.863448C283.763446 248.679514 255.8595 126.519753 334.687346 65.815871c78.431847-60.399882 206.163597-66.73587 316.165383 9.339982 78.263847 54.125894 211.589587 148.147711 354.445308 148.71771 10.36998 0.042 17.151967 10.973979 12.743975 20.35996-14.613971 31.117939-36.319929 52.149898-75.307853 55.359892-3.887992 0.319999-5.655989 5.01199-2.873995 7.747985 34.609932 34.045934 114.573776 134.433737 71.91586 232.023547-5.605989 12.821975-23.381954 13.977973-30.80994 2.115995-11.443978-18.275964-30.80194-42.121918-61.067881-59.933883-16.015969-9.425982-37.047928-4.627991-46.211909 11.537978-8.301984 14.645971-6.667987 31.451939 3.433993 49.739903 4.87999 8.833983-0.303999 19.825961-10.11998 22.171956-100.523804 24.021953-194.045621-3.353993-235.331541-89.425825l-327.883359-192.707623z" fill="#806C6C" /><path d="M257.923496 814.728409c-4.731991 0-9.533981-1.133998-13.997972-3.517993-14.495972-7.747985-19.965961-25.77395-12.219977-40.267922 16.041969-30.017941 40.305921-49.233904 48.281906-55.549891l0.665999-0.527999c12.867975-10.22598 31.583938-8.085984 41.807918 4.77799 10.22598 12.865975 8.085984 31.583938-4.77799 41.807919l-0.747999 0.593999c-6.161988 4.87999-22.533956 17.845965-32.739936 36.943927a29.757942 29.757942 0 0 1-26.271949 15.73997z" fill="#498A68" /><path d="M506.085012 869.248302c138.857729 0 298.659417 0 415.645188-74.687854 20.017961-12.779975 8.439984-43.649915-15.101971-40.505921-92.641819 12.367976-170.459667-11.213978-214.83358-49.413903l-185.709637 164.607678z" fill="#5CB38E" /><path d="M744.174547 736.152562c-1.547997 44.345913-8.353984 88.609827-35.689931 125.415755-67.691868 7.679985-137.343732 7.681985-202.399604 7.681985l185.709637-164.609678c14.223972 12.243976 31.897938 22.973955 52.379898 31.511938z" opacity=".1" /><path d="M568.24889 1004.698038c-23.691954 0.002-43.747915-18.255964-45.593911-42.269918-0.563999-7.327986-3.497993-124.453757 8.839983-154.747698 9.539981-23.413954 36.249929-34.657932 59.667883-25.12395 22.455956 9.147982 33.721934 34.097933 26.187949 56.779889-3.281994 16.893967-5.16799 93.193818-3.407993 116.071773 1.937996 25.209951-16.927967 47.215908-42.133918 49.153904-1.193998 0.092-2.383995 0.136-3.559993 0.136z m48.059906-162.525683l-0.02 0.052 0.02-0.052zM402.229214 1004.698038c-23.689954 0.002-43.745915-18.251964-45.593911-42.265918-0.563999-7.329986-3.503993-124.453757 8.841983-154.755697 9.543981-23.411954 36.263929-34.651932 59.669884-25.117951 22.455956 9.153982 33.717934 34.101933 26.183948 56.781889-3.283994 16.905967-5.16999 93.191818-3.407993 116.063773 1.939996 25.209951-16.923967 47.217908-42.129918 49.157904-1.197998 0.092-2.385995 0.136-3.563993 0.136z m48.051907-162.519683l-0.018 0.05a0.25 0.25 0 0 0 0.018-0.05z" fill="#498A68" /><path d="M425.14717 782.558472c-23.405954-9.533981-50.125902 1.705997-59.669884 25.117951-7.835985 19.229962-9.513981 73.419857-9.549981 112.33178 25.73795 8.647983 56.021891 14.051973 91.361821 16.371968-0.323999-31.761938 1.407997-83.481837 4.041992-97.03781 7.533985-22.683956-3.729993-47.629907-26.183948-56.783889zM591.162845 782.556472c-23.417954-9.533981-50.127902 1.709997-59.667883 25.12395-9.055982 22.231957-9.883981 91.237822-9.461982 129.281748 35.003932-1.667997 65.279873-6.171988 91.251822-13.681973 0.162-31.323939 1.771997-72.135859 4.065992-83.943836 7.533985-22.681956-3.731993-47.631907-26.187949-56.779889z" opacity=".1" /><path d="M280.819452 707.732618c0 106.871791 14.515972 184.20364 209.003591 184.20364s209.003592-77.331849 209.003592-184.20364-93.573817-193.509622-209.003592-193.509622-209.003592 86.637831-209.003591 193.509622z" fill="#5CB38E" /><path d="M280.819452 707.732618c0-0.851998 0.022-1.697997 0.033999-2.547995 43.531915-11.171978 129.879746-14.419972 189.965629 49.435903 43.785914 46.533909 50.123902 96.749811 45.425912 136.797733-8.417984 0.341999-17.217966 0.515999-26.423949 0.515999-194.48562 0-209.001592-77.329849-209.001591-184.20164z" fill="#9BDFC1" /><path d="M529.498966 517.720989c96.451812 17.163966 169.325669 95.701813 169.325669 190.011629 0 98.957807-12.469976 172.577663-168.71367 182.939642 86.749831-88.053828 69.971863-269.859473-0.611999-372.951271z" opacity=".05" /><path d="M297.977418 235.53354a192.755624 192.755624 0 0 1 160.781686-86.435831h79.537845c113.079779 0 204.7476 91.667821 204.7476 204.7476v94.135816c0 101.487802-82.271839 183.759641-183.759641 183.759641H137.657731C61.63188 631.740766 0 570.108887 0 494.081035v-64.067875c0-76.025852 61.63188-137.657731 137.657731-137.657731h54.619893a126.719753 126.719753 0 0 0 105.699794-56.821889z" fill="#5CB38E" /><path d="M631.818766 492.719038m-14.079973 0a14.079973 14.079973 0 1 0 28.159945 0 14.079973 14.079973 0 1 0-28.159945 0Z" opacity=".1" /><path d="M531.638962 514.218996m-14.079973 0a14.079973 14.079973 0 1 0 28.159945 0 14.079973 14.079973 0 1 0-28.159945 0Z" opacity=".1" /><path d="M588.97885 562.278902m-14.079973 0a14.079973 14.079973 0 1 0 28.159945 0 14.079973 14.079973 0 1 0-28.159945 0Z" opacity=".1" /><path d="M554.282917 300.019414a35.515931 18.219964 0 1 0 71.031862 0 35.515931 18.219964 0 1 0-71.031862 0Z" fill="#FFA8CB" /><path d="M315.843383 300.019414a35.515931 18.219964 0 1 0 71.031861 0 35.515931 18.219964 0 1 0-71.031861 0Z" fill="#FFA8CB" /><path d="M396.417226 278.893455a14.999971 14.999971 0 0 1-14.999971-14.99997v-17.697966c0-8.283984 6.713987-14.999971 14.999971-14.999971s14.999971 6.715987 14.99997 14.999971v17.697966c0 8.285984-6.713987 14.999971-14.99997 14.99997zM566.746893 280.527452a14.997971 14.997971 0 0 1-14.999971-14.999971c0-3.861992-3.141994-7.003986-7.003986-7.003986s-7.001986 3.141994-7.001986 7.003986c0 8.285984-6.713987 14.999971-14.999971 14.999971s-14.999971-6.713987-14.999971-14.999971c0-20.40396 16.599968-37.003928 37.001928-37.003927 20.40396 0 37.003928 16.599968 37.003928 37.003927a14.999971 14.999971 0 0 1-14.999971 14.999971zM164.901678 545.166935a52.275898 52.275898 0 0 1-39.415923-17.951965 14.999971 14.999971 0 1 1 22.617956-19.709961 22.279956 22.279956 0 0 0 16.797967 7.661985 22.279956 22.279956 0 0 0 16.799967-7.661985 15.001971 15.001971 0 0 1 22.617956 19.709961 52.279898 52.279898 0 0 1-39.417923 17.951965z" fill="#495059" /><path d="M209.79959 364.259289m-14.079972 0a14.079973 14.079973 0 1 0 28.159945 0 14.079973 14.079973 0 1 0-28.159945 0Z" fill="#495059" /><path d="M119.999766 364.259289m-14.079973 0a14.079973 14.079973 0 1 0 28.159945 0 14.079973 14.079973 0 1 0-28.159945 0Z" fill="#495059" /><path d="M583.78286 154.175699c91.185822 20.68596 159.261689 102.2238 159.261689 199.66961v94.135816c0 101.487802-82.271839 183.759641-183.759641 183.759641H447.779125c162.393683-94.485815 189.917629-354.211308 136.003735-477.565067z" opacity=".05" /><path d="M529.526966 757.86252c-10.33798 0-20.38596-5.393989-25.87395-15.015971-8.143984-14.275972-3.171994-32.445937 11.101979-40.589921l0.831998-0.473999c6.841987-3.883992 25.011951-14.209972 38.015926-31.539938 9.861981-13.143974 28.513944-15.803969 41.657918-5.943988 13.145974 9.861981 15.807969 28.513944 5.943989 41.657918-20.43396 27.237947-47.369907 42.541917-56.22189 47.567907l-0.739999 0.421999a29.595942 29.595942 0 0 1-14.715971 3.915993z" fill="#498A68" /><path d="M106.313792 203.901602c-6.611987 12.095976-23.983953 12.095976-30.59794 0A150.385706 150.385706 0 0 0 15.885969 144.071719c-12.095976-6.611987-12.095976-23.983953 0-30.595941a150.385706 150.385706 0 0 0 59.829883-59.829883c6.611987-12.095976 23.983953-12.095976 30.59794 0a150.385706 150.385706 0 0 0 59.829884 59.829883c12.095976 6.611987 12.095976 23.983953 0 30.595941a150.385706 150.385706 0 0 0-59.829884 59.829883zM844.97435 221.937567c-6.611987 12.095976-23.983953 12.095976-30.595941 0a150.385706 150.385706 0 0 0-59.829883-59.829884c-12.095976-6.611987-12.095976-23.983953 0-30.59594a150.385706 150.385706 0 0 0 59.829883-59.829883c6.611987-12.095976 23.983953-12.095976 30.595941 0a150.385706 150.385706 0 0 0 59.829883 59.829883c12.095976 6.611987 12.095976 23.983953 0 30.59594a150.385706 150.385706 0 0 0-59.829883 59.829884zM837.852364 680.654671c-5.427989 9.929981-19.689962 9.929981-25.117951 0a123.445759 123.445759 0 0 0-49.115904-49.115904c-9.929981-5.427989-9.929981-19.689962 0-25.117951a123.471759 123.471759 0 0 0 49.115904-49.115904c5.427989-9.929981 19.689962-9.929981 25.117951 0a123.459759 123.459759 0 0 0 49.115904 49.115904c9.929981 5.427989 9.929981 19.689962 0 25.117951a123.471759 123.471759 0 0 0-49.115904 49.115904z" fill="#FAE17C" /><path d="M776.190484 220.679569C712.146609 97.41381 478.593065 17.455966 371.961274 122.075762c-32.237937 45.747911 107.023791 90.283824 269.453473 102.4358 13.179974 0.985998 23.987953 10.853979 26.253949 23.875953 13.655973 78.479847 31.441939 196.865615 106.143793 237.121537 9.983981 5.379989 22.605956 1.355997 27.499946-8.875983 21.539958-45.015912 33.227935-159.973688-25.121951-255.9535z" fill="#806C6C" /></svg>