<?xml version="1.0" standalone="no"?><!DOCTYPE svg PUBLIC "-//W3C//DTD SVG 1.1//EN" "http://www.w3.org/Graphics/SVG/1.1/DTD/svg11.dtd"><svg class="icon" width="200px" height="200.00px" viewBox="0 0 1024 1024" version="1.1" xmlns="http://www.w3.org/2000/svg"><path d="M664.7 804.35c-12.866 0-24.478-8.878-27.43-21.956-3.424-15.164 6.094-30.232 21.256-33.654l0.618-0.14c8.692-1.958 31.786-7.164 47.092-18.274 12.576-9.136 30.182-6.336 39.314 6.242 9.132 12.58 6.338 30.182-6.244 39.314-24.688 17.924-55.998 24.98-67.784 27.636l-0.596 0.134a28.23 28.23 0 0 1-6.226 0.698z" fill="#498A68" /><path d="M474.072 895.872c-131.352 0-282.514 0-393.176-70.652-18.936-12.09-7.984-41.29 14.284-38.316 87.634 11.698 161.246-10.608 203.22-46.744l175.672 155.712z" fill="#5CB38E" /><path d="M248.852 769.97c1.464 41.948 7.902 83.82 33.762 118.636 64.032 7.266 129.92 7.266 191.458 7.266l-175.67-155.71c-13.456 11.582-30.174 21.732-49.55 29.808z" opacity=".1" /><path d="M415.268 1024a44.34 44.34 0 0 1-3.366-0.128c-23.844-1.834-41.69-22.65-39.858-46.494 1.664-21.644-0.12-93.818-3.224-109.8-7.128-21.458 3.532-45.058 24.774-53.712 22.144-9.014 47.418 1.618 56.44 23.768 11.672 28.654 8.896 139.45 8.362 146.38-1.744 22.716-20.72 39.986-43.128 39.986z m-45.46-153.742zM572.314 1024c-1.114 0-2.24-0.042-3.37-0.13-23.844-1.836-41.688-22.652-39.852-46.498 1.666-21.638-0.118-93.808-3.224-109.792-7.128-21.456 3.528-45.056 24.768-53.712 22.148-9.024 47.42 1.612 56.444 23.76 11.68 28.662 8.898 139.458 8.364 146.39C613.696 1006.732 594.72 1024 572.314 1024z m-45.458-153.738l0.018 0.048-0.018-0.048z" fill="#498A68" /><path d="M616.114 943.886c-0.034-36.808-1.622-88.068-9.034-106.258-9.024-22.148-34.296-32.784-56.444-23.76-21.242 8.656-31.896 32.256-24.768 53.712 2.49 12.818 4.13 61.744 3.822 91.792 33.43-2.196 62.078-7.306 86.424-15.486zM393.594 813.864c-21.244 8.654-31.902 32.254-24.774 53.712 2.17 11.17 3.692 49.774 3.846 79.404 24.568 7.104 53.208 11.366 86.32 12.944 0.4-35.986-0.384-101.26-8.95-122.292-9.024-22.15-34.296-32.782-56.442-23.768z" opacity=".1" /><path d="M687.16 743.086c0 101.094-13.732 174.246-197.704 174.246s-197.704-73.15-197.704-174.246c0-101.094 88.516-183.048 197.704-183.048 109.19 0 197.704 81.954 197.704 183.048z" fill="#5CB38E" /><path d="M687.16 743.086c0-0.806-0.022-1.606-0.032-2.41-41.178-10.568-122.858-13.642-179.698 46.764-41.42 44.018-47.414 91.518-42.97 129.402 7.962 0.324 16.286 0.488 24.996 0.488 183.972 0.002 197.704-73.148 197.704-174.244z" fill="#9BDFC1" /><path d="M451.924 563.348c-91.238 16.236-160.172 90.528-160.172 179.74 0 93.608 11.796 163.248 159.594 173.05-82.062-83.294-66.19-255.272 0.578-352.79z" opacity=".05" /><path d="M670.93 296.414a182.334 182.334 0 0 0-152.09-81.762h-75.238c-106.966 0-193.68 86.714-193.68 193.68v89.046c0 96.002 77.824 173.826 173.826 173.826h398.834c71.916 0 130.216-58.3 130.216-130.216v-60.604c0-71.916-58.3-130.216-130.216-130.216h-51.666a119.88 119.88 0 0 1-99.986-53.754z" fill="#5CB38E" /><path d="M952.798 480.382c0-71.916-58.3-130.216-130.216-130.216h-51.666a119.868 119.868 0 0 1-99.986-53.752 182.334 182.334 0 0 0-152.09-81.762h-75.238c-106.966 0-193.68 86.714-193.68 193.68v9.852h17.72a53.474 53.474 0 0 1 45.64 25.608l12.272 20.098c9.182 15.04 28.362 20.528 44.11 12.622l30.524-15.322a53.53 53.53 0 0 1 63.694 11.912l13.182 14.56a53.566 53.566 0 0 0 46.202 17.218l16.35-1.998c22.376-2.734 40.984 17.02 36.918 39.192l-3.17 17.296c-3.336 18.196 8.558 35.7 26.704 39.298l15.14 3.002a42.056 42.056 0 0 1 28.756 21.15l26.324 48.384h50.726l14.958-22.352c18.868-28.194 57.104-35.602 85.138-16.494l45.682 31.136c50.154-18.102 86.01-66.112 86.01-122.508v-60.604h-0.004z" fill="#806C6C" /><path d="M355.138 539.7m-13.33 0a13.33 13.33 0 1 0 26.66 0 13.33 13.33 0 1 0-26.66 0Z" opacity=".1" /><path d="M449.898 560.04m-13.33 0a13.33 13.33 0 1 0 26.66 0 13.33 13.33 0 1 0-26.66 0Z" opacity=".1" /><path d="M395.658 605.5m-13.33 0a13.33 13.33 0 1 0 26.66 0 13.33 13.33 0 1 0-26.66 0Z" opacity=".1" /><path d="M350.462 379.06a33.596 17.236 0 1 0 67.192 0 33.596 17.236 0 1 0-67.192 0Z" fill="#FFA8CB" /><path d="M576.002 379.06a33.596 17.236 0 1 0 67.192 0 33.596 17.236 0 1 0-67.192 0Z" fill="#FFA8CB" /><path d="M419.038 329.02m-51.566 0a51.566 51.566 0 1 0 103.132 0 51.566 51.566 0 1 0-103.132 0Z" fill="#9BDFC1" /><path d="M432.61 327.232a15 15 0 0 1-10.608-25.606l1.984-1.984a15 15 0 0 1 21.214 21.214l-1.984 1.984a14.962 14.962 0 0 1-10.606 4.392zM425.292 373.284a15.002 15.002 0 0 1-13.908-9.374l-0.79-1.954a15 15 0 0 1 8.272-19.534 14.996 14.996 0 0 1 19.534 8.272l0.79 1.954a15 15 0 0 1-8.272 19.534 14.96 14.96 0 0 1-5.626 1.102zM396.364 345.54a15.72 15.72 0 0 1-1.016-0.034l-2.104-0.14a15 15 0 0 1-13.966-15.968c0.552-8.266 7.744-14.498 15.966-13.966l2.104 0.14a15 15 0 0 1 13.966 15.968 15 15 0 0 1-14.95 14z" fill="#FFFFFF" opacity=".5" /><path d="M574.638 329.02m-51.566 0a51.566 51.566 0 1 0 103.132 0 51.566 51.566 0 1 0-103.132 0Z" fill="#9BDFC1" /><path d="M561.052 327.232a14.956 14.956 0 0 1-10.608-4.394l-1.984-1.984a15 15 0 1 1 21.216-21.214l1.984 1.984a15 15 0 0 1 0 21.212 14.958 14.958 0 0 1-10.608 4.396zM568.372 373.284a15 15 0 0 1-13.898-20.634l0.792-1.954a15 15 0 0 1 27.806 11.262l-0.79 1.954a15.012 15.012 0 0 1-13.91 9.372zM597.298 345.54a15 15 0 0 1-0.986-29.968l2.104-0.14a15.002 15.002 0 0 1 2 29.934l-2.104 0.14a15.656 15.656 0 0 1-1.014 0.034z" fill="#FFFFFF" opacity=".5" /><path d="M796.81 590.12a50.264 50.264 0 0 1-37.898-17.258 15 15 0 0 1 22.618-19.71c3.86 4.428 9.43 6.968 15.282 6.968s11.422-2.542 15.284-6.97a15.002 15.002 0 0 1 22.614 19.714 50.286 50.286 0 0 1-37.9 17.256z" fill="#495059" /><path d="M754.338 418.18m-13.33 0a13.33 13.33 0 1 0 26.66 0 13.33 13.33 0 1 0-26.66 0Z" fill="#495059" /><path d="M839.278 418.18m-13.33 0a13.33 13.33 0 1 0 26.66 0 13.33 13.33 0 1 0-26.66 0Z" fill="#495059" /><path d="M400.574 219.456c-86.256 19.568-150.652 96.698-150.652 188.876v89.048c0 96.002 77.824 173.826 173.826 173.826h105.478c-153.614-89.382-179.652-335.066-128.652-451.75z" opacity=".05" /><path d="M334.446 134.532c-13.102-36.612 10.92-118.914 90.024-132.548 79.104-13.632 106.852 56.886 105.11 103.68l-195.134 28.868z" fill="#E5E5E5" /><path d="M334.446 134.532c-13.102-36.612 10.92-118.914 90.024-132.548 79.104-13.632 106.852 56.886 105.11 103.68l-195.134 28.868z" opacity=".1" /><path d="M303.412 213.348c-7.63-26.596-20.066-114.38 85.11-143.518 107.794-29.864 196.282 5.156 196.95 77.61l-282.06 65.908z" fill="#E5E5E5" /><path d="M303.412 213.348c-7.63-26.596-20.066-114.38 85.11-143.518 107.794-29.864 196.282 5.156 196.95 77.61l-282.06 65.908z" opacity=".05" /><path d="M607.532 249.38L323.18 279.266c-29.98 3.15-54.934-22.722-50.7-52.57a71.928 71.928 0 0 1 58.68-60.724l219.184-38.79c34.42-6.092 68.066 14.104 78.88 47.342l8.98 27.602c7.132 21.924-7.746 44.844-30.672 47.254zM325.652 45.592c13.22-27.63 75.99-56.954 99.688-41.144 20.06 13.382-24.298 109.798-61.54 118.804-37.24 9.006-53.272-46.05-38.148-77.66z" fill="#E5E5E5" /><path d="M509.454 844.332c-2.998 0-6.048-0.484-9.046-1.5-39.03-13.242-49.504-42.222-56.434-61.398-5.284-14.62 2.284-30.756 16.902-36.04 14.616-5.286 30.754 2.284 36.038 16.904 6.54 18.092 9.512 23.13 21.58 27.224 14.722 4.996 22.606 20.978 17.612 35.698-3.976 11.724-14.924 19.112-26.652 19.112z" fill="#498A68" /></svg>