<?xml version="1.0" standalone="no"?><!DOCTYPE svg PUBLIC "-//W3C//DTD SVG 1.1//EN" "http://www.w3.org/Graphics/SVG/1.1/DTD/svg11.dtd"><svg class="icon" width="200px" height="200.00px" viewBox="0 0 1024 1024" version="1.1" xmlns="http://www.w3.org/2000/svg"><path d="M362.896291 841.678356c-13.445974 0-25.307951-9.721981-27.567946-23.421954-2.517995-15.24397 7.799985-29.641942 23.043955-32.157937 16.731967-2.761995 35.75193-18.377964 42.001918-23.509954 0.907998-0.745999 1.665997-1.363997 2.253996-1.833997 12.095976-9.609981 29.695942-7.599985 39.307923 4.499991 9.611981 12.095976 7.597985 29.695942-4.499991 39.307924-0.407999 0.323999-0.929998 0.753999-1.559997 1.271997-15.823969 12.991975-40.129922 30.80394-68.391867 35.467931-1.539997 0.252-3.073994 0.375999-4.587991 0.375999z" fill="#498A68" /><path d="M353.710309 822.008395a14.987971 14.987971 0 0 1-9.177982-3.133994c-41.501919-32.099937-93.825817-107.037791-133.30374-190.915627-34.233933-72.735858-75.041853-184.901639-75.041853-306.197402a14.999971 14.999971 0 0 1 29.999941 0c0 90.311824 25.63595 194.51962 72.185859 293.421426 28.351945 60.237882 63.103877 115.207775 94.787815 151.219705-2.617995-17.737965-5.903988-39.027924-9.567981-62.781877-19.101963-123.783758-47.967906-310.847393-47.967906-419.599181a14.999971 14.999971 0 0 1 29.999941 0c0 106.449792 28.655944 292.145429 47.617907 415.02319 7.479985 48.471905 13.387974 86.757831 15.39197 106.443792a14.999971 14.999971 0 0 1-14.923971 16.519968z" fill="#495059" /><path d="M406.526206 115.905774c0 64.011875-51.891899 168.117672-115.905774 168.117671-64.011875 0-115.903774-104.105797-115.903773-168.117671S226.608557 0 290.622432 0c64.011875 0 115.903774 51.891899 115.903774 115.905774z" fill="#A3E3FF" /><path d="M279.226455 0.563999c-58.661885 5.725989-104.509796 55.173892-104.509796 115.341775 0 64.011875 51.891899 168.117672 115.903773 168.117671 23.795954 0 45.91391-14.391972 64.315875-35.75593-113.605778 12.621975-116.767772-186.537636-75.709852-247.703516z" opacity=".1" /><path d="M605.983816 900.462241c124.785756 0 268.391476 0 373.523271-67.119869 17.989965-11.485978 7.585985-39.225923-13.569974-36.401929-83.253837 11.113978-153.185701-10.07798-193.061623-44.405913l-166.891674 147.927711z" fill="#5CB38E" /><path d="M819.945399 780.854475c-1.389997 39.851922-7.507985 79.629844-32.073938 112.70578-60.831881 6.901987-123.425759 6.901987-181.887645 6.901986l166.889674-147.927711c12.781975 11.003979 28.665944 20.64796 47.071909 28.319945z" opacity=".1" /><path d="M661.921707 1023.998c-16.095969 0-31.531938-9.069982-38.901924-24.575952-23.821953-50.121902-17.457966-119.391767-7.851984-151.281705 6.855987-22.759956 30.86594-35.65193 53.625895-28.795943 22.759956 6.855987 35.65193 30.86594 28.795944 53.625895-6.225988 20.66596-8.083984 65.807871 3.175993 89.501825 10.20398 21.467958 1.071998 47.143908-20.39796 57.347888a42.849916 42.849916 0 0 1-18.445964 4.177992zM506.85801 1023.998c-18.595964 0-35.74793-12.147976-41.267919-30.89394-17.739965-60.245882 13.015975-138.585729 19.805961-151.513704 11.053978-21.041959 37.071928-29.143943 58.117886-18.091964 21.007959 11.033978 29.115943 36.979928 18.149965 58.003886-6.331988 12.855975-20.755959 62.645878-13.497974 87.28583 6.713987 22.801955-6.327988 46.729909-29.129943 53.443895-4.059992 1.195998-8.153984 1.765997-12.177976 1.765997z" fill="#498A68" /><path d="M697.589638 872.970295c6.855987-22.759956-6.035988-46.769909-28.795944-53.625895-22.759956-6.855987-46.769909 6.035988-53.625895 28.795943-7.459985 24.761952-12.953975 72.059859-3.887993 115.431775 32.877936-1.031998 61.34188-4.691991 85.797833-11.135978-7.023986-24.791952-4.91999-61.43788 0.511999-79.465845zM543.511938 823.498392c-21.043959-11.051978-47.063908-2.951994-58.117886 18.091964-5.03399 9.585981-23.227955 55.137892-25.075951 102.6098 23.921953 9.423982 52.559897 15.37397 86.493831 18.039965-3.579993-26.023949 9.035982-68.933865 14.849971-80.735843 10.965979-21.025959 2.855994-46.971908-18.149965-58.005886z" opacity=".1" /><path d="M403.546212 755.314525c0 96.041812 13.045975 165.535677 187.821633 165.535676 174.777659 0 187.821633-69.493864 187.821633-165.535676s-84.091836-173.89966-187.821633-173.899661-187.821633 77.857848-187.821633 173.899661z" fill="#5CB38E" /><path d="M403.546212 755.314525c0-0.765999 0.02-1.525997 0.032-2.289996 39.119924-10.03998 116.717772-12.959975 170.715666 44.425913 39.349923 41.817918 45.043912 86.94383 40.821921 122.93376-7.563985 0.307999-15.47197 0.463999-23.745954 0.463999-174.779659 0.002-187.823633-69.491864-187.823633-165.533676z" fill="#9BDFC1" /><path d="M627.023775 584.558858c86.677831 15.42397 152.165703 86.003832 152.165703 170.755667 0 88.929826-11.205978 155.087697-151.617704 164.401679 77.959848-79.129845 62.881877-242.513526-0.547999-335.157346z" opacity=".05" /><path d="M418.966182 330.967354a173.219662 173.219662 0 0 1 144.487718-77.675849h71.47586c101.619802 0 183.999641 82.379839 183.999641 183.997641v84.595835c0 91.201822-73.933856 165.137677-165.137678 165.137677h-378.89926c-68.321867 0-123.707758-55.385892-123.707758-123.707758V505.739012c0-68.321867 55.385892-123.707758 123.707758-123.707758h49.083904a113.873778 113.873778 0 0 0 94.989815-51.0639z" fill="#5CB38E" /><path d="M299.376415 624.984779c-22.325956 0-40.425921-18.099965-40.425921-40.425921V562.798901a18.665964 18.665964 0 0 1 18.665964-18.665964h43.517915a18.665964 18.665964 0 0 1 18.665963 18.665964v21.759957c0.002 22.325956-18.097965 40.425921-40.423921 40.425921z" fill="#495059" /><path d="M718.979596 562.098902m-12.661976 0a12.661975 12.661975 0 1 0 25.323951 0 12.661975 12.661975 0 1 0-25.323951 0Z" opacity=".1" /><path d="M628.959772 581.418864m-12.663976 0a12.663975 12.663975 0 1 0 25.327951 0 12.663975 12.663975 0 1 0-25.327951 0Z" opacity=".1" /><path d="M680.479671 624.61878m-12.663975 0a12.663975 12.663975 0 1 0 25.32795 0 12.663975 12.663975 0 1 0-25.32795 0Z" opacity=".1" /><path d="M339.720336 446.659128m-12.663975 0a12.663975 12.663975 0 1 0 25.327951 0 12.663975 12.663975 0 1 0-25.327951 0Z" fill="#495059" /><path d="M259.020494 446.659128m-12.661975 0a12.661975 12.661975 0 1 0 25.32395 0 12.661975 12.661975 0 1 0-25.32395 0Z" fill="#495059" /><path d="M650.943729 388.91924a31.915938 16.373968 0 1 0 63.831875 0 31.915938 16.373968 0 1 0-63.831875 0Z" fill="#FFA8CB" /><path d="M436.664147 388.91924a31.915938 16.373968 0 1 0 63.831875 0 31.915938 16.373968 0 1 0-63.831875 0Z" fill="#FFA8CB" /><path d="M642.373745 371.457274a14.999971 14.999971 0 0 1-14.99997-14.99997v-15.903969a14.999971 14.999971 0 0 1 29.999941 0v15.903969a14.999971 14.999971 0 0 1-14.999971 14.99997zM509.080006 371.457274a14.999971 14.999971 0 0 1-14.999971-14.99997v-15.903969a14.999971 14.999971 0 0 1 29.999941 0v15.903969a14.999971 14.999971 0 0 1-14.99997 14.99997z" fill="#495059" /><path d="M675.80768 257.857496c81.94584 18.589964 143.12172 91.863821 143.121721 179.43365v84.595835c0 91.201822-73.933856 165.137677-165.137678 165.137677h-100.205804c145.935715-84.911834 170.671667-318.315378 122.221761-429.167162z" opacity=".05" /><path d="M572.347882 852.732335c-4.445991 0-8.955983-1.061998-13.151974-3.301994-13.629973-7.275986-18.779963-24.225953-11.501978-37.855926 14.539972-27.233947 36.517929-44.635913 43.741915-50.353902l0.591999-0.467999c12.097976-9.609981 29.695942-7.597985 39.305923 4.499991 9.611981 12.095976 7.597985 29.695942-4.499991 39.305924l-0.665999 0.527999c-5.487989 4.343992-20.063961 15.885969-29.117943 32.841935-5.03599 9.433982-14.705971 14.803971-24.701952 14.803972z" fill="#498A68" /><path d="M715.029603 285.487442a786.978463 786.978463 0 0 1-228.495553 0c-9.055982-1.327997-14.031973-11.259978-9.673981-19.309962l118.845768-219.501571c2.181996-4.031992 7.967984-4.031992 10.15198 0l118.845768 219.501571c4.357991 8.049984-0.615999 17.981965-9.673982 19.309962z" fill="#CD5B5B" /><path d="M643.379743 115.977773c-42.155918 37.537927-88.929826 64.887873-130.421745 83.533837l-36.095929 66.66787c-2.459995 4.541991-1.943996 9.683981 0.597998 13.539974 53.943895-17.071967 129.153748-51.553899 196.245617-107.73579L643.379743 115.977773z" fill="#FAE17C" /><path d="M267.090478 153.6437c0 64.011875-51.891899 168.117672-115.903773 168.117672S35.280931 217.655575 35.280931 153.6437s51.891899-115.905774 115.905774-115.905774c64.009875 0 115.903774 51.893899 115.903773 115.905774z" fill="#CD5B5B" /><path d="M139.790727 38.301925C81.126842 44.027914 35.280931 93.477817 35.280931 153.6437c0 64.011875 51.891899 168.117672 115.905774 168.117672 23.795954 0 45.91391-14.391972 64.315874-35.755931-113.607778 12.621975-116.769772-186.537636-75.711852-247.703516z" opacity=".1" /></svg>