<?xml version="1.0" standalone="no"?><!DOCTYPE svg PUBLIC "-//W3C//DTD SVG 1.1//EN" "http://www.w3.org/Graphics/SVG/1.1/DTD/svg11.dtd"><svg class="icon" width="200px" height="200.00px" viewBox="0 0 1024 1024" version="1.1" xmlns="http://www.w3.org/2000/svg"><path d="M191.595246 281.005451l-81.095842-50.607901c-9.069982-5.659989-20.70796 1.459997-19.797961 12.111976l6.837986 80.121844a12.973975 12.973975 0 0 1-7.833984 13.035974L7.881605 370.605276c-10.997979 4.695991-10.32798 20.50796 1.027998 24.255953l62.259878 20.54596c8.475983 2.795995 11.661977 13.115974 6.239988 20.20596L13.601593 519.036986c-7.917985 10.35398 2.659995 24.611952 14.863971 20.031961l102.259801-38.365925a12.973975 12.973975 0 0 1 16.953967 8.313984l24.679951 79.795844c2.963994 9.583981 15.21597 12.321976 21.979957 4.91399l94.501816-103.523797a12.979975 12.979975 0 0 1 14.881971-3.097994l95.587813 42.753916c11.285978 5.04799 22.567956-7.051986 16.743967-17.957965l-55.165892-103.295798a12.971975 12.971975 0 0 1 0.517999-13.107974l64.831874-101.281803c6.451987-10.07998-3.019994-22.775956-14.519972-19.463962l-73.421857 21.147959a12.975975 12.975975 0 0 1-14.609971-5.617989l-58.729885-94.447815c-5.595989-8.997982-19.033963-7.859985-23.033956 1.951996l-31.443938 77.109849c-3.037994 7.451985-12.055976 10.36998-18.883963 6.109988z" fill="#FF85B6" /><path d="M46.899528 627.172775a14.999971 14.999971 0 0 1-9.683981-26.459948l33.661935-28.425945a14.999971 14.999971 0 0 1 19.353962 22.921955l-33.661934 28.425945a14.951971 14.951971 0 0 1-9.669982 3.537993z" fill="#FFA8CB" /><path d="M165.249297 204.7096a14.951971 14.951971 0 0 1-10.15398-3.961992l-27.147947-24.979951a14.999971 14.999971 0 0 1 20.31596-22.075957l27.147947 24.979951a14.999971 14.999971 0 0 1-10.16198 26.037949zM598.592451 693.872645l89.815824 20.47196a11.599977 11.599977 0 0 1 8.655984 8.413983l31.047939 120.359765c2.633995 10.20998 16.421968 11.895977 21.437958 2.621995l55.403892-102.4338a11.603977 11.603977 0 0 1 13.627973-5.565989l104.673796 32.323937c8.953983 2.765995 17.321966-5.677989 14.477971-14.607972l-32.089937-100.717803a11.603977 11.603977 0 0 1 4.447991-13.059974l76.761851-53.163896c7.045986-4.87999 6.549987-15.45397-0.923999-19.651962l-77.505848-43.541915a11.603977 11.603977 0 0 1-5.881989-9.183982l-8.089984-100.439804c-0.805998-9.99398-13.053975-14.329972-19.967961-7.067986l-51.0699 53.649895c-5.19399 5.455989-14.127972 4.593991-18.181965-1.755996l-36.971928-57.911887c-5.437989-8.519983-18.411964-6.493987-20.995959 3.277993l-18.905963 71.509861a11.601977 11.601977 0 0 1-11.347977 8.635983l-87.557829-0.985998c-9.067982-0.102-14.741971 9.773981-10.087981 17.555965l44.795913 74.895854a11.599977 11.599977 0 0 1-1.077998 13.421974l-70.793862 84.171835c-5.585989 6.643987-2.161996 16.847967 6.303988 18.777964z" fill="#FAE17C" /><path d="M874.347912 843.976352a14.955971 14.955971 0 0 1-10.675979-4.461992l-29.319943-29.697942a15.001971 15.001971 0 0 1 21.349959-21.077959l29.319942 29.697942a15.001971 15.001971 0 0 1-10.673979 25.539951z" fill="#FFA8CB" /><path d="M942.741779 476.417069a14.999971 14.999971 0 0 1-14.895971-13.401973 14.999971 14.999971 0 0 1 13.313974-16.513968l66.23987-7.101986c8.225984-0.885998 15.629969 5.07799 16.513968 13.313974a14.999971 14.999971 0 0 1-13.313974 16.513968l-66.23987 7.101986c-0.543999 0.06-1.083998 0.088-1.617997 0.087999z" fill="#FAE17C" /><path d="M463.592715 782.780471c-133.13174 0-286.341441 0-398.501222-71.60786-19.193963-12.253976-8.091984-41.847918 14.477972-38.835924 88.821827 11.857977 163.429681-10.751979 205.973597-47.375908l178.049653 157.819692z" fill="#5CB38E" /><path d="M235.32316 655.17272c1.483997 42.515917 8.009984 84.955834 34.217934 120.241766 64.899873 7.363986 131.679743 7.363986 194.051621 7.363985l-178.049653-157.819692c-13.637973 11.739977-30.58194 22.027957-50.219902 30.213941z" opacity=".1" /><path d="M403.906831 912.650217a43.679915 43.679915 0 0 1-20.929959-5.341989c-21.293958-11.579977-29.169943-38.231925-17.587966-59.525884 12.295976-22.611956 5.479989-67.101869-5.11599-86.059832-11.825977-21.159959-4.259992-47.899906 16.897967-59.725883 21.157959-11.829977 47.897906-4.259992 59.725884 16.897967 20.73196 37.091928 36.175929 114.611776 5.605989 170.825666-7.959984 14.631971-23.033955 22.929955-38.595925 22.929955zM592.662462 903.354236c-1.937996 0-3.897992-0.128-5.871988-0.392-24.025953-3.211994-40.89792-25.293951-37.685926-49.319903 1.933996-14.463972-7.025986-43.029916-26.627948-84.905834-2.361995-5.04599-4.069992-8.693983-5.36199-11.867977-9.141982-22.437956 1.635997-48.013906 24.067953-57.169889 22.427956-9.155982 48.049906 1.621997 57.221888 24.047953 0.463999 1.133998 2.187996 4.815991 3.571993 7.775985 5.711989 12.199976 15.26997 32.617936 22.855956 55.017893 10.519979 31.059939 14.207972 56.813889 11.277978 78.735846-2.949994 22.051957-21.793957 38.077926-43.447916 38.077926z" fill="#498A68" /><path d="M778.798099 681.550669c0 63.757875-27.913945 75.595852-72.771858 75.595852s-68.943865-25.871949-68.943865-75.595852 24.085953-75.595852 68.943865-75.595853 72.771858 11.837977 72.771858 75.595853z" fill="#CD5B5B" /><path d="M637.080376 681.550669c0 45.95791 20.58996 71.51986 59.121884 75.133853 21.261958-38.811924 23.365954-84.571835 23.365955-128.759748 0-7.287986-0.383999-14.489972-1.107998-21.603958a195.891617 195.891617 0 0 0-12.435976-0.366c-44.857912 0-68.943865 25.871949-68.943865 75.595853zM624.8324 786.540464c-7.585985-22.399956-17.143967-42.817916-22.855956-55.017893-1.383997-2.957994-3.107994-6.639987-3.571993-7.775985-9.171982-22.425956-34.793932-33.203935-57.221888-24.047953-22.431956 9.157982-33.209935 34.731932-24.067953 57.169889 1.293997 3.173994 2.999994 6.821987 5.36199 11.867977 16.041969 34.269933 24.945951 59.611884 26.593948 75.619852 33.633934-4.339992 61.743879-12.205976 84.953834-23.801954-2.035996-10.589979-5.08799-21.893957-9.191982-34.013933zM377.170883 701.996629c-21.157959 11.825977-28.723944 38.565925-16.897967 59.725883 9.087982 16.259968 15.38197 51.2879 9.237982 75.199853 25.055951 6.347988 54.021894 10.01198 87.29983 11.121979 8.807983-48.245906-3.979992-100.637803-19.913961-129.147748-11.829977-21.159959-38.569925-28.729944-59.725884-16.899967z" opacity=".1" /><path d="M679.568293 627.924774c0 102.4638-13.917973 176.605655-200.383609 176.605655S278.801075 730.388573 278.801075 627.924774s89.713825-185.527638 200.383609-185.527638 200.383609 83.063838 200.383609 185.527638z" fill="#5CB38E" /><path d="M679.568293 627.924774c0-0.815998-0.022-1.627997-0.034-2.441996-41.735918-10.709979-124.521757-13.825973-182.131644 47.397908-41.979918 44.613913-48.055906 92.757819-43.551915 131.155744 8.069984 0.327999 16.507968 0.493999 25.33395 0.493999 186.465636 0 200.383609-74.141855 200.383609-176.605655z" fill="#9BDFC1" /><path d="M441.144758 445.749129c-92.473819 16.455968-162.341683 91.753821-162.341683 182.173645 0 94.875815 11.955977 165.459677 161.755685 175.395657-83.171838-84.419835-67.085869-258.729495 0.585998-357.569302z" opacity=".05" /><path d="M679.418293 194.219621a184.801639 184.801639 0 0 0-154.149699-82.869838h-76.255851c-108.415788 0-196.303617 87.887828-196.303617 196.303616v90.253824c0 97.30181 78.877846 176.179656 176.179656 176.179656h404.237211c72.891858 0 131.981742-59.089885 131.981742-131.981742V380.679256c0-72.891858-59.089885-131.981742-131.981742-131.981742H780.760095a121.489763 121.489763 0 0 1-101.341802-54.477893z" fill="#5CB38E" /><path d="M807.000044 476.699069m-49.407904 0a49.407904 49.407904 0 1 0 98.815807 0 49.407904 49.407904 0 1 0-98.815807 0Z" fill="#495059" /><path d="M359.340918 440.799139m-13.509973 0a13.509974 13.509974 0 1 0 27.019947 0 13.509974 13.509974 0 1 0-27.019947 0Z" opacity=".1" /><path d="M455.380731 461.419099m-13.509974 0a13.509974 13.509974 0 1 0 27.019947 0 13.509974 13.509974 0 1 0-27.019947 0Z" opacity=".1" /><path d="M400.420838 507.499009m-13.509974 0a13.509974 13.509974 0 1 0 27.019948 0 13.509974 13.509974 0 1 0-27.019948 0Z" opacity=".1" /><path d="M345.820945 256.0395a34.059933 17.467966 0 1 0 68.119867 0 34.059933 17.467966 0 1 0-68.119867 0Z" fill="#FFA8CB" /><path d="M574.420498 256.0395a34.059933 17.467966 0 1 0 68.119867 0 34.059933 17.467966 0 1 0-68.119867 0Z" fill="#FFA8CB" /><path d="M423.080794 236.411538a14.999971 14.999971 0 0 1-14.999971-14.99997v-16.967967a14.999971 14.999971 0 0 1 29.999941 0v16.967967a14.999971 14.999971 0 0 1-14.99997 14.99997zM565.288516 236.411538a14.999971 14.999971 0 0 1-14.999971-14.99997v-16.967967a14.999971 14.999971 0 0 1 29.999942 0v16.967967a14.999971 14.999971 0 0 1-14.999971 14.99997z" fill="#495059" /><path d="M429.99078 200.707608a15.11997 15.11997 0 0 1-1.611997-0.086l-32.075937-3.423993a14.999971 14.999971 0 0 1 3.185994-29.829942l32.075937 3.423993a15.001971 15.001971 0 1 1-1.573997 29.915942zM558.376529 200.707608a14.999971 14.999971 0 0 1-1.573997-29.915942l32.075938-3.423993a14.999971 14.999971 0 0 1 3.185994 29.829942l-32.075938 3.423993c-0.539999 0.058-1.077998 0.086-1.611997 0.086z" fill="#495059" /><path d="M763.960128 317.63938m-13.509974 0a13.509974 13.509974 0 1 0 27.019948 0 13.509974 13.509974 0 1 0-27.019948 0Z" fill="#495059" /><path d="M850.05996 317.63938m-13.509974 0a13.509974 13.509974 0 1 0 27.019947 0 13.509974 13.509974 0 1 0-27.019947 0Z" fill="#495059" /><path d="M405.400828 116.217773c-87.423829 19.833961-152.693702 98.007809-152.693702 191.433626v90.253824c0 97.30181 78.877846 176.179656 176.179656 176.179656h106.905792C380.100878 483.497056 353.710929 234.483542 405.400828 116.217773z" opacity=".05" /><path d="M499.444645 730.542573a28.459944 28.459944 0 0 1-10.55198-2.033996c-28.019945-11.165978-48.307906-30.48994-62.019879-59.073884-6.815987-14.205972-0.821998-31.247939 13.383974-38.059926 14.207972-6.811987 31.247939-0.819998 38.059926 13.383974 5.31199 11.075978 13.233974 23.389954 31.697938 30.74794 14.635971 5.831989 21.773957 22.425956 15.939969 37.061927-4.451991 11.169978-15.17397 17.973965-26.509948 17.973965z" fill="#498A68" /><path d="M550.800544 671.202689l-45.667911-26.365948a14.473972 14.473972 0 0 0-19.771961 5.297989l-34.861932 60.381882a14.473972 14.473972 0 0 0 5.29799 19.771962l45.667911 26.365948 49.335903-85.451833z" fill="#E5E5E5" /><path d="M630.312389 774.076488c-31.879938 55.215892-61.971879 51.511899-100.819803 29.081943s-46.771909-56.877889-21.909957-99.939804 58.657885-53.425896 97.505809-30.99594c38.847924 22.427956 57.103888 46.637909 25.223951 101.853801z" fill="#CD5B5B" /></svg>