<?xml version="1.0" standalone="no"?><!DOCTYPE svg PUBLIC "-//W3C//DTD SVG 1.1//EN" "http://www.w3.org/Graphics/SVG/1.1/DTD/svg11.dtd"><svg class="icon" width="200px" height="200.00px" viewBox="0 0 1024 1024" version="1.1" xmlns="http://www.w3.org/2000/svg"><path d="M719.283951 822.439937c-28.955434 0-55.560915-15.527697-65.036729-21.057589l-1.205977-0.699986c-13.231742-7.573852-17.813652-24.439523-10.2398-37.669265s24.437523-17.813652 37.667265-10.2378l1.603968 0.929982c21.857573 12.755751 33.959337 14.281721 40.275214 13.31974 15.085705-2.293955 29.151431 8.049843 31.453385 23.117549 2.303955 15.069706-8.047843 29.151431-23.117548 31.455385a76.132513 76.132513 0 0 1-11.399778 0.841984z" fill="#498A68" /><path d="M474.808726 898.332454c-128.809484 0-277.046589 0-385.566469-69.284646-18.569637-11.855768-7.829847-40.489209 14.007726-37.575266 85.938322 11.471776 158.124912-10.403797 199.286108-45.839105l172.272635 152.699017z" fill="#5CB38E" /><path d="M253.94904 774.866866c1.435972 41.137197 7.749849 82.198395 33.107353 116.339728 62.792774 7.125861 127.405512 7.125861 187.752333 7.12586l-172.270635-152.697017c-13.193742 11.357778-29.589422 21.311584-48.589051 29.231429z" opacity=".1" /><path d="M417.143853 1023.98a43.599148 43.599148 0 0 1-3.299936-0.125997c-23.383543-1.797965-40.883201-22.211566-39.085237-45.59711 1.631968-21.221586-0.117998-92.000203-3.161938-107.671897-6.987864-21.041589 3.461932-44.185137 24.293526-52.670971 21.717576-8.845827 46.501092 1.585969 55.350919 23.305545 11.445776 28.099451 8.72383 136.749329 8.19984 143.547196-1.713967 22.277565-20.321603 39.213234-42.297174 39.213234z m-44.58113-150.767055l0.018 0.047999a0.287994 0.287994 0 0 0-0.018-0.047999zM571.150845 1023.98a42.779164 42.779164 0 0 1-3.305936-0.127997c-23.383543-1.799965-40.881202-22.213566-39.081236-45.59711 1.633968-21.217586-0.115998-91.984203-3.161939-107.665897-6.989863-21.041589 3.457932-44.185137 24.289526-52.672971 21.711576-8.847827 46.499092 1.577969 55.352919 23.299545 11.453776 28.107451 8.72583 136.759329 8.20384 143.557196-1.715966 22.273565-20.323603 39.207234-42.297174 39.207234z m-44.57713-150.759055a0.309994 0.309994 0 0 0 0.016 0.045999c-0.002-0.014-0.01-0.031999-0.016-0.045999z" fill="#498A68" /><path d="M614.098006 942.819586c-0.105998-35.869299-1.757966-84.190356-8.853827-101.604016-8.853827-21.721576-33.639343-32.147372-55.350919-23.299545-20.829593 8.489834-31.279389 31.631382-24.289526 52.672971 2.375954 12.225761 3.961923 57.936868 3.771927 87.54229 32.851358-2.165958 60.93081-7.217859 84.722345-15.3117zM395.888268 817.914025c-20.829593 8.485834-31.281389 31.629382-24.293526 52.670971 2.06596 10.631792 3.533931 46.619089 3.753927 75.29653 24.035531 7.029863 52.128982 11.24178 84.690346 12.79775 0.327994-35.731302-0.593988-97.306099-8.801828-117.457706-8.847827-21.721576-33.631343-32.155372-55.348919-23.307545z" opacity=".1" /><path d="M683.774645 748.503381c0 99.138064-13.465737 170.872663-193.878213 170.872662s-193.878213-71.734599-193.878214-170.872662 86.802305-179.504494 193.878214-179.504494 193.878213 80.36643 193.878213 179.504494z" fill="#5CB38E" /><path d="M683.774645 748.503381c0-0.789985-0.022-1.575969-0.031999-2.363954-40.381211-10.363798-120.479647-13.377739-176.218559 45.859104-40.617207 43.165157-46.495092 89.748247-42.139177 126.897522 7.807848 0.317994 15.971688 0.479991 24.511522 0.47999 180.412476 0 193.878213-71.734599 193.878213-170.872662z" fill="#9BDFC1" /><path d="M453.089151 572.242823c-89.472252 15.921689-157.072932 88.776266-157.072933 176.260558 0 91.796207 11.567774 160.088873 156.504944 169.700685-80.470428-81.680405-64.906732-250.329111 0.567989-345.961243z" opacity=".05" /><path d="M667.856956 310.475936a178.808508 178.808508 0 0 0-149.147087-80.180434h-73.782559c-104.895951 0-189.93029 85.034339-189.93029 189.93029v87.324295c0 94.142161 76.318509 170.460671 170.46067 170.460671h391.114361c70.524623 0 127.697506-57.170883 127.697506-127.697506v-59.43084c0-70.524623-57.170883-127.697506-127.697506-127.697505h-50.66701a117.543704 117.543704 0 0 1-98.048085-52.708971z" fill="#5CB38E" /><path d="M358.165005 549.049276m-13.071745 0a13.071745 13.071745 0 1 0 26.143489 0 13.071745 13.071745 0 1 0-26.143489 0Z" opacity=".1" /><path d="M451.103189 568.988887m-13.071744 0a13.071745 13.071745 0 1 0 26.143489 0 13.071745 13.071745 0 1 0-26.143489 0Z" opacity=".1" /><path d="M397.924228 613.588016m-13.071745 0a13.071745 13.071745 0 1 0 26.14349 0 13.071745 13.071745 0 1 0-26.14349 0Z" opacity=".1" /><path d="M351.479135 395.77227a32.945357 16.90167 0 1 0 65.890713 0 32.945357 16.90167 0 1 0-65.890713 0Z" fill="#FFA8CB" /><path d="M572.654815 395.77227a32.945357 16.90167 0 1 0 65.890713 0 32.945357 16.90167 0 1 0-65.890713 0Z" fill="#FFA8CB" /><path d="M440.139404 374.25269a14.999707 14.999707 0 0 1-14.999708-14.999707c0-4.199918-3.415933-7.615851-7.615851-7.615851s-7.615851 3.415933-7.615851 7.615851c0 8.283838-6.713869 14.999707-14.999707 14.999707s-14.999707-6.715869-14.999707-14.999707c0-20.741595 16.87567-37.615265 37.615265-37.615265s37.615265 16.87367 37.615266 37.615265a14.999707 14.999707 0 0 1-14.999707 14.999707zM595.100377 374.25269a14.999707 14.999707 0 0 1-14.999707-14.999707c0-4.199918-3.415933-7.615851-7.615851-7.615851s-7.615851 3.415933-7.615852 7.615851a14.999707 14.999707 0 0 1-29.999414 0c0-20.741595 16.87567-37.615265 37.615266-37.615265s37.615265 16.87367 37.615265 37.615265a14.999707 14.999707 0 0 1-14.999707 14.999707zM791.300545 598.788305a49.567032 49.567032 0 0 1-37.38127-17.025668 14.999707 14.999707 0 0 1 1.453972-21.161586 14.999707 14.999707 0 0 1 21.163586 1.453971 19.589617 19.589617 0 0 0 14.765712 6.733869 19.589617 19.589617 0 0 0 14.767711-6.733869 14.999707 14.999707 0 0 1 22.617559 19.707615 49.591031 49.591031 0 0 1-37.38727 17.025668z" fill="#495059" /><path d="M749.657358 429.891604m-13.071744 0a13.071745 13.071745 0 1 0 26.143489 0 13.071745 13.071745 0 1 0-26.143489 0Z" fill="#495059" /><path d="M832.955731 429.891604m-13.071744 0a13.071745 13.071745 0 1 0 26.143489 0 13.071745 13.071745 0 1 0-26.143489 0Z" fill="#495059" /><path d="M402.734134 235.00741c-84.586348 19.189625-147.737115 94.826148-147.737114 185.220382v87.324295c0 94.144161 76.318509 170.460671 170.46067 170.460671h103.43598c-150.639058-87.648288-176.172559-328.579582-126.159536-443.005348z" opacity=".05" /><path d="M398.566216 819.543993c-5.601891 0-11.175782-0.439991-16.621676-1.345973-15.037706-2.507951-25.195508-16.729673-22.687557-31.76538 2.507951-15.037706 16.749673-25.183508 31.76538-22.687557 13.423738 2.239956 29.303428-2.237956 35.709302-7.821847 11.493776-10.021804 28.927435-8.821828 38.94524 2.665948 10.017804 11.489776 8.825828 28.925435-2.665948 38.945239-15.965688 13.915728-40.413211 22.00957-64.444741 22.00957z" fill="#498A68" /><path d="M599.740286 3.995922a78.224472 78.224472 0 0 0-53.296959 24.391524c-7.365856 7.769848-19.513619 8.317838-27.379465 1.053979C496.924294 8.995824 466.580887-2.405953 434.19352 0.427992c-32.389367 2.833945-60.292822 19.329622-78.546466 43.311154-6.485873 8.519834-18.543638 10.087803-27.14747 3.715927-15.657694-11.599773-35.667303-17.453659-56.720892-14.765711-42.273174 5.399895-72.788578 44.397133-68.006672 86.742305 2.921943 25.869495 18.183645 47.497072 39.359231 59.500838a33.065354 33.065354 0 0 1 16.631676 25.885495l3.333934 38.103255 381.694545-33.393347-3.333934-38.103256a33.067354 33.067354 0 0 1 11.885767-28.381446c18.769633-15.499697 30.045413-39.44923 28.429445-65.432722-2.641948-42.533169-39.465229-75.638523-82.032398-73.614562z" fill="#E5E5E5" /><path d="M382.576528 247.469167a14.999707 14.999707 0 0 1-14.925709-13.693733l-5.875885-67.172688a15.003707 15.003707 0 0 1 13.635734-16.251683c8.253839-0.697986 15.527697 5.381895 16.249682 13.635734l5.875886 67.172688a14.999707 14.999707 0 0 1-14.959708 16.309682zM525.283741 234.98341a14.999707 14.999707 0 0 1-14.925709-13.693732l-5.875885-67.172688a15.001707 15.001707 0 0 1 13.635734-16.251683c8.251839-0.699986 15.529697 5.381895 16.249682 13.635734l5.877885 67.172688a14.999707 14.999707 0 0 1-14.961707 16.309681z" opacity=".1" /><path d="M631.82166 285.69042L289.100354 315.673834c-10.76179 0.941982-20.249604-7.019863-21.191587-17.781652l-4.809906-54.968927 381.694545-33.393347 4.809906 54.968926c0.941982 10.76179-7.019863 20.249604-17.781652 21.191586z" fill="#495059" /><path d="M247.859159 39.819222c-29.20543 14.141724-47.903064 45.799105-44.087139 79.612445 2.931943 25.977493 18.309642 47.675069 39.623226 59.650835 9.447815 5.307896 15.445698 15.171704 16.38968 25.969493l8.121841 92.842187c0.941982 10.76179 10.429796 18.723634 21.191587 17.781652l75.400527-6.597871c-26.213488-34.28333-37.121275-119.593664-40.795203-157.69692a32.851358 32.851358 0 0 0-16.351681-25.361504c-30.775399-17.665655-59.562837-59.41684-59.492838-86.200317z" opacity=".05" /><path d="M330.695541 529.39966c-23.797535-45.165118-86.188317-92.342196-133.811386-67.250686s-43.989141 103.225984-20.191606 148.393101c17.003668 32.27337 49.311037 50.897006 81.884401 50.72901a13.83973 13.83973 0 0 1 12.609753 7.875846l69.66864 146.773133c9.159821 19.297623 32.547364 27.083471 51.446995 17.125666 18.899631-9.957806 25.701498-33.649343 14.963708-52.116983l-81.664405-140.453256c-2.705947-4.651909-2.431953-10.431796 0.633987-14.85371 18.557638-26.771477 21.465581-63.946751 4.459913-96.222121z" fill="#FAE17C" /><path d="M805.306271 843.227531l35.631304-2.117959c5.717888-0.339993 11.357778-1.647968 16.557677-4.047921 27.545462-12.713752 47.741068-38.139255 53.524955-68.346665 2.307955-12.051765-7.463854-23.03155-19.713615-22.303564l-147.233125 8.751829c-12.249761 0.727986-20.653597 12.78775-16.933669 24.481522 9.321818 29.309428 32.387367 52.162981 61.244804 61.524798 5.447894 1.765966 11.203781 2.397953 16.921669 2.05796z" fill="#A3E3FF" /></svg>