<?xml version="1.0" standalone="no"?><!DOCTYPE svg PUBLIC "-//W3C//DTD SVG 1.1//EN" "http://www.w3.org/Graphics/SVG/1.1/DTD/svg11.dtd"><svg class="icon" width="200px" height="200.00px" viewBox="0 0 1024 1024" version="1.1" xmlns="http://www.w3.org/2000/svg"><path d="M252.258507 218.951572c-4.043992 7.397986-14.667971 7.397986-18.709963 0A91.98182 91.98182 0 0 0 196.960615 182.363644c-7.397986-4.043992-7.397986-14.667971 0-18.709964a91.98182 91.98182 0 0 0 36.587929-36.587928c4.043992-7.397986 14.667971-7.397986 18.709963 0a91.98182 91.98182 0 0 0 36.587929 36.587928c7.397986 4.043992 7.397986 14.667971 0 18.709964a91.98182 91.98182 0 0 0-36.587929 36.587928z" fill="#FAE17C" /><path d="M304.318406 833.170373c-3.437993 0-6.933986-0.579999-10.35798-1.803997-16.013969-5.719989-24.357952-23.339954-18.635964-39.351923 11.849977-33.169935 33.759934-56.53389 40.95992-64.209874l0.599999-0.639999c11.609977-12.419976 31.091939-13.085974 43.519915-1.467997 12.421976 11.609977 13.079974 31.095939 1.469997 43.517915l-0.671998 0.715998c-5.565989 5.931988-20.34796 21.695958-27.887946 42.797917-4.497991 12.591975-16.351968 20.44196-28.995943 20.44196z" fill="#498A68" /><path d="M553.487919 883.836274c143.683719 0 309.039396 0 430.09116-77.285849 20.71396-13.223974 8.733983-45.165912-15.62597-41.913918-95.861813 12.797975-176.385655-11.603977-222.301565-51.131901l-192.163625 170.331668z" fill="#5CB38E" /><path d="M799.853438 746.114543c-1.601997 45.88591-8.643983 91.689821-36.929928 129.773746-70.045863 7.947984-142.117722 7.947984-209.433591 7.947985l192.165625-170.331668c14.713971 12.671975 33.003936 23.773954 54.197894 32.609937z" opacity=".1" /><path d="M617.805793 1023.998c-23.585954 0-44.007914-17.593966-46.955908-41.597919-4.137992-33.689934-2.519995-134.161738 8.935983-162.275683 9.871981-24.223953 37.515927-35.85993 61.743879-25.989949 23.447954 9.557981 35.101931 35.75593 26.875948 59.395884-3.557993 16.139968-6.927986 89.609825-3.523994 117.319771 3.187994 25.967949-15.27597 49.601903-41.241919 52.789897-1.961996 0.24-3.907992 0.357999-5.833989 0.357999z m49.731903-168.167672zM451.818118 1009.334029a47.125908 47.125908 0 0 1-27.839946-9.075983c-31.167939-22.687956-49.395904-64.053875-47.573907-107.953789 1.701997-41.02592 20.70996-76.459851 50.843901-94.779815 22.353956-13.585973 51.493899-6.487987 65.083872 15.869969 13.583973 22.339956 6.493987 51.459899-15.829969 65.061873-1.445997 1.105998-5.543989 8.111984-5.481989 20.089961 0.062 12.241976 4.535991 22.079957 8.715983 25.123951 21.149959 15.39597 25.81595 45.023912 10.41798 66.173871-9.269982 12.731975-23.703954 19.489962-38.335925 19.489962z" fill="#498A68" /><path d="M476.502069 878.454284c22.323956-13.599973 29.413943-42.719917 15.829969-65.061873-13.589973-22.357956-42.729917-29.455942-65.083872-15.869969-30.133941 18.319964-49.141904 53.753895-50.843901 94.779815a142.767721 142.767721 0 0 0 3.323993 37.025928c31.551938 13.669973 70.733862 21.663958 118.727768 24.333952-2.067996-11.623977-8.423984-22.499956-18.721963-29.997941-4.177992-3.043994-8.651983-12.879975-8.715983-25.123951-0.06-11.975977 4.039992-18.981963 5.483989-20.085961zM668.403695 853.528333c8.223984-23.639954-3.427993-49.839903-26.875948-59.395884-24.227953-9.869981-51.869899 1.767997-61.743879 25.989949-9.075982 22.267957-11.971977 89.907824-10.729979 133.825739 36.201929-1.669997 67.521868-6.265988 94.421815-13.943973-0.142-32.721936 2.341995-74.741854 4.927991-86.475831z" opacity=".1" /><path d="M320.390374 716.7066c0 110.585784 15.021971 190.605628 216.267578 190.605628s216.267578-80.019844 216.267577-190.605628-96.825811-200.235609-216.267577-200.235609-216.267578 89.647825-216.267578 200.235609z" fill="#5CB38E" /><path d="M320.390374 716.7066c0-0.881998 0.024-1.757997 0.036-2.635995 45.045912-11.559977 134.393738-14.921971 196.569616 51.1539 45.307912 48.151906 51.863899 100.111804 47.003908 141.551724a673.738684 673.738684 0 0 1-27.341946 0.533999c-201.245607 0-216.267578-80.017844-216.267578-190.603628z" fill="#9BDFC1" /><path d="M577.715872 520.090984c99.803805 17.759965 175.211658 99.027807 175.211657 196.615616 0 102.3978-12.903975 178.575651-174.579659 189.29963 89.765825-91.115822 72.403859-279.241455-0.631998-385.915246z" opacity=".05" /><path d="M524.113976 834.288371a30.77994 30.77994 0 0 1-9.435981-1.489998c-16.187968-5.20599-25.087951-22.551956-19.879961-38.739924 10.795979-33.553934 31.975938-57.613887 38.937924-65.521872l0.577998-0.653999c11.215978-12.783975 30.66794-14.053973 43.451916-2.839994 12.781975 11.215978 14.053973 30.66994 2.837994 43.451915l-0.645999 0.735999c-5.377989 6.109988-19.667962 22.339956-26.535948 43.689914-4.203992 13.049975-16.295968 21.367958-29.307943 21.367959z" fill="#498A68" /><path d="M338.14634 228.093555a199.45161 199.45161 0 0 1 166.369675-89.439826h82.301839c117.009771 0 211.863586 94.855815 211.863586 211.865586v97.40781c0 105.015795-85.131834 190.145629-190.145629 190.145629H172.254664c-78.669846 0-142.443722-63.773875-142.443722-142.443722v-66.293871c0-78.669846 63.773875-142.443722 142.443722-142.443721h56.517889a131.125744 131.125744 0 0 0 109.373787-58.797885z" fill="#5CB38E" /><path d="M683.599665 494.219035m-14.579972 0a14.579972 14.579972 0 1 0 29.159943 0 14.579972 14.579972 0 1 0-29.159943 0Z" opacity=".1" /><path d="M579.939867 516.478991m-14.579971 0a14.579972 14.579972 0 1 0 29.159943 0 14.579972 14.579972 0 1 0-29.159943 0Z" opacity=".1" /><path d="M639.259751 566.198894m-14.579971 0a14.579972 14.579972 0 1 0 29.159943 0 14.579972 14.579972 0 1 0-29.159943 0Z" opacity=".1" /><path d="M562.289902 310.699393a36.749928 18.853963 0 1 0 73.499856 0 36.749928 18.853963 0 1 0-73.499856 0Z" fill="#FFA8CB" /><path d="M315.570384 310.699393a36.749928 18.853963 0 1 0 73.499856 0 36.749928 18.853963 0 1 0-73.499856 0Z" fill="#FFA8CB" /><path d="M246.900518 361.299294m-14.579972 0a14.579972 14.579972 0 1 0 29.159943 0 14.579972 14.579972 0 1 0-29.159943 0Z" fill="#495059" /><path d="M153.984699 361.299294m-14.579971 0a14.579972 14.579972 0 1 0 29.159943 0 14.579972 14.579972 0 1 0-29.159943 0Z" fill="#495059" /><path d="M633.885762 143.909719c94.355816 21.405958 164.797678 105.777793 164.797678 206.609596v97.40781c0 105.013795-85.131834 190.145629-190.145629 190.145629h-115.381774c168.035672-97.769809 196.517616-366.523284 140.729725-494.163035z" opacity=".05" /><path d="M517.28599 262.243488H434.080152c-8.283984 0-14.999971-6.713987-14.999971-14.999971s6.715987-14.999971 14.999971-14.999971h83.205838a14.999971 14.999971 0 0 1 14.99997 14.999971 14.999971 14.999971 0 0 1-14.99997 14.999971zM741.697551 262.243488h-115.189775c-8.283984 0-14.999971-6.713987-14.99997-14.999971s6.715987-14.999971 14.99997-14.999971h115.189775a14.999971 14.999971 0 0 1 14.999971 14.999971 14.999971 14.999971 0 0 1-14.999971 14.999971z" fill="#495059" /><path d="M444.098133 247.243517c0 31.337939-29.239943 56.743889-65.307873 56.743889s-65.307872-25.40395-65.307872-56.743889 29.239943-36.401929 65.307872-36.401929 65.307872 5.06399 65.307873 36.401929zM507.266009 247.243517c0 31.337939 29.239943 56.743889 65.307873 56.743889s65.307872-25.40395 65.307872-56.743889-29.239943-36.401929-65.307872-36.401929c-36.06793 0.002-65.307872 5.06399-65.307873 36.401929zM193.506622 547.96693H171.360665c-8.283984 0-14.999971-6.713987-14.99997-14.999971s6.715987-14.999971 14.99997-14.999971h22.145957a62.289878 62.289878 0 0 0 39.793922-14.405972 14.997971 14.997971 0 0 1 21.125959 1.921997 14.999971 14.999971 0 0 1-1.919996 21.125958 92.34782 92.34782 0 0 1-58.999885 21.357959z" fill="#495059" /><path d="M687.525657 173.007662H433.980152c-58.485886 0-106.793791-45.673911-110.069785-104.067797l-2.945994-52.535897c-0.695999-12.415976 12.769975-20.55996 23.441954-14.175972A434.475151 434.475151 0 0 0 567.419892 63.831875h120.105765c30.147941 0 54.587893 24.439952 54.587894 54.589894 0 30.145941-24.439952 54.585893-54.587894 54.585893z" fill="#806C6C" /></svg>