<?xml version="1.0" standalone="no"?><!DOCTYPE svg PUBLIC "-//W3C//DTD SVG 1.1//EN" "http://www.w3.org/Graphics/SVG/1.1/DTD/svg11.dtd"><svg class="icon" width="200px" height="200.00px" viewBox="0 0 1024 1024" version="1.1" xmlns="http://www.w3.org/2000/svg"><path d="M673.536 254.576l-59.256-34.212 23.994-109.21a191.536 191.536 0 0 1 43.862-86.084C705.66-1.414 744.562-7.712 775.238 10c30.676 17.712 44.674 54.55 33.498 88.162a191.51 191.51 0 0 1-52.62 81.028l-82.58 75.386z" fill="#E5E5E5" /><path d="M811.918 67.866c-30.676-17.712-69.578-11.414-93.1 15.07a191.506 191.506 0 0 0-43.862 86.084l-16.842 76.652 15.422 8.904 82.582-75.384a191.54 191.54 0 0 0 52.62-81.028 74.402 74.402 0 0 0 3.512-30.096c-0.112-0.068-0.22-0.138-0.332-0.202z" fill="#FFA8CB" /><path d="M424.806 254.576l59.256-34.212-23.994-109.21a191.52 191.52 0 0 0-43.864-86.084C392.682-1.414 353.78-7.712 323.104 10c-30.676 17.712-44.674 54.55-33.498 88.162a191.524 191.524 0 0 0 52.618 81.028l82.582 75.386z" fill="#E5E5E5" /><path d="M286.424 67.866c30.676-17.712 69.578-11.414 93.1 15.07a191.526 191.526 0 0 1 43.862 86.084l16.842 76.652-15.422 8.904-82.582-75.384a191.54 191.54 0 0 1-52.62-81.028 74.402 74.402 0 0 1-3.512-30.096c0.112-0.068 0.218-0.138 0.332-0.202z" fill="#FFA8CB" /><path d="M264.324 807.972c-10.986 0-21.452-6.388-26.128-17.098-6.298-14.422 0.288-31.218 14.71-37.516 29.886-13.048 59.53-13.088 69.272-13.1l0.802-0.002h0.086c15.698 0 28.446 12.702 28.492 28.408 0.048 15.736-12.672 28.532-28.41 28.58l-0.896 0.002c-7.528 0.008-27.526 0.036-46.542 8.34a28.396 28.396 0 0 1-11.386 2.386z" fill="#498A68" /><path d="M521.21 894.284c132.972 0 285.998 0 398.024-71.522 19.17-12.24 8.084-41.798-14.46-38.788-88.716 11.844-163.234-10.74-205.726-47.32l-177.838 157.63z" fill="#5CB38E" /><path d="M749.206 766.83c-1.482 42.466-8 84.854-34.178 120.098-64.822 7.354-131.522 7.356-193.818 7.356l177.838-157.63c13.618 11.724 30.544 22 50.158 30.176z" opacity=".1" /><path d="M590.054 1023.024c-13.458 0.002-26.736-6.174-35.33-17.838-43.748-59.39-20.726-163.208-20.474-164.232 5.808-23.502 29.564-37.862 53.072-32.044 23.502 5.804 37.85 29.56 32.046 53.066-4.51 18.558-6.988 73.652 5.946 91.208 14.36 19.494 10.198 46.936-9.296 61.296a43.644 43.644 0 0 1-25.964 8.544zM421.826 1024c-16.762 0.002-32.76-9.664-40.044-25.954-30.3-67.764 4.408-161.816 4.778-162.722 9.136-22.42 34.714-33.19 57.138-24.054 22.416 9.134 33.186 34.704 24.062 57.122-5.248 13.256-17.346 68.358-5.94 93.868 9.882 22.102-0.022 48.03-22.124 57.914a43.728 43.728 0 0 1-17.87 3.826z" fill="#498A68" /><path d="M443.698 811.268c-22.426-9.136-48.002 1.636-57.138 24.054-0.27 0.664-18.908 51.164-17.044 104.76 25.21 9.53 55.274 15.528 90.8 18.176-8.71-26.86 2.454-77.266 7.444-89.868 9.124-22.416-1.646-47.988-24.062-57.122zM619.368 861.976c5.804-23.504-8.544-47.26-32.046-53.066-23.508-5.818-47.264 8.54-53.072 32.044-0.194 0.79-13.93 62.744-0.124 118.29 33.598-1.464 62.666-5.636 87.664-12.644-8.866-21.99-6.464-67.986-2.422-84.624z" opacity=".1" /><path d="M305.492 739.614c0 102.342 13.902 176.394 200.142 176.394s200.142-74.052 200.142-176.394-89.606-185.306-200.142-185.306c-110.534 0.002-200.142 82.966-200.142 185.306z" fill="#5CB38E" /><path d="M305.492 739.614c0-0.816 0.022-1.626 0.034-2.44 41.686-10.698 124.374-13.81 181.914 47.34 41.93 44.562 47.998 92.648 43.5 130.998-8.06 0.328-16.488 0.494-25.304 0.494-186.242 0.002-200.144-74.05-200.144-176.392z" fill="#9BDFC1" /><path d="M543.63 557.658c92.362 16.436 162.148 91.644 162.148 181.956 0 94.762-11.942 165.262-161.562 175.184 83.072-84.318 67.004-258.418-0.586-357.14z" opacity=".05" /><path d="M321.924 287.434a184.58 184.58 0 0 1 153.966-82.77h76.166c108.286 0 196.068 87.782 196.068 196.068v90.146c0 97.184-78.784 175.97-175.968 175.97H168.4c-72.804 0-131.822-59.02-131.822-131.822v-61.352c0-72.804 59.02-131.822 131.822-131.822h52.304a121.36 121.36 0 0 0 101.22-54.418z" fill="#5CB38E" /><path d="M194.49 576.314c-13.014 0-25.24-3.34-35.9-9.18V613.6a11.476 11.476 0 0 0 11.476 11.474h48.848a11.476 11.476 0 0 0 11.476-11.474v-46.466a74.48 74.48 0 0 1-35.9 9.18z" fill="#FFFFFF" /><path d="M194.49 591.312a89.926 89.926 0 0 1-67.798-30.88 15 15 0 1 1 22.616-19.71c11.406 13.086 27.874 20.59 45.184 20.59s33.778-7.504 45.182-20.59a15 15 0 0 1 22.616 19.71 89.934 89.934 0 0 1-67.8 30.88z" fill="#495059" /><path d="M641.62 533.72m-13.494 0a13.494 13.494 0 1 0 26.988 0 13.494 13.494 0 1 0-26.988 0Z" opacity=".1" /><path d="M545.68 554.3m-13.494 0a13.494 13.494 0 1 0 26.988 0 13.494 13.494 0 1 0-26.988 0Z" opacity=".1" /><path d="M600.58 600.34m-13.494 0a13.494 13.494 0 1 0 26.988 0 13.494 13.494 0 1 0-26.988 0Z" opacity=".1" /><path d="M587.1 349.18a34 17.448 0 1 0 68 0 34 17.448 0 1 0-68 0Z" fill="#FFA8CB" /><path d="M358.78 349.18a34 17.448 0 1 0 68 0 34 17.448 0 1 0-68 0Z" fill="#FFA8CB" /><path d="M577.956 329.594a15 15 0 0 1-15-15v-16.948c0-8.286 6.716-15 15-15s15 6.714 15 15v16.948a15 15 0 0 1-15 15zM435.918 329.594a15 15 0 0 1-15-15v-16.948c0-8.286 6.716-15 15-15s15 6.714 15 15v16.948a15 15 0 0 1-15 15z" fill="#495059" /><path d="M237.48 410.7m-13.494 0a13.494 13.494 0 1 0 26.988 0 13.494 13.494 0 1 0-26.988 0Z" fill="#495059" /><path d="M151.5 410.7m-13.494 0a13.494 13.494 0 1 0 26.988 0 13.494 13.494 0 1 0-26.988 0Z" fill="#495059" /><path d="M595.612 209.526c87.32 19.81 152.51 97.89 152.51 191.204v90.146c0 97.184-78.784 175.97-175.968 175.97h-106.778c155.508-90.482 181.866-339.196 130.236-457.32z" opacity=".05" /><path d="M551.108 801.27c-12.824 0-24.474-8.718-27.656-21.732-3.738-15.286 5.622-30.708 20.91-34.446l0.786-0.192c9.466-2.33 38.268-9.43 70.426-3.938 15.512 2.648 25.942 17.37 23.292 32.882-2.648 15.514-17.362 25.956-32.882 23.292-20.454-3.486-39.888 1.298-47.204 3.098l-0.878 0.216c-2.276 0.556-4.552 0.82-6.794 0.82z" fill="#498A68" /><path d="M921.134 723.574c15.26-8.928 34.828-0.822 39.306 16.282a9.846 9.846 0 0 0 7.03 7.03c17.104 4.478 25.21 24.046 16.282 39.306a9.846 9.846 0 0 0 0 9.942c8.928 15.26 0.822 34.828-16.282 39.306a9.846 9.846 0 0 0-7.03 7.03c-4.478 17.104-24.046 25.21-39.306 16.282a9.846 9.846 0 0 0-9.942 0c-15.26 8.928-34.828 0.822-39.306-16.282a9.846 9.846 0 0 0-7.03-7.03c-17.104-4.478-25.21-24.046-16.282-39.306a9.846 9.846 0 0 0 0-9.942c-8.928-15.26-0.822-34.828 16.282-39.306a9.846 9.846 0 0 0 7.03-7.03c4.478-17.104 24.046-25.21 39.306-16.282a9.846 9.846 0 0 0 9.942 0z" fill="#E5E5E5" /></svg>