<?xml version="1.0" standalone="no"?><!DOCTYPE svg PUBLIC "-//W3C//DTD SVG 1.1//EN" "http://www.w3.org/Graphics/SVG/1.1/DTD/svg11.dtd"><svg class="icon" width="200px" height="200.00px" viewBox="0 0 1024 1024" version="1.1" xmlns="http://www.w3.org/2000/svg"><path d="M166.6 97.78a15 15 0 0 1-15-15V23.474c0-8.284 6.714-15 15-15s15 6.716 15 15V82.78a15 15 0 0 1-15 15z" fill="#495059" /><path d="M166.6 249.38m-166.6 0a166.6 166.6 0 1 0 333.2 0 166.6 166.6 0 1 0-333.2 0Z" fill="#E5E5E5" /><path d="M166.598 82.78c-69.306 0-128.71 42.328-153.816 102.534h98.59C120.422 152.18 137.384 116.204 166.598 82.78z" fill="#FF85B6" /><path d="M320.414 185.314C295.308 125.106 235.904 82.78 166.598 82.78c29.214 33.426 46.178 69.4 55.224 102.534h98.592z" fill="#80B0E3" /><path d="M102.534 249.378c0 18.664 2.448 40.656 8.84 64.064h110.45c6.392-23.408 8.84-45.402 8.84-64.064s-2.448-40.656-8.84-64.064H111.374c-6.392 23.408-8.84 45.4-8.84 64.064z" fill="#FFFFFF" /><path d="M102.534 249.378c0-18.664 2.448-40.656 8.84-64.064H12.784C4.558 205.038 0 226.674 0 249.378s4.558 44.34 12.784 64.064h98.59c-6.392-23.408-8.84-45.4-8.84-64.064z" fill="#5CB38E" /><path d="M12.784 313.442c25.106 60.206 84.51 102.534 153.816 102.534-29.216-33.426-46.176-69.4-55.224-102.534H12.784z" fill="#8783D2" /><path d="M320.414 185.314h-98.592c6.392 23.408 8.84 45.402 8.84 64.064s-2.448 40.656-8.84 64.064h98.592c8.226-19.724 12.784-41.36 12.784-64.064s-4.558-44.34-12.784-64.064z" fill="#A3E3FF" /><path d="M111.374 313.442c9.048 33.134 26.01 69.108 55.224 102.534 29.214-33.426 46.178-69.4 55.224-102.534H111.374z" fill="#FAE17C" /><path d="M695.61 816.59c-12.922 0-24.802-8.518-28.502-21.566-4.462-15.75 4.686-32.134 20.436-36.596l0.9-0.254c7.538-2.122 27.562-7.76 44.276-21.408 12.682-10.356 31.352-8.468 41.704 4.21 10.354 12.68 8.468 31.352-4.21 41.704-26.27 21.452-55.952 29.808-65.704 32.554l-0.806 0.226c-2.7 0.766-5.42 1.13-8.094 1.13z" fill="#498A68" /><path d="M478.884 885.126c-137.652-13.518-296.064-29.076-404.762-114.504-18.6-14.618-4.118-44.092 18.914-38.684 90.634 21.278 170.07 5.478 217.778-28.07l168.07 181.258z" fill="#5CB38E" /><path d="M255.822 730.006c-2.782 44.11-0.344 88.654 23.17 127.8 66.356 14.204 135.402 20.986 199.892 27.318l-168.072-181.258c-15.29 10.754-33.856 19.67-54.99 26.14z" opacity=".1" /><path d="M415.2 1015.526a45.382 45.382 0 0 1-27.884-9.548c-19.914-15.418-23.556-44.058-8.138-63.97 18.028-23.282 9.358-63.408 0.428-71.236-18.938-16.598-20.836-45.408-4.234-64.346 16.598-18.94 45.408-20.83 64.346-4.234 44.922 39.374 59.76 133.414 11.568 195.65-8.984 11.604-22.464 17.684-36.086 17.684zM630.014 994.43c-25.184 0-45.598-20.414-45.598-45.598 0-24.348-21.394-63.47-32.052-72.786-21.03-12.028-29.07-38.596-17.902-60.372 11.488-22.408 38.964-31.264 61.382-19.764 39.512 20.264 79.768 97.44 79.768 152.924 0 25.182-20.416 45.596-45.598 45.596z m-75.818-117.388l0.028 0.014-0.028-0.014z" fill="#498A68" /><path d="M595.844 795.908c-22.418-11.5-49.894-2.642-61.382 19.764-11.168 21.776-3.128 48.344 17.902 60.372 10.658 9.316 32.052 48.438 32.052 72.786 0 2.454 0.248 4.844 0.622 7.192 35.33-3.362 64.962-11.768 89.258-25.364-7.182-52.946-43.104-116.62-78.452-134.75zM439.718 802.19c-18.938-16.596-47.748-14.704-64.346 4.234-16.6 18.938-14.704 47.748 4.234 64.346 8.002 7.016 15.78 39.958 4.34 63.482 25.758 8.5 55.744 14.708 90.344 18.79 17.19-56.186 0.462-120.144-34.572-150.852z" opacity=".1" /><path d="M717.918 746.942c-10.404 105.944-32.322 181.19-225.12 162.256-192.796-18.934-199.658-97.006-189.254-202.95 10.404-105.944 111.6-182.718 226.026-171.48 114.426 11.238 198.752 106.23 188.348 212.174z" fill="#5CB38E" /><path d="M717.918 746.942c0.084-0.844 0.142-1.686 0.214-2.528-42.066-15.312-127.346-26.94-193.128 30.514-47.936 41.866-59.106 91.028-58.348 131.186 8.312 1.158 17.018 2.188 26.144 3.084 192.796 18.934 214.714-56.312 225.118-162.256z" fill="#9BDFC1" /><path d="M489.896 534.372c-97.284 7.626-177.17 78.386-186.352 171.876-9.634 98.098-4.438 172.292 149.438 197.774-77.424-95.732-43.092-274.326 36.914-369.65z" opacity=".05" /><path d="M746.878 277.176a192 192 0 0 0-150.97-101.336l-78.846-7.744c-112.096-11.008-211.892 70.94-222.902 183.036l-9.164 93.318c-9.88 100.606 63.668 190.172 164.274 200.052l417.962 41.046c75.366 7.402 142.462-47.696 149.864-123.06l6.238-63.51c7.402-75.366-47.694-142.462-123.06-149.864l-54.146-5.318a126.228 126.228 0 0 1-99.25-66.62z" fill="#5CB38E" /><path d="M390.9 499.64m-14.04 0a14.04 14.04 0 1 0 28.08 0 14.04 14.04 0 1 0-28.08 0Z" opacity=".1" /><path d="M488.1 530.7m-14.04 0a14.04 14.04 0 1 0 28.08 0 14.04 14.04 0 1 0-28.08 0Z" opacity=".1" /><path d="M426.6 572.76m-14.04 0a14.04 14.04 0 1 0 28.08 0 14.04 14.04 0 1 0-28.08 0Z" opacity=".1" /><path d="M429.127669 328.720622a35.376 18.14 5.607 1 0 3.544719-36.106417 35.376 18.14 5.607 1 0-3.544719 36.106417Z" fill="#FFA8CB" /><path d="M669.023151 315.868634a35.376 18.14 5.607 1 0-3.544719 36.106418 35.376 18.14 5.607 1 0 3.544719-36.106418Z" fill="#FFA8CB" /><path d="M508.832 297.184a15 15 0 0 1-14.944-16.466c0.8-8.166-5.192-15.464-13.36-16.268a14.832 14.832 0 0 0-10.896 3.31 14.79 14.79 0 0 0-5.368 10.048 14.966 14.966 0 0 1-16.394 13.46 14.998 14.998 0 0 1-13.46-16.394 44.592 44.592 0 0 1 16.184-30.298c9.266-7.606 20.936-11.154 32.87-9.98 24.626 2.418 42.698 24.424 40.282 49.052a15.008 15.008 0 0 1-14.914 13.536zM655.868 311.624a14.998 14.998 0 0 1-14.944-16.468 14.788 14.788 0 0 0-3.308-10.9 14.8 14.8 0 0 0-10.048-5.368 14.84 14.84 0 0 0-10.898 3.31 14.796 14.796 0 0 0-5.366 10.046c-0.808 8.246-8.138 14.284-16.392 13.464a15 15 0 0 1-13.462-16.394 44.576 44.576 0 0 1 16.184-30.3 44.61 44.61 0 0 1 32.866-9.982 44.578 44.578 0 0 1 30.3 16.186 44.574 44.574 0 0 1 9.98 32.868 15.006 15.006 0 0 1-14.912 13.538zM853.74 597.382a52.134 52.134 0 0 1-42.462-21.906 15 15 0 0 1 3.514-20.92 15 15 0 0 1 20.92 3.514 22.146 22.146 0 0 0 15.866 9.206c6.368 0.636 12.69-1.54 17.356-5.942 6.032-5.682 15.524-5.406 21.204 0.622a15 15 0 0 1-0.622 21.204 52.148 52.148 0 0 1-35.776 14.222z" fill="#495059" /><path d="M821.76 413.38m-14.04 0a14.04 14.04 0 1 0 28.08 0 14.04 14.04 0 1 0-28.08 0Z" fill="#495059" /><path d="M910.78 422.12m-14.04 0a14.04 14.04 0 1 0 28.08 0 14.04 14.04 0 1 0-28.08 0Z" fill="#495059" /><path d="M471.476 168.702c-92.408 11.63-167.83 85.832-177.316 182.43l-9.164 93.318c-9.88 100.606 63.668 190.172 164.274 200.052l110.536 10.856c-151.782-109.476-153.784-369.624-88.33-486.656z" opacity=".05" /><path d="M537.732 821.554a29.574 29.574 0 0 1-22.692-10.554c-13.904-16.52-32.552-25.77-39.57-29.252l-0.84-0.416c-14.652-7.3-20.612-25.094-13.312-39.746 7.298-14.652 25.098-20.608 39.744-13.314l0.748 0.372c9.084 4.506 36.726 18.218 58.582 44.184 10.54 12.522 8.932 31.22-3.592 41.762a29.514 29.514 0 0 1-19.068 6.964z" fill="#498A68" /><path d="M148.322 647.7c-5.778 10.57-20.958 10.57-26.736 0a131.41 131.41 0 0 0-52.278-52.278c-10.57-5.778-10.57-20.958 0-26.736a131.41 131.41 0 0 0 52.278-52.278c5.778-10.57 20.958-10.57 26.736 0a131.41 131.41 0 0 0 52.278 52.278c10.57 5.778 10.57 20.958 0 26.736a131.422 131.422 0 0 0-52.278 52.278z" fill="#FAE17C" /><path d="M863.632 243.492c-6.508 11.904-23.604 11.904-30.11 0a147.992 147.992 0 0 0-58.878-58.878c-11.904-6.508-11.904-23.604 0-30.11a148.004 148.004 0 0 0 58.878-58.878c6.508-11.904 23.604-11.904 30.11 0a148.004 148.004 0 0 0 58.878 58.878c11.904 6.508 11.904 23.604 0 30.11a147.98 147.98 0 0 0-58.878 58.878z" fill="#80B0E3" /><path d="M859.678 910.794c-4.904 8.97-17.786 8.97-22.69 0a111.528 111.528 0 0 0-44.368-44.368c-8.97-4.904-8.97-17.786 0-22.69a111.528 111.528 0 0 0 44.368-44.368c4.904-8.97 17.786-8.97 22.69 0a111.528 111.528 0 0 0 44.368 44.368c8.97 4.904 8.97 17.786 0 22.69a111.54 111.54 0 0 0-44.368 44.368z" fill="#8783D2" /></svg>