<?xml version="1.0" standalone="no"?><!DOCTYPE svg PUBLIC "-//W3C//DTD SVG 1.1//EN" "http://www.w3.org/Graphics/SVG/1.1/DTD/svg11.dtd"><svg class="icon" width="200px" height="200.00px" viewBox="0 0 1024 1024" version="1.1" xmlns="http://www.w3.org/2000/svg"><path d="M702.68 767.346c-10.222 0-20.108-5.49-25.262-15.134-9.822-18.378-25.568-30.842-31.494-35.534l-0.706-0.56c-12.376-9.83-14.438-27.83-4.608-40.204 9.828-12.378 27.83-14.44 40.204-4.608l0.63 0.5c7.67 6.072 31.012 24.55 46.446 53.432 7.45 13.938 2.188 31.276-11.75 38.724a28.488 28.488 0 0 1-13.46 3.384z" fill="#498A68" /><path d="M1023.67 756.662c-2.626-17.522-19.306-29.114-36.488-25.696l-56.562 11.24a26.006 26.006 0 0 1-21.27-5.148l-7.882-6.258c-2.2-1.748-1.634-5.232 1.006-6.192l75.59-27.512c15.592-5.676 24.648-22.54 19.712-38.382-5.27-16.914-23.518-25.82-39.974-19.83l-76.408 27.81c-2.64 0.96-5.314-1.344-4.752-4.096l2.014-9.86a26.034 26.034 0 0 1 12.984-17.616l50.554-27.748c15.362-8.43 20.684-28.044 11.428-43.15-8.666-14.14-27.31-18.438-41.848-10.458l-49.788 27.326a87.514 87.514 0 0 0-43.712 59.308l-9.234 45.2a14.634 14.634 0 0 1-9.332 10.822l-180.678 65.762c-15.592 5.674-24.648 22.54-19.712 38.382 5.27 16.914 23.516 25.82 39.974 19.83l181.496-66.06a14.634 14.634 0 0 1 14.106 2.292l36.128 28.692a87.534 87.534 0 0 0 71.61 17.336l55.706-11.072c16.268-3.234 27.79-18.516 25.332-34.922z" fill="#CD5B5B" /><path d="M464.032 819.778c-133.534 0-287.21 0-399.71-71.826-19.252-12.29-8.116-41.976 14.522-38.954 89.09 11.894 163.926-10.784 206.598-47.52l178.59 158.3z" fill="#5CB38E" /><path d="M137.358 711.968c-11.66 0.402-23.688 0.2-36.04-0.672l10.42-25.4c3.956-9.644-4.896-19.626-14.944-16.852L9.828 693.062c-8.436 2.33-12.402 11.998-8.032 19.58l45.042 78.172c5.204 9.032 18.516 8.142 22.472-1.502l12.672-30.888c13.38 7.406 27.254 13.93 41.536 19.662 7.77-17.726 12.39-44.388 13.84-66.118z" fill="#CD5B5B" /><path d="M235.07 691.784c1.488 42.646 8.034 85.214 34.322 120.608 65.098 7.386 132.078 7.386 194.64 7.386l-178.59-158.298c-13.678 11.774-30.674 22.094-50.372 30.304z" opacity=".1" /><path d="M417.796 953.912c-13.88 0-27.542-6.548-36.106-18.784-28.202-40.292-52.436-140.126 1.8-187.294 18.346-15.956 46.152-14.016 62.108 4.33 15.834 18.206 14.044 45.73-3.914 61.74-1.188 2.036-4.272 11.75-1.46 30.666 2.856 19.224 9.698 34.496 13.6 40.07 13.942 19.92 9.096 47.368-10.822 61.31a43.814 43.814 0 0 1-25.206 7.962z m24.01-140.2zM586.328 937.088a43.86 43.86 0 0 1-18.688-4.188c-22.006-10.338-31.466-36.556-21.13-58.562 14.07-29.954-7.502-54.514-14.45-61.328-17.358-17.026-17.626-44.898-0.602-62.256 17.024-17.356 44.896-17.628 62.256-0.602 34.234 33.58 63.286 96.054 32.49 161.618-7.496 15.956-23.344 25.318-39.876 25.318z" fill="#498A68" /><path d="M543.688 882.274c38.546-4.408 70.098-13.24 95.516-26.79 0.26-43.464-21.308-81.612-45.49-105.332-17.36-17.026-45.232-16.754-62.256 0.602-17.024 17.358-16.756 45.23 0.602 62.256 6.948 6.814 28.52 31.374 14.45 61.328a44.086 44.086 0 0 0-2.822 7.936zM445.598 752.164c-15.956-18.346-43.76-20.284-62.108-4.33-33.762 29.362-37.108 79.128-28.026 122.24 27.478 8.628 60.156 13.58 98.668 15.058-0.11-0.162-0.196-0.33-0.308-0.492-3.902-5.574-10.744-20.846-13.6-40.07-2.812-18.918 0.274-28.63 1.46-30.666 17.958-16.01 19.748-43.534 3.914-61.74z" opacity=".1" /><path d="M680.664 664.454c0 102.776-13.96 177.142-200.99 177.142s-200.99-74.366-200.99-177.142c0-102.774 89.986-186.09 200.99-186.09s200.99 83.314 200.99 186.09z" fill="#5CB38E" /><path d="M680.664 664.454c0-0.82-0.022-1.634-0.034-2.45-41.864-10.744-124.9-13.868-182.684 47.542-42.108 44.75-48.202 93.04-43.684 131.554 8.094 0.328 16.558 0.496 25.41 0.496 187.032-0.002 200.992-74.368 200.992-177.142z" fill="#9BDFC1" /><path d="M441.516 481.726c-92.754 16.506-162.834 92.032-162.834 182.726 0 95.164 11.992 165.962 162.246 175.926-83.424-84.674-67.288-259.512 0.588-358.652z" opacity=".05" /><path d="M634.568 230.792c50.442-36.84 57.578-109.44 37.476-153.184-4.172-9.08-16.758-10.176-22.478-1.984-21.976 31.47-71.478 68.296-97.016 72.666-7.226 1.236-12.604 7.482-12.144 14.8 1.708 27.086 29.858 70.092 67.036 74.962 9.604 1.258 19.302-1.546 27.126-7.26z" fill="#CD5B5B" /><path d="M664.162 210.356a185.368 185.368 0 0 0-154.618-83.122h-76.488c-108.744 0-196.898 88.154-196.898 196.898v90.526c0 97.596 79.118 176.714 176.714 176.714h405.462c73.112 0 132.38-59.27 132.38-132.382v-61.612c0-73.112-59.268-132.382-132.38-132.382h-52.526a121.84 121.84 0 0 1-101.646-54.64z" fill="#5CB38E" /><path d="M792.136 511.034c-44.828 0-81.166-36.34-81.166-81.166v-5.044a17.42 17.42 0 0 1 17.422-17.42h127.492a17.42 17.42 0 0 1 17.42 17.42v5.044c-0.002 44.826-36.344 81.166-81.168 81.166z" fill="#FFFFFF" /><path d="M804.192 510.138a80.656 80.656 0 0 0 30-10.836v-91.898h-30v102.734zM750.08 499.302a80.644 80.644 0 0 0 30 10.836v-102.734h-30v91.898z" opacity=".1" /><path d="M343.12 457.68m-13.55 0a13.55 13.55 0 1 0 27.1 0 13.55 13.55 0 1 0-27.1 0Z" opacity=".1" /><path d="M439.44 478.36m-13.55 0a13.55 13.55 0 1 0 27.1 0 13.55 13.55 0 1 0-27.1 0Z" opacity=".1" /><path d="M384.32 524.58m-13.55 0a13.55 13.55 0 1 0 27.1 0 13.55 13.55 0 1 0-27.1 0Z" opacity=".1" /><path d="M355.98 281.18a34.16 17.522 0 1 0 68.32 0 34.16 17.522 0 1 0-68.32 0Z" fill="#FFA8CB" /><path d="M585.28 281.18a34.16 17.522 0 1 0 68.32 0 34.16 17.522 0 1 0-68.32 0Z" fill="#FFA8CB" /><path d="M459.346 259.286a15 15 0 0 1-15-15c0-5.996-4.878-10.874-10.874-10.874s-10.876 4.878-10.876 10.874a15 15 0 0 1-30 0c0-22.538 18.338-40.874 40.876-40.874s40.874 18.336 40.874 40.874a15 15 0 0 1-15 15zM601.986 259.286a15 15 0 0 1-15-15c0-5.996-4.88-10.874-10.876-10.874s-10.874 4.878-10.874 10.874a15 15 0 0 1-30 0c0-22.538 18.336-40.874 40.874-40.874s40.876 18.336 40.876 40.874a15 15 0 0 1-15 15zM465.588 204.66c-1.02 0-2.056-0.104-3.094-0.322l-57.974-12.156a15 15 0 1 1 6.156-29.36l57.974 12.156a15 15 0 0 1-3.062 29.682zM543.994 204.66a15 15 0 0 1-3.064-29.682l57.974-12.156a14.998 14.998 0 0 1 17.758 11.602 15 15 0 0 1-11.602 17.758l-57.974 12.156a15.136 15.136 0 0 1-3.092 0.322z" fill="#495059" /><path d="M748.96 334.14m-13.55 0a13.55 13.55 0 1 0 27.1 0 13.55 13.55 0 1 0-27.1 0Z" fill="#495059" /><path d="M835.32 334.14m-13.55 0a13.55 13.55 0 1 0 27.1 0 13.55 13.55 0 1 0-27.1 0Z" fill="#495059" /><path d="M389.314 132.12c-87.69 19.894-153.156 98.306-153.156 192.014v90.528c0 97.596 79.118 176.714 176.714 176.714h107.23c-156.166-90.864-182.636-340.632-130.788-459.256z" opacity=".05" /><path d="M275.262 230.792c-50.442-36.84-57.578-109.44-37.476-153.184 4.172-9.08 16.758-10.176 22.478-1.984 21.976 31.47 71.478 68.296 97.016 72.666 7.226 1.236 12.606 7.482 12.144 14.8-1.708 27.086-29.858 70.092-67.036 74.962-9.606 1.258-19.304-1.546-27.126-7.26z" fill="#CD5B5B" /><path d="M393.682 722.628c-24.654 0-46.216-10.026-64.336-29.974-10.626-11.696-9.758-29.794 1.942-40.42 11.698-10.626 29.794-9.756 40.42 1.94 8.47 9.324 16.708 13.884 33.758 9.59 15.324-3.858 30.878 5.436 34.736 20.762 3.858 15.326-5.436 30.878-20.762 34.736-8.922 2.244-17.514 3.366-25.758 3.366z" fill="#498A68" /></svg>