<?xml version="1.0" standalone="no"?><!DOCTYPE svg PUBLIC "-//W3C//DTD SVG 1.1//EN" "http://www.w3.org/Graphics/SVG/1.1/DTD/svg11.dtd"><svg class="icon" width="200px" height="200.00px" viewBox="0 0 1024 1024" version="1.1" xmlns="http://www.w3.org/2000/svg"><path d="M706.510681 724.764182c-10.693708 0-21.155422-5.313855-27.295253-15.019589-9.52174-15.057588-5.035862-34.983043 10.021726-44.506783l0.775978-0.489987c9.309745-5.909838 37.640971-23.895347 74.101974-29.60519 17.603519-2.757925 34.105067 9.277746 36.860992 26.879265s-9.277746 34.103067-26.879265 36.860992c-23.197366 3.633901-42.310843 15.767569-49.506646 20.335444l-0.867976 0.549985a32.099122 32.099122 0 0 1-17.21153 4.995863z" fill="#498A68" /><path d="M503.458234 863.672384c-149.151922 20.373443-320.799228 43.818802-457.415493-19.241474-23.377361-10.791705-15.471577-45.646752 10.277719-45.72475 101.325229-0.307992 181.451038-37.054987 223.509888-84.597686l223.627886 149.56391z" fill="#5CB38E" /><path d="M228.18976 755.641338c8.169777 47.404704 21.975399 93.953431 56.736449 129.47646 73.837981-1.681954 148.651935-11.899675 218.530025-21.445414l-223.627886-149.56391c-13.479631 15.235583-30.891155 29.355197-51.638588 41.532864z" opacity=".1" /><path d="M457.953478 1023.976001a49.474647 49.474647 0 0 1-16.875539-2.971919c-25.775295-9.321745-39.112931-37.772967-29.791185-63.548262 11.273692-31.169148 6.56982-82.961732 0.853977-98.633303-14.527603-19.37947-13.037644-46.988715 4.533876-64.688232 19.309472-19.451468 50.732613-19.563465 70.18408-0.251993 16.539548 16.421551 26.529275 46.872718 29.693189 90.503526 1.663955 22.975372 2.331936 67.406157-11.927674 106.827079-7.3038 20.199448-26.363279 32.759104-46.670724 32.763104z m-41.066877-159.699634l0.039999 0.039999-0.039999-0.039999zM741.567723 955.265879c-27.295254 2.489932-51.442593-17.617518-53.932526-44.912771-2.511931-27.539247-25.317308-54.712504-36.427003-61.47032-23.941345-1.681954-43.772803-20.565438-45.908745-45.230763-2.355936-27.227256 17.741515-51.222599 44.930771-53.702531l0.233994-0.022c42.316843-3.6619 77.90987 32.835102 91.249505 48.696669 14.829595 17.633518 40.362896 54.424512 44.768776 102.707191 2.489932 27.299254-17.617518 51.444593-44.914772 53.934525z m-82.589742-106.445089l0.045999-0.002-0.045999 0.002z" fill="#498A68" /><path d="M748.955521 830.579289a163.807521 163.807521 0 0 0 7.229802-12.461659 209.040284 209.040284 0 0 0-14.471604-19.489467c-13.339635-15.861566-48.932662-52.358568-91.249505-48.696669l-0.233994 0.021999c-27.187257 2.479932-47.286707 26.475276-44.928771 53.702532 2.135942 24.665326 21.967399 43.548809 45.908744 45.230763 8.41777 5.11986 23.531357 21.963399 31.46314 41.798857 28.929209-16.061561 50.754612-35.959017 66.282188-60.106356zM486.860687 793.882292c-19.453468-19.311472-50.874609-19.199475-70.184081 0.251993-17.57152 17.697516-19.061479 45.308761-4.533876 64.688232 4.725871 12.953646 8.747761 50.582617 3.637901 80.847789 10.397716 0.881976 21.20142 1.371962 32.523111 1.371962 20.557438 0 43.330815-1.47396 67.818145-4.345881 1.927947-20.939427 1.337963-39.808911 0.431988-52.308569-3.163913-43.636807-13.15364-74.087974-29.693188-90.505526z" opacity=".1" /><path d="M721.726265 657.128032c15.679571 114.794861 11.433687 199.988532-197.4706 228.523751s-235.843551-52.398567-251.523123-167.193428 72.120028-221.583941 196.104638-238.519478c123.98661-16.933537 237.209514 62.394294 252.889085 177.189155z" fill="#5CB38E" /><path d="M721.726265 657.128032c-0.125997-0.913975-0.273993-1.81995-0.411988-2.731926-48.398677-5.611847-141.624127 3.565902-196.796619 80.973786-40.204901 56.408458-39.642916 111.274957-28.723215 153.6038 9.091751-0.867976 18.569492-1.971946 28.459222-3.321909 208.906288-28.53522 213.154172-113.72689 197.4726-228.523751z" fill="#9BDFC1" /><path d="M426.732332 489.520615c-101.083236 32.589109-167.837411 127.64051-153.99979 228.94174 14.519603 106.293094 38.714941 183.540981 208.062311 171.747303-106.099099-81.853762-114.752862-279.600355-54.062521-400.689043z" opacity=".05" /><path d="M634.014664 152.443832a208.966286 208.966286 0 0 0-185.382931-69.252107l-85.433664 11.669681c-121.462679 16.591546-206.476354 128.504486-189.884808 249.967165l13.811622 101.115235c14.889593 109.011019 115.332846 185.310933 224.343866 170.42134l452.883616-61.862308c81.663767-11.155695 138.820204-86.397638 127.666509-168.061405l-9.399742-68.816118c-11.155695-81.661767-86.397638-138.820204-168.061405-127.666509l-58.668396 8.013781a137.382243 137.382243 0 0 1-121.874667-45.528755z" fill="#5CB38E" /><path d="M817.849637 432.27218m-52.058577 0a52.058577 52.058577 0 1 0 104.117153 0 52.058577 52.058577 0 1 0-104.117153 0Z" fill="#495059" /><path d="M313.143437 477.690938m-15.275582 0a15.275582 15.275582 0 1 0 30.551165 0 15.275582 15.275582 0 1 0-30.551165 0Z" opacity=".1" /><path d="M423.920408 486.070709m-15.275582 0a15.275582 15.275582 0 1 0 30.551165 0 15.275582 15.275582 0 1 0-30.551165 0Z" opacity=".1" /><path d="M369.3819 546.107067m-15.275583 0a15.275582 15.275582 0 1 0 30.551165 0 15.275582 15.275582 0 1 0-30.551165 0Z" opacity=".1" /><path d="M314.824137 318.379919a19.75346 38.502947 82.224 1 0-5.345308-39.143638 19.75346 38.502947 82.224 1 0 5.345308 39.143638Z" fill="#FFA8CB" /><path d="M565.619536 244.196987a19.75346 38.502947 82.224 1 0 5.345308 39.143638 19.75346 38.502947 82.224 1 0-5.345308-39.143638Z" fill="#FFA8CB" /><path d="M747.611557 277.776405m-15.275582 0a15.275582 15.275582 0 1 0 30.551165 0 15.275582 15.275582 0 1 0-30.551165 0Z" fill="#495059" /><path d="M844.06892 264.596765m-15.275582 0a15.275582 15.275582 0 1 0 30.551164 0 15.275582 15.275582 0 1 0-30.551164 0Z" fill="#495059" /><path d="M315.085384 106.989075c-94.911405 35.599027-156.069732 133.168359-141.772123 237.837496l13.811622 101.115235c14.889593 109.011019 115.332846 185.310933 224.343866 170.42134l119.770725-16.359552c-188.294851-77.665876-255.967001-352.606358-216.15409-493.014519z" opacity=".05" /><path d="M298.125848 277.19642c-18.817485 0-37.028987-6.099833-52.270571-17.677516-18.443496-14.009617-30.327171-34.36506-33.461085-57.312433-5.399852-39.538919 22.371388-76.097919 61.908308-81.497772 16.117559-2.19994 32.125122 2.003945 45.078767 11.843677 12.951646 9.839731 21.297418 24.13334 23.499357 40.248899 2.125942 15.565574-2.893921 30.689161-13.431632 40.452894-9.731734 9.017753-23.251364 12.485659-37.096986 9.50374a14.99959 14.99959 0 0 1-11.509685-17.817513c1.741952-8.099779 9.713734-13.263637 17.819512-11.509685 4.331882 0.929975 7.829786 0.197995 10.397716-2.18194 3.319909-3.075916 4.891866-8.589765 4.097888-14.389607-1.115969-8.175776-5.349854-15.429578-11.921674-20.421442s-14.689598-7.129805-22.871375-6.007835a42.084849 42.084849 0 0 0-28.003234 16.349553 42.088849 42.088849 0 0 0-8.241774 31.363142c2.049944 15.00959 9.821731 28.321226 21.883401 37.484975 12.06367 9.163749 26.971263 13.083642 41.980852 11.029698 19.75346-2.697926 37.274981-12.927647 49.334651-28.803212s17.215529-35.497029 14.517603-55.250489a14.99959 14.99959 0 0 1 12.831649-16.891538 14.99359 14.99359 0 0 1 16.891539 12.831649c3.781897 27.693243-3.445906 55.202491-20.353444 77.457882s-41.468866 36.596999-69.162109 40.380896a88.117591 88.117591 0 0 1-11.917674 0.813977zM539.865238 244.177323c-18.817485 0-37.030987-6.099833-52.272571-17.679516-18.443496-14.009617-30.327171-34.36506-33.461085-57.312433-5.399852-39.538919 22.373388-76.095919 61.910307-81.497772 16.119559-2.19994 32.125122 2.003945 45.076768 11.843676s21.297418 24.13334 23.499357 40.2489c2.125942 15.567574-2.895921 30.691161-13.433632 40.454894-9.729734 9.017753-23.249364 12.483659-37.096986 9.50374a14.99959 14.99959 0 0 1-11.509685-17.817513 14.98959 14.98959 0 0 1 17.817513-11.509685c4.333881 0.929975 7.831786 0.197995 10.397715-2.181941 3.321909-3.077916 4.891866-8.589765 4.099888-14.389606a30.691161 30.691161 0 0 0-11.921674-20.421442 30.665161 30.665161 0 0 0-22.869375-6.007835 42.092849 42.092849 0 0 0-28.005234 16.349552 42.092849 42.092849 0 0 0-8.241774 31.363143c2.049944 15.00959 9.821731 28.321226 21.885401 37.484975 12.06167 9.163749 26.973262 13.081642 41.980852 11.029698 40.776885-5.569848 69.420102-43.276817 63.850254-84.053701a14.99959 14.99959 0 0 1 12.831649-16.891538 14.99759 14.99759 0 0 1 16.891539 12.831649c7.807787 57.166437-32.347116 110.028991-89.513553 117.838778a88.065592 88.065592 0 0 1-11.915674 0.813977z" fill="#495059" /><path d="M446.617788 750.953466c-2.359935 0-4.75587-0.259993-7.153805-0.803978l-0.997972-0.225994c-8.311773-1.897948-30.401169-6.93981-53.492538-2.589929-17.513521 3.29391-34.37706-8.221775-37.672969-25.729296-3.29791-17.507521 8.221775-34.37506 25.729296-37.67297 36.293008-6.837813 69.038112 0.637983 79.795818 3.093915l0.889976 0.203995c17.375525 3.935892 28.271227 21.21142 24.335334 38.586944-3.391907 14.975591-16.697543 25.137313-31.43314 25.137313z" fill="#498A68" /><path d="M739.807771 105.755108l-22.205393 6.301828c-7.933783 2.251938-15.655572-4.165886-14.893593-12.377662l2.133942-22.983371a11.739679 11.739679 0 0 0-1.937947-7.623792l-12.855649-19.171475c-4.593874-6.849813-0.875976-16.177558 7.169804-17.989509l22.519385-5.071861a11.745679 11.745679 0 0 0 6.651818-4.199885l14.25961-18.151504c5.095861-6.485823 15.113587-5.831841 19.323471 1.259966l11.781678 19.849457a11.731679 11.731679 0 0 0 6.049835 5.027863l21.669407 7.953782c7.741788 2.841922 10.217721 12.571656 4.77387 18.767487l-15.237584 17.339526a11.739679 11.739679 0 0 0-2.91192 7.3058l-0.867976 23.069369c-0.309992 8.241775-8.799759 13.601628-16.373552 10.339718l-21.199421-9.131751a11.737679 11.737679 0 0 0-7.849785-0.513986zM100.651248 212.85018l-18.891484 13.263637c-6.749815 4.73987-16.153558 1.221967-18.137504-6.781814l-5.553848-22.405388a11.735679 11.735679 0 0 0-4.341881-6.55982l-18.453495-13.867621c-6.59182-4.955864-6.153832-14.98559 0.845976-19.347471l19.591465-12.205666a11.741679 11.741679 0 0 0 4.897866-6.155832l7.487795-21.835403c2.675927-7.801787 12.349662-10.483713 18.66149-5.173859l17.661517 14.861594a11.743679 11.743679 0 0 0 7.367798 2.755925l23.079369 0.37399c8.245775 0.133996 13.787623 8.505767 10.687708 16.149558l-8.675763 21.389415a11.747679 11.747679 0 0 0-0.34399 7.857785l6.775814 22.065397c2.421934 7.883784-3.829895 15.74157-12.05567 15.153586l-23.02537-1.641956a11.745679 11.745679 0 0 0-7.577793 2.103943z" fill="#FAE17C" /></svg>