<?xml version="1.0" standalone="no"?><!DOCTYPE svg PUBLIC "-//W3C//DTD SVG 1.1//EN" "http://www.w3.org/Graphics/SVG/1.1/DTD/svg11.dtd"><svg class="icon" width="200px" height="200.00px" viewBox="0 0 1024 1024" version="1.1" xmlns="http://www.w3.org/2000/svg"><path d="M734.848 732.774a15 15 0 0 1-10.512-25.702c37.298-36.634 45.17-78.056 24.068-126.632a15 15 0 0 1 27.516-11.952c26.26 60.45 15.978 114.278-30.562 159.988a14.952 14.952 0 0 1-10.51 4.298z" fill="#495059" /><path d="M733.864 783.62c-14.792 0-29.244-2.716-41.628-7.316-31.56-11.724-36.272-31.3-36.272-41.924 0-17.856 14.476-32.332 32.332-32.332 10.922 0 20.576 5.414 26.43 13.704 9.904 3.74 32.894 6.302 42.186-4.478 11.656-13.526 32.072-15.044 45.6-3.38 13.526 11.656 15.04 32.072 3.382 45.598-18.64 21.624-45.862 30.126-72.03 30.128z m-13.238-49.28v0z" fill="#498A68" /><path d="M468.436 876.824c-150.88 0-324.516 0-451.632-81.156-21.752-13.888-9.172-47.428 16.408-44.014 100.664 13.438 185.218-12.186 233.434-53.692l201.79 178.862z" fill="#5CB38E" /><path d="M209.732 732.204c1.682 48.184 9.078 96.282 38.78 136.274 73.554 8.346 149.236 8.346 219.924 8.346l-201.79-178.862c-15.454 13.304-34.658 24.964-56.914 34.242z" opacity=".1" /><path d="M400.888 1024c-1.282 0-2.57-0.048-3.868-0.148-27.39-2.108-47.888-26.02-45.78-53.412 1.912-24.856-0.138-107.758-3.704-126.118-8.186-24.646 4.054-51.756 28.454-61.696 25.448-10.366 54.47 1.854 64.834 27.294 13.412 32.918 10.22 160.186 9.606 168.15-2.006 26.092-23.804 45.928-49.542 45.93z m-52.216-176.596l0.024 0.058-0.024-0.058zM581.286 1024c-1.282 0-2.57-0.048-3.868-0.148-27.39-2.108-47.888-26.02-45.78-53.412 1.912-24.856-0.138-107.758-3.706-126.118-8.186-24.646 4.054-51.756 28.454-61.696 25.446-10.366 54.47 1.854 64.834 27.294 13.412 32.92 10.22 160.186 9.606 168.15-2.004 26.092-23.802 45.928-49.54 45.93z m-52.216-176.594l0.024 0.056a0.586 0.586 0 0 1-0.024-0.056z" fill="#498A68" /><path d="M631.596 931.976c-0.04-42.28-1.864-101.162-10.376-122.054-10.364-25.442-39.388-37.66-64.834-27.294-24.4 9.942-36.64 37.052-28.454 61.696 2.86 14.722 4.742 70.926 4.392 105.442 38.402-2.522 71.308-8.392 99.272-17.79zM375.99 782.628c-24.4 9.942-36.64 37.052-28.454 61.696 2.492 12.832 4.242 57.174 4.418 91.208 28.22 8.162 61.118 13.056 99.152 14.868 0.46-41.34-0.438-116.32-10.282-140.478-10.364-25.442-39.386-37.66-64.834-27.294z" opacity=".1" /><path d="M713.208 701.322c0 116.126-15.774 200.152-227.098 200.152-211.326 0-227.098-84.026-227.098-200.152s101.676-210.264 227.098-210.264c125.422 0.002 227.098 94.14 227.098 210.264z" fill="#5CB38E" /><path d="M713.208 701.322c0-0.926-0.024-1.846-0.038-2.768-47.302-12.138-141.124-15.67-206.414 53.716-47.578 50.562-54.462 105.126-49.358 148.642 9.146 0.372 18.708 0.562 28.712 0.562 211.324 0 227.098-84.026 227.098-200.152z" fill="#9BDFC1" /><path d="M442.996 494.86c-104.802 18.65-183.986 103.988-183.986 206.462 0 107.526 13.55 187.52 183.322 198.78-94.262-95.676-76.03-293.224 0.664-405.242z" opacity=".05" /><path d="M694.562 188.24a209.444 209.444 0 0 0-174.702-93.918h-86.424c-122.87 0-222.474 99.606-222.474 222.476v102.286c0 110.274 89.396 199.67 199.67 199.67h458.13c82.61 0 149.576-66.968 149.576-149.576V399.56c0-82.61-66.968-149.578-149.576-149.578h-59.348a137.684 137.684 0 0 1-114.852-61.742z" fill="#5CB38E" /><path d="M331.802 467.7m-15.31 0a15.31 15.31 0 1 0 30.62 0 15.31 15.31 0 1 0-30.62 0Z" opacity=".1" /><path d="M440.662 491.06m-15.31 0a15.31 15.31 0 1 0 30.62 0 15.31 15.31 0 1 0-30.62 0Z" opacity=".1" /><path d="M378.382 543.28m-15.31 0a15.31 15.31 0 1 0 30.62 0 15.31 15.31 0 1 0-30.62 0Z" opacity=".1" /><path d="M343.87 258.32a38.592 19.798 0 1 0 77.184 0 38.592 19.798 0 1 0-77.184 0Z" fill="#FFA8CB" /><path d="M602.95 258.32a38.592 19.798 0 1 0 77.184 0 38.592 19.798 0 1 0-77.184 0Z" fill="#FFA8CB" /><path d="M431.418 234.056a15 15 0 0 1-15-15v-19.228c0-8.286 6.716-15 15-15s15 6.714 15 15v19.228a15 15 0 0 1-15 15zM592.586 234.056a15 15 0 0 1-15-15v-19.228c0-8.286 6.716-15 15-15s15 6.714 15 15v19.228a15 15 0 0 1-15 15zM839.16 523.382a55.516 55.516 0 0 1-41.85-19.058 15 15 0 1 1 22.616-19.71 25.524 25.524 0 0 0 19.236 8.77c7.368 0 14.378-3.198 19.236-8.77a15 15 0 1 1 22.616 19.71 55.524 55.524 0 0 1-41.854 19.058z" fill="#495059" /><path d="M790.382 328.12m-15.31 0a15.31 15.31 0 1 0 30.62 0 15.31 15.31 0 1 0-30.62 0Z" fill="#495059" /><path d="M887.942 328.12m-15.31 0a15.31 15.31 0 1 0 30.62 0 15.31 15.31 0 1 0-30.62 0Z" fill="#495059" /><path d="M384.012 99.84c-99.08 22.478-173.05 111.074-173.05 216.956v102.286c0 110.274 89.396 199.67 199.67 199.67h121.16c-176.454-102.666-206.362-384.88-147.78-518.912z" opacity=".05" /><path d="M676.34 161.168H276.61c-13.944 0-21.522-16.302-12.532-26.962l27.04-32.062a73.408 73.408 0 0 1 56.114-26.082h264.952a73.408 73.408 0 0 1 62.406 34.754l15.686 25.326c6.764 10.922-1.09 25.026-13.936 25.026z" fill="#959BA0" /><path d="M512.002 80.58m-80.58 0a80.58 80.58 0 1 0 161.16 0 80.58 80.58 0 1 0-161.16 0Z" fill="#E5E5E5" /><path d="M512.002 80.58m-17.812 0a17.812 17.812 0 1 0 35.624 0 17.812 17.812 0 1 0-35.624 0Z" fill="#959BA0" /><path d="M308.682 327.78m-49.674 0a49.674 49.674 0 1 0 99.348 0 49.674 49.674 0 1 0-99.348 0Z" fill="#E5E5E5" /><path d="M921.858 772.338a14.948 14.948 0 0 1-7.14-1.816l-56.654-30.736a85.34 85.34 0 0 0-47.326-10.112l-39.558 3.018a249.61 249.61 0 0 1-87.938-8.942c-65.836-18.842-126.354-50.056-179.872-92.78-53.52-42.72-97.37-94.816-130.334-154.84l-68.914-125.486a15 15 0 0 1 26.294-14.442l68.912 125.486c31.048 56.534 72.346 105.6 122.752 145.836 50.408 40.236 107.406 69.636 169.412 87.382a219.57 219.57 0 0 0 77.402 7.87l39.556-3.018a115.47 115.47 0 0 1 63.914 13.654l56.656 30.736a15 15 0 0 1 6.032 20.338 14.98 14.98 0 0 1-13.194 7.852z" fill="#495059" /><path d="M934.262 772.02m-64.12 0a64.12 64.12 0 1 0 128.24 0 64.12 64.12 0 1 0-128.24 0Z" fill="#959BA0" /><path d="M934.262 772.02m-15.31 0a15.31 15.31 0 1 0 30.62 0 15.31 15.31 0 1 0-30.62 0Z" fill="#E5E5E5" /><path d="M483.184 755.136c-12.878 0-25.052-7.748-30.076-20.45-6.568-16.606 1.57-35.39 18.174-41.958l0.942-0.372c7.954-3.13 29.082-11.448 45.736-28.11 12.622-12.63 33.094-12.634 45.724-0.014 12.63 12.622 12.636 33.094 0.014 45.724-26.176 26.192-57.498 38.52-67.792 42.572l-0.842 0.332a32.268 32.268 0 0 1-11.88 2.276z" fill="#498A68" /></svg>