<?xml version="1.0" standalone="no"?><!DOCTYPE svg PUBLIC "-//W3C//DTD SVG 1.1//EN" "http://www.w3.org/Graphics/SVG/1.1/DTD/svg11.dtd"><svg class="icon" width="200px" height="200.00px" viewBox="0 0 1024 1024" version="1.1" xmlns="http://www.w3.org/2000/svg"><path d="M402.75446 795.278c-131.314 0-282.43 0-393.06-70.63-18.93-12.086-7.982-41.278 14.28-38.306 87.608 11.696 161.196-10.604 203.16-46.73l175.62 155.666z" fill="#5CB38E" /><path d="M177.60446 669.414c1.464 41.936 7.9 83.794 33.75 118.6 64.014 7.264 129.88 7.264 191.402 7.264l-175.62-155.664c-13.448 11.578-30.164 21.726-49.532 29.8z" opacity=".1" /><path d="M343.97046 923.368c-1.114 0-2.236-0.042-3.366-0.13-23.838-1.834-41.678-22.644-39.844-46.486 1.664-21.632-0.12-93.782-3.224-109.76-7.124-21.448 3.526-45.042 24.76-53.698 22.142-9.022 47.404 1.612 56.428 23.752 11.674 28.646 8.896 139.414 8.362 146.344-1.748 22.712-20.718 39.976-43.116 39.978z m-45.446-153.69l0.02 0.048-0.02-0.048zM500.97046 923.368c-1.116 0-2.236-0.042-3.366-0.13-23.838-1.834-41.678-22.644-39.844-46.486 1.664-21.632-0.12-93.782-3.224-109.762-7.124-21.448 3.528-45.044 24.762-53.696 22.148-9.022 47.406 1.614 56.426 23.754 11.672 28.648 8.892 139.412 8.36 146.342-1.746 22.712-20.714 39.976-43.114 39.978z m-45.446-153.694l0.02 0.05a0.866 0.866 0 0 0-0.02-0.05z" fill="#498A68" /><path d="M322.29646 713.298c-21.234 8.656-31.884 32.248-24.76 53.698 2.17 11.166 3.692 49.758 3.846 79.378 24.56 7.102 53.192 11.362 86.292 12.94 0.4-35.98-0.382-101.236-8.95-122.262-9.024-22.14-34.286-32.774-56.428-23.754zM544.75446 843.278c-0.034-36.798-1.62-88.044-9.028-106.226-9.02-22.14-34.278-32.776-56.426-23.754-21.234 8.652-31.886 32.244-24.762 53.696 2.49 12.812 4.126 61.728 3.82 91.766 33.422-2.194 62.058-7.302 86.396-15.482z" opacity=".1" /><path d="M615.78446 642.538c0 101.066-13.728 174.194-197.646 174.194s-197.646-73.128-197.646-174.194 88.488-182.994 197.646-182.994 197.646 81.928 197.646 182.994z" fill="#5CB38E" /><path d="M615.78446 642.538c0-0.806-0.022-1.606-0.032-2.41-41.168-10.564-122.822-13.636-179.644 46.75-41.408 44.006-47.4 91.492-42.958 129.364 7.96 0.324 16.282 0.488 24.988 0.488 183.916 0.002 197.646-73.128 197.646-174.192z" fill="#9BDFC1" /><path d="M380.61446 462.852c-91.21 16.232-160.124 90.5-160.124 179.688 0 93.58 11.792 163.2 159.546 173-82.036-83.27-66.17-255.198 0.578-352.688z" opacity=".05" /><path d="M612.05646 202.616a182.274 182.274 0 0 0-144.342-94.678l-74.928-6.556c-106.528-9.32-200.44 69.482-209.76 176.012l-7.758 88.682c-8.364 95.606 62.36 179.894 157.966 188.258l397.2 34.75c71.622 6.266 134.762-46.716 141.028-118.338l5.28-60.356c6.266-71.622-46.716-134.762-118.338-141.028l-51.456-4.502a119.836 119.836 0 0 1-94.892-62.244z" fill="#5CB38E" /><path d="M276.35046 417.392m-13.324 0a13.324 13.324 0 1 0 26.648 0 13.324 13.324 0 1 0-26.648 0Z" opacity=".1" /><path d="M368.95246 445.894m-13.324 0a13.324 13.324 0 1 0 26.648 0 13.324 13.324 0 1 0-26.648 0Z" opacity=".1" /><path d="M310.99046 486.454m-13.324 0a13.324 13.324 0 1 0 26.648 0 13.324 13.324 0 1 0-26.648 0Z" opacity=".1" /><path d="M350.321853 275.144705a33.588 17.23 5.003 1 0 3.005184-34.328712 33.588 17.23 5.003 1 0-3.005184 34.328712Z" fill="#FFA8CB" /><path d="M577.976696 260.439803a33.588 17.23 5.003 1 0-3.005185 34.328712 33.588 17.23 5.003 1 0 3.005185-34.328712Z" fill="#FFA8CB" /><path d="M397.28046 242.646a15 15 0 0 1-14.962-16.308l1.46-16.672a15 15 0 0 1 29.886 2.618l-1.458 16.672a15 15 0 0 1-14.926 13.69zM537.01246 254.872a15 15 0 0 1-14.96-16.308l1.46-16.672a15 15 0 1 1 29.886 2.618l-1.46 16.672a15 15 0 0 1-14.926 13.69zM716.20646 506.284a50.268 50.268 0 0 1-40.618-20.684 14.996 14.996 0 0 1 3.292-20.954 14.996 14.996 0 0 1 20.956 3.292 20.276 20.276 0 0 0 14.61 8.27c5.84 0.524 11.592-1.534 15.818-5.606a15 15 0 0 1 20.816 21.602 50.272 50.272 0 0 1-34.874 14.08z" fill="#495059" /><path d="M684.52246 331.15m-13.324 0a13.324 13.324 0 1 0 26.648 0 13.324 13.324 0 1 0-26.648 0Z" fill="#495059" /><path d="M769.10446 338.55m-13.324 0a13.324 13.324 0 1 0 26.648 0 13.324 13.324 0 1 0-26.648 0Z" fill="#495059" /><path d="M349.51646 102.418c-87.608 11.972-158.46 83.174-166.49 174.976l-7.758 88.682c-8.364 95.606 62.36 179.894 157.966 188.258l105.046 9.19c-145.198-102.398-149.722-349.346-88.764-461.106z" opacity=".05" /><path d="M856.44846 869.432a15 15 0 0 1-8.008-27.694c15.286-9.63 31.67-38.14 34.374-59.818 1.046-8.388-0.084-15.02-3.102-18.192a15 15 0 1 1 21.736-20.68c9.514 9.998 13.366 24.724 11.136 42.586-3.816 30.614-25.418 67.168-48.154 81.488a14.938 14.938 0 0 1-7.982 2.31zM987.49046 885.256a14.94 14.94 0 0 1-10.146-3.956c-34.864-32.036-18.936-64.702-4.884-93.518 13.088-26.838 27.92-57.258 18.678-100.294-5.952-27.71-40.338-52.55-85.474-44.37a14.998 14.998 0 0 1-17.436-12.084 15.004 15.004 0 0 1 12.084-17.436c24.204-4.384 50.508-0.99 72.172 9.316 25.476 12.12 42.522 32.814 47.988 58.272 11.418 53.172-7.344 91.648-21.044 119.744-14.99 30.742-19.284 42.196-1.78 58.28a15 15 0 0 1-10.158 26.046z" fill="#959BA0" /><path d="M788.67046 638.464l-52.492 144.23-451.914-164.472 52.492-144.23z" fill="#FAE17C" /><path d="M336.75446 473.992l-52.49 144.23-85.516-31.124 52.492-144.228z" fill="#E5E5E5" /><path d="M251.25246 442.884l-52.496 144.228-69.398-25.258c-21.542-7.84-32.648-31.66-24.808-53.202l24.1-66.218c7.84-21.542 31.658-32.648 53.202-24.808l69.4 25.258z" fill="#CD5B5B" /><path d="M848.41646 701.066l-59.744-62.578-52.494 144.228 85.992-9.534z" fill="#FFA8CB" /><path d="M822.17046 773.182l54.606-6.056c12.856-1.426 18.512-16.964 9.58-26.32l-37.94-39.74-26.246 72.116z" fill="#495059" /><path d="M757.31446 724.684l-451.916-164.472 10.26-28.192 451.916 164.472z" opacity=".1" /><path d="M149.69646 419.232c-9.432 4.53-17.178 12.59-21.04 23.2l-24.1 66.218c-7.84 21.542 3.266 45.362 24.808 53.202l373.146 135.814C359.62846 608.04 166.87646 530.56 149.69646 419.232z" opacity=".1" /><path d="M419.71846 709.578a28.1 28.1 0 0 1-22.984-11.872c-8.984-12.68-5.988-30.242 6.692-39.228 6.866-4.864 12.782-10.186 17.588-15.816 10.084-11.82 27.848-13.228 39.67-3.14 11.822 10.088 13.228 27.848 3.142 39.672-7.826 9.17-17.2 17.652-27.862 25.206a28.048 28.048 0 0 1-16.246 5.178z" fill="#498A68" /></svg>