<?xml version="1.0" standalone="no"?><!DOCTYPE svg PUBLIC "-//W3C//DTD SVG 1.1//EN" "http://www.w3.org/Graphics/SVG/1.1/DTD/svg11.dtd"><svg class="icon" width="200px" height="200.00px" viewBox="0 0 1024 1024" version="1.1" xmlns="http://www.w3.org/2000/svg"><path d="M740.612553 773.31049c-11.677977 0-22.975955-6.271988-28.863943-17.291967-11.213978-20.983959-29.201943-35.229931-35.97193-40.59192l-0.821998-0.653999c-14.133972-11.233978-16.485968-31.799938-5.24999-45.93591 11.229978-14.133972 31.795938-16.491968 45.93591-5.24999l0.731999 0.579999c8.761983 6.939986 35.421931 28.053945 53.047896 61.035881 8.509983 15.923969 2.499995 35.73193-13.425974 44.243913a32.613936 32.613936 0 0 1-15.38197 3.863993z" fill="#498A68" /><path d="M467.947086 833.214373c-152.567702 0-328.145359 0-456.681108-82.06384-21.995957-14.041973-9.273982-47.957906 16.591968-44.505913 101.789801 13.587973 187.289634-12.321976 236.043539-54.293894l204.045601 180.863647z" fill="#5CB38E" /><path d="M206.351597 686.976658c1.699997 48.723905 9.179982 97.35781 39.213923 137.797731 74.375855 8.437984 150.903705 8.439984 222.381566 8.439984l-204.045601-180.861647c-15.625969 13.453974-35.045932 25.241951-57.549888 34.623932z" opacity=".1" /><path d="M399.647219 982.036082c-1.293997 0-2.597995-0.05-3.909992-0.15-27.695946-2.129996-48.423905-26.307949-46.29391-54.005894 1.931996-25.135951-0.14-108.969787-3.745992-127.531751-8.275984-24.919951 4.101992-52.333898 28.773944-62.385878 25.72595-10.47398 55.075892 1.877996 65.559872 27.603946 13.555974 33.283935 10.33198 161.973684 9.713981 170.025668-2.029996 26.383948-24.069953 46.443909-50.097903 46.443909z m-52.803896-178.571651l0.022 0.056-0.022-0.056zM582.058863 982.036082c-1.295997 0-2.599995-0.05-3.913992-0.15-27.695946-2.131996-48.421905-26.311949-46.28991-54.011894 1.935996-25.129951-0.138-108.947787-3.745992-127.521751-8.277984-24.919951 4.095992-52.331898 28.769943-62.387878 25.71395-10.48198 55.073892 1.871996 65.561872 27.597946 13.565974 33.293935 10.33398 161.981684 9.715981 170.035668-2.031996 26.379948-24.071953 46.437909-50.097902 46.437909z m-52.797897-178.563651l0.02 0.054c-0.004-0.018-0.014-0.038-0.02-0.054z" fill="#498A68" /><path d="M632.932764 888.984264c-0.04-42.751917-1.883996-102.2938-10.49198-123.421759-10.48598-25.72595-39.847922-38.079926-65.561872-27.597946-24.671952 10.05798-37.047928 37.467927-28.769943 62.387878 2.893994 14.893971 4.795991 71.72186 4.439991 106.617792 38.831924-2.547995 72.105859-8.483983 100.383804-17.985965zM374.471269 737.962559c-24.671952 10.05198-37.049928 37.465927-28.773944 62.385878 2.519995 12.971975 4.287992 57.813887 4.467991 92.23182 28.535944 8.251984 61.801879 13.201974 100.261804 15.03397 0.463999-41.799918-0.445999-117.61777-10.395979-142.045722-10.48398-25.72795-39.833922-38.081926-65.559872-27.605946z" opacity=".1" /><path d="M715.456603 655.750719c0 117.423771-15.949969 202.389605-229.637552 202.389605s-229.637551-84.965834-229.637551-202.389605 102.811799-212.613585 229.637551-212.613585c126.823752 0 229.637551 95.189814 229.637552 212.613585z" fill="#5CB38E" /><path d="M715.456603 655.750719c0-0.935998-0.026-1.865996-0.038-2.799994-47.829907-12.273976-142.701721-15.843969-208.721593 54.317894-48.109906 51.1279-55.071892 106.301792-49.909902 150.303706 9.247982 0.375999 18.917963 0.567999 29.033943 0.567999 213.685583 0 229.635551-84.965834 229.635552-202.389605z" fill="#9BDFC1" /><path d="M442.223136 446.979127c-105.973793 18.859963-186.043637 105.149795-186.043636 208.771592 0 108.727788 13.701973 189.61563 185.371638 201.001608-95.315814-96.745811-76.87985-296.503421 0.671998-409.7732z" opacity=".05" /><path d="M696.602639 136.929733a211.787586 211.787586 0 0 0-176.655655-94.967815h-87.389829c-124.243757 0-224.963561 100.719803-224.96356 224.963561v103.429798c0 111.507782 90.393823 201.901606 201.901605 201.901605h463.255095c83.533837 0 151.249705-67.717868 151.249705-151.249704v-70.393863c0-83.533837-67.715868-151.249705-151.249705-151.249704H812.738413a139.227728 139.227728 0 0 1-116.135774-62.433878z" fill="#5CB38E" /><path d="M329.801356 419.519181m-15.48197 0a15.48197 15.48197 0 1 0 30.96394 0 15.48197 15.48197 0 1 0-30.96394 0Z" opacity=".1" /><path d="M439.861141 443.139134m-15.48197 0a15.48197 15.48197 0 1 0 30.96394 0 15.48197 15.48197 0 1 0-30.96394 0Z" opacity=".1" /><path d="M376.881264 495.939031m-15.48197 0a15.48197 15.48197 0 1 0 30.96394 0 15.48197 15.48197 0 1 0-30.96394 0Z" opacity=".1" /><path d="M314.319386 207.779594a39.021924 20.019961 0 1 0 78.043848 0 39.021924 20.019961 0 1 0-78.043848 0Z" fill="#FFA8CB" /><path d="M576.298874 207.779594a39.021924 20.019961 0 1 0 78.043848 0 39.021924 20.019961 0 1 0-78.043848 0Z" fill="#FFA8CB" /><path d="M402.839213 183.093642a14.997971 14.997971 0 0 1-14.99997-14.99997v-19.445962c0-8.285984 6.713987-14.999971 14.99997-14.999971s14.999971 6.713987 14.999971 14.999971v19.445962a14.999971 14.999971 0 0 1-14.999971 14.99997zM565.808895 183.093642a14.997971 14.997971 0 0 1-14.999971-14.99997v-19.445962c0-8.285984 6.713987-14.999971 14.999971-14.999971s14.999971 6.713987 14.999971 14.999971v19.445962a14.999971 14.999971 0 0 1-14.999971 14.99997z" fill="#495059" /><path d="M793.48045 278.359456m-15.48197 0a15.48197 15.48197 0 1 0 30.96394 0 15.48197 15.48197 0 1 0-30.96394 0Z" fill="#495059" /><path d="M892.140258 278.359456m-15.48197 0a15.48197 15.48197 0 1 0 30.963939 0 15.48197 15.48197 0 1 0-30.963939 0Z" fill="#495059" /><path d="M382.579253 47.541907c-100.187804 22.727956-174.985658 112.315781-174.985658 219.381572v103.429798c0 111.507782 90.393823 201.901606 201.901605 201.901605h122.513761C353.585309 468.441085 323.341368 183.073642 382.579253 47.541907z" opacity=".05" /><path d="M610.822807 799.346439h-64.891873a15.35997 15.35997 0 0 1-15.25997-13.621974l-11.303978-99.305806h118.021769l-11.303978 99.305806a15.35997 15.35997 0 0 1-15.26197 13.621974z" fill="#CD5B5B" /><path d="M872.358296 447.973125c-7.455985 7.787985-17.907965 12.681975-29.541942 12.681975a40.677921 40.677921 0 0 1-23.735954-7.637985l16.159969 61.57988c5.655989 21.547958-5.727989 43.911914-26.475949 52.021898-20.961959 8.187984-44.757913 5.777989-63.649875-6.455987l-68.459867-44.345913a80.743842 80.743842 0 0 0-82.499838-3.163994 80.719842 80.719842 0 0 0-42.185918 70.959861v68.255867c0 14.583972 11.821977 26.405948 26.405948 26.405948s26.405948-11.821977 26.405949-26.405948v-68.255867c0-15.003971 10.21198-22.173957 14.601971-24.561952 4.391991-2.389995 15.963969-7.059986 28.559944 1.093998l68.459867 44.345913c33.119935 21.449958 74.831854 25.67595 111.583782 11.317978 45.717911-17.863965 70.795862-67.137869 58.335886-114.613776l-13.963973-53.221896z" fill="#A3E3FF" /><path d="M749.198537 562.596901a69.955863 69.955863 0 0 1-4.083992-2.433995l-68.459867-44.347913a80.743842 80.743842 0 0 0-82.499838-3.163994 80.719842 80.719842 0 0 0-42.185918 70.959861v68.255867c0 14.583972 11.821977 26.405948 26.405948 26.405948s26.405948-11.821977 26.405949-26.405948v-68.255867c0-15.003971 10.21198-22.173957 14.601971-24.561952 4.391991-2.389995 15.963969-7.059986 28.559944 1.091998l68.457867 44.345913a122.479761 122.479761 0 0 0 32.591936 14.843971c-6.687987-17.613966-7.161986-40.85392 0.206-56.733889z" fill="#806C6C" /><path d="M652.850725 635.470759h-148.947709a10.04198 10.04198 0 0 0-10.043981 10.04398v30.85794a10.04198 10.04198 0 0 0 10.043981 10.04398h148.947709a10.04398 10.04398 0 0 0 10.04398-10.04398v-30.85794a10.04598 10.04598 0 0 0-10.04398-10.04398z" fill="#FFFFFF" /><path d="M517.992988 770.102496c-1.843996 0-3.709993-0.154-5.587989-0.479999-29.747942-5.12199-70.193863-24.483952-83.889836-35.039932-14.303972-11.021978-16.959967-31.551938-5.937988-45.85191 10.999979-14.273972 31.469939-16.953967 45.77191-5.999988 6.107988 4.403991 35.92393 19.141963 55.153893 22.451956 17.793965 3.065994 29.735942 19.973961 26.671947 37.767926-2.741995 15.917969-16.561968 27.151947-32.181937 27.151947z" fill="#498A68" /><path d="M842.816354 475.653071a55.971891 55.971891 0 0 1-42.193918-19.213962 14.999971 14.999971 0 0 1 22.617956-19.709962c4.94399 5.671989 12.077976 8.925983 19.575962 8.925983s14.631971-3.253994 19.575962-8.925983a14.999971 14.999971 0 0 1 22.617955 19.709962 55.967891 55.967891 0 0 1-42.193917 19.213962z" fill="#495059" /></svg>