<?xml version="1.0" standalone="no"?><!DOCTYPE svg PUBLIC "-//W3C//DTD SVG 1.1//EN" "http://www.w3.org/Graphics/SVG/1.1/DTD/svg11.dtd"><svg class="icon" width="200px" height="200.00px" viewBox="0 0 1024 1024" version="1.1" xmlns="http://www.w3.org/2000/svg"><path d="M324.107367 789.804457c-9.895981 0-19.603962-4.787991-25.50195-13.639973-9.375982-14.069973-5.569989-33.075935 8.499983-42.451917 29.147943-19.421962 60.495882-25.047951 70.795862-26.893948l0.849998-0.153999c16.637968-3.015994 32.567936 8.031984 35.579931 24.665952 3.011994 16.637968-8.029984 32.565936-24.665952 35.57993l-0.951998 0.17c-7.961984 1.427997-29.109943 5.22199-47.657907 17.583965a30.459941 30.459941 0 0 1-16.947967 5.13999z" fill="#498A68" /><path d="M624.73678 811.966414c137.98973-36.973928 296.78942-79.523845 393.157232-184.895639 16.489968-18.031965-3.233994-45.623911-25.79195-36.231929-88.769827 36.957928-172.379663 34.243933-226.647557 8.099984l-140.717725 213.027584z" fill="#5CB38E" /><path d="M825.896387 616.304796c10.26998 44.479913 15.29197 90.279824-2.071996 134.133738-65.223873 25.65795-134.439737 44.203914-199.087611 61.52588l140.717725-213.029584c17.393966 8.381984 37.813926 14.339972 60.441882 17.369966z" opacity=".1" /><path d="M652.970725 970.924104c-24.371952 0.002-45.005912-18.777963-46.907909-43.483915-0.579999-7.539985-3.605993-128.04175 9.097983-159.213689 9.819981-24.087953 37.307927-35.65193 61.38788-25.84195 23.101955 9.415982 34.689932 35.083931 26.937947 58.417886-3.377993 17.385966-5.31799 95.875813-3.507993 119.407767 1.995996 25.935949-17.409966 48.577905-43.343915 50.573901a48.079906 48.079906 0 0 1-3.663993 0.14z m49.439903-167.203674l-0.02 0.052a0.399999 0.399999 0 0 1 0.02-0.052zM460.9231 962.860119c-21.227959 0-40.497921-14.453972-45.729911-35.995929-16.039969-66.063871 0.09-136.317734 40.137922-174.815659 18.751963-18.031965 48.565905-17.437966 66.58987 1.313998 18.025965 18.751963 17.437966 48.563905-1.313998 66.58987-17.247966 16.581968-20.63396 56.869889-13.879973 84.687834 6.137988 25.275951-9.377982 50.741901-34.655932 56.879889-3.729993 0.903998-7.469985 1.339997-11.147978 1.339997z" fill="#498A68" /><path d="M520.608983 819.950399c18.751963-18.025965 19.339962-47.839907 1.313998-66.58987-18.023965-18.751963-47.839907-19.343962-66.58987-1.313998-30.70794 29.519942-47.329908 77.711848-46.19391 128.365749 26.743948 15.13397 58.801885 22.569956 96.807811 22.571956h0.028l0.375999-0.004c-6.231988-27.737946-2.651995-66.77187 14.257972-83.029837zM676.548679 742.38455c-24.081953-9.809981-51.569899 1.751997-61.38788 25.84195-8.469983 20.783959-9.945981 81.265841-9.817981 121.513762 6.987986-1.651997 14.125972-3.439993 21.463958-5.405989 27.195947-7.285986 51.4359-15.35797 72.933857-24.301953 0.663999-25.37595 2.015996-50.321902 3.747993-59.227884 7.749985-23.335954-3.837993-49.001904-26.939947-58.419886z" opacity=".1" /><path d="M357.871301 711.44261c28.457944 106.203793 63.473876 179.18565 256.743499 127.399752s187.103635-132.499741 158.64769-238.703534-144.515718-167.381673-259.221494-136.645733c-114.707776 30.73394-184.627639 141.745723-156.169695 247.949515z" fill="#5CB38E" /><path d="M357.871301 711.44261c-0.226-0.845998-0.429999-1.693997-0.643999-2.541995 40.285921-22.693956 125.227755-48.913904 201.941606-1.455997 55.903891 34.583932 75.569852 82.797838 81.567841 123.845758a672.738686 672.738686 0 0 1-26.121949 7.549986c-193.269623 51.785899-228.285554-21.195959-256.743499-127.397752z" fill="#9BDFC1" /><path d="M554.400917 456.403109c100.419804-8.625983 193.749622 50.015902 218.861573 143.735719 26.349949 98.339808 33.559934 174.819659-118.947768 226.719557 62.761877-110.601784-2.321995-286.80344-99.913805-370.455276z" opacity=".05" /><path d="M712.104609 113.341779s131.243744 167.729672 168.669671 266.817479c3.771993 9.98598 3.263994 21.081959-1.201998 30.777939l-28.173945 61.159881c-6.593987 14.313972-24.307953 19.509962-37.587926 11.025978l-42.481918-27.135947a41.09392 41.09392 0 0 1-17.983964-25.64595c-11.731977-52.303898-34.975932-173.401661-68.899866-255.355501l27.659946-61.643879z" fill="#CD5B5B" /><path d="M744.918545 391.515235l138.15173 6.291988c0.563999-5.933988-0.15-11.969977-2.293995-17.647965a310.891393 310.891393 0 0 0-5.15799-12.721976l-137.347732-6.255987a4531.749149 4531.749149 0 0 1 6.647987 30.33394zM700.724631 219.407571a971.796102 971.796102 0 0 1 9.249982 29.793942l97.55781-2.265995a1802.27448 1802.27448 0 0 0-19.777962-29.547943l-87.02983 2.019996z" fill="#FAE17C" /><path d="M715.462603 131.833743l-17.835966 30.891939a30.76794 30.76794 0 0 1-34.157933 14.451972l-46.09791-11.611977c-16.599968-4.179992-24.593952-23.075955-16.033968-37.901926l35.61793-61.69188c8.557983-14.823971 28.919944-17.349966 40.83992-5.06399l33.103936 34.115933a30.77194 30.77194 0 0 1 4.563991 36.809929z" fill="#CD5B5B" /><path d="M715.462603 131.833743l-17.835966 30.891939a30.76794 30.76794 0 0 1-34.157933 14.451972l-46.09791-11.611977c-16.599968-4.179992-24.593952-23.075955-16.033968-37.901926l35.61793-61.69188c8.557983-14.823971 28.919944-17.349966 40.83992-5.06399l33.103936 34.115933a30.77194 30.77194 0 0 1 4.563991 36.809929z" opacity=".2" /><path d="M249.189513 237.627536a198.305613 198.305613 0 0 1 136.759733-128.705749l79.039846-21.177958c112.371781-30.109941 227.875555 36.575929 257.985496 148.947709l25.065951 93.547817c27.023947 100.851803-32.825936 204.515601-133.679739 231.539548L195.371618 674.044684c-75.549852 20.24396-153.207701-24.591952-173.451661-100.141805l-17.059966-63.665876c-20.24396-75.549852 24.591952-153.207701 100.141804-173.451661l54.277894-14.543971a130.375745 130.375745 0 0 0 89.909824-84.613835z" fill="#5CB38E" /><path d="M179.681649 614.6108c-37.673926 0-73.627856-19.823961-93.225818-53.453896a15.001971 15.001971 0 0 1 25.92195-15.105971c17.603966 30.209941 53.521895 44.967912 87.339829 35.91793 33.821934-9.063982 57.543888-39.811922 57.683887-74.775854a14.999971 14.999971 0 0 1 14.997971-14.93997h0.062a14.999971 14.999971 0 0 1 14.939971 15.05997c-0.196 48.459905-33.057935 91.073822-79.917844 103.631798a107.27979 107.27979 0 0 1-27.801946 3.665993z" fill="#495059" /><path d="M277.193459 522.572979c-2.249996 0-4.507991-0.148-6.763987-0.449999a50.781901 50.781901 0 0 1-27.141947-12.393976 14.999971 14.999971 0 0 1 19.913961-22.437956 20.895959 20.895959 0 0 0 11.169978 5.09399c4.177992 0.551999 8.361984-0.14 12.107976-2.007996a14.999971 14.999971 0 1 1 13.387974 26.847948 50.723901 50.723901 0 0 1-22.673955 5.347989zM79.687844 576.002875a15.001971 15.001971 0 0 1-0.905998-29.971941 20.889959 20.889959 0 0 0 11.491978-4.317992 20.895959 20.895959 0 0 0 7.127986-9.995981 14.999971 14.999971 0 0 1 28.463944 9.475982 50.779901 50.779901 0 0 1-17.309966 24.303953 50.799901 50.799901 0 0 1-27.935945 10.477979 16.219968 16.219968 0 0 1-0.931999 0.028z" fill="#495059" /><path d="M649.438732 404.32121m-14.495972 0a14.495972 14.495972 0 1 0 28.991943 0 14.495972 14.495972 0 1 0-28.991943 0Z" opacity=".1" /><path d="M555.598915 452.361116m-14.495972 0a14.495972 14.495972 0 1 0 28.991944 0 14.495972 14.495972 0 1 0-28.991944 0Z" opacity=".1" /><path d="M625.378779 484.861053m-14.495972 0a14.495972 14.495972 0 1 0 28.991943 0 14.495972 14.495972 0 1 0-28.991943 0Z" opacity=".1" /><path d="M579.330457 227.706758a30.95394 45.179912 75.001 1 0 16.021894 59.798699 30.95394 45.179912 75.001 1 0-16.021894-59.798699Z" fill="#FFA8CB" /><path d="M342.37344 291.201776a30.95394 45.179912 75.001 1 0 16.021894 59.798699 30.95394 45.179912 75.001 1 0-16.021894-59.798699Z" fill="#FFA8CB" /><path d="M370.461276 277.241459a14.897971 14.897971 0 0 1-14.449971-11.167979l-0.042-0.165999a14.999971 14.999971 0 0 1 10.763979-18.279965c8.025984-2.083996 16.203968 2.745995 18.279964 10.763979 2.075996 8.019984-2.719995 16.287968-10.741979 18.363964a15.27997 15.27997 0 0 1-3.809993 0.486zM542.420941 239.249533a15.003971 15.003971 0 0 1-14.477972-11.121979l-6.001988-22.397956a14.999971 14.999971 0 0 1 10.605979-18.371964 14.993971 14.993971 0 0 1 18.371964 10.605979l6.001988 22.397957a14.999971 14.999971 0 0 1-14.499971 18.887963z" fill="#495059" /><path d="M195.839618 389.02124m-14.495972 0a14.495972 14.495972 0 1 0 28.991943 0 14.495972 14.495972 0 1 0-28.991943 0Z" fill="#495059" /><path d="M106.599792 412.941193m-14.495972 0a14.495972 14.495972 0 1 0 28.991943 0 14.495972 14.495972 0 1 0-28.991943 0Z" fill="#495059" /><path d="M511.543001 80.677842c96.123812-3.723993 185.485638 59.177884 211.431587 156.013696l25.065951 93.547817c27.023947 100.851803-32.825936 204.515601-133.679739 231.539548l-110.807784 29.689942c136.217734-137.135732 94.413816-402.565214 7.989985-510.791003z" opacity=".05" /><path d="M654.052723 142.011723L271.999469 204.491601c-17.311966 2.831994-30.59194-15.073971-22.857956-30.81994l19.907962-40.531921a56.19189 56.19189 0 0 1 41.367919-30.68194l282.079449-46.13191a53.553895 53.553895 0 0 1 46.297909 14.771971l28.797944 28.475945c14.523972 14.363972 6.617987 39.139924-13.539973 42.437917z" fill="#CD5B5B" /><path d="M294.497425 200.813608l45.76791-7.485986 94.685815-111.235782-45.76791 7.485985zM610.044809 56.39389a53.485896 53.485896 0 0 0-17.549966-0.066l-25.313951 4.139992-94.687815 111.235783 45.767911-7.483986 91.783821-107.825789z" fill="#FAE17C" /><path d="M634.266761 717.276599c-23.513954 0-43.571915-4.699991-52.309898-8.305984-15.627969-6.451987-23.065955-24.349952-16.613967-39.979922 6.425987-15.56197 24.189953-22.997955 39.773922-16.697967 3.973992 1.397997 29.381943 7.193986 52.801897 0.921998 16.337968-4.383991 33.119935 5.31599 37.493927 21.643958 4.375991 16.331968-5.31399 33.117935-21.643958 37.493927-13.351974 3.579993-26.921947 4.92399-39.501923 4.92399z" fill="#498A68" /><path d="M720.636593 725.452583h-38.869925a19.101963 19.101963 0 0 1-18.877963-16.181968l-17.283966-111.701782a8.035984 8.035984 0 0 1 7.939985-9.263982h95.311813a8.033984 8.033984 0 0 1 7.939985 9.263982l-17.283966 111.701782a19.099963 19.099963 0 0 1-18.875963 16.181968z" fill="#E5E5E5" /><path d="M165.477677 865.736309c-15.751969 0-30.995939-5.10599-43.755915-14.797971-15.43997-11.725977-25.38595-28.765944-28.009945-47.975906-4.557991-33.363935 18.875963-64.213875 52.241898-68.769866 13.721973-1.883996 27.353947 1.707997 38.381925 10.08598 11.029978 8.377984 18.135965 20.54996 20.009961 34.273933 1.839996 13.451974-2.535995 26.555948-11.703977 35.049932-8.529983 7.907985-20.34996 10.953979-32.419937 8.355984a14.997971 14.997971 0 1 1 6.307988-29.327943c3.741993 0.795998 5.22799-0.575999 5.717989-1.031998 1.941996-1.797996 2.873994-5.32599 2.373995-8.985983-1.629997-11.941977-12.673975-20.30796-24.611952-18.697963-16.971967 2.317995-28.895944 18.013965-26.577948 34.987932 1.541997 11.269978 7.375986 21.265958 16.433968 28.145945s20.24396 9.823981 31.525938 8.283983c31.127939-4.253992 52.995896-33.039935 48.743905-64.169874a14.995971 14.995971 0 0 1 12.829975-16.889967c8.211984-1.127998 15.769969 4.623991 16.891967 12.831975 6.491987 47.519907-26.885947 91.459821-74.405855 97.949808a73.235857 73.235857 0 0 1-9.97398 0.681999z" fill="#A9A6DE" /><path d="M922.012199 241.663528a15.003971 15.003971 0 0 1-9.083982-26.945947c25.019951-19.003963 29.911942-54.819893 10.905979-79.839844-14.203972-18.697963-40.97392-22.355956-59.669884-8.149985-6.609987 5.01999-10.867979 12.311976-11.989976 20.53396s1.023998 16.389968 6.043988 22.997955c7.291986 9.597981 21.027959 11.473978 30.62194 4.181992 2.941994-2.233996 4.777991-5.385989 4.677991-8.031984-0.026-0.667999-0.104-2.697995-3.315994-4.773991a14.995971 14.995971 0 0 1-4.459991-20.737959 14.999971 14.999971 0 0 1 20.73796-4.459991c10.37198 6.701987 16.573968 17.207966 17.017966 28.829943 0.473999 12.489976-5.695989 24.849951-16.507967 33.061936-22.769956 17.295966-55.361892 12.843975-72.657859-9.921981-20.37196-26.813948-15.12597-65.199873 11.685978-85.569833 31.869938-24.205953 77.497849-17.977965 101.705801 13.891973 29.013943 38.193925 21.545958 92.867819-16.645968 121.877762a14.953971 14.953971 0 0 1-9.065982 3.055994z" fill="#8783D2" /></svg>