<?xml version="1.0" standalone="no"?><!DOCTYPE svg PUBLIC "-//W3C//DTD SVG 1.1//EN" "http://www.w3.org/Graphics/SVG/1.1/DTD/svg11.dtd"><svg class="icon" width="200px" height="200.00px" viewBox="0 0 1024 1024" version="1.1" xmlns="http://www.w3.org/2000/svg"><path d="M290.954 809.162a32.6 32.6 0 0 1-23.904-10.382c-12.322-13.196-11.612-33.886 1.586-46.208 18.642-17.406 26.796-32.142 35.52-49.598 8.072-16.152 27.706-22.704 43.858-14.632 16.152 8.07 22.704 27.706 14.632 43.858-10.452 20.92-22.876 43.414-49.388 68.168a32.58 32.58 0 0 1-22.304 8.794z" fill="#498A68" /><path d="M556.052 833.216c152.568 0 328.146 0 456.682-82.064 21.996-14.042 9.274-47.958-16.592-44.506-101.79 13.588-187.29-12.322-236.044-54.294l-204.046 180.864z" fill="#5CB38E" /><path d="M817.65 686.978c-1.7 48.724-9.18 97.358-39.214 137.798-74.376 8.438-150.904 8.44-222.382 8.44l204.046-180.862c15.626 13.452 35.046 25.242 57.55 34.624z" opacity=".1" /><path d="M624.354 982.038c-26.03 0.002-48.068-20.058-50.096-46.446-0.618-8.05-3.844-136.744 9.714-170.026 10.482-25.728 39.83-38.086 65.56-27.604 24.672 10.05 37.05 37.464 28.774 62.386-3.606 18.562-5.678 102.396-3.746 127.534 2.13 27.698-18.598 51.876-46.294 54.006a50.52 50.52 0 0 1-3.912 0.15z m52.804-178.576l-0.022 0.058 0.022-0.058zM441.94 982.038c-26.028 0.002-48.066-20.058-50.096-46.444-0.62-8.05-3.848-136.744 9.714-170.032 10.484-25.724 39.84-38.078 65.558-27.6 24.672 10.054 37.05 37.466 28.772 62.388-3.606 18.564-5.68 102.394-3.746 127.53 2.13 27.696-18.596 51.878-46.292 54.006a50.4 50.4 0 0 1-3.91 0.152z m52.802-178.572l-0.024 0.058 0.024-0.058z" fill="#498A68" /><path d="M467.118 737.964c-25.718-10.478-55.076 1.876-65.558 27.6-8.608 21.124-10.452 80.666-10.492 123.42 28.278 9.502 61.55 15.438 100.382 17.988-0.356-34.904 1.548-91.734 4.44-106.62 8.278-24.922-4.098-52.334-28.772-62.388zM649.53 737.962c-25.728-10.482-55.076 1.876-65.56 27.604-9.95 24.426-10.86 100.244-10.396 142.046 38.46-1.832 71.724-6.782 100.262-15.034 0.178-34.418 1.948-79.258 4.466-92.23 8.278-24.922-4.098-52.334-28.772-62.386z" opacity=".1" /><path d="M308.544 655.752c0 117.424 15.95 202.39 229.638 202.39S767.82 773.176 767.82 655.752s-102.812-212.614-229.638-212.614c-126.824-0.002-229.638 95.19-229.638 212.614z" fill="#5CB38E" /><path d="M308.544 655.752c0-0.936 0.026-1.866 0.038-2.8 47.83-12.274 142.702-15.844 208.722 54.318 48.11 51.128 55.072 106.302 49.91 150.304-9.248 0.376-18.918 0.568-29.034 0.568-213.686-0.002-229.636-84.968-229.636-202.39z" fill="#9BDFC1" /><path d="M581.778 446.98c105.974 18.86 186.044 105.15 186.044 208.772 0 108.728-13.702 189.618-185.372 201.002 95.316-96.746 76.88-296.504-0.672-409.774z" opacity=".05" /><path d="M327.398 136.93a211.788 211.788 0 0 1 176.656-94.968h87.39c124.244 0 224.964 100.72 224.964 224.964v103.43c0 111.508-90.394 201.902-201.902 201.902H151.25C67.716 572.256 0 504.54 0 421.008v-70.394c0-83.532 67.716-151.25 151.25-151.25h60.012a139.232 139.232 0 0 0 116.136-62.434z" fill="#5CB38E" /><path d="M101.832 434.208c0 43.824 35.526 61.584 79.352 61.584 43.824 0 79.352-17.76 79.352-61.584s-35.526-79.352-79.352-79.352c-43.824 0.002-79.352 35.528-79.352 79.352z" fill="#495059" /><path d="M694.2 419.52m-15.482 0a15.482 15.482 0 1 0 30.964 0 15.482 15.482 0 1 0-30.964 0Z" opacity=".1" /><path d="M584.14 443.14m-15.482 0a15.482 15.482 0 1 0 30.964 0 15.482 15.482 0 1 0-30.964 0Z" opacity=".1" /><path d="M647.12 495.94m-15.482 0a15.482 15.482 0 1 0 30.964 0 15.482 15.482 0 1 0-30.964 0Z" opacity=".1" /><path d="M565.498 217.5a39.022 20.02 0 1 0 78.044 0 39.022 20.02 0 1 0-78.044 0Z" fill="#FFA8CB" /><path d="M303.518 217.5a39.022 20.02 0 1 0 78.044 0 39.022 20.02 0 1 0-78.044 0Z" fill="#FFA8CB" /><path d="M419.6 190.202a15 15 0 0 1-15-15c0-6.924-5.634-12.558-12.558-12.558s-12.558 5.634-12.558 12.558a15 15 0 0 1-30 0c0-23.466 19.09-42.558 42.558-42.558 23.466 0 42.558 19.09 42.558 42.558a15 15 0 0 1-15 15zM582.57 190.202a15 15 0 0 1-15-15 12.572 12.572 0 0 0-12.558-12.558 12.572 12.572 0 0 0-12.556 12.558 15 15 0 0 1-30 0c0-23.466 19.09-42.558 42.556-42.558s42.558 19.09 42.558 42.558a15 15 0 0 1-15 15z" fill="#495059" /><path d="M230.52 278.36m-15.482 0a15.482 15.482 0 1 0 30.964 0 15.482 15.482 0 1 0-30.964 0Z" fill="#495059" /><path d="M131.85 278.36m-15.482 0a15.482 15.482 0 1 0 30.964 0 15.482 15.482 0 1 0-30.964 0Z" fill="#495059" /><path d="M641.422 47.542c100.188 22.728 174.986 112.316 174.986 219.382v103.43c0 111.508-90.394 201.902-201.902 201.902h-122.514c178.424-103.814 208.666-389.182 149.43-524.714z" opacity=".05" /><path d="M279.28 762.7c-10.778 10.778-25.666 17.444-42.112 17.444-32.892 0-59.556-26.664-59.556-59.556 0-41.312-48.978-97.664-48.978-166.04 0-55.41 44.92-100.33 100.33-100.33s100.33 44.92 100.33 100.33c-0.002 68.666-7.622 165.758-50.014 208.152z" fill="#F27979" /><path d="M237.168 729.844a9.27 9.27 0 0 1-9.26-9.258c0-28.804-11.8-55.188-24.294-83.12-12.134-27.13-24.684-55.186-24.684-82.92 0-27.588 22.444-50.032 50.032-50.032s50.032 22.444 50.032 50.032c0 127.404-27.004 164.308-35.28 172.586a9.086 9.086 0 0 1-6.546 2.712z" fill="#CD5B5B" /><path d="M287.114 754.936c-1.712 0-3.438-0.15-5.16-0.454l-21.282-3.752a15 15 0 0 1 5.208-29.544l20.652 3.642 8.022-45.498-20.652-3.642a15 15 0 1 1 5.21-29.544l21.282 3.752a29.166 29.166 0 0 1 18.952 12.074 29.162 29.162 0 0 1 4.864 21.94l-8.244 46.756a29.166 29.166 0 0 1-12.074 18.952 29.136 29.136 0 0 1-16.778 5.318z m8.072-75.494h0.02-0.02z" fill="#495059" /><path d="M501.784 754.326a15.2 15.2 0 0 1-2.622-0.23l-196.45-34.64a15 15 0 0 1 5.208-29.544l196.45 34.64a15 15 0 0 1-2.586 29.774z" fill="#495059" /><path d="M514.986 770.83c-10.578 0-20.958-5.126-27.256-14.596-9.996-15.036-5.91-35.33 9.126-45.326 21.156-14.064 31.424-30.09 33.354-34.594 7.108-16.598 26.326-24.29 42.922-17.186 16.598 7.108 24.292 26.324 17.184 42.922-7.304 17.06-26.18 42.65-57.26 63.312a32.566 32.566 0 0 1-18.07 5.468z" fill="#498A68" /></svg>