<?xml version="1.0" standalone="no"?><!DOCTYPE svg PUBLIC "-//W3C//DTD SVG 1.1//EN" "http://www.w3.org/Graphics/SVG/1.1/DTD/svg11.dtd"><svg class="icon" width="200px" height="200.00px" viewBox="0 0 1024 1024" version="1.1" xmlns="http://www.w3.org/2000/svg"><path d="M741.138552 787.136463c-10.979979 0-21.703958-5.527989-27.877945-15.56797-12.473976-20.27396-31.293939-33.397935-38.379925-38.339925l-0.847998-0.591999c-14.791971-10.35398-18.391964-30.73794-8.037985-45.529911 10.34998-14.791971 30.73794-18.391964 45.529911-8.037984l0.757999 0.527999c9.167982 6.391988 37.065928 25.84795 56.665889 57.711887 9.461982 15.37597 4.663991 35.515931-10.715979 44.975912a32.533936 32.533936 0 0 1-17.093967 4.851991z" fill="#498A68" /><path d="M467.947086 849.88634c-152.567702 0-328.145359 0-456.681108-82.06384-21.995957-14.041973-9.273982-47.957906 16.591968-44.505913 101.789801 13.587973 187.289634-12.321976 236.043539-54.291894l204.045601 180.861647z" fill="#5CB38E" /><path d="M206.351597 703.648626c1.699997 48.723905 9.179982 97.35781 39.213923 137.797731 74.375855 8.437984 150.903705 8.439984 222.381566 8.439983l-204.045601-180.861647c-15.625969 13.453974-35.045932 25.243951-57.549888 34.623933z" opacity=".1" /><path d="M399.647219 998.708049c-1.293997 0-2.597995-0.05-3.909992-0.149999-27.695946-2.129996-48.423905-26.307949-46.29391-54.005895 1.931996-25.135951-0.14-108.969787-3.745992-127.531751-8.275984-24.919951 4.101992-52.333898 28.773944-62.385878 25.72595-10.47198 55.075892 1.877996 65.559872 27.603946 13.555974 33.283935 10.33198 161.973684 9.713981 170.025668-2.029996 26.383948-24.069953 46.443909-50.097903 46.443909z m-52.803896-178.571651l0.022 0.056a0.647999 0.647999 0 0 0-0.022-0.056zM615.798797 980.320085h-0.145999c-27.779946-0.078-50.233902-22.661956-50.155902-50.439901-0.034-2.203996-1.321997-24.317953-35.369931-107.60979l-0.847999-2.071996c-10.48198-25.72395 1.873996-55.075892 27.597946-65.561872 25.71395-10.48398 55.073892 1.871996 65.561872 27.597946l0.803999 1.971996c38.083926 93.157818 42.905916 126.937752 42.851916 145.959715-0.08 27.729946-22.585956 50.153902-50.295902 50.153902z" fill="#498A68" /><path d="M623.242783 784.206468l-0.803999-1.971996c-10.48598-25.72595-39.847922-38.081926-65.561872-27.597946-25.72395 10.48398-38.079926 39.837922-27.597946 65.561872l0.847999 2.071996c23.387954 57.209888 31.317939 85.555833 34.001933 98.413808 38.369925-4.803991 70.503862-13.577973 97.12781-26.531948-5.32599-22.781956-16.215968-56.627889-38.013925-109.945786zM374.471269 754.634526c-24.671952 10.05198-37.049928 37.465927-28.773944 62.385878 2.519995 12.973975 4.287992 57.813887 4.467991 92.23182 28.535944 8.251984 61.801879 13.201974 100.261804 15.033971 0.463999-41.799918-0.445999-117.61777-10.395979-142.045723-10.48398-25.72795-39.833922-38.077926-65.559872-27.605946z" opacity=".1" /><path d="M715.456603 672.422687c0 117.423771-15.949969 202.389605-229.637552 202.389604s-229.637551-84.965834-229.637551-202.389604 102.811799-212.613585 229.637551-212.613585c126.823752 0 229.637551 95.189814 229.637552 212.613585z" fill="#5CB38E" /><path d="M715.456603 672.422687c0-0.935998-0.026-1.865996-0.038-2.799995-47.829907-12.273976-142.701721-15.843969-208.721593 54.317894-48.109906 51.1279-55.071892 106.301792-49.909902 150.303706 9.247982 0.375999 18.917963 0.567999 29.033943 0.567999 213.685583 0 229.635551-84.965834 229.635552-202.389604z" fill="#9BDFC1" /><path d="M442.223136 463.651094c-105.973793 18.859963-186.043637 105.149795-186.043636 208.771593 0 108.727788 13.701973 189.61763 185.371638 201.001607-95.315814-96.745811-76.87985-296.503421 0.671998-409.7732z" opacity=".05" /><path d="M696.602639 153.6037a211.789586 211.789586 0 0 0-176.655655-94.969815h-87.389829c-124.243757 0-224.963561 100.719803-224.96356 224.963561v103.429798c0 111.507782 90.393823 201.901606 201.901605 201.901606h463.255095c83.533837 0 151.249705-67.715868 151.249705-151.249705v-70.391862c0-83.531837-67.715868-151.249705-151.249705-151.249705H812.738413a139.231728 139.231728 0 0 1-116.135774-62.433878z" fill="#5CB38E" /><path d="M857.396325 484.781053h-29.161943c-8.285984 0-14.999971-6.713987-14.99997-14.999971s6.713987-14.999971 14.99997-14.99997h29.161943c8.285984 0 14.999971 6.713987 14.999971 14.99997a14.999971 14.999971 0 0 1-14.999971 14.999971z" fill="#495059" /><path d="M329.801356 436.181148m-15.48197 0a15.48197 15.48197 0 1 0 30.96394 0 15.48197 15.48197 0 1 0-30.96394 0Z" opacity=".1" /><path d="M439.861141 459.801102m-15.48197 0a15.48197 15.48197 0 1 0 30.96394 0 15.48197 15.48197 0 1 0-30.96394 0Z" opacity=".1" /><path d="M376.881264 512.620999m-15.48197 0a15.48197 15.48197 0 1 0 30.96394 0 15.48197 15.48197 0 1 0-30.96394 0Z" opacity=".1" /><path d="M275.603462 227.461556a63.617876 52.099898 0 1 0 127.235751 0 63.617876 52.099898 0 1 0-127.235751 0Z" fill="#FFA8CB" /><path d="M565.802895 227.461556a63.617876 52.099898 0 1 0 127.235751 0 63.617876 52.099898 0 1 0-127.235751 0Z" fill="#FFA8CB" /><path d="M402.839213 200.439609a14.999971 14.999971 0 0 1-14.99997-14.999971v-2.673995c0-8.283984 6.713987-14.999971 14.99997-14.999971s14.999971 6.715987 14.999971 14.999971v2.673995a14.999971 14.999971 0 0 1-14.999971 14.999971zM565.808895 200.439609a14.999971 14.999971 0 0 1-14.999971-14.999971v-2.673995c0-8.283984 6.713987-14.999971 14.999971-14.999971s14.999971 6.715987 14.999971 14.999971v2.673995a14.999971 14.999971 0 0 1-14.999971 14.999971z" fill="#495059" /><path d="M793.48045 295.041424m-15.48197 0a15.48197 15.48197 0 1 0 30.96394 0 15.48197 15.48197 0 1 0-30.96394 0Z" fill="#495059" /><path d="M892.140258 295.041424m-15.48197 0a15.48197 15.48197 0 1 0 30.963939 0 15.48197 15.48197 0 1 0-30.963939 0Z" fill="#495059" /><path d="M382.579253 64.213875c-100.187804 22.727956-174.985658 112.317781-174.985658 219.381571v103.429798c0 111.507782 90.393823 201.901606 201.901605 201.901606h122.513761C353.585309 485.115053 323.341368 199.74561 382.579253 64.213875z" opacity=".05" /><path d="M501.80302 747.980539c-26.023949 0-48.291906-8.495983-58.407886-16.533968-14.135972-11.229978-16.489968-31.795938-5.25599-45.93591 10.801979-13.593973 30.235941-16.297968 44.283914-6.485987 4.383991 1.993996 23.989953 7.785985 41.563919-1.843997 15.833969-8.679983 35.70393-2.875994 44.383913 12.957975 8.675983 15.835969 2.875994 35.70593-12.957975 44.383913-17.901965 9.811981-36.561929 13.457974-53.609895 13.457974z m-17.747965-67.741868a0.088 0.088 0 0 1 0.022 0.018l-0.022-0.018z" fill="#498A68" /><path d="M301.755411 203.259603c-34.069933 34.069933-89.309826 34.069933-123.381759 0-34.069933-34.069933-34.069933-89.309826 0-123.381759l49.561903-49.561903a17.153966 17.153966 0 0 1 24.257952 0l49.561904 49.561903c34.069933 34.071933 34.069933 89.311826 0 123.381759z" fill="#A3E3FF" /></svg>