<?xml version="1.0" standalone="no"?><!DOCTYPE svg PUBLIC "-//W3C//DTD SVG 1.1//EN" "http://www.w3.org/Graphics/SVG/1.1/DTD/svg11.dtd"><svg class="icon" width="200px" height="200.00px" viewBox="0 0 1024 1024" version="1.1" xmlns="http://www.w3.org/2000/svg"><path d="M705.366 734.782c-3.822 0-7.708-0.728-11.462-2.266-8.588-3.518-17.634-7.174-26.34-10.696-19.45-7.866-36.248-14.66-44.628-18.492-15.206-6.958-21.898-24.926-14.94-40.134 6.96-15.212 24.932-21.898 40.136-14.94 7.146 3.268 24.144 10.144 42.14 17.422 8.782 3.552 17.912 7.244 26.578 10.792 15.478 6.336 22.886 24.02 16.55 39.498-4.798 11.718-16.106 18.816-28.034 18.816z" fill="#498A68" /><path d="M413.268 794.11c-139.53-22.384-300.104-48.146-405.616-142.054-18.056-16.07-1.446-45.22 21.704-38.268 91.098 27.362 173.094 16.21 223.84-15.022l160.072 195.344z" fill="#5CB38E" /><path d="M195.482 621.986c-5.594 44.81-5.89 90.386 15.646 131.776 66.782 18.63 136.77 29.86 202.14 40.346l-160.074-195.344c-16.266 10.014-35.756 17.946-57.712 23.222z" opacity=".1" /><path d="M367.124 921.266c-3.684 0-7.424-0.44-11.162-1.36-24.986-6.144-40.26-31.38-34.116-56.364 8.324-33.846 10.362-82.476-0.856-102.022-12.808-22.316-5.1-50.788 17.216-63.596 22.318-12.806 50.79-5.1 63.596 17.216 34.974 60.938 14.904 152.848 10.524 170.654-5.222 21.244-24.258 35.472-45.202 35.472zM581.286 920.788c-1.612 0-3.24-0.084-4.88-0.254-25.592-2.662-44.178-25.568-41.516-51.158 3.608-34.664-1.038-83.114-14.832-100.94-15.744-20.35-12.01-49.61 8.338-65.354 20.352-15.748 49.61-12.012 65.358 8.338 42.998 55.576 35.71 149.364 33.812 167.602-2.492 23.95-22.718 41.766-46.28 41.766z" fill="#498A68" /><path d="M534.752 872.002c37.882-3.324 69.182-13.398 94.458-30.414-0.282-37.354-6.324-92.518-35.454-130.17-15.746-20.35-45.004-24.086-65.358-8.338-20.348 15.744-24.082 45.006-8.338 65.354 13.794 17.828 18.44 66.276 14.832 100.94-0.092 0.884-0.098 1.752-0.14 2.628zM416.6 865.198c6.174-35.14 12.696-102.158-14.796-150.06-12.808-22.316-41.278-30.022-63.596-17.216-22.316 12.808-30.022 41.28-17.216 63.596 9.09 15.838 9.474 50.772 4.866 81.464 25.996 9.22 56.13 16.57 90.742 22.216z" opacity=".1" /><path d="M665.662 668.126c-17.228 107.39-44.282 182.754-239.71 151.402s-197.548-111.398-180.32-218.788 125.222-179.362 241.21-160.754c115.988 18.608 196.048 120.75 178.82 228.14z" fill="#5CB38E" /><path d="M665.662 668.126c0.138-0.856 0.25-1.71 0.376-2.566-41.942-18.244-128.184-35.428-198.856 19.052-51.5 39.7-65.962 89.138-67.698 130.136 8.404 1.7 17.218 3.294 26.468 4.778 195.43 31.354 222.482-44.012 239.71-151.4z" fill="#9BDFC1" /><path d="M446.408 437.106c-99.686 1.7-185.572 68.868-200.776 163.636-15.952 99.438-15.29 175.424 140.04 211.024-72.974-102.466-26.806-282.448 60.736-374.66z" opacity=".05" /><path d="M724.542 190.874a196.16 196.16 0 0 0-147.626-112.772l-79.922-12.822c-113.626-18.228-220.516 59.106-238.746 172.734l-15.176 94.592c-16.36 101.978 53.048 197.912 155.026 214.272l423.668 67.968c76.394 12.256 148.26-39.74 160.516-116.134l10.328-64.378c12.256-76.394-39.74-148.26-116.134-160.516l-54.884-8.806a128.966 128.966 0 0 1-97.05-74.138z" fill="#5CB38E" /><path d="M347.62 395.492m-14.34 0a14.34 14.34 0 1 0 28.68 0 14.34 14.34 0 1 0-28.68 0Z" opacity=".1" /><path d="M444.82 433.252m-14.34 0a14.34 14.34 0 1 0 28.68 0 14.34 14.34 0 1 0-28.68 0Z" opacity=".1" /><path d="M379.46 472.292m-14.34 0a14.34 14.34 0 1 0 28.68 0 14.34 14.34 0 1 0-28.68 0Z" opacity=".1" /><path d="M422.32115 250.817519a36.14 18.542 9.114 1 0 5.874081-36.615819 36.14 18.542 9.114 1 0-5.874081 36.615819Z" fill="#FFA8CB" /><path d="M667.747381 252.662914a36.14 18.542 9.114 1 0-5.874081 36.61582 36.14 18.542 9.114 1 0 5.874081-36.61582Z" fill="#FFA8CB" /><path d="M476.362 218.48a15 15 0 0 1-14.828-17.378l2.852-17.784a15 15 0 0 1 17.186-12.434 14.998 14.998 0 0 1 12.434 17.186l-2.852 17.784a15.004 15.004 0 0 1-14.792 12.626zM625.404 242.39a15 15 0 0 1-14.828-17.38l2.854-17.784a14.992 14.992 0 0 1 17.188-12.434 15 15 0 0 1 12.434 17.188l-2.854 17.784a15.004 15.004 0 0 1-14.794 12.626zM490.74 164.082a14.936 14.936 0 0 1-5.802-1.174l-20.164-8.47a15 15 0 0 1-8.02-19.638 14.996 14.996 0 0 1 19.638-8.02l20.162 8.47a15 15 0 0 1-5.814 28.832zM634.286 187.11a15.004 15.004 0 0 1-0.992-29.968l24.126-1.622a15 15 0 0 1 2.012 29.932l-24.128 1.622c-0.34 0.024-0.682 0.036-1.018 0.036z" fill="#495059" /><path d="M792.4 334.432m-14.34 0a14.34 14.34 0 1 0 28.68 0 14.34 14.34 0 1 0-28.68 0Z" fill="#495059" /><path d="M882.62 348.912m-14.34 0a14.34 14.34 0 1 0 28.68 0 14.34 14.34 0 1 0-28.68 0Z" fill="#495059" /><path d="M450.468 63.05c-94.962 6.086-176.512 77.046-192.22 174.962l-15.176 94.592c-16.36 101.978 53.048 197.912 155.026 214.272l112.046 17.976c-147.948-121.122-133.738-386.542-59.676-501.802z" opacity=".05" /><path d="M770.066 503.362c11.44-3.19 26.118-3.914 41.732-1.41 9.214 1.478 17.756 3.93 25.252 7.042-6.968-25.616-25.856-74.544-87.644-88.892-16.288-3.784-32.562 6.356-36.346 22.646s6.354 32.564 22.648 36.348c17.594 4.086 27.814 13.1 34.358 24.266z" fill="#F4B9CE" /><path d="M855.258 534.468a14.944 14.944 0 0 1-9.422-3.336c-8.238-6.662-21.852-12.034-36.414-14.37-14.564-2.336-29.17-1.494-39.082 2.258a15 15 0 0 1-10.618-28.058c15.026-5.686 34.364-7.044 54.452-3.82 20.088 3.222 38.034 10.56 50.526 20.662a15 15 0 0 1-9.442 26.664z" fill="#495059" /><path d="M480.152 723.098a30.232 30.232 0 0 1-23.764-11.488c-19.712-24.9-32.772-34.086-37.472-36.882-14.376-8.546-19.102-27.126-10.558-41.504 8.544-14.376 27.13-19.104 41.504-10.558 11.512 6.844 30.23 21.308 54.012 51.352 10.382 13.112 8.166 32.158-4.946 42.538a30.134 30.134 0 0 1-18.776 6.542z" fill="#498A68" /><path d="M765.174 674.086a14.944 14.944 0 0 1-9.812-3.66c-8.18-7.082-19.554-13.102-33.806-17.89a15 15 0 0 1 9.554-28.438c18.226 6.126 32.582 13.86 43.888 23.646a14.998 14.998 0 0 1 1.522 21.158 14.96 14.96 0 0 1-11.346 5.184zM432.708 767.872c-0.814 0-1.64-0.066-2.47-0.206-5.006-0.83-32.22-10.402-37.316-21.242a15 15 0 0 1 24.604-16.552c3.66 2.5 14.312 7.622 17.63 8.202 8.136 1.422 13.652 9.166 12.264 17.306-1.244 7.312-7.54 12.492-14.712 12.492z" fill="#495059" /><path d="M905.92 860.71m-118.08 0a118.08 118.08 0 1 0 236.16 0 118.08 118.08 0 1 0-236.16 0Z" fill="#495059" /><path d="M905.926 905.484c24.732 0 44.782-20.05 44.782-44.782 0-24.734-20.05-44.782-44.782-44.782H573.152v89.566h332.774v-0.002z" fill="#959BA0" /><path d="M573.16 860.71m-118.08 0a118.08 118.08 0 1 0 236.16 0 118.08 118.08 0 1 0-236.16 0Z" fill="#495059" /><path d="M573.16 860.71m-37.05 0a37.05 37.05 0 1 0 74.1 0 37.05 37.05 0 1 0-74.1 0Z" fill="#959BA0" /><path d="M175.094 382.226c8.51-38.614-7.66-49.696 0.282-71.966 3.666-10.284-4.03-21.074-14.944-20.796-49.072 1.252-93.996 16.548-105.932 66.358-7.89 32.92 12.208 66.004 44.952 74.24 33.976 8.55 68.102-13.62 75.642-47.836zM170.748 169.188c24.508-22.89 18.538-38.408 34.794-50.15 7.506-5.422 7.316-16.664-0.444-21.716-34.89-22.716-73.634-33.624-105.922-4.558-21.34 19.21-23.2 51.988-4.28 73.486 19.632 22.308 54.134 23.222 75.852 2.938zM822.796 151.352c-32.056-14.434-31.376-31.85-51.474-38.01-9.28-2.844-12.89-14.064-6.896-21.7 26.948-34.332 61.71-58.248 103.57-40.316 27.668 11.854 40.59 43.75 29.078 71.478-11.944 28.77-45.874 41.336-74.278 28.548z" fill="#A3E3FF" /></svg>