<?xml version="1.0" standalone="no"?><!DOCTYPE svg PUBLIC "-//W3C//DTD SVG 1.1//EN" "http://www.w3.org/Graphics/SVG/1.1/DTD/svg11.dtd"><svg class="icon" width="200px" height="200.00px" viewBox="0 0 1024 1024" version="1.1" xmlns="http://www.w3.org/2000/svg"><path d="M720.740592 747.994539c-23.075955 0-44.813912-9.305982-61.10388-27.363946-12.095976-13.405974-11.031978-34.081933 2.375995-46.17391 13.409974-12.089976 34.081933-11.031978 46.17391 2.373995 6.669987 7.391986 16.081969 7.783985 27.979945 1.181998 15.791969-8.755983 35.68993-3.065994 44.449913 12.723975s3.065994 35.68993-12.723975 44.449913c-15.48997 8.595983-31.621938 12.807975-47.151908 12.807975z" fill="#498A68" /><path d="M467.947086 842.766354c-152.567702 0-328.145359 0-456.681108-82.06384-21.995957-14.041973-9.273982-47.957906 16.591968-44.505913 101.789801 13.587973 187.289634-12.321976 236.043539-54.291894l204.045601 180.861647z" fill="#5CB38E" /><path d="M206.351597 696.52864c1.699997 48.723905 9.179982 97.35781 39.213923 137.79773 74.375855 8.437984 150.903705 8.439984 222.381566 8.439984l-204.045601-180.861647c-15.625969 13.451974-35.045932 25.241951-57.549888 34.623933z" opacity=".1" /><path d="M413.627192 991.584063c-27.779946 0-50.297902-22.517956-50.297902-50.297901 0-32.741936-12.245976-114.039777-16.879967-129.267748-9.725981-25.46795 2.645995-54.165894 28.019946-64.505874 25.72395-10.47198 55.075892 1.877996 65.559872 27.603946 10.751979 26.397948 23.895953 130.635745 23.895953 166.169676 0 27.779946-22.517956 50.297902-50.297902 50.297901z m-67.009869-179.13565c0.086 0.224 0.172 0.431999 0.248 0.623999l-0.248-0.623999zM605.656817 991.588063c-25.997949 0.002-48.025906-20.013961-50.089902-46.373909-1.801996-23.009955-20.931959-116.435773-26.511948-132.703741-10.07598-25.58795 2.285996-54.585893 27.823945-64.993873 25.71595-10.48398 55.073892 1.871996 65.561872 27.597946 9.277982 22.771956 31.003939 131.461743 33.413935 162.247683 2.171996 27.693946-18.519964 51.901899-46.21591 54.069895-1.335997 0.104-2.665995 0.156-3.981992 0.155999z m-76.497851-178.81765l0.122 0.307999-0.122-0.307999z" fill="#498A68" /><path d="M622.438784 775.112486c-10.48598-25.72595-39.845922-38.081926-65.561872-27.597946-25.53795 10.40798-37.899926 39.405923-27.823945 64.993873 4.107992 11.977977 15.55597 65.765872 22.031957 102.4958 38.361925-3.787993 70.873862-11.229978 98.133808-22.549956-7.803985-43.877914-20.31196-101.469802-26.779948-117.341771zM440.029141 775.118486c-10.48198-25.72595-39.835922-38.077926-65.559872-27.603946-25.37395 10.33998-37.745926 39.037924-28.019946 64.505874 3.339993 10.977979 10.635979 56.28389 14.447972 92.987818 29.207943 7.323986 63.019877 11.491978 101.937801 12.641976-3.355993-45.393911-13.897973-120.659764-22.805955-142.531722z" opacity=".1" /><path d="M715.456603 665.302701c0 117.423771-15.949969 202.389605-229.637552 202.389604s-229.637551-84.965834-229.637551-202.389604 102.811799-212.613585 229.637551-212.613585c126.823752-0.002 229.637551 95.189814 229.637552 212.613585z" fill="#5CB38E" /><path d="M715.456603 665.302701c0-0.935998-0.026-1.865996-0.038-2.799995-47.829907-12.273976-142.701721-15.843969-208.721593 54.317894-48.109906 51.1279-55.071892 106.301792-49.909902 150.303706 9.247982 0.375999 18.917963 0.567999 29.033943 0.567999 213.685583-0.002 229.635551-84.967834 229.635552-202.389604z" fill="#9BDFC1" /><path d="M442.223136 456.531108c-105.973793 18.859963-186.043637 105.149795-186.043636 208.771593 0 108.727788 13.701973 189.61763 185.371638 201.001607-95.315814-96.747811-76.87985-296.503421 0.671998-409.7732z" opacity=".05" /><path d="M696.602639 146.481714a211.789586 211.789586 0 0 0-176.655655-94.969815h-87.389829c-124.243757 0-224.963561 100.719803-224.96356 224.963561v103.429798c0 111.507782 90.393823 201.901606 201.901605 201.901606h463.255095c83.533837 0 151.249705-67.715868 151.249705-151.249705v-70.391862c0-83.531837-67.715868-151.249705-151.249705-151.249705H812.738413a139.231728 139.231728 0 0 1-116.135774-62.433878z" fill="#5CB38E" /><path d="M402.841213 167.921672m-57.793887 0a57.793887 57.793887 0 1 0 115.587774 0 57.793887 57.793887 0 1 0-115.587774 0Z" fill="#FFFFFF" /><path d="M584.580858 167.921672m-57.793887 0a57.793887 57.793887 0 1 0 115.587774 0 57.793887 57.793887 0 1 0-115.587774 0Z" fill="#FFFFFF" /><path d="M584.594858 291.007432c-8.703983 0-17.407966-0.923998-25.953949-2.779995a14.999971 14.999971 0 1 1 6.367987-29.315943 92.839819 92.839819 0 0 0 47.667907-2.239995 92.849819 92.849819 0 0 0 40.273922-25.59995 15.001971 15.001971 0 0 1 22.077957 20.31396 122.90976 122.90976 0 0 1-53.297896 33.887934 123.145759 123.145759 0 0 1-37.135928 5.733989zM402.825213 291.007432a123.08376 123.08376 0 0 1-37.135927-5.733989 122.90376 122.90376 0 0 1-53.295896-33.887934 15.001971 15.001971 0 0 1 22.077957-20.31396 92.873819 92.873819 0 0 0 40.271921 25.59995 92.849819 92.849819 0 0 0 47.669907 2.239995 14.991971 14.991971 0 0 1 17.841965 11.473978 14.999971 14.999971 0 0 1-11.473977 17.841965 122.335761 122.335761 0 0 1-25.95595 2.779995z" opacity=".1" /><path d="M842.816354 524.382976c-31.085939 0-54.849893-27.719946-50.101902-58.441886a152.319703 152.319703 0 0 0 0-46.539909c-4.747991-30.72194 19.015963-58.441886 50.101902-58.441886s54.851893 27.719946 50.101902 58.441886a152.319703 152.319703 0 0 0 0 46.539909c4.747991 30.72194-19.015963 58.441886-50.101902 58.441886z" fill="#495059" /><path d="M329.801356 429.059162m-15.48197 0a15.48197 15.48197 0 1 0 30.96394 0 15.48197 15.48197 0 1 0-30.96394 0Z" opacity=".1" /><path d="M439.861141 452.679116m-15.48197 0a15.48197 15.48197 0 1 0 30.96394 0 15.48197 15.48197 0 1 0-30.96394 0Z" opacity=".1" /><path d="M376.881264 505.499013m-15.48197 0a15.48197 15.48197 0 1 0 30.96394 0 15.48197 15.48197 0 1 0-30.96394 0Z" opacity=".1" /><path d="M793.48045 287.919438m-15.48197 0a15.48197 15.48197 0 1 0 30.96394 0 15.48197 15.48197 0 1 0-30.96394 0Z" fill="#495059" /><path d="M892.140258 287.919438m-15.48197 0a15.48197 15.48197 0 1 0 30.963939 0 15.48197 15.48197 0 1 0-30.963939 0Z" fill="#495059" /><path d="M382.579253 57.093888c-100.187804 22.727956-174.985658 112.317781-174.985658 219.381572v103.429798c0 111.507782 90.393823 201.901606 201.901605 201.901606h122.513761C353.585309 477.993066 323.341368 192.625624 382.579253 57.093888z" opacity=".05" /><path d="M500.567022 747.994539c-23.075955 0-44.813912-9.305982-61.10388-27.363946-12.095976-13.405974-11.031978-34.081933 2.373995-46.17391 13.407974-12.089976 34.081933-11.031978 46.17391 2.373995 6.665987 7.389986 16.079969 7.789985 27.977945 1.181998 15.791969-8.755983 35.68993-3.065994 44.449913 12.723975s3.065994 35.68993-12.723975 44.449913c-15.48997 8.595983-31.621938 12.807975-47.147908 12.807975z" fill="#498A68" /><path d="M153.991699 201.669606a14.997971 14.997971 0 0 1-14.99997-14.999971v-139.259728c0-8.285984 6.713987-14.999971 14.99997-14.99997s14.999971 6.713987 14.999971 14.99997v139.259728c0 8.285984-6.713987 14.999971-14.999971 14.999971zM223.993563 201.669606a14.997971 14.997971 0 0 1-14.999971-14.999971v-139.259728c0-8.285984 6.713987-14.999971 14.999971-14.99997s14.999971 6.713987 14.99997 14.99997v139.259728c0 8.285984-6.713987 14.999971-14.99997 14.999971zM293.995426 201.669606a14.997971 14.997971 0 0 1-14.999971-14.999971v-139.259728c0-8.285984 6.713987-14.999971 14.999971-14.99997s14.999971 6.713987 14.99997 14.99997v139.259728c0 8.285984-6.713987 14.999971-14.99997 14.999971z" fill="#A3E3FF" /></svg>