<?xml version="1.0" standalone="no"?><!DOCTYPE svg PUBLIC "-//W3C//DTD SVG 1.1//EN" "http://www.w3.org/Graphics/SVG/1.1/DTD/svg11.dtd"><svg class="icon" width="200px" height="200.00px" viewBox="0 0 1024 1024" version="1.1" xmlns="http://www.w3.org/2000/svg"><path d="M529.592966 87.17983c-0.879998 16.249968-3.689993 32.903936-5.677989 48.415905-2.181996 15.021971-3.199994 28.579944-3.213994 40.397921-0.04 34.425933 13.575973 66.68587 26.323949 98.021809 13.175974 32.389937 24.421952 65.533872 28.511944 100.371804 4.043992 34.437933 3.193994 74.525854-11.031979 106.727791-4.97399 11.577977-11.769977 22.603956-20.46196 31.551939-7.889985 8.123984-20.869959 8.313984-28.993943 0.423999a20.43596 20.43596 0 0 1-6.167988-13.251974c-2.393995-34.127933-18.709963-63.811875-36.905928-92.001821-25.099951-38.881924-57.329888-73.493856-80.019844-113.815777-44.157914-78.471847-39.863922-175.283658 0.979999-254.093504 18.785963-36.249929 63.399876-50.407902 99.649805-31.621938 33.137935 17.171966 38.721924 47.257908 37.007928 78.873846z" fill="#A3E3FF" /><path d="M426.563167 105.745793a14.999971 14.999971 0 0 1-14.825971-17.393966l2.821994-17.483965a14.977971 14.977971 0 0 1 17.199967-12.417976 14.999971 14.999971 0 0 1 12.417975 17.199966l-2.821994 17.483966a15.005971 15.005971 0 0 1-14.791971 12.611975zM479.533063 114.297777a14.999971 14.999971 0 0 1-14.825971-17.393966l2.821995-17.485966a14.979971 14.979971 0 0 1 17.199966-12.417976 14.999971 14.999971 0 0 1 12.417976 17.199967l-2.821994 17.485965a15.005971 15.005971 0 0 1-14.791972 12.611976z" fill="#495059" /><path d="M943.866157 135.729735c32.213937 54.901893 53.525895 122.275761 49.855902 186.271636-2.279996 39.783922-15.917969 77.805848-32.821936 113.541778-22.791955 48.185906-53.697895 89.431825-55.167892 145.037717-0.315999 11.955977-9.967981 23.065955-22.563956 21.467958-13.897973-1.761997-26.193949-19.881961-32.537936-30.81794-28.357945-47.689907-21.773957-109.379786-14.321972-161.725684 5.433989-38.179925 11.837977-77.109849 5.999988-115.645774-5.581989-36.847928-19.401962-72.187859-26.707948-108.729788l-0.122-0.611998c-7.537985-37.707926 16.917967-74.387855 54.625894-81.92584 29.879942-5.973988 59.159884 8.255984 73.761856 33.137935z" fill="#A3E3FF" /><path d="M869.562302 210.717588a15.009971 15.009971 0 0 1-14.031973-9.695981l-6.269988-16.565967a14.999971 14.999971 0 0 1 28.057945-10.61798l6.269988 16.565968a14.999971 14.999971 0 0 1-8.719983 19.337962 14.947971 14.947971 0 0 1-5.305989 0.975998zM919.744204 191.727626a15.009971 15.009971 0 0 1-14.031973-9.695982l-6.269988-16.565967a14.999971 14.999971 0 0 1 28.057945-10.617979l6.269988 16.565967a14.999971 14.999971 0 0 1-8.719983 19.337962 14.947971 14.947971 0 0 1-5.305989 0.975999z" fill="#495059" /><path d="M759.572516 817.596403a29.691942 29.691942 0 0 1-20.14796-7.853985c-15.957969-14.669971-35.70993-21.503958-43.145916-24.075953l-0.899998-0.309999c-15.53397-5.405989-23.747954-22.377956-18.341964-37.911926 5.403989-15.53597 22.379956-23.751954 37.911926-18.341964l0.803998 0.279999c9.621981 3.325994 38.899924 13.455974 63.979875 36.509929 12.107976 11.131978 12.901975 29.971941 1.771997 42.079918a29.713942 29.713942 0 0 1-21.931958 9.623981z" fill="#498A68" /><path d="M498.073027 888.428265c-138.975729 0-298.909416 0-415.993187-74.751854-20.035961-12.791975-8.447984-43.685915 15.11397-40.539921 92.719819 12.377976 170.603667-11.223978 215.01358-49.455903l185.865637 164.747678z" fill="#5CB38E" /><path d="M259.783493 755.220525c1.549997 44.381913 8.361984 88.683827 35.71993 125.519755 67.749868 7.687985 137.459732 7.687985 202.569604 7.687985l-185.865637-164.747678c-14.235972 12.253976-31.923938 22.993955-52.423897 31.539938z" opacity=".1" /><path d="M435.793149 1024a45.625911 45.625911 0 0 1-17.035967-3.301994c-23.487954-9.415982-34.891932-36.08993-25.47595-59.575883 1.641997-4.097992 5.19999-21.561958 5.06199-46.751909-0.15-27.521946-4.617991-41.817918-6.249988-44.853912-13.973973-20.943959-8.427984-49.265904 12.459976-63.381876 20.967959-14.173972 49.447903-8.659983 63.615876 12.303975 29.889942 44.225914 24.459952 141.125724 10.16398 176.781655-7.173986 17.897965-24.371952 28.779944-42.539917 28.779944z m-43.581915-154.309699l0.04 0.06-0.04-0.06zM625.846778 1005.338036c-4.321992 0-8.717983-0.615999-13.071975-1.909996-24.255953-7.209986-38.073926-32.715936-30.86394-56.969889 9.019982-30.347941-11.389978-63.515876-17.679965-69.705863-18.033965-17.749965-18.263964-46.757909-0.513999-64.793874 17.747965-18.031965 46.757909-18.265964 64.791873-0.513999 26.659948 26.239949 61.43188 93.185818 41.23792 161.121685-5.913988 19.895961-24.147953 32.771936-43.899914 32.771936z" fill="#498A68" /><path d="M580.456866 953.532138c38.037926-4.305992 69.553864-12.729975 95.295814-25.54795-0.829998-51.0239-26.487948-96.117812-47.241908-116.543773-18.033965-17.751965-47.043908-17.515966-64.791873 0.513999-17.749965 18.035965-17.519966 47.043908 0.513999 64.793874 6.289988 6.189988 26.699948 39.357923 17.679965 69.705863-0.699999 2.355995-1.143998 4.717991-1.455997 7.077987zM404.55521 806.134426c-20.887959 14.115972-26.433948 42.437917-12.459976 63.381876 1.631997 3.035994 6.099988 17.333966 6.249988 44.853912 0.064 11.831977-0.689999 21.927957-1.673997 29.765942 25.953949 6.889987 56.019891 10.937979 90.611823 12.291976 5.749989-44.213914 2.917994-105.397794-19.111962-137.991731-14.169972-20.961959-42.647917-26.475948-63.615876-12.301975z" opacity=".1" /><path d="M723.528587 726.776581c0 106.961791-14.527972 184.35764-209.177592 184.357639s-209.177591-77.395849-209.177591-184.357639 93.651817-193.671622 209.177591-193.671622 209.177591 86.709831 209.177592 193.671622z" fill="#5CB38E" /><path d="M723.528587 726.776581c0-0.851998-0.022-1.699997-0.034-2.549996-43.567915-11.181978-129.987746-14.431972-190.125629 49.477904-43.823914 46.571909-50.163902 96.829811-45.463911 136.911732 8.423984 0.341999 17.231966 0.515999 26.445948 0.515999 194.64962 0 209.177591-77.393849 209.177592-184.355639z" fill="#9BDFC1" /><path d="M474.639073 536.604952c-96.533811 17.179966-169.467669 95.781813-169.467669 190.169629 0 99.041807 12.479976 172.723663 168.85567 183.093642-86.82183-88.125828-70.029863-270.085472 0.611999-373.263271z" opacity=".05" /><path d="M550.584925 813.91441a29.645942 29.645942 0 0 1-18.631964-6.563987c-16.905967-13.581973-37.085928-19.085963-44.679913-21.155959l-0.919998-0.249999c-15.861969-4.353991-25.187951-20.741959-20.833959-36.601929 4.353991-15.861969 20.747959-25.191951 36.601928-20.833959l0.821999 0.224c9.829981 2.679995 39.737922 10.835979 66.31387 32.185937 12.823975 10.30198 14.865971 29.045943 4.565991 41.867918a29.735942 29.735942 0 0 1-23.237954 11.127978z" fill="#498A68" /><path d="M866.810307 311.051392h-54.665893a126.827752 126.827752 0 0 1-105.789794-56.871888 192.919623 192.919623 0 0 0-160.915685-86.507831h-79.603845c-113.173779 0-204.9196 91.745821-204.9196 204.919599v293.049428c0 19.651962 18.473964 34.065933 37.535927 29.285943l42.847916-10.741979a106.169793 106.169793 0 0 1 61.011881 2.815994l35.313931 12.407976a106.171793 106.171793 0 0 0 67.801868 0.871998l22.897955-7.389985a106.179793 106.179793 0 0 1 60.273882-1.463997l47.241908 12.751975a106.163793 106.163793 0 0 0 63.127877-2.429996l13.423974-4.75599a106.181793 106.181793 0 0 1 68.345866-0.877999l23.439954 7.635985a106.169793 106.169793 0 0 0 83.437837-7.587985 82.04784 82.04784 0 0 1 73.941856-2.117996c20.023961 9.401982 43.025916-5.20799 43.025916-27.329946V448.825123c0-76.089851-61.68388-137.773731-137.773731-137.773731z" fill="#E5E5E5" /><path d="M800.890436 549.060928a46.741909 38.647925 90 1 0 77.295849 0 46.741909 38.647925 90 1 0-77.295849 0Z" fill="#495059" /><path d="M358.133301 318.721377a35.545931 18.235964 0 1 0 71.091861 0 35.545931 18.235964 0 1 0-71.091861 0Z" fill="#FFA8CB" /><path d="M596.752834 318.721377a35.545931 18.235964 0 1 0 71.091862 0 35.545931 18.235964 0 1 0-71.091862 0Z" fill="#FFA8CB" /><path d="M438.765143 297.565419a14.997971 14.997971 0 0 1-14.999971-14.999971v-17.711965c0-8.285984 6.713987-14.999971 14.999971-14.999971s14.999971 6.713987 14.999971 14.999971v17.711965a14.999971 14.999971 0 0 1-14.999971 14.999971zM587.214853 297.565419a14.997971 14.997971 0 0 1-14.999971-14.999971v-17.711965c0-8.285984 6.713987-14.999971 14.999971-14.999971s14.999971 6.713987 14.999971 14.999971v17.711965c0 8.285984-6.713987 14.999971-14.999971 14.999971z" fill="#495059" /><path d="M794.598448 383.021252m-14.099972 0a14.099972 14.099972 0 1 0 28.199945 0 14.099972 14.099972 0 1 0-28.199945 0Z" fill="#495059" /><path d="M884.478273 383.021252m-14.099973 0a14.099972 14.099972 0 1 0 28.199945 0 14.099972 14.099972 0 1 0-28.199945 0Z" fill="#495059" /><path d="M298.451417 694.928643l42.847916-10.741979a106.169793 106.169793 0 0 1 61.011881 2.815994l35.313931 12.407976a106.159793 106.159793 0 0 0 67.801868 0.869998l22.897955-7.389985a106.163793 106.163793 0 0 1 42.107918-4.695991c-221.725567-148.62171-185.383638-416.277187-127.599751-519.228986-102.3458 11.433978-181.919645 98.229808-181.919645 203.627602v293.047428c0.002 19.651962 18.475964 34.065933 37.537927 29.287943z" opacity=".05" /><path d="M188.917631 299.247416c-6.779987 29.413943-19.933961 60.149883-18.601964 87.533829 1.635997 33.585934 12.903975 65.709872 21.755958 97.859808 18.005965 65.405872 27.757946 169.943668-37.055928 215.28958-8.695983 6.083988-20.67796 3.965992-26.763947-4.733991-6.095988-8.719983-3.093994-19.919961-2.959995-29.753942 0.787998-58.199886-44.025914-111.865782-71.55986-159.817688-50.223902-87.463829-45.787911-194.943619 16.387968-275.201462 23.429954-30.243941 66.941869-35.76593 97.18381-12.335976 28.811944 22.319956 28.553944 51.0459 21.613958 81.159842z" fill="#A3E3FF" /><path d="M88.943826 301.779411a14.923971 14.923971 0 0 1-6.017988-1.267998 14.999971 14.999971 0 0 1-7.709985-19.761961l7.115986-16.219969a14.995971 14.995971 0 0 1 19.761962-7.709985 14.999971 14.999971 0 0 1 7.709985 19.761962l-7.115987 16.219968a15.007971 15.007971 0 0 1-13.743973 8.977983zM138.08173 323.327369a14.907971 14.907971 0 0 1-6.015988-1.267998 14.995971 14.995971 0 0 1-7.711985-19.759961l7.113986-16.219969c3.325994-7.585985 12.181976-11.045978 19.759962-7.713985a14.993971 14.993971 0 0 1 7.711985 19.759962l-7.113987 16.219968a14.999971 14.999971 0 0 1-13.743973 8.981983z" fill="#495059" /></svg>