<?xml version="1.0" standalone="no"?><!DOCTYPE svg PUBLIC "-//W3C//DTD SVG 1.1//EN" "http://www.w3.org/Graphics/SVG/1.1/DTD/svg11.dtd"><svg class="icon" width="200px" height="200.00px" viewBox="0 0 1024 1024" version="1.1" xmlns="http://www.w3.org/2000/svg"><path d="M817.922 139.116l-13.104-36.852c-4.682-13.168 5.318-26.93 19.286-26.546l39.098 1.076a19.89 19.89 0 0 0 12.676-4.118l30.998-23.852c11.076-8.522 27.256-3.264 31.206 10.14l11.06 37.516a19.888 19.888 0 0 0 7.834 10.782l32.264 22.112c11.528 7.9 11.528 24.912 0 32.812l-32.264 22.112a19.888 19.888 0 0 0-7.834 10.782l-11.06 37.516c-3.952 13.404-20.13 18.662-31.206 10.14l-30.998-23.852a19.886 19.886 0 0 0-12.676-4.118l-39.098 1.076c-13.97 0.384-23.97-13.378-19.286-26.546l13.104-36.852a19.9 19.9 0 0 0 0-13.328z" fill="#FAE17C" /><path d="M46.678 574.638l-35.324-16.792c-12.622-6-15.282-22.802-5.134-32.408l28.406-26.886a19.88 19.88 0 0 0 6.05-11.876l5.054-38.784c1.806-13.858 16.964-21.58 29.236-14.896l34.348 18.708a19.888 19.888 0 0 0 13.164 2.084l38.448-7.178c13.738-2.564 25.766 9.464 23.202 23.202l-7.178 38.448a19.888 19.888 0 0 0 2.084 13.164l18.708 34.348c6.684 12.272-1.038 27.43-14.896 29.236l-38.784 5.054a19.904 19.904 0 0 0-11.876 6.05L105.304 624.52c-9.606 10.15-26.408 7.488-32.408-5.132l-16.792-35.324a19.894 19.894 0 0 0-9.426-9.426z" fill="#FF85B6" /><path d="M925.368 783.504l-32.512 9.228c-11.616 3.296-22.922-6.1-21.804-18.122l3.126-33.652a17.184 17.184 0 0 0-2.838-11.162l-18.822-28.07c-6.726-10.03-1.282-23.684 10.498-26.338l32.97-7.426a17.186 17.186 0 0 0 9.738-6.148l20.88-26.576c7.46-9.496 22.128-8.538 28.292 1.844l17.252 29.062a17.196 17.196 0 0 0 8.856 7.362l31.726 11.646c11.336 4.162 14.958 18.408 6.988 27.478l-22.308 25.388a17.18 17.18 0 0 0-4.264 10.698l-1.272 33.772c-0.454 12.066-12.884 19.914-23.974 15.138l-31.038-13.372a17.188 17.188 0 0 0-11.494-0.75z" fill="#A3E3FF" /><path d="M717.106 700.35c-9.04 0-17.208-1.902-23.742-5.992-14.674-9.184-19.124-28.524-9.94-43.198 7.592-12.132 22.12-17.276 35.226-13.504 6.874-1.026 23.856-7.158 35.762-22.674 10.54-13.734 30.214-16.322 43.95-5.784 13.734 10.54 16.322 30.214 5.784 43.95-21.922 28.562-58.746 47.202-87.04 47.202z" fill="#498A68" /><path d="M508.858 829.41c-145.352 16.374-312.624 35.218-443.886-29.17-22.462-11.018-13.982-44.694 11.03-44.18 98.432 2.022 177.108-31.838 219.052-77.058l213.804 150.408z" fill="#5CB38E" /><path d="M243.94 718.164c6.85 46.236 19.194 91.768 52.148 127.072 71.764 0.058 144.672-8.154 212.77-15.826l-213.804-150.408c-13.444 14.494-30.68 27.81-51.114 39.162z" opacity=".1" /><path d="M448 979.314c-18.624 0-36.36-10.852-44.254-29.02-30.044-69.16-13.276-157.174 11.97-189.828 16.29-21.072 46.576-24.94 67.644-8.652 20.702 16.006 24.804 45.522 9.488 66.532-6.074 11.494-15.37 59.628-0.646 93.522 10.612 24.426-0.588 52.83-25.014 63.442a48.06 48.06 0 0 1-19.188 4.004z m44.036-159.882l-0.02 0.026 0.02-0.026z m1.042-1.502zM691.468 941.226c-1.566 0-3.146-0.076-4.734-0.23-26.506-2.584-45.9-26.166-43.316-52.672 2.924-30.006-25.702-67.542-38.674-74.098-25.088-5.282-41.808-29.438-37.614-54.992 4.312-26.28 29.118-44.088 55.396-39.774 41.706 6.846 72.83 47.014 84.274 63.966 14.274 21.146 37.492 64.104 32.604 114.25-2.428 24.918-23.412 43.55-47.936 43.55z m-84.596-126.602l0.03 0.004-0.03-0.004z" fill="#498A68" /><path d="M728.96 826.056c-6.806-18.002-15.466-32.714-22.16-42.63-11.446-16.952-42.568-57.12-84.274-63.966-26.278-4.314-51.084 13.494-55.396 39.774-4.194 25.554 12.526 49.71 37.614 54.992 11.3 5.712 34.472 34.93 38.326 62.202 36.338-12.446 64.66-29.084 85.89-50.372zM488.93 902.822c-9.86-32.872-1.63-73.972 3.92-84.476 15.316-21.01 11.214-50.526-9.488-66.532-21.068-16.288-51.354-12.418-67.644 8.652-18.916 24.464-33.068 80.002-26.344 135.406 22.24 5.044 47.15 7.552 74.878 7.552 7.908 0.002 16.146-0.2 24.678-0.602z" opacity=".1" /><path d="M725.612 633.778c12.602 111.87 6.526 194.528-197.054 217.462-203.58 22.934-227.894-56.302-240.496-168.172-12.602-111.87 75.132-213.592 195.958-227.202 120.826-13.612 228.99 66.042 241.592 177.912z" fill="#5CB38E" /><path d="M725.612 633.778c-0.1-0.892-0.224-1.774-0.336-2.662-46.884-6.56-137.652 0.22-193.02 74.148-40.346 53.872-41.058 107.184-31.42 148.55a684.06 684.06 0 0 0 27.72-2.576c203.582-22.932 209.658-105.592 197.056-217.46z" fill="#9BDFC1" /><path d="M442.898 464.206c-98.938 29.34-165.958 120.144-154.838 218.862 11.67 103.586 33.404 179.178 198.176 171.6-101.19-81.94-105.064-274.228-43.338-390.462z" opacity=".05" /><path d="M668.016 144.02a203.044 203.044 0 0 0-174.504-80.762l-83.634 5.008c-118.902 7.122-209.52 109.284-202.398 228.186l5.928 98.984c6.39 106.714 98.08 188.042 204.794 181.65l443.338-26.552c79.942-4.788 140.866-73.474 136.078-153.416l-4.034-67.366c-4.788-79.942-73.474-140.866-153.416-136.078l-57.432 3.44a133.49 133.49 0 0 1-114.72-53.094z" fill="#5CB38E" /><path d="M333.18 435.48m-14.844 0a14.844 14.844 0 1 0 29.688 0 14.844 14.844 0 1 0-29.688 0Z" opacity=".1" /><path d="M439.86 451.78m-14.844 0a14.844 14.844 0 1 0 29.688 0 14.844 14.844 0 1 0-29.688 0Z" opacity=".1" /><path d="M382.62 505.92m-14.844 0a14.844 14.844 0 1 0 29.688 0 14.844 14.844 0 1 0-29.688 0Z" opacity=".1" /><path d="M344.705697 250.653896a19.194 37.412 86.572 1 0-2.29538-38.319314 19.194 37.412 86.572 1 0 2.29538 38.319314Z" fill="#FFA8CB" /><path d="M593.138075 197.34247a19.194 37.412 86.572 1 0 2.295379 38.319313 19.194 37.412 86.572 1 0-2.295379-38.319313Z" fill="#FFA8CB" /><path d="M359.564 202.82a15 15 0 0 1-14.96-14.104c-1.29-21.542 15.188-40.12 36.732-41.41a38.918 38.918 0 0 1 28.314 9.79 38.88 38.88 0 0 1 13.098 26.942 15 15 0 0 1-29.948 1.794 9.08 9.08 0 0 0-3.058-6.292 9.026 9.026 0 0 0-6.612-2.286 9.15 9.15 0 0 0-8.578 9.672 15 15 0 0 1-14.988 15.894zM524.964 192.912a15 15 0 0 1-14.96-14.104 38.884 38.884 0 0 1 9.79-28.312 38.88 38.88 0 0 1 26.942-13.098c10.442-0.634 20.49 2.852 28.312 9.79a38.88 38.88 0 0 1 13.098 26.942 15 15 0 1 1-29.946 1.792 9.08 9.08 0 0 0-3.058-6.292 9.06 9.06 0 0 0-6.612-2.286c-2.438 0.146-4.672 1.232-6.292 3.058s-2.432 4.174-2.286 6.612a15 15 0 0 1-14.988 15.898z" fill="#495059" /><path d="M768.84 273.82m-14.844 0a14.844 14.844 0 1 0 29.688 0 14.844 14.844 0 1 0-29.688 0Z" fill="#495059" /><path d="M863.26 268.18m-14.844 0a14.844 14.844 0 1 0 29.688 0 14.844 14.844 0 1 0-29.688 0Z" fill="#495059" /><path d="M362.37 76.472c-94.578 27.494-161.026 117.518-154.89 219.98l5.928 98.984c6.39 106.714 98.08 188.042 204.794 181.65l117.248-7.022c-176.704-89.126-222.002-360.492-173.08-493.592z" opacity=".05" /><path d="M828.606 480.628c-26.868 1.61-49.952-18.868-51.562-45.734l-1.236-20.648c-0.926-15.464 10.86-28.75 26.324-29.678l41.296-2.474c15.464-0.926 28.75 10.86 29.678 26.324l1.236 20.648c1.608 26.868-18.868 49.954-45.736 51.562z" fill="#495059" /><path d="M542.206 774.646c-13.904 0-26.606-9.322-30.298-23.404-3.992-15.226-14.724-20.892-28.34-26.718-3.77-1.614-7.332-3.138-10.812-5.316-14.674-9.184-19.124-28.524-9.94-43.198 9.01-14.398 27.8-18.954 42.364-10.446 0.84 0.4 1.876 0.824 3.05 1.326 14.284 6.112 52.228 22.348 64.316 68.454 4.39 16.744-5.626 33.878-22.37 38.268-2.664 0.7-5.338 1.034-7.97 1.034z m-36.64-108.852c0.15 0.09 0.3 0.184 0.448 0.276-0.138-0.086-0.288-0.18-0.448-0.276z" fill="#498A68" /></svg>