<?xml version="1.0" standalone="no"?><!DOCTYPE svg PUBLIC "-//W3C//DTD SVG 1.1//EN" "http://www.w3.org/Graphics/SVG/1.1/DTD/svg11.dtd"><svg class="icon" width="200px" height="200.00px" viewBox="0 0 1024 1024" version="1.1" xmlns="http://www.w3.org/2000/svg"><path d="M586.060409 624.992572a194.10983 194.10983 0 0 0-161.908522-87.04213h-80.094279c-113.871554 0-206.18357 92.312017-206.18357 206.183571v94.795963c0 102.199804 82.84822 185.048024 185.048024 185.048024h424.582878c76.560355 0 138.623022-62.064667 138.623022-138.623021v-64.516614c0-76.560355-62.064667-138.623022-138.623022-138.623022h-55.002818a127.617258 127.617258 0 0 1-106.441713-57.222771z" fill="#5CB38E" /><path d="M760.970651 915.244337c0-30.677341-15.901658-55.544807-40.903121-55.544807s-40.903121 24.867466-40.903121 55.544807c0 30.675341 18.311607 44.799038 40.903121 44.799037s40.903121-14.123697 40.903121-44.799037z" fill="#495059" /><path d="M249.865632 883.981008m-14.189695 0a14.189695 14.189695 0 1 0 28.37939 0 14.189695 14.189695 0 1 0-28.37939 0Z" opacity=".1" /><path d="M350.743464 905.640543m-14.189695 0a14.189695 14.189695 0 1 0 28.379391 0 14.189695 14.189695 0 1 0-28.379391 0Z" opacity=".1" /><path d="M293.024705 954.039503m-14.189696 0a14.189695 14.189695 0 1 0 28.379391 0 14.189695 14.189695 0 1 0-28.379391 0Z" opacity=".1" /><path d="M235.679937 689.925177a35.765232 18.347606 0 1 0 71.530463 0 35.765232 18.347606 0 1 0-71.530463 0Z" fill="#FFA8CB" /><path d="M475.794778 689.925177a35.765232 18.347606 0 1 0 71.530463 0 35.765232 18.347606 0 1 0-71.530463 0Z" fill="#FFA8CB" /><path d="M316.820193 668.551637a14.999678 14.999678 0 0 1-14.999677-14.999678v-17.821617c0-8.285822 6.715856-14.999678 14.999677-14.999678s14.999678 6.713856 14.999678 14.999678v17.821617a14.999678 14.999678 0 0 1-14.999678 14.999678zM466.184984 668.551637a14.999678 14.999678 0 0 1-14.999677-14.999678v-17.821617c0-8.285822 6.715856-14.999678 14.999677-14.999678s14.999678 6.713856 14.999678 14.999678v17.821617a14.999678 14.999678 0 0 1-14.999678 14.999678z" fill="#495059" /><path d="M674.856501 754.623787m-14.189695 0a14.189695 14.189695 0 1 0 28.37939 0 14.189695 14.189695 0 1 0-28.37939 0Z" fill="#495059" /><path d="M765.274559 754.623787m-14.189696 0a14.189695 14.189695 0 1 0 28.379391 0 14.189695 14.189695 0 1 0-28.379391 0Z" fill="#495059" /><path d="M298.250592 543.064333c-91.824027 20.831552-160.378554 102.939788-160.378554 201.06968v94.795963c0 102.199804 82.84822 185.048024 185.048024 185.048024h112.287588c-163.530487-95.147956-191.249891-356.694337-136.957058-480.913667z" opacity=".05" /><path d="M437.617598 340.142692c0-54.130837 54.966819-60.122708 54.966819-142.288943 0-64.114623-51.974883-116.091506-116.091506-116.091506-64.114623 0-116.091506 51.974883-116.091506 116.091506 0 82.166235 54.966819 88.158106 54.96682 142.288943h122.249373z" fill="#FAE17C" /><path d="M376.502911 443.710467m-51.124902 0a51.124902 51.124902 0 1 0 102.249804 0 51.124902 51.124902 0 1 0-102.249804 0Z" fill="#495059" /><path d="M373.230981 392.695563c-25.62145 1.589966-46.405003 22.559515-47.786973 48.192965-1.621965 30.087354 22.78751 54.894821 52.738867 53.928841l0.006-0.015999c-9.553795-8.117826-17.065633-19.485581-20.03757-28.961378-1.231974-3.933915 1.755962-7.92183 5.877874-7.92183h61.574677a51.104902 51.104902 0 0 0 2.013957-14.199695c0-29.31537-24.67347-52.866864-54.386832-51.022904z" opacity=".05" /><path d="M444.897442 340.142692h-136.809061a17.425626 17.425626 0 0 0-17.427626 17.427626v68.720523a17.427626 17.427626 0 0 0 17.427626 17.427626h136.809061a17.427626 17.427626 0 0 0 17.427625-17.427626v-68.720523a17.425626 17.425626 0 0 0-17.427625-17.427626z" fill="#959BA0" /><path d="M308.088381 340.140692a17.429626 17.429626 0 0 0-17.429626 17.429626v68.720523a17.429626 17.429626 0 0 0 17.429626 17.429626h48.684954c-21.509538-21.437539-27.895401-64.576613-18.733598-103.577775l-29.951356-0.002z" opacity=".05" /><path d="M290.664755 376.931902h171.656312v29.999355h-171.656312z" opacity=".1" /><path d="M376.492911 57.69676a14.999678 14.999678 0 0 1-14.999677-14.999677V14.999678c0-8.285822 6.715856-14.999678 14.999677-14.999678s14.999678 6.713856 14.999678 14.999678v27.697405a14.999678 14.999678 0 0 1-14.999678 14.999677zM266.781268 103.139784a14.953679 14.953679 0 0 1-10.605772-4.391906l-19.583579-19.583579a14.999678 14.999678 0 0 1 0-21.211544 14.999678 14.999678 0 0 1 21.211544-0.002l19.58358 19.583579a14.999678 14.999678 0 0 1 0 21.211545 14.947679 14.947679 0 0 1-10.605773 4.393905zM221.336245 212.853427H193.63884c-8.283822 0-14.999678-6.713856-14.999678-14.999678s6.715856-14.999678 14.999678-14.999678h27.697405a14.999678 14.999678 0 0 1 0 29.999356zM486.204554 103.139784a14.999678 14.999678 0 0 1-10.605772-25.60545l19.585579-19.583579a14.999678 14.999678 0 0 1 21.211545 0.002 14.999678 14.999678 0 0 1 0 21.211544l-19.58558 19.583579a14.953679 14.953679 0 0 1-10.605772 4.391906zM559.346983 212.853427h-27.699405c-8.285822 0-14.999678-6.713856-14.999678-14.999678s6.713856-14.999678 14.999678-14.999678h27.699405a14.999678 14.999678 0 0 1 0 29.999356z" fill="#FAE17C" /><path d="M325.36801 251.704592c-42.921078-45.781016-29.051376-130.035206 14.525688-164.020476-46.175008 15.333671-79.492292 58.846736-79.492293 110.169633 0 82.166235 54.966819 88.158106 54.96682 142.288943h46.271005c0.211995-27.419411-5.805875-55.940798-36.27122-88.4381z" opacity=".05" /></svg>