<?xml version="1.0" standalone="no"?><!DOCTYPE svg PUBLIC "-//W3C//DTD SVG 1.1//EN" "http://www.w3.org/Graphics/SVG/1.1/DTD/svg11.dtd"><svg class="icon" width="200px" height="200.00px" viewBox="0 0 1024 1024" version="1.1" xmlns="http://www.w3.org/2000/svg"><path d="M712.8241 801.534a30.656 30.656 0 0 1-8.684-1.742c-15.946-5.676-24.268-23.202-18.594-39.148 2.09-5.868-6.334-21.146-12.484-32.302a648.974 648.974 0 0 1-4.482-8.22c-7.966-14.934-2.318-33.496 12.616-41.462s33.496-2.314 41.46 12.616c1.32 2.474 2.696 4.964 4.078 7.472 11.772 21.352 27.896 50.594 16.556 82.452-4.656 13.074-17.28 21.026-30.466 20.334z" fill="#498A68" /><path d="M479.6241 832.85c-142.814-7.484-307.166-16.098-423.458-99.22-19.9-14.224-6.328-45.348 17.714-40.846 94.614 17.714 175.92-2.346 223.616-39.242l182.128 179.308z" fill="#5CB38E" /><path d="M241.9261 683.13c-0.798 45.692 3.816 91.584 29.946 130.912 69.206 11.548 140.842 15.302 207.75 18.81l-182.128-179.308c-15.286 11.826-34.042 21.908-55.568 29.586z" opacity=".1" /><path d="M362.0321 950.686c-16.444-0.862-31.958-10.326-39.802-26.126-11.58-23.322-2.062-51.614 21.258-63.196 15.084-7.488 23.012-17.456 25.712-32.32 2.494-13.724-0.528-27.136-1.474-29.976-8.548-24.596 4.468-51.442 29.064-59.99 24.588-8.55 51.47 4.482 60.02 29.078 16.942 48.754 11.916 136.3-71.384 177.662a46.918 46.918 0 0 1-23.394 4.868zM533.1521 959.654c-16.444-0.862-31.958-10.326-39.802-26.126-11.58-23.322-2.062-51.616 21.258-63.196 15.082-7.488 23.012-17.454 25.714-32.318 2.494-13.724-0.528-27.134-1.474-29.972-8.552-24.594 4.462-51.442 29.056-59.994 24.6-8.55 51.472 4.478 60.024 29.07 16.95 48.754 11.928 136.302-71.382 177.668a46.918 46.918 0 0 1-23.394 4.868z" fill="#498A68" /><path d="M492.6621 904.142c49.514 2.594 91.122 0.08 125.866-7.772 22.062-40.766 20.272-87.98 9.4-119.25-8.552-24.594-35.424-37.62-60.024-29.07-24.594 8.55-37.608 35.4-29.056 59.994 0.946 2.838 3.968 16.25 1.474 29.972-2.702 14.862-10.632 24.83-25.714 32.318-13.792 6.848-22.704 19.554-25.332 33.608 1.134 0.064 2.244 0.14 3.386 0.2zM396.7901 739.08c-24.596 8.548-37.612 35.394-29.064 59.99 0.946 2.84 3.968 16.252 1.474 29.976-2.7 14.864-10.628 24.83-25.712 32.32a47.034 47.034 0 0 0-10.26 6.964c28.262 14.958 63.572 25.172 106.866 31.02 29.64-43.162 28.66-96.812 16.714-131.19-8.548-24.596-35.43-37.63-60.018-29.08z" opacity=".1" /><path d="M720.0141 678.874c-5.76 109.916-24.858 188.668-224.886 178.184-200.026-10.482-210.788-90.8-205.028-200.716 5.76-109.916 106.67-193.978 225.386-187.756 118.718 6.224 210.288 100.372 204.528 210.288z" fill="#5CB38E" /><path d="M720.0141 678.874c0.046-0.876 0.068-1.748 0.102-2.622-44.17-13.836-132.802-21.832-198.042 40.606-47.542 45.498-56.766 96.804-54.094 138.246 8.638 0.806 17.68 1.458 27.148 1.956 200.026 10.482 219.126-68.268 224.886-178.186z" fill="#9BDFC1" /><path d="M474.4921 470.048c-100.124 12.454-179.308 89.3-184.39 186.296-5.334 101.776 3.524 178.166 163.66 197.244-84.476-95.236-57.42-281.316 20.73-383.54z" opacity=".05" /><path d="M727.8181 192.3a198.522 198.522 0 0 0-160.702-97.564l-81.802-4.288c-116.3-6.096-215.52 83.244-221.616 199.544l-5.074 96.818c-5.47 104.378 74.71 193.428 179.088 198.898l433.636 22.726c78.192 4.098 144.902-55.968 149-134.16l3.454-65.892c4.098-78.192-55.968-144.902-134.16-149l-56.176-2.944a130.494 130.494 0 0 1-105.648-64.138z" fill="#5CB38E" /><path d="M895.6521 492.12c1.336-25.504-18.478-43.006-43.982-44.344-25.504-1.336-47.04 13.998-48.376 39.502-1.336 25.504 7.972 57.024 43.222 58.872 35.248 1.848 47.8-28.526 49.136-54.03z" fill="#495059" /><path d="M370.5981 438.822m-14.512 0a14.512 14.512 0 1 0 29.024 0 14.512 14.512 0 1 0-29.024 0Z" opacity=".1" /><path d="M472.4781 466.342m-14.512 0a14.512 14.512 0 1 0 29.024 0 14.512 14.512 0 1 0-29.024 0Z" opacity=".1" /><path d="M410.9181 512.682m-14.512 0a14.512 14.512 0 1 0 29.024 0 14.512 14.512 0 1 0-29.024 0Z" opacity=".1" /><path d="M402.037896 260.519879a36.576 18.766 2.998 1 0 1.962965-37.480633 36.576 18.766 2.998 1 0-1.962965 37.480633Z" fill="#FFA8CB" /><path d="M649.254421 235.901606a36.576 18.766 2.998 1 0-1.962964 37.480632 36.576 18.766 2.998 1 0 1.962964-37.480632Z" fill="#FFA8CB" /><path d="M811.5581 329.442m-14.512 0a14.512 14.512 0 1 0 29.024 0 14.512 14.512 0 1 0-29.024 0Z" fill="#495059" /><path d="M903.9181 334.282m-14.512 0a14.512 14.512 0 1 0 29.024 0 14.512 14.512 0 1 0-29.024 0Z" fill="#495059" /><path d="M438.2561 93.222c-94.898 16.36-169.308 96.552-174.56 196.772l-5.074 96.818c-5.47 104.378 74.71 193.428 179.088 198.898l114.682 6.01c-161.924-105.93-176.234-374.538-114.136-498.498z" opacity=".05" /><path d="M633.3741 85.598c-19.06-14.622-46.624-13.68-64.67 3.77-19.336 18.696-19.552 49.716-1.554 69.706l49.278 54.73c9.008 10.004 24.42 10.812 34.424 1.804l54.73-49.278c19.988-17.998 23.018-48.87 5.742-69.486-16.124-19.24-43.438-23.058-63.922-10.508a12.404 12.404 0 0 1-14.028-0.738zM435.4861 75.228c20.484-12.55 47.798-8.732 63.922 10.508 17.276 20.616 14.248 51.488-5.742 69.486l-54.73 49.278c-10.004 9.008-25.416 8.2-34.424-1.804l-49.278-54.73c-17.998-19.988-17.784-51.008 1.552-69.706 18.046-17.45 45.61-18.392 64.67-3.77a12.4 12.4 0 0 0 14.03 0.738z" fill="#CD5B5B" /><path d="M469.5441 799.334a30.546 30.546 0 0 1-20.286-9.162c-11.842-12.092-11.636-31.496 0.454-43.336 7.558-7.4 5.95-22.882 3.264-40.86l-0.558-3.764c-2.426-16.75 9.186-32.296 25.938-34.722 16.744-2.424 32.294 9.184 34.722 25.934l0.516 3.494c3.334 22.3 9.536 63.81-20.998 93.71a30.566 30.566 0 0 1-23.052 8.706z" fill="#498A68" /><path d="M77.0181 469.834c-25.932-9.716-56.01 0.59-70.042 25.898-15.036 27.118-4.844 61.394 21.722 77.386l72.738 43.782c13.296 8.004 30.564 3.712 38.566-9.584l43.782-72.738c15.99-26.566 8.952-61.626-17.028-78.552-24.248-15.796-55.65-10.822-74.018 9.902a14.304 14.304 0 0 1-15.72 3.906zM934.6241 674.318c-17.25-17.626-45.404-20.668-66.276-5.55-22.366 16.198-27.084 47.696-11.692 70.624l42.148 62.776c7.704 11.476 23.252 14.532 34.728 6.828l62.776-42.148c22.928-15.394 30.486-46.332 15.916-69.792-13.596-21.894-40.806-29.738-63.446-19.954a12.73 12.73 0 0 1-14.154-2.784z" fill="#CD5B5B" /></svg>