<?xml version="1.0" standalone="no"?><!DOCTYPE svg PUBLIC "-//W3C//DTD SVG 1.1//EN" "http://www.w3.org/Graphics/SVG/1.1/DTD/svg11.dtd"><svg class="icon" width="200px" height="200.00px" viewBox="0 0 1024 1024" version="1.1" xmlns="http://www.w3.org/2000/svg"><path d="M368.01254 753.894c-4.606 0-9.276-1.1-13.622-3.422-14.104-7.538-19.43-25.082-11.892-39.188 15.618-29.228 39.24-47.928 47.002-54.074l0.64-0.506c12.526-9.946 30.74-7.862 40.688 4.662s7.86 30.738-4.664 40.686l-0.714 0.566c-6 4.748-21.934 17.362-31.87 35.96-5.216 9.76-15.224 15.316-25.568 15.316z" fill="#498A68" /><path d="M609.52054 806.956c135.136 0 290.652 0 404.502-72.686 19.482-12.438 8.214-42.478-14.696-39.42-90.158 12.036-165.89-10.914-209.074-48.09l-180.732 160.196z" fill="#5CB38E" /><path d="M841.22854 677.428c-1.506 43.156-8.13 86.234-34.734 122.054-65.878 7.474-133.662 7.476-196.974 7.476l180.732-160.196c13.842 11.914 31.042 22.356 50.976 30.666z" opacity=".1" /><path d="M670.02054 938.774c-23.054 0.002-42.574-17.764-44.372-41.134-0.548-7.13-3.412-121.12 8.606-150.608 9.288-22.788 35.292-33.726 58.07-24.444 21.854 8.906 32.814 33.186 25.482 55.26-3.196 16.45-5.032 90.696-3.318 112.954 1.888 24.532-16.47 45.95-41.002 47.838-1.162 0.09-2.32 0.134-3.466 0.134z m46.766-158.168l-0.02 0.052 0.02-0.052z m1.18-3.53zM508.44654 938.774c-23.056 0.002-42.576-17.766-44.372-41.138-0.548-7.132-3.404-121.13 8.606-150.604 9.288-22.788 35.29-33.726 58.07-24.444 21.854 8.906 32.814 33.186 25.482 55.26-3.194 16.444-5.03 90.692-3.318 112.958 1.886 24.532-16.474 45.948-41.006 47.834-1.16 0.092-2.316 0.134-3.462 0.134z m46.768-158.164a0.52 0.52 0 0 0-0.02 0.05l0.02-0.05z m1.18-3.534v0z" fill="#498A68" /><path d="M692.32454 722.59c-22.778-9.284-48.782 1.656-58.07 24.444-8.818 21.64-9.624 88.794-9.21 125.82 34.066-1.622 63.528-6.006 88.806-13.316 0.158-30.48 1.724-70.19 3.958-81.688 7.33-22.074-3.632-46.354-25.484-55.26zM530.75054 722.59c-22.78-9.284-48.782 1.656-58.07 24.444-7.622 18.706-9.256 71.45-9.292 109.32 25.048 8.416 54.518 13.674 88.912 15.932-0.314-30.916 1.372-81.25 3.932-94.436 7.334-22.074-3.628-46.354-25.482-55.26z" opacity=".1" /><path d="M390.29254 649.77c0 104.006 14.128 179.264 203.4 179.264s203.4-75.258 203.4-179.264c0-104.008-91.066-188.322-203.4-188.322s-203.4 84.314-203.4 188.322z" fill="#5CB38E" /><path d="M390.29254 649.77c0-0.83 0.022-1.652 0.034-2.48 42.364-10.872 126.398-14.034 184.874 48.112 42.612 45.286 48.778 94.156 44.208 133.13-8.192 0.332-16.756 0.502-25.716 0.502-189.272 0-203.4-75.258-203.4-179.264z" fill="#9BDFC1" /><path d="M632.30654 464.852c93.866 16.704 164.786 93.136 164.786 184.918 0 96.304-12.136 167.952-164.192 178.036 84.426-85.694 68.098-262.626-0.594-362.954z" opacity=".05" /><path d="M406.99254 190.23a187.592 187.592 0 0 1 156.472-84.118h77.406c110.048 0 199.258 89.212 199.258 199.258v91.612c0 98.766-80.066 178.832-178.832 178.832H250.97054c-73.988 0-133.968-59.98-133.968-133.968v-62.35c0-73.988 59.98-133.968 133.968-133.968h53.156a123.318 123.318 0 0 0 102.866-55.298z" fill="#5CB38E" /><path d="M259.31654 527.61c-10.91 0-21.236-4.872-28.428-13.806-9.46-11.754-10.89-27.308-3.734-40.59a5.208 5.208 0 0 0 0.002-4.958c-7.158-13.286-5.728-28.838 3.732-40.592 9.458-11.754 24.344-16.48 38.854-12.326l15.29 4.376a15 15 0 0 1-8.252 28.84l-15.29-4.376c-3.81-1.09-6.162 0.97-7.228 2.292-1.066 1.324-2.572 4.066-0.696 7.552a35.114 35.114 0 0 1-0.002 33.42c-1.876 3.484-0.37 6.226 0.698 7.55 1.066 1.324 3.42 3.386 7.228 2.292l15.29-4.376a15 15 0 0 1 8.252 28.84l-15.29 4.376a37.63 37.63 0 0 1-10.426 1.486z" fill="#495059" /><path d="M731.88054 440.52m-13.714 0a13.714 13.714 0 1 0 27.428 0 13.714 13.714 0 1 0-27.428 0Z" opacity=".1" /><path d="M634.40054 461.44m-13.714 0a13.714 13.714 0 1 0 27.428 0 13.714 13.714 0 1 0-27.428 0Z" opacity=".1" /><path d="M690.18054 508.22m-13.714 0a13.714 13.714 0 1 0 27.428 0 13.714 13.714 0 1 0-27.428 0Z" opacity=".1" /><path d="M676.47654 252.98a34.564 17.732 0 1 0 69.128 0 34.564 17.732 0 1 0-69.128 0Z" fill="#FFA8CB" /><path d="M444.43654 252.98a34.564 17.732 0 1 0 69.128 0 34.564 17.732 0 1 0-69.128 0Z" fill="#FFA8CB" /><path d="M522.84054 232.832a15 15 0 0 1-15-15v-17.224c0-8.284 6.714-15 15-15s15 6.716 15 15v17.224a15 15 0 0 1-15 15z" fill="#495059" /><path d="M321.18054 315.5m-13.714 0a13.714 13.714 0 1 0 27.428 0 13.714 13.714 0 1 0-27.428 0Z" fill="#495059" /><path d="M233.78054 315.5m-13.714 0a13.714 13.714 0 1 0 27.428 0 13.714 13.714 0 1 0-27.428 0Z" fill="#495059" /><path d="M685.13454 111.054c88.742 20.132 154.992 99.484 154.992 194.316v91.612c0 98.766-80.066 178.832-178.832 178.832h-108.516c158.038-91.952 184.826-344.714 132.356-464.76z" opacity=".05" /><path d="M640.00454 701.002c-9.524 0-18.848-4.69-24.382-13.294-8.654-13.45-4.766-31.368 8.684-40.02 1.494-0.962 3.094-1.964 4.78-3.02 11.638-7.29 26.12-16.362 35.89-32.556 8.26-13.694 26.058-18.1 39.754-9.834 13.694 8.262 18.096 26.06 9.834 39.754-16.906 28.022-40.586 42.856-54.734 51.718-1.478 0.926-2.88 1.804-4.188 2.646a28.828 28.828 0 0 1-15.638 4.606z" fill="#498A68" /><path d="M693.43854 232.986a15 15 0 0 1-15-15 6.594 6.594 0 0 0-6.586-6.586 6.594 6.594 0 0 0-6.588 6.586 15 15 0 0 1-30 0c0-20.174 16.414-36.586 36.588-36.586s36.586 16.412 36.586 36.586a15 15 0 0 1-15 15z" fill="#495059" /><path d="M84.21654 96.304c-22.366-14.366-52.678-10.786-70.968 10.122-19.6 22.402-16.976 56.63 4.716 77.014l59.392 55.81c10.856 10.202 27.928 9.67 38.13-1.186l55.81-59.392c20.382-21.692 20.876-56.016-0.078-77.156-19.556-19.73-50.03-21.422-71.462-5.694a13.728 13.728 0 0 1-15.54 0.482z" fill="#CD5B5B" /></svg>