<?xml version="1.0" standalone="no"?><!DOCTYPE svg PUBLIC "-//W3C//DTD SVG 1.1//EN" "http://www.w3.org/Graphics/SVG/1.1/DTD/svg11.dtd"><svg class="icon" width="200px" height="200.00px" viewBox="0 0 1024 1024" version="1.1" xmlns="http://www.w3.org/2000/svg"><path d="M271.983938 706.62324c-6.153976 0-12.371952-1.765993-17.863931-5.451979l-0.751997-0.503998c-9.123964-6.101976-36.887856-24.671904-56.743778-55.581783-9.583963-14.919942-5.257979-34.781864 9.661962-44.363827 14.921942-9.583963 34.779864-5.255979 44.363827 9.661963 12.633951 19.669923 31.361877 32.195874 38.41385 36.911856l0.841997 0.563997c14.721942 9.881961 18.645927 29.827883 8.763965 44.549826-6.195976 9.227964-16.347936 14.213944-26.685895 14.213945z" fill="#498A68" /><path d="M472.179156 880.934559c149.083418 14.873942 320.652747 31.989875 454.254225-35.667861 22.861911-11.577955 13.737946-45.95982-11.873953-45.105824-100.789606 3.355987-181.81129-30.297882-225.36112-76.065702l-217.019152 156.839387z" fill="#5CB38E" /><path d="M742.058101 763.539017c-6.411975 47.445815-18.461928 94.239632-51.751798 130.827489-73.499713 0.995996-148.281421-6.463975-218.127147-13.433947l217.017152-156.839387c13.959945 14.671943 31.785876 28.08589 52.861793 39.445845z" opacity=".1" /><path d="M504.521029 1023.998c-19.771923 0.002-38.43585-11.953953-46.03982-31.489877-30.943879-79.489689 16.059937-168.91934 63.379752-198.041226 23.229909-14.297944 53.65379-7.055972 67.953735 16.177936 14.293944 23.229909 7.055972 53.64779-16.167937 67.947735-11.019957 7.047972-35.091863 47.297815-23.10991 78.081695 9.897961 25.419901-2.689989 54.049789-28.10989 63.94575a49.265808 49.265808 0 0 1-17.90593 3.377987zM275.239925 941.030324a49.215808 49.215808 0 0 1-19.489924-4.029984c-25.059902-10.777958-36.637857-39.829844-25.859899-64.889747 31.327878-72.841715 89.861649-112.775559 164.641357-112.221561 27.279893 0.173999 49.251808 22.427912 49.077808 49.705806-0.171999 27.171894-22.253913 49.079808-49.385807 49.079808-0.393998 0.002-0.781997-0.004-1.177995-0.004-23.397909 0-52.527795 6.245976-72.405717 52.469795-8.043969 18.697927-26.259897 29.889883-45.399823 29.889883z" fill="#498A68" /><path d="M521.860961 794.466897c-36.181859 22.267913-72.135718 79.797688-73.243713 141.179448 37.589853 9.023965 70.507725 13.777946 99.929609 14.417944-6.659974-29.663884 14.853942-64.919746 25.099902-71.471721 23.225909-14.299944 30.463881-44.719825 16.167937-67.947735-14.297944-23.233909-44.723825-30.475881-67.953735-16.177936zM443.607267 809.594838c0.173999-27.277893-21.797915-49.531807-49.077808-49.705806-61.251761-0.453998-111.591564 26.273897-145.021434 75.983703 19.125925 22.603912 45.397823 42.039836 79.57369 58.80377 19.131925-31.295878 43.695829-36.003859 63.96175-36.003859l1.177995 0.004c27.131894-0.002 49.213808-21.909914 49.385807-49.081808z" opacity=".1" /><path d="M275.039926 632.521529c-29.845883 111.381565-36.311858 196.031234 166.38335 250.343022s239.419065-22.229913 269.264948-133.611478-43.48383-227.80711-163.78536-260.042984c-120.29953-32.231874-242.017055 31.929875-271.862938 143.31144z" fill="#5CB38E" /><path d="M275.039926 632.521529c0.237999-0.887997 0.497998-1.763993 0.747997-2.645989 48.489811 0.513998 139.387456 21.239917 184.17928 104.571591 32.639873 60.725763 25.219901 114.829551 9.141965 155.257394a701.165261 701.165261 0 0 1-27.683892-6.841974c-202.695208-54.309788-196.229233-138.957457-166.38535-250.341022z" fill="#9BDFC1" /><path d="M587.278706 503.938031c95.729626 44.823825 149.747415 147.027426 123.409518 245.317042-27.633892 103.135597-61.189761 176.379311-226.923114 143.545439 115.001551-67.543736 148.287421-261.708978 103.513596-388.862481z" opacity=".05" /><path d="M424.789341 145.185433a207.971188 207.971188 0 0 1 191.705251-45.183824l82.893676 22.211914c117.85154 31.577877 187.791266 152.715403 156.21139 270.566943l-26.287897 98.109616c-28.341889 105.771587-137.059465 168.539342-242.831052 140.199453L147.058426 513.343995c-79.23569-21.231917-126.257507-102.675599-105.02559-181.91129l17.89193-66.771739C81.154683 185.427276 162.600365 138.405459 241.834055 159.637376l56.925778 15.253941a136.739466 136.739466 0 0 0 126.029508-29.705884z" fill="#5CB38E" /><path d="M700.898262 506.460022m-15.20394 0a15.203941 15.203941 0 1 0 30.407881 0 15.203941 15.203941 0 1 0-30.407881 0Z" opacity=".1" /><path d="M590.498693 500.900043m-15.20394 0a15.203941 15.203941 0 1 0 30.407881 0 15.203941 15.203941 0 1 0-30.407881 0Z" opacity=".1" /><path d="M636.818512 566.999785m-15.20394 0a15.203941 15.203941 0 1 0 30.407881 0 15.203941 15.203941 0 1 0-30.407881 0Z" opacity=".1" /><path d="M737.550609 280.657394a38.31785 19.659923 14.999 1 0-10.176062 37.980233 38.31785 19.659923 14.999 1 0 10.176062-37.980233Z" fill="#FFA8CB" /><path d="M478.781142 252.053108a38.31785 19.659923 14.999 1 0 10.176063-37.980233 38.31785 19.659923 14.999 1 0-10.176063 37.980233Z" fill="#FFA8CB" /><path d="M296.93984 254.721005m-15.203941 0a15.203941 15.203941 0 1 0 30.407882 0 15.203941 15.203941 0 1 0-30.407882 0Z" fill="#495059" /><path d="M203.360206 229.641103m-15.203941 0a15.203941 15.203941 0 1 0 30.407881 0 15.203941 15.203941 0 1 0-30.407881 0Z" fill="#495059" /><path d="M745.376088 140.209452c89.257651 47.023816 137.437463 151.01341 110.22357 252.571014l-26.287897 98.109616c-28.341889 105.769587-137.059465 168.539342-242.831052 140.199453l-116.211546-31.137879c195.633236-53.127792 296.85084-316.128765 275.106925-459.742204z" opacity=".05" /><path d="M535.380909 769.246995c-16.283936 0-30.237882-12.341952-31.905876-28.889887-1.775993-17.641931 11.083957-33.38587 28.725888-35.161863l1.017996-0.101999c8.447967-0.835997 30.887879-3.055988 51.2998-14.455944 15.47794-8.645966 35.037863-3.103988 43.683829 12.377952 8.643966 15.48194 3.101988 35.037863-12.379952 43.683829-32.087875 17.91793-65.349745 21.211917-76.279702 22.293913l-0.909996 0.09c-1.087996 0.11-2.175992 0.163999-3.251987 0.163999z" fill="#498A68" /><path d="M732.000141 270.502943a14.999941 14.999941 0 0 1-14.497944-18.887926c0.899996-3.361987 0.437998-6.871973-1.301995-9.885961s-4.547982-5.17198-7.911969-6.071977a13.045949 13.045949 0 0 0-15.957937 9.213964 14.999941 14.999941 0 0 1-28.975887-7.765969c6.143976-22.91991 29.785884-36.563857 52.699794-30.427881a42.759833 42.759833 0 0 1 26.127898 20.047921 42.743833 42.743833 0 0 1 4.295983 32.653873 15.003941 15.003941 0 0 1-14.477943 11.123956zM560.462811 224.541123a14.999941 14.999941 0 0 1-14.497944-18.885926 13.043949 13.043949 0 0 0-9.211964-15.957938c-6.939973-1.857993-14.101945 2.273991-15.961937 9.213964a14.999941 14.999941 0 0 1-28.977887-7.76597c6.141976-22.91591 29.773884-36.567857 52.703794-30.425881 22.91591 6.139976 36.565857 29.781884 30.425881 52.701794a15.005941 15.005941 0 0 1-14.479943 11.119957zM189.53226 468.41017c38.623849 10.34996 78.323694-12.571951 88.673653-51.1958l10.085961-37.641853c4.777981-17.83393-5.805977-36.165859-23.639908-40.94584l-75.285706-20.171921c-17.83393-4.777981-36.165859 5.803977-40.94584 23.639908l-10.08596 37.643853c-10.34796 38.621849 12.573951 78.321694 51.1978 88.671653z" fill="#495059" /><path d="M876.561576 316.548763c-44.069828-21.017918-42.593834-45.177824-70.311725-54.343787-12.79995-4.231983-17.467932-19.919922-8.913966-30.339882 38.46185-46.849817 87.457658-78.997691 145.035434-52.821793 38.053851 17.301932 55.025785 61.983758 38.197851 100.131608-17.463932 39.583845-64.957746 55.997781-104.007594 37.373854zM344.721653 148.791419c46.12782 15.999938 62.051758-2.231991 88.217656 10.717958 12.081953 5.979977 26.425897-1.905993 27.657892-15.32994 5.537978-60.361764-6.745974-117.66154-66.113742-139.479455-39.235847-14.419944-82.705677 5.457979-97.527619 44.429826-15.37994 40.437842 6.891973 85.483666 47.765813 99.661611z" fill="#A3E3FF" /></svg>