<?xml version="1.0" standalone="no"?><!DOCTYPE svg PUBLIC "-//W3C//DTD SVG 1.1//EN" "http://www.w3.org/Graphics/SVG/1.1/DTD/svg11.dtd"><svg class="icon" width="200px" height="200.00px" viewBox="0 0 1024 1024" version="1.1" xmlns="http://www.w3.org/2000/svg"><path d="M512.002 502.32m-502.32 0a502.32 502.32 0 1 0 1004.64 0 502.32 502.32 0 1 0-1004.64 0Z" fill="#959BA0" /><path d="M406.02 11.238C179.496 59.894 9.676 261.262 9.676 502.326c0 277.426 224.898 502.326 502.326 502.326 75.05 0 146.24-16.486 210.188-45.992C139.888 701.87 269.308 168.624 406.02 11.238z" opacity=".1" /><path d="M512.002 502.32m-437.68 0a437.68 437.68 0 1 0 875.36 0 437.68 437.68 0 1 0-875.36 0Z" fill="#E5E5E5" /><path d="M591.706 776.658c-6.11 0-12.262-1.974-17.436-6.044-12.256-9.64-14.376-27.388-4.736-39.644l0.502-0.638c6.006-7.662 24.28-30.976 52.924-46.47 13.714-7.42 30.846-2.316 38.264 11.402 7.418 13.716 2.314 30.846-11.402 38.264-18.312 9.904-30.688 25.692-35.346 31.636l-0.56 0.714a28.188 28.188 0 0 1-22.21 10.78z" fill="#498A68" /><path d="M614.428 732.514c0 102.436-13.914 176.558-200.328 176.558s-200.328-74.122-200.328-176.558 89.69-185.476 200.328-185.476 200.328 83.04 200.328 185.476z" fill="#5CB38E" /><path d="M614.428 732.514c0-0.816-0.022-1.628-0.034-2.442-41.726-10.708-124.488-13.822-182.082 47.384-41.97 44.602-48.042 92.734-43.54 131.12 8.068 0.328 16.502 0.494 25.328 0.494 186.414 0 200.328-74.12 200.328-176.556z" fill="#9BDFC1" /><path d="M376.07 550.39c-92.448 16.452-162.298 91.73-162.298 182.124 0 94.85 11.952 165.414 161.712 175.346-83.152-84.398-67.07-258.658 0.586-357.47z" opacity=".05" /><path d="M394.85 789.908a28.17 28.17 0 0 1-21.792-10.264l-0.514-0.62c-6.212-7.506-25.12-30.342-34.154-61.662-4.322-14.982 4.32-30.632 19.302-34.952 14.978-4.328 30.63 4.318 34.952 19.3 5.774 20.02 18.576 35.482 23.394 41.304l0.574 0.694c9.924 12.028 8.218 29.822-3.81 39.744a28.1 28.1 0 0 1-17.952 6.456z" fill="#498A68" /><path d="M597.982 279.914a184.754 184.754 0 0 0-154.108-82.848h-76.236c-108.386 0-196.25 87.864-196.25 196.25v90.228c0 97.276 78.856 176.132 176.132 176.132h404.126c72.872 0 131.944-59.074 131.944-131.944v-61.408c0-72.872-59.074-131.944-131.944-131.944h-52.352a121.464 121.464 0 0 1-101.312-54.466z" fill="#5CB38E" /><path d="M657.588 545.62a67.936 58.18 0 1 0 135.872 0 67.936 58.18 0 1 0-135.872 0Z" fill="#495059" /><path d="M277.984 526.42m-13.506 0a13.506 13.506 0 1 0 27.012 0 13.506 13.506 0 1 0-27.012 0Z" opacity=".1" /><path d="M374.002 547.04m-13.506 0a13.506 13.506 0 1 0 27.012 0 13.506 13.506 0 1 0-27.012 0Z" opacity=".1" /><path d="M319.062 593.1m-13.506 0a13.506 13.506 0 1 0 27.012 0 13.506 13.506 0 1 0-27.012 0Z" opacity=".1" /><path d="M264.482 341.72a34.04 17.464 0 1 0 68.08 0 34.04 17.464 0 1 0-68.08 0Z" fill="#FFA8CB" /><path d="M493.022 341.72a34.04 17.464 0 1 0 68.08 0 34.04 17.464 0 1 0-68.08 0Z" fill="#FFA8CB" /><path d="M341.712 322.098a15 15 0 0 1-15-15v-16.962c0-8.286 6.716-15 15-15s15 6.714 15 15v16.962a15 15 0 0 1-15 15zM483.88 322.098a15 15 0 0 1-15-15v-16.962c0-8.286 6.716-15 15-15s15 6.714 15 15v16.962a15 15 0 0 1-15 15z" fill="#495059" /><path d="M356.86 281.536c-0.598 0-1.202-0.038-1.81-0.11l-35.976-4.328a15 15 0 1 1 3.584-29.786l35.976 4.328a15 15 0 0 1 13.1 16.684 15 15 0 0 1-14.874 13.212zM468.734 281.536a15 15 0 0 1-1.774-29.894l35.976-4.328a14.99 14.99 0 0 1 16.684 13.102 15 15 0 0 1-13.1 16.684l-35.976 4.328a15.886 15.886 0 0 1-1.81 0.108z" fill="#495059" /><path d="M682.502 403.3m-13.506 0a13.506 13.506 0 1 0 27.012 0 13.506 13.506 0 1 0-27.012 0Z" fill="#495059" /><path d="M768.562 403.3m-13.506 0a13.506 13.506 0 1 0 27.012 0 13.506 13.506 0 1 0-27.012 0Z" fill="#495059" /><path d="M324.04 201.934c-87.4 19.828-152.652 97.982-152.652 191.382v90.23c0 97.274 78.856 176.132 176.132 176.132h106.878c-155.654-90.566-182.036-339.512-130.358-457.744z" opacity=".05" /><path d="M909.932 1024H114.072c-18.436 0-33.384-14.946-33.384-33.382v-217.22c0-18.438 14.946-33.382 33.384-33.382h795.862c18.436 0 33.382 14.946 33.382 33.382v217.218c0.002 18.438-14.946 33.384-33.384 33.384z" fill="#495059" /><path d="M165.772 808.988h-18.08c-8.284 0-15-6.714-15-15s6.716-15 15-15h18.08c8.284 0 15 6.714 15 15s-6.716 15-15 15zM267.278 808.988h-18.08c-8.284 0-15-6.714-15-15s6.716-15 15-15h18.08c8.284 0 15 6.714 15 15s-6.716 15-15 15zM368.786 808.988h-18.08c-8.284 0-15-6.714-15-15s6.716-15 15-15h18.08c8.284 0 15 6.714 15 15s-6.716 15-15 15zM470.29 808.988h-18.08c-8.284 0-15-6.714-15-15s6.716-15 15-15h18.08c8.284 0 15 6.714 15 15s-6.716 15-15 15zM571.794 808.988h-18.08c-8.284 0-15-6.714-15-15s6.716-15 15-15h18.08c8.284 0 15 6.714 15 15s-6.714 15-15 15zM673.3 808.988h-18.08c-8.284 0-15-6.714-15-15s6.716-15 15-15h18.08c8.284 0 15 6.714 15 15s-6.716 15-15 15zM774.808 808.988h-18.08c-8.284 0-15-6.714-15-15s6.716-15 15-15h18.08c8.284 0 15 6.714 15 15s-6.716 15-15 15zM876.312 808.988h-18.08c-8.284 0-15-6.714-15-15s6.716-15 15-15h18.08c8.284 0 15 6.714 15 15s-6.716 15-15 15zM165.772 985.028h-18.08c-8.284 0-15-6.714-15-15s6.716-15 15-15h18.08c8.284 0 15 6.714 15 15s-6.716 15-15 15zM267.278 985.028h-18.08c-8.284 0-15-6.714-15-15s6.716-15 15-15h18.08c8.284 0 15 6.714 15 15s-6.716 15-15 15zM368.786 985.028h-18.08c-8.284 0-15-6.714-15-15s6.716-15 15-15h18.08c8.284 0 15 6.714 15 15s-6.716 15-15 15zM470.29 985.028h-18.08c-8.284 0-15-6.714-15-15s6.716-15 15-15h18.08c8.284 0 15 6.714 15 15s-6.716 15-15 15zM571.794 985.028h-18.08c-8.284 0-15-6.714-15-15s6.716-15 15-15h18.08c8.284 0 15 6.714 15 15s-6.714 15-15 15zM673.3 985.028h-18.08c-8.284 0-15-6.714-15-15s6.716-15 15-15h18.08c8.284 0 15 6.714 15 15s-6.716 15-15 15zM774.808 985.028h-18.08c-8.284 0-15-6.714-15-15s6.716-15 15-15h18.08c8.284 0 15 6.714 15 15s-6.716 15-15 15zM876.312 985.028h-18.08c-8.284 0-15-6.714-15-15s6.716-15 15-15h18.08c8.284 0 15 6.714 15 15s-6.716 15-15 15z" fill="#FFFFFF" /><path d="M255.958 845.346H159.014a11.32 11.32 0 0 0-11.32 11.32v50.682a11.32 11.32 0 0 0 11.32 11.32h96.944a11.32 11.32 0 0 0 11.32-11.32v-50.682a11.32 11.32 0 0 0-11.32-11.32zM458.968 845.346h-96.944a11.32 11.32 0 0 0-11.32 11.32v50.682a11.32 11.32 0 0 0 11.32 11.32h96.944a11.32 11.32 0 0 0 11.32-11.32v-50.682a11.32 11.32 0 0 0-11.32-11.32zM661.982 845.346h-96.944a11.32 11.32 0 0 0-11.32 11.32v50.682a11.32 11.32 0 0 0 11.32 11.32h96.944a11.32 11.32 0 0 0 11.32-11.32v-50.682a11.322 11.322 0 0 0-11.32-11.32zM864.99 845.346h-96.944a11.32 11.32 0 0 0-11.32 11.32v50.682a11.32 11.32 0 0 0 11.32 11.32h96.944a11.32 11.32 0 0 0 11.32-11.32v-50.682a11.32 11.32 0 0 0-11.32-11.32z" fill="#959BA0" /></svg>