<?xml version="1.0" standalone="no"?><!DOCTYPE svg PUBLIC "-//W3C//DTD SVG 1.1//EN" "http://www.w3.org/Graphics/SVG/1.1/DTD/svg11.dtd"><svg class="icon" width="200px" height="200.00px" viewBox="0 0 1024 1024" version="1.1" xmlns="http://www.w3.org/2000/svg"><path d="M763.212509 768.668499c-3.867992 0-7.799985-0.691999-11.629977-2.151996-22.249957-8.473983-45.167912-7.401986-53.791895-7.005986l-1.031998 0.049999c-18.009965 0.805998-33.317935-13.157974-34.125933-31.197939s13.157974-33.317935 31.197939-34.125933l0.921998-0.042c11.161978-0.525999 45.139912-2.099996 80.103844 11.217978 16.873967 6.427987 25.341951 25.315951 18.915963 42.187918-4.96999 13.043975-17.383966 21.065959-30.559941 21.067959z" fill="#498A68" /><path d="M467.947086 870.932299c-152.567702 0-328.145359 0-456.681108-82.06384-21.995957-14.041973-9.273982-47.957906 16.591968-44.505913 101.789801 13.587973 187.289634-12.321976 236.043539-54.291894l204.045601 180.861647z" fill="#5CB38E" /><path d="M206.351597 724.694585c1.699997 48.723905 9.179982 97.35781 39.213923 137.79773 74.375855 8.437984 150.903705 8.439984 222.381566 8.439984l-204.045601-180.861647c-15.625969 13.453974-35.045932 25.243951-57.549888 34.623933z" opacity=".1" /><path d="M399.55122 1019.762008c-7.749985 0-15.617969-1.797996-22.985955-5.589989-24.695952-12.715975-34.407933-43.047916-21.689958-67.743867 12.041976-23.381954 0.347999-84.539835-8.007984-105.189795-10.41398-25.72995 1.963996-55.081892 27.679945-65.523872 25.72395-10.43598 55.009893 1.871996 65.481873 27.571946 0.445999 1.101998 43.173916 113.663778 4.279991 189.195631-8.923983 17.327966-26.519948 27.279947-44.757912 27.279946zM581.990863 1019.764008a50.063902 50.063902 0 0 1-18.579963-3.575993c-25.81195-10.26798-38.411925-39.517923-28.139945-65.327872 10.33198-25.965949-0.259999-93.181818-6.153988-110.025785-10.18798-25.62595 2.173996-54.723893 27.761945-65.151873 25.71595-10.48198 55.073892 1.871996 65.561872 27.597946 8.219984 20.169961 31.487939 121.461763 6.299988 184.767639-7.843985 19.709962-26.755948 31.715938-46.749909 31.715938z m-52.793897-178.731651l0.084 0.212-0.084-0.212z" fill="#498A68" /><path d="M640.01475 924.210195c1.315997-52.821897-11.813977-106.793791-17.573966-120.929764-10.48598-25.72595-39.845922-38.079926-65.561872-27.597946-25.58795 10.42798-37.949926 39.525923-27.761945 65.151873 5.453989 15.58997 14.921971 74.297855 8.113984 103.547798 40.093922-2.947994 74.123855-9.613981 102.783799-20.171961zM374.547268 775.712485c-25.71595 10.44198-38.093926 39.793922-27.679945 65.523872 7.025986 17.357966 16.403968 63.335876 12.061976 91.443821 28.589944 7.359986 61.66188 11.639977 99.661805 12.991975 9.683981-68.023867-18.199964-141.495724-18.559963-142.385722-10.47398-25.70195-39.759922-38.009926-65.483873-27.573946z" opacity=".1" /><path d="M715.456603 693.468646c0 117.423771-15.949969 202.389605-229.637552 202.389604s-229.637551-84.965834-229.637551-202.389604 102.811799-212.613585 229.637551-212.613585c126.823752 0 229.637551 95.189814 229.637552 212.613585z" fill="#5CB38E" /><path d="M715.456603 693.468646c0-0.935998-0.026-1.865996-0.038-2.799995-47.829907-12.273976-142.701721-15.843969-208.721593 54.317894-48.109906 51.1279-55.071892 106.301792-49.909902 150.303706 9.247982 0.375999 18.917963 0.567999 29.033943 0.567999 213.685583 0 229.635551-84.965834 229.635552-202.389604z" fill="#9BDFC1" /><path d="M442.223136 484.697053c-105.973793 18.859963-186.043637 105.149795-186.043636 208.771593 0 108.727788 13.701973 189.61763 185.371638 201.001607-95.315814-96.745811-76.87985-296.503421 0.671998-409.7732z" opacity=".05" /><path d="M696.602639 174.649659a211.789586 211.789586 0 0 0-176.655655-94.969815h-87.389829c-124.243757 0-224.963561 100.719803-224.96356 224.963561v103.429798c0 111.507782 90.393823 201.901606 201.901605 201.901606h463.255095c83.533837 0 151.249705-67.715868 151.249705-151.249705v-70.393862c0-83.531837-67.715868-151.249705-151.249705-151.249705H812.738413a139.225728 139.225728 0 0 1-116.135774-62.431878z" fill="#5CB38E" /><path d="M329.801356 457.239107m-15.48197 0a15.48197 15.48197 0 1 0 30.96394 0 15.48197 15.48197 0 1 0-30.96394 0Z" opacity=".1" /><path d="M439.861141 480.859061m-15.48197 0a15.48197 15.48197 0 1 0 30.96394 0 15.48197 15.48197 0 1 0-30.96394 0Z" opacity=".1" /><path d="M376.881264 533.658958m-15.48197 0a15.48197 15.48197 0 1 0 30.96394 0 15.48197 15.48197 0 1 0-30.96394 0Z" opacity=".1" /><path d="M374.839268 245.499521a39.021924 20.019961 0 1 0 78.043847 0 39.021924 20.019961 0 1 0-78.043847 0Z" fill="#FFA8CB" /><path d="M636.818756 245.499521a39.021924 20.019961 0 1 0 78.043848 0 39.021924 20.019961 0 1 0-78.043848 0Z" fill="#FFA8CB" /><path d="M842.816354 513.370997a55.971891 55.971891 0 0 1-42.193918-19.213962 14.999971 14.999971 0 0 1 22.617956-19.709962c4.94399 5.671989 12.077976 8.925983 19.575962 8.925983s14.631971-3.253994 19.575962-8.925983a15.001971 15.001971 0 0 1 22.617955 19.709962 55.959891 55.959891 0 0 1-42.193917 19.213962z" fill="#495059" /><path d="M793.48045 316.079383m-15.48197 0a15.48197 15.48197 0 1 0 30.96394 0 15.48197 15.48197 0 1 0-30.96394 0Z" fill="#495059" /><path d="M892.140258 316.079383m-15.48197 0a15.48197 15.48197 0 1 0 30.963939 0 15.48197 15.48197 0 1 0-30.963939 0Z" fill="#495059" /><path d="M382.579253 85.259833c-100.187804 22.727956-174.985658 112.317781-174.985658 219.381572v103.429798c0 111.507782 90.393823 201.901606 201.901605 201.901606h122.513761C353.585309 506.161011 323.341368 220.791569 382.579253 85.259833z" opacity=".05" /><path d="M509.073006 811.068416c-11.683977 0-22.981955-6.277988-28.869944-17.301966-11.215978-21.007959-29.215943-35.259931-35.99193-40.625921l-0.815998-0.645999c-14.135972-11.231978-16.489968-31.795938-5.25599-45.93591 11.233978-14.133972 31.797938-16.489968 45.935911-5.25599l0.723998 0.573999c8.769983 6.941986 35.453931 28.073945 53.081896 61.091881 8.505983 15.929969 2.485995 35.73393-13.441973 44.237913a32.525936 32.525936 0 0 1-15.36597 3.861993z" fill="#498A68" /><path d="M505.531013 79.679844h14.415971c59.323884 0 115.331775 24.853951 155.039698 67.533868l-22.253957-48.531905c-26.303949-57.375888-84.083836-94.447816-147.201712-94.447815h-83.575837c-63.115877 0-120.895764 37.071928-147.201713 94.445815l-34.105933 74.387855 68.579866 31.445939 34.105933-74.387855c14.053973-30.64594 55.513892-50.445901 89.225826-50.445902h39.057924 33.913934z" fill="#80B0E3" /><path d="M159.233689 246.359519a109.959785 97.30781 90 1 0 194.61562 0 109.959785 97.30781 90 1 0-194.61562 0Z" fill="#A3E3FF" /><path d="M135.155736 246.359519a89.141826 78.885846 90 1 0 157.771692 0 89.141826 78.885846 90 1 0-157.771692 0Z" fill="#80B0E3" /><path d="M524.152976 5.32999a160.673686 160.673686 0 0 0-18.621963-1.095998h-76.557851V79.759844c1.201998-0.048 2.399995-0.08 3.583993-0.08H519.946984c1.403997 0 2.803995 0.028 4.205992 0.054V5.32999z" fill="#A3E3FF" /><path d="M491.881039 219.043572a14.997971 14.997971 0 0 1-14.99997-14.999971 13.537974 13.537974 0 0 0-13.523974-13.521973 13.539974 13.539974 0 0 0-13.521974 13.521973c0 8.285984-6.713987 14.999971-14.99997 14.999971s-14.999971-6.713987-14.999971-14.999971c0-23.997953 19.523962-43.521915 43.521915-43.521915 23.997953 0 43.523915 19.523962 43.523915 43.521915 0 8.285984-6.713987 14.999971-14.999971 14.999971zM654.852721 219.043572a14.997971 14.997971 0 0 1-14.999971-14.999971 13.537974 13.537974 0 0 0-13.523973-13.521973 13.537974 13.537974 0 0 0-13.521974 13.521973c0 8.285984-6.713987 14.999971-14.999971 14.999971s-14.999971-6.713987-14.99997-14.999971c0-23.997953 19.523962-43.521915 43.521915-43.521915s43.523915 19.523962 43.523915 43.521915a14.999971 14.999971 0 0 1-14.999971 14.999971z" fill="#495059" /><path d="M155.567696 470.535081v96.965811a6.899987 6.899987 0 0 1-6.695987 6.909986 84.591835 84.591835 0 0 0-13.479973 1.503997c-35.129931 6.743987-63.609876 33.567934-63.609876 59.913883s28.477944 42.237918 63.609876 35.493931c35.129931-6.743987 63.609876-33.567934 63.609875-59.913883v-88.817827a11.067978 11.067978 0 0 1 8.981983-10.869978l49.165904-9.437982a22.185957 22.185957 0 0 0 18.003965-21.789957v-41.39792c0-6.073988-5.531989-10.645979-11.497978-9.501981L175.399657 446.535128a24.439952 24.439952 0 0 0-19.831961 23.999953z" fill="#FF85B6" /><path d="M851.412337 730.456573v96.965811a6.899987 6.899987 0 0 1-6.695987 6.909986 84.565835 84.565835 0 0 0-13.479974 1.503998c-35.129931 6.743987-63.609876 33.569934-63.609875 59.915882s28.479944 42.237918 63.609875 35.493931c35.129931-6.743987 63.609876-33.567934 63.609876-59.913883v-88.817826a11.067978 11.067978 0 0 1 8.981983-10.869979l49.165904-9.437982a22.185957 22.185957 0 0 0 18.003965-21.789957V699.018635c0-6.073988-5.531989-10.645979-11.497978-9.501982l-88.255828 16.941967a24.437952 24.437952 0 0 0-19.831961 23.997953z" fill="#A9A6DE" /></svg>