<?xml version="1.0" standalone="no"?><!DOCTYPE svg PUBLIC "-//W3C//DTD SVG 1.1//EN" "http://www.w3.org/Graphics/SVG/1.1/DTD/svg11.dtd"><svg class="icon" width="200px" height="200.00px" viewBox="0 0 1024 1024" version="1.1" xmlns="http://www.w3.org/2000/svg"><path d="M282.239509 774.820487a32.675936 32.675936 0 0 1-25.369951-12.019977c-11.447978-13.999973-9.377982-34.631932 4.623991-46.07791 11.367978-9.295982 21.485958-22.737956 28.873944-32.551936 6.377988-8.471983 10.983979-14.593971 16.843967-19.249963 14.161972-11.249978 34.759932-8.889983 46.01191 5.26999 10.911979 13.735973 9.019982 33.531935-4.027992 44.973912-1.343997 1.541997-4.297992 5.467989-6.499987 8.391984-8.863983 11.775977-22.257957 29.571942-39.745923 43.867914a32.615936 32.615936 0 0 1-20.709959 7.395986z m65.737871-58.639886z" fill="#498A68" /><path d="M555.300975 834.830369c152.817702 0 328.683358 0 457.429107-82.197839 22.031957-14.065973 9.289982-48.035906-16.619968-44.577913-101.955801 13.609973-187.595634-12.341976-236.429538-54.381894l-204.379601 181.157646z" fill="#5CB38E" /><path d="M817.324464 688.352656c-1.703997 48.803905-9.193982 97.51781-39.277924 138.02373-74.497854 8.451983-151.151705 8.453983-222.745565 8.453983l204.379601-181.157646c15.651969 13.473974 35.101931 25.283951 57.643888 34.679933z" opacity=".1" /><path d="M623.714842 983.896078c-26.069949 0.002-48.143906-20.087961-50.177902-46.515909-0.619999-8.063984-3.857992-136.967732 9.731981-170.313667 10.503979-25.76795 39.907922-38.135926 65.669872-27.641946 24.711952 10.06998 37.107928 37.529927 28.815943 62.489878-3.613993 18.603964-5.689989 102.5618-3.751992 127.73375 2.135996 27.741946-18.623964 51.961899-46.36791 54.097895-1.313997 0.1-2.623995 0.15-3.919992 0.149999z m52.885897-178.86365l-0.022 0.06 0.022-0.06z m1.333997-3.991993zM441.001199 983.896078c-26.073949 0.002-48.145906-20.089961-50.177902-46.521909-0.619999-8.065984-3.849992-136.979732 9.731981-170.309667 10.501979-25.76795 39.909922-38.135926 65.667871-27.641946 24.711952 10.06998 37.107928 37.527927 28.815944 62.489878-3.611993 18.595964-5.687989 102.5578-3.751993 127.73775 2.131996 27.741946-18.629964 51.959899-46.369909 54.093895-1.313997 0.104-2.621995 0.152-3.915992 0.151999z m52.885896-178.85965l-0.022 0.056 0.022-0.056z m1.333998-3.997993v0z" fill="#498A68" /><path d="M466.223149 739.424556c-25.75795-10.49598-55.165892 1.873996-65.667871 27.641946-8.619983 21.151959-10.46798 80.797842-10.50998 123.623758 28.323945 9.517981 61.65188 15.46397 100.545804 18.017965-0.355999-34.961932 1.551997-91.879821 4.445991-106.791791 8.293984-24.963951-4.101992-52.421898-28.813944-62.491878zM648.936793 739.424556c-25.75995-10.49598-55.163892 1.873996-65.669872 27.641946-9.971981 24.471952-10.881979 100.413804-10.41598 142.283722 38.521925-1.833996 71.84186-6.791987 100.423804-15.057971 0.178-34.467933 1.949996-79.375845 4.475991-92.375819 8.293984-24.963951-4.099992-52.421898-28.813943-62.491878z" opacity=".1" /><path d="M307.38746 657.074717c0 117.61577 15.975969 202.721604 230.01355 202.721604s230.013551-85.105834 230.013551-202.721604-102.981799-212.961584-230.013551-212.961584-230.013551 95.345814-230.01355 212.961584z" fill="#5CB38E" /><path d="M307.38746 657.074717c0-0.937998 0.026-1.867996 0.038-2.803995 47.907906-12.293976 142.935721-15.869969 209.063591 54.405894 48.187906 51.2119 55.161892 106.475792 49.991903 150.549706-9.263982 0.375999-18.947963 0.567999-29.079944 0.567999-214.037582 0.002-230.013551-85.103834-230.01355-202.719604z" fill="#9BDFC1" /><path d="M581.066925 447.963125c106.147793 18.889963 186.347636 105.321794 186.347636 209.113592 0 108.905787-13.723973 189.927629-185.675637 201.331606 95.471814-96.905811 77.00785-296.98942-0.671999-410.445198z" opacity=".05" /><path d="M320.371434 140.335726a212.133586 212.133586 0 0 1 173.517661-101.241802l87.47983-3.053994c124.371757-4.343992 228.715553 92.957818 233.057544 217.329575l3.615993 103.535798c3.897992 111.621782-83.429837 205.269599-195.051619 209.167591l-463.729094 16.193969c-83.617837 2.919994-153.7717-62.499878-156.691694-146.117715l-2.459995-70.465862c-2.919994-83.617837 62.499878-153.7717 146.117714-156.691694l60.073883-2.097996a139.457728 139.457728 0 0 0 114.069777-66.55787z" fill="#5CB38E" /><path d="M55.669951 343.631329c12.051976-5.907988 16.279968-20.989959 9.055983-32.303937l-30.145942-47.201908C11.900037 291.65343-1.233938 327.233361 0.10806 365.681286l2.459995 70.465862a151.269705 151.269705 0 0 0 9.187982 46.925908 58.719885 58.719885 0 0 0 5.945988-6.089988l43.977915-52.329897a22.493956 22.493956 0 0 0 0.613998-28.177945l-14.557971-18.939963c-8.659983-11.269978-4.827991-27.647946 7.933984-33.903934z" fill="#FAE17C" /><path d="M697.432698 410.377198m-15.50797 0a15.50797 15.50797 0 1 0 31.01594 0 15.50797 15.50797 0 1 0-31.01594 0Z" opacity=".1" /><path d="M588.072911 437.877145m-15.507969 0a15.50797 15.50797 0 1 0 31.015939 0 15.50797 15.50797 0 1 0-31.015939 0Z" opacity=".1" /><path d="M652.972785 488.537046m-15.50797 0a15.50797 15.50797 0 1 0 31.015939 0 15.50797 15.50797 0 1 0-31.015939 0Z" opacity=".1" /><path d="M618.040853 381.265255l0.591999 1.167998a28.653944 28.653944 0 0 1-1.723997 28.841944l-2.029996 3.043994c-14.513972 21.763957 5.32999 49.997902 30.72394 43.709914l6.095988-1.509997a28.645944 28.645944 0 0 1 26.963947 7.371986l6.385988 6.271988c16.171968 15.881969 43.509915 7.589985 48.129906-14.601972l4.197992-20.16596a28.657944 28.657944 0 0 1 11.397978-17.477966l13.369973-9.547982c16.961967-12.113976 15.725969-37.707926-2.323995-48.129906a28.643944 28.643944 0 0 1-11.997977-13.505973l-11.399977-26.541948c-9.253982-21.545958-39.057924-23.459954-50.991901-3.273994l-3.313993 5.603989a28.647944 28.647944 0 0 1-19.981961 13.685973l-23.213955 3.845993c-19.089963 3.161994-29.621942 23.949953-20.879959 41.211919z" fill="#FAE17C" /><path d="M665.754884 179.217797a20.059961 39.085924 88 1 0 1.400165 40.095481 20.059961 39.085924 88 1 0-1.400165-40.095481Z" fill="#FFA8CB" /><path d="M404.917282 228.465265a20.059961 39.085924 88 1 0-1.400165-40.095481 20.059961 39.085924 88 1 0 1.400165 40.095481Z" fill="#FFA8CB" /><path d="M424.019232 179.38965a14.999971 14.999971 0 0 1-14.981971-14.475972 42.965916 42.965916 0 0 1 11.593977-31.00794 42.969916 42.969916 0 0 1 30.123942-13.727973c23.857953-0.803998 43.903914 17.881965 44.735912 41.717919a14.999971 14.999971 0 0 1-14.467971 15.513969c-8.207984 0.269999-15.22597-6.187988-15.51397-14.467971-0.254-7.301986-6.415987-13.045975-13.707973-12.781975a13.153974 13.153974 0 0 0-9.229982 4.205992 13.161974 13.161974 0 0 0-3.551993 9.501981 14.999971 14.999971 0 0 1-14.999971 15.52197zM587.154913 173.693661a14.995971 14.995971 0 0 1-14.979971-14.477972c-0.829998-23.833953 17.883965-43.901914 41.715919-44.733913 23.849953-0.849998 43.903914 17.879965 44.735913 41.715919a14.999971 14.999971 0 0 1-14.465972 15.51397c-8.233984 0.24-15.22397-6.187988-15.51397-14.467972a13.269974 13.269974 0 0 0-13.707973-12.781975 13.269974 13.269974 0 0 0-12.783975 13.707973 14.999971 14.999971 0 0 1-14.999971 15.52397zM183.889701 484.527054a56.033891 56.033891 0 0 1-40.92992-17.787966 14.999971 14.999971 0 1 1 21.915957-20.48796c5.15199 5.509989 12.417976 8.543983 19.923961 8.255984a26.029949 26.029949 0 0 0 19.301962-9.625981 14.999971 14.999971 0 0 1 21.099959-2.191996 14.999971 14.999971 0 0 1 2.191996 21.099959 56.033891 56.033891 0 0 1-43.503915 20.73796z" fill="#495059" /><path d="M228.333614 285.297443m-15.50797 0a15.50797 15.50797 0 1 0 31.01594 0 15.50797 15.50797 0 1 0-31.01594 0Z" fill="#495059" /><path d="M129.567807 288.757436m-15.50797 0a15.50797 15.50797 0 1 0 31.01594 0 15.50797 15.50797 0 1 0-31.01594 0Z" fill="#495059" /><path d="M631.592826 39.877922c101.085803 19.249962 179.09165 106.315792 182.833643 213.489583l3.615993 103.535798c3.897992 111.621782-83.429837 205.269599-195.051619 209.167591l-122.63976 4.281992c174.979658-110.157785 195.277619-396.875225 131.241743-530.474964z" opacity=".05" /><path d="M335.515405 637.258755l-17.359966 198.323613-51.131901-4.475991 17.359967-198.323613z" fill="#959BA0" /><path d="M284.367505 632.746764l-17.349967 198.315613-109.199786-9.553982c-8.831983-0.771998-13.339974-10.983979-7.959985-18.031964l11.895977-15.58197a29.775942 29.775942 0 0 0 2.777995-31.757938l-9.733981-18.809963a29.779942 29.779942 0 0 1 2.777994-31.755938l12.851975-16.833967a29.775942 29.775942 0 0 0 2.777995-31.757938l-9.009983-17.411966c-4.073992-7.873985 2.137996-17.147967 10.969979-16.375968l109.201787 9.555981z" fill="#495059" /><path d="M335.499405 637.220755l-17.349966 198.315613 32.277937 2.823995a28.533944 28.533944 0 0 0 27.601946-14.885971l17.533965-32.535937a23.239955 23.239955 0 0 1 22.487956-12.127976l66.65387 5.831988c18.881963 1.651997 35.525931-12.315976 37.177928-31.195939 1.651997-18.881963-12.313976-35.525931-31.195939-37.177927l-66.65387-5.831989a23.243955 23.243955 0 0 1-20.039961-15.849969l-11.617977-35.085931a28.529944 28.529944 0 0 0-24.595952-19.453962l-32.279937-2.825995z" fill="#CD5B5B" /><path d="M228.677613 627.874774l-54.419893-4.761991c-8.831983-0.771998-15.045971 8.501983-10.969979 16.375968l9.009982 17.411966a29.779942 29.779942 0 0 1-2.777994 31.757938l-12.851975 16.833967a29.771942 29.771942 0 0 0-2.777995 31.755938l9.733981 18.809963a29.771942 29.771942 0 0 1-2.777994 31.755938l-11.897977 15.58197c-4.677991 5.637989-8.587983 36.925928-11.041978 62.109879-1.771997 18.191964 11.655977 34.321933 29.863941 35.913929 18.089965 1.581997 34.037934-11.799977 35.621931-29.889941l2.011996-22.991955c1.095998-12.533976 12.147976-21.807957 24.681952-20.70996l5.785988 0.505999c-46.11791-60.073883-6.955986-144.623718-7.193986-200.459608z" fill="#FAE17C" /><path d="M514.161056 774.860487a32.699936 32.699936 0 0 1-26.041949-12.859975c-10.983979-14.367972-8.237984-34.919932 6.129988-45.903911 21.519958-16.451968 31.015939-32.165937 36.687928-41.555918l0.569999-0.939999c9.361982-15.46597 29.497942-20.42196 44.971912-11.049978 15.46997 9.365982 20.41796 29.501942 11.049978 44.973912l-0.535998 0.887998c-7.007986 11.597977-21.587958 35.72793-52.969897 59.719884a32.617936 32.617936 0 0 1-19.861961 6.727987z" fill="#498A68" /><path d="M781.218534 803.364431H558.982968v164.483679c0 11.183978 9.065982 20.24996 20.249961 20.24996h181.737645c11.183978 0 20.24996-9.065982 20.24996-20.24996v-164.483679h-0.002z" fill="#959BA0" /><path d="M558.972968 894.456253H781.212534v29.999941H558.972968z" opacity=".1" /><path d="M535.677014 795.262447v86.025832c0 24.237953 19.647962 43.887914 43.887914 43.887914 22.525956 0 40.78792-18.261964 40.78792-40.78792v-7.947985c0-13.531974 10.969979-24.503952 24.503953-24.503952h52.763896c13.987973 0 25.325951 11.339978 25.325951 25.327951v30.57594c0 22.525956 18.261964 40.78792 40.78792 40.78792 22.525956 0 40.78792-18.261964 40.787921-40.78792v-112.57578c0-19.251962-15.60597-34.857932-34.857932-34.857932h-199.129611c-19.251962-0.002-34.857932 15.60397-34.857932 34.855932z" fill="#FAE17C" /></svg>