<?xml version="1.0" standalone="no"?><!DOCTYPE svg PUBLIC "-//W3C//DTD SVG 1.1//EN" "http://www.w3.org/Graphics/SVG/1.1/DTD/svg11.dtd"><svg class="icon" width="200px" height="200.00px" viewBox="0 0 1024 1024" version="1.1" xmlns="http://www.w3.org/2000/svg"><path d="M267.452 786.664a31.568 31.568 0 0 1-19.31-6.574c-13.894-10.676-16.502-30.596-5.826-44.49 22.126-28.792 51.012-44.768 60.504-50.02l0.782-0.432c15.316-8.514 34.634-2.986 43.142 12.336 8.506 15.32 2.982 34.634-12.338 43.14l-0.874 0.484c-7.336 4.056-26.822 14.834-40.898 33.154a31.68 31.68 0 0 1-25.182 12.402z" fill="#498A68" /><path d="M539.638 852.672c148.064 0 318.458 0 443.2-79.64 21.346-13.628 9-46.542-16.102-43.192-98.784 13.188-181.762-11.958-229.076-52.69l-198.022 175.522z" fill="#5CB38E" /><path d="M793.512 710.75c-1.65 47.286-8.908 94.484-38.056 133.73-72.18 8.19-146.45 8.19-215.818 8.19l198.022-175.522c15.166 13.056 34.012 24.498 55.852 33.602z" opacity=".1" /><path d="M606 997.11c-18.978 0.002-37.024-11.134-44.932-29.696-28.502-66.912-2.338-160.754 5.666-180.396 10.172-24.964 38.656-36.96 63.624-26.784 24.95 10.168 36.944 38.628 26.8 63.584-5.724 14.562-18.856 75.8-6.274 105.338 10.564 24.802-0.978 53.472-25.78 64.038a48.646 48.646 0 0 1-19.104 3.916zM406.464 994.402c-23.604 0.002-44.366-17.172-48.166-41.222-7.442-47.09 21.432-150.892 34.874-173.054 13.98-23.052 44.002-30.408 67.048-16.424 22.566 13.686 30.088 42.742 17.278 65.586-8.59 18.942-25.288 90.392-22.766 108.7 4.208 26.628-13.97 51.604-40.6 55.814a49.7 49.7 0 0 1-7.668 0.6z m70.752-164.616z" fill="#498A68" /><path d="M460.222 763.7c-23.046-13.984-53.07-6.628-67.048 16.424-9.416 15.524-26.386 71.088-33.162 119.176 26.332 11.496 57.84 19.14 95.194 23.108 3.092-28.116 15.344-77.798 22.294-93.122 12.81-22.842 5.288-51.9-17.278-65.586zM657.158 823.816c10.142-24.954-1.85-53.416-26.8-63.584-24.968-10.174-53.452 1.82-63.624 26.784-6.414 15.742-24.466 79.138-16.722 138.14 36.856-1.382 68.918-5.614 96.61-12.86-4.178-31.616 5.756-76.318 10.536-88.48z" opacity=".1" /><path d="M299.436 680.446c0 113.958 15.48 196.416 222.86 196.416s222.86-82.458 222.86-196.416-99.778-206.338-222.86-206.338c-123.082 0-222.86 92.38-222.86 206.338z" fill="#5CB38E" /><path d="M299.436 680.446c0-0.908 0.024-1.81 0.036-2.716 46.418-11.912 138.49-15.376 202.56 52.714 46.69 49.618 53.446 103.164 48.438 145.868a695.72 695.72 0 0 1-28.176 0.55c-207.378 0-222.858-82.458-222.858-196.416z" fill="#9BDFC1" /><path d="M564.604 477.838c102.846 18.302 180.552 102.046 180.552 202.608 0 105.518-13.296 184.02-179.9 195.068 92.5-93.89 74.61-287.75-0.652-397.676z" opacity=".05" /><path d="M317.732 176.942a205.534 205.534 0 0 1 171.44-92.166h84.81c120.576 0 218.322 97.746 218.322 218.322v100.376c0 108.216-87.726 195.942-195.942 195.942H146.784C65.718 599.416 0 533.698 0 452.632v-68.316c0-81.068 65.718-146.784 146.784-146.784h58.24a135.124 135.124 0 0 0 112.708-60.59z" fill="#5CB38E" /><path d="M238.738 474.108c0-34.74-28.162-50.194-62.902-50.194s-62.902 15.454-62.902 50.194 28.162 62.902 62.902 62.902 62.902-28.162 62.902-62.902z" fill="#495059" /><path d="M673.72 451.18m-15.026 0a15.026 15.026 0 1 0 30.052 0 15.026 15.026 0 1 0-30.052 0Z" opacity=".1" /><path d="M566.9 474.1m-15.024 0a15.024 15.024 0 1 0 30.048 0 15.024 15.024 0 1 0-30.048 0Z" opacity=".1" /><path d="M628.02 525.36m-15.026 0a15.026 15.026 0 1 0 30.052 0 15.026 15.026 0 1 0-30.052 0Z" opacity=".1" /><path d="M588.41 245.7a37.87 19.428 0 1 0 75.74 0 37.87 19.428 0 1 0-75.74 0Z" fill="#FFA8CB" /><path d="M334.15 245.7a37.87 19.428 0 1 0 75.74 0 37.87 19.428 0 1 0-75.74 0Z" fill="#FFA8CB" /><path d="M578.232 222.184a15 15 0 0 1-15-15v-18.872c0-8.286 6.716-15 15-15s15 6.714 15 15v18.872a15 15 0 0 1-15 15zM420.074 222.184a15 15 0 0 1-15-15v-18.872c0-8.286 6.716-15 15-15s15 6.714 15 15v18.872a15 15 0 0 1-15 15z" fill="#495059" /><path d="M223.72 314.2m-15.026 0a15.026 15.026 0 1 0 30.052 0 15.026 15.026 0 1 0-30.052 0Z" fill="#495059" /><path d="M127.958 314.2m-15.026 0a15.026 15.026 0 1 0 30.052 0 15.026 15.026 0 1 0-30.052 0Z" fill="#495059" /><path d="M622.486 90.192c97.23 22.058 169.82 109.002 169.82 212.906v100.378c0 108.216-87.726 195.942-195.942 195.942h-118.898c173.158-100.752 202.508-377.696 145.02-509.226z" opacity=".05" /><path d="M559.956 354.178l174.066-174.066c14.802-14.802 38.802-14.802 53.606 0l83.15 83.15c14.802 14.802 14.802 38.802 0 53.606l-174.066 174.066c-14.802 14.802-38.802 14.802-53.606 0l-83.15-83.15c-14.804-14.802-14.804-38.802 0-53.606z" fill="#FAE17C" /><path d="M810.96 281.04m-19.784 0a19.784 19.784 0 1 0 39.568 0 19.784 19.784 0 1 0-39.568 0Z" fill="#FFFFFF" /><path d="M580.97 315.904l69.056-69.056a11.526 11.526 0 0 1 16.298 0l137.716 137.718a11.526 11.526 0 0 1 0 16.298l-69.056 69.056a11.526 11.526 0 0 1-16.298 0l-137.716-137.718a11.526 11.526 0 0 1 0-16.298z" fill="#495059" /><path d="M477.454 727.89a15 15 0 0 1-12.428-23.382l222.986-331a15 15 0 0 1 20.822-4.058 15 15 0 0 1 4.06 20.82l-222.986 331a14.986 14.986 0 0 1-12.454 6.62z" fill="#495059" /><path d="M512.516 754.506c-11.482 0-23.42-1.222-35.148-4.03-17.042-4.08-27.55-21.204-23.468-38.242 4.08-17.042 21.2-27.562 38.244-23.47 18.308 4.378 43.052 1.586 49.508-2.564 14.738-9.474 34.372-5.208 43.846 9.532 9.476 14.742 5.208 34.372-9.532 43.848-13.204 8.486-37.108 14.926-63.45 14.926z" fill="#498A68" /><path d="M1009 226.67a15 15 0 0 1-15-15c0-41.414-16.08-80.302-45.278-109.504-29.198-29.196-68.086-45.276-109.502-45.276-8.284 0-15-6.714-15-15s6.716-15 15-15c49.428 0 95.85 19.2 130.714 54.062C1004.8 115.82 1024 162.242 1024 211.67a15 15 0 0 1-15 15z" fill="#A3E3FF" /><path d="M951.632 226.67a15 15 0 0 1-15-15c0-26.066-10.12-50.542-28.494-68.92-18.376-18.374-42.852-28.492-68.918-28.492-8.284 0-15-6.714-15-15s6.716-15 15-15c34.078 0 66.088 13.24 90.13 37.28 24.042 24.042 37.282 56.052 37.282 90.132a15 15 0 0 1-15 15z" fill="#A3E3FF" /><path d="M894.29 226.67a15 15 0 0 1-15-15 39.808 39.808 0 0 0-11.738-28.336 39.814 39.814 0 0 0-28.334-11.734c-8.284 0-15-6.714-15-15s6.716-15 15-15c18.716 0 36.312 7.29 49.546 20.522 13.236 13.236 20.524 30.834 20.524 49.548a14.996 14.996 0 0 1-14.998 15z" fill="#A3E3FF" /></svg>