<?xml version="1.0" standalone="no"?><!DOCTYPE svg PUBLIC "-//W3C//DTD SVG 1.1//EN" "http://www.w3.org/Graphics/SVG/1.1/DTD/svg11.dtd"><svg class="icon" width="200px" height="200.00px" viewBox="0 0 1024 1024" version="1.1" xmlns="http://www.w3.org/2000/svg"><path d="M322.17 584.858L176.806 693.6a14.682 14.682 0 0 1-20.55-2.962L18.48 506.46a14.68 14.68 0 0 1 2.962-20.55l145.364-108.742a14.682 14.682 0 0 1 20.55 2.962l137.776 184.178a14.68 14.68 0 0 1-2.962 20.55z" fill="#E5E5E5" /><path d="M225.436 536.286l-67.908 50.8a14.682 14.682 0 0 1-20.55-2.962L86.18 516.216a14.682 14.682 0 0 1 2.962-20.55l67.908-50.8a14.682 14.682 0 0 1 20.55 2.962l50.8 67.908a14.684 14.684 0 0 1-2.964 20.55z" fill="#8783D2" /><path d="M916.128 938.914l-172.158-57.594a14.68 14.68 0 0 1-9.264-18.58l72.972-218.126a14.68 14.68 0 0 1 18.58-9.266l172.158 57.594a14.68 14.68 0 0 1 9.266 18.58l-72.972 218.126a14.682 14.682 0 0 1-18.582 9.266z" fill="#E5E5E5" /><path d="M900.982 831.736l-80.424-26.906a14.678 14.678 0 0 1-9.264-18.58l26.906-80.424a14.68 14.68 0 0 1 18.58-9.266l80.424 26.906a14.68 14.68 0 0 1 9.266 18.58l-26.906 80.424a14.684 14.684 0 0 1-18.582 9.266z" fill="#FFA8CB" /><path d="M742.474 829.472c-12.272 0.866-24.336-5.866-29.688-17.738-6.95-15.408-22.204-25.452-29.532-30.278a198.01 198.01 0 0 1-2.808-1.874c-13.768-9.442-17.276-28.258-7.832-42.028 9.44-13.768 28.256-17.284 42.03-7.832 0.51 0.348 1.138 0.76 1.866 1.24 10.182 6.706 37.234 24.522 51.394 55.92 6.862 15.22 0.09 33.122-15.13 39.986a30.26 30.26 0 0 1-10.3 2.604z" fill="#498A68" /><path d="M478.942 886.386c-141.076 0-303.428 0-422.282-75.882-20.338-12.984-8.576-44.346 15.342-41.154 94.122 12.566 173.182-11.394 218.264-50.204l188.676 167.24z" fill="#5CB38E" /><path d="M237.05 751.164c1.572 45.054 8.488 90.026 36.26 127.418 68.774 7.804 139.538 7.804 205.632 7.804l-188.676-167.238c-14.45 12.44-32.406 23.342-53.216 32.016z" opacity=".1" /><path d="M415.784 1024c-1.198 0-2.402-0.046-3.616-0.138-25.61-1.972-44.776-24.328-42.806-49.94 1.788-23.242-0.128-100.76-3.464-117.924-7.654-23.044 3.79-48.392 26.604-57.686 23.794-9.694 50.93 1.736 60.62 25.52 12.54 30.778 9.554 149.778 8.982 157.224-1.874 24.394-22.254 42.942-46.32 42.944z m-48.822-165.124zM584.458 1024c-1.2 0-2.406-0.046-3.618-0.138-25.612-1.972-44.774-24.33-42.806-49.94 1.79-23.238-0.128-100.746-3.464-117.922-7.656-23.044 3.788-48.39 26.602-57.688 23.78-9.692 50.926 1.73 60.624 25.518 12.544 30.782 9.556 149.782 8.984 157.226-1.876 24.398-22.256 42.944-46.322 42.944z m-48.822-165.118l0.02 0.052a0.554 0.554 0 0 1-0.02-0.052z" fill="#498A68" /><path d="M631.5 937.954c-0.036-39.534-1.742-94.59-9.702-114.126-9.698-23.788-36.844-35.212-60.624-25.518-22.814 9.3-34.258 34.646-26.602 57.688 2.674 13.772 4.436 66.318 4.106 98.588 35.906-2.356 66.674-7.844 92.822-16.632zM392.504 798.31c-22.814 9.296-34.258 34.644-26.604 57.686 2.33 11.996 3.966 53.458 4.13 85.282 26.386 7.63 57.146 12.208 92.708 13.902 0.43-38.654-0.41-108.76-9.614-131.348-9.69-23.786-36.826-35.216-60.62-25.522z" opacity=".1" /><path d="M707.808 722.29c0 108.578-14.748 187.144-212.34 187.144s-212.342-78.566-212.342-187.144 95.068-196.6 212.342-196.6 212.34 88.022 212.34 196.6z" fill="#5CB38E" /><path d="M707.808 722.29c0-0.866-0.024-1.726-0.036-2.588-44.228-11.35-131.954-14.65-193 50.226-44.486 47.276-50.924 98.294-46.152 138.982 8.552 0.348 17.492 0.524 26.846 0.524 197.592 0 212.342-78.566 212.342-187.144z" fill="#9BDFC1" /><path d="M455.154 529.244c-97.992 17.438-172.03 97.23-172.03 193.046 0 100.538 12.67 175.334 171.408 185.862-88.134-89.46-71.088-274.17 0.622-378.908z" opacity=".05" /><path d="M707.314 766.378a15 15 0 0 1-14.998-15.604c0.334-8.306 0.49-17.358 0.49-28.484 0-24.598-5.258-48.458-15.628-70.918a15 15 0 1 1 27.238-12.574c12.2 26.43 18.388 54.52 18.388 83.492 0 11.54-0.164 20.972-0.514 29.692a14.998 14.998 0 0 1-14.976 14.396z" fill="#495059" /><path d="M690.374 242.55a195.834 195.834 0 0 0-163.35-87.816h-80.806c-114.886 0-208.018 93.132-208.018 208.018v95.64c0 103.108 83.586 186.694 186.694 186.694h428.36c77.24 0 139.856-62.616 139.856-139.856V440.14c0-77.24-62.616-139.856-139.856-139.856h-55.492a128.758 128.758 0 0 1-107.388-57.734z" fill="#5CB38E" /><path d="M351.198 503.84m-14.316 0a14.316 14.316 0 1 0 28.632 0 14.316 14.316 0 1 0-28.632 0Z" opacity=".1" /><path d="M452.978 525.7m-14.316 0a14.316 14.316 0 1 0 28.632 0 14.316 14.316 0 1 0-28.632 0Z" opacity=".1" /><path d="M394.738 574.52m-14.316 0a14.316 14.316 0 1 0 28.632 0 14.316 14.316 0 1 0-28.632 0Z" opacity=".1" /><path d="M336.878 308.06a36.08 18.512 0 1 0 72.16 0 36.08 18.512 0 1 0-72.16 0Z" fill="#FFA8CB" /><path d="M579.138 308.06a36.08 18.512 0 1 0 72.16 0 36.08 18.512 0 1 0-72.16 0Z" fill="#FFA8CB" /><path d="M418.738 286.366a15 15 0 0 1-15-15v-17.98c0-8.286 6.716-15 15-15s15 6.714 15 15v17.98a15 15 0 0 1-15 15zM569.432 286.366a14.998 14.998 0 0 1-15-15v-17.98c0-8.286 6.714-15 15-15s15 6.714 15 15v17.98a15 15 0 0 1-15 15zM825.574 556.888a52.894 52.894 0 0 1-39.866-18.152 15 15 0 0 1 1.45-21.164 14.998 14.998 0 0 1 21.164 1.45c4.36 5 10.646 7.868 17.252 7.868s12.892-2.868 17.252-7.868a15.002 15.002 0 0 1 22.614 19.714 52.888 52.888 0 0 1-39.866 18.152z" fill="#495059" /><path d="M779.958 373.34m-14.316 0a14.316 14.316 0 1 0 28.632 0 14.316 14.316 0 1 0-28.632 0Z" fill="#495059" /><path d="M871.198 373.34m-14.316 0a14.316 14.316 0 1 0 28.632 0 14.316 14.316 0 1 0-28.632 0Z" fill="#495059" /><path d="M400.004 159.894c-92.642 21.016-161.806 103.856-161.806 202.858v95.64c0 103.108 83.586 186.694 186.694 186.694h113.286c-164.984-95.996-192.95-359.87-138.174-485.192z" opacity=".05" /><path d="M701.566 841.382h-129.238a18.824 18.824 0 0 1-18.824-18.824v-70.466a18.824 18.824 0 0 1 18.824-18.824h129.238a18.824 18.824 0 0 1 18.824 18.824v70.466a18.824 18.824 0 0 1-18.824 18.824z" fill="#495059" /><path d="M534.212 833.756c-22.086 0-46.914-6.774-72.144-19.73-14.854-7.626-20.712-25.848-13.086-40.7 7.628-14.85 25.848-20.718 40.702-13.086 17.406 8.934 33.94 13.582 46.45 13.012 16.734-0.714 30.79 12.218 31.512 28.896 0.722 16.68-12.216 30.79-28.896 31.512-1.5 0.064-3.016 0.096-4.538 0.096z" fill="#498A68" /><path d="M655.28 684.762h-36.664a14.724 14.724 0 0 0-14.724 14.724v33.782h66.114v-33.782a14.726 14.726 0 0 0-14.726-14.724z" fill="#FFFFFF" /><path d="M646.258 787.32m-35.948 0a35.948 35.948 0 1 0 71.896 0 35.948 35.948 0 1 0-71.896 0Z" fill="#959BA0" /><path d="M646.258 787.32m-12.712 0a12.712 12.712 0 1 0 25.424 0 12.712 12.712 0 1 0-25.424 0Z" fill="#495059" /><path d="M581.954 766.38c-1.586 0-3.2-0.254-4.786-0.786-96.566-32.49-222.156-91.302-269.712-143.658a15 15 0 0 1 22.206-20.172c31.788 34.998 130.298 92.744 257.072 135.396a15 15 0 0 1-4.78 29.22z" fill="#495059" /><path d="M680.418 200.02l-434.69 38.03c-12.758 1.116-20.338-13.918-11.852-23.512l51.636-58.374 341.51-29.878 60.988 48.522c10.02 7.974 5.166 24.096-7.592 25.212zM564.084 0.2L325.596 21.066c-28.448 2.49-49.492 27.568-47.004 56.016l6.918 79.082L627.02 126.286l-6.918-79.082C617.612 18.756 592.534-2.288 564.084 0.2z" fill="#E5E5E5" /><path d="M627.03 126.258l-341.52 29.894-5.716-65.298 341.52-29.894z" fill="#CD5B5B" /></svg>