<?xml version="1.0" standalone="no"?><!DOCTYPE svg PUBLIC "-//W3C//DTD SVG 1.1//EN" "http://www.w3.org/Graphics/SVG/1.1/DTD/svg11.dtd"><svg class="icon" width="200px" height="200.00px" viewBox="0 0 1024 1024" version="1.1" xmlns="http://www.w3.org/2000/svg"><path d="M392.032 736.078c-9.402 0-18.572-4.768-23.802-13.394-7.962-13.132-3.772-30.232 9.36-38.192 9.424-5.714 21.832-17.964 36.878-36.408l0.966-1.182c9.736-11.878 27.256-13.61 39.13-3.876 11.876 9.736 13.612 27.254 3.876 39.13l-0.882 1.08c-12.336 15.122-31.06 36.636-51.14 48.81a27.668 27.668 0 0 1-14.386 4.032z" fill="#498A68" /><path d="M626.018 787.028c129.756 0 279.084 0 388.402-69.794 18.706-11.944 7.888-40.788-14.112-37.852-86.57 11.556-159.288-10.48-200.752-46.176l-173.538 153.822z" fill="#5CB38E" /><path d="M848.502 662.654c-1.446 41.438-7.808 82.802-33.352 117.196-63.256 7.178-128.342 7.178-189.134 7.178l173.538-153.82c13.292 11.44 29.808 21.468 48.948 29.446z" opacity=".1" /><path d="M684.108 913.598c-22.138 0.002-40.88-17.058-42.606-39.5-0.526-6.848-3.268-116.308 8.264-144.608 8.92-21.88 33.888-32.38 55.76-23.472 20.984 8.554 31.508 31.866 24.468 53.06-3.066 15.792-4.83 87.082-3.186 108.46 1.81 23.556-15.818 44.12-39.372 45.932-1.118 0.086-2.23 0.128-3.328 0.128z m44.906-151.866a1.116 1.116 0 0 0-0.018 0.046l0.018-0.046z m1.132-3.394zM528.968 913.598c-22.136 0.002-40.878-17.056-42.606-39.496-0.526-6.846-3.276-116.292 8.26-144.608 8.914-21.88 33.874-32.384 55.756-23.478 20.984 8.55 31.51 31.864 24.472 53.058-3.068 15.794-4.83 87.088-3.184 108.46 1.814 23.556-15.814 44.122-39.368 45.936a43.44 43.44 0 0 1-3.33 0.128z m44.906-151.872l-0.018 0.048 0.018-0.048z" fill="#498A68" /><path d="M550.378 706.016c-21.884-8.906-46.842 1.598-55.756 23.478-7.32 17.97-8.886 68.604-8.92 104.964 24.05 8.082 52.35 13.13 85.374 15.298-0.304-29.682 1.314-78.018 3.774-90.682 7.038-21.194-3.488-44.508-24.472-53.058zM705.524 706.018c-21.872-8.908-46.84 1.592-55.76 23.472-8.464 20.77-9.238 85.26-8.844 120.812 32.71-1.558 61-5.768 85.27-12.786 0.152-29.27 1.656-67.402 3.8-78.438 7.042-21.196-3.482-44.506-24.466-53.06z" opacity=".1" /><path d="M415.516 636.096c0 99.868 13.566 172.13 195.304 172.13s195.304-72.262 195.304-172.13-87.44-180.826-195.304-180.826-195.304 80.96-195.304 180.826z" fill="#5CB38E" /><path d="M415.516 636.096c0-0.796 0.022-1.586 0.032-2.38 40.678-10.44 121.366-13.476 177.516 46.196 40.916 43.484 46.838 90.408 42.448 127.832-7.866 0.32-16.088 0.482-24.692 0.482-181.74 0-195.304-72.262-195.304-172.13z" fill="#9BDFC1" /><path d="M647.896 458.54c90.13 16.04 158.228 89.43 158.228 177.558 0 92.472-11.652 161.266-157.656 170.95 81.064-82.282 65.386-252.174-0.572-348.508z" opacity=".05" /><path d="M419.196 201.388a180.12 180.12 0 0 1 142.632-93.556l74.042-6.478c105.266-9.21 198.066 68.66 207.276 173.924l7.666 87.632c8.266 94.474-61.62 177.762-156.096 186.028l-392.492 34.338c-70.774 6.192-133.166-46.162-139.358-116.934l-5.218-59.64c-6.192-70.774 46.162-133.166 116.934-139.358l50.846-4.448a118.426 118.426 0 0 0 93.768-61.508z" fill="#5CB38E" /><path d="M750.92 413.618m-13.168 0a13.168 13.168 0 1 0 26.336 0 13.168 13.168 0 1 0-26.336 0Z" opacity=".1" /><path d="M659.42 441.798m-13.168 0a13.168 13.168 0 1 0 26.336 0 13.168 13.168 0 1 0-26.336 0Z" opacity=".1" /><path d="M716.7 481.858m-13.168 0a13.168 13.168 0 1 0 26.336 0 13.168 13.168 0 1 0-26.336 0Z" opacity=".1" /><path d="M691.051539 229.330677a17.026 33.188 84.997 1 0 2.969604 33.922267 17.026 33.188 84.997 1 0-2.969604-33.922267Z" fill="#FFA8CB" /><path d="M472.100612 282.608792a17.026 33.188 84.997 1 0-2.969603-33.922266 17.026 33.188 84.997 1 0 2.969603 33.922266Z" fill="#FFA8CB" /><path d="M647.652 231.302a15 15 0 0 1-14.926-13.694l-1.442-16.474a15 15 0 0 1 13.636-16.25c8.254-0.732 15.528 5.384 16.25 13.636l1.442 16.474a15 15 0 0 1-14.96 16.308zM509.576 243.382a15 15 0 0 1-14.926-13.694l-1.44-16.474a15 15 0 0 1 13.636-16.25c8.242-0.706 15.528 5.382 16.25 13.636l1.44 16.474a15 15 0 0 1-14.96 16.308zM316.278 501.63a49.844 49.844 0 0 1-34.582-13.96 14.998 14.998 0 0 1-0.396-21.208 14.994 14.994 0 0 1 21.21-0.396 19.812 19.812 0 0 0 29.804-2.61 15 15 0 0 1 24.246 17.668 49.846 49.846 0 0 1-40.282 20.506z" fill="#495059" /><path d="M347.6 328.398m-13.168 0a13.168 13.168 0 1 0 26.336 0 13.168 13.168 0 1 0-26.336 0Z" fill="#495059" /><path d="M264 335.718m-13.168 0a13.168 13.168 0 1 0 26.336 0 13.168 13.168 0 1 0-26.336 0Z" fill="#495059" /><path d="M678.628 102.376c86.57 11.83 156.582 82.19 164.518 172.902l7.666 87.632c8.266 94.474-61.62 177.762-156.096 186.028l-103.8 9.082c143.476-101.186 147.946-345.206 87.712-455.644z" opacity=".05" /><path d="M125.272 923.388H13.492A13.492 13.492 0 0 1 0 909.896V696.812a13.492 13.492 0 0 1 13.492-13.492h111.78v240.068zM371.122 923.388h-166.28V683.322h166.28a13.492 13.492 0 0 1 13.492 13.492v213.084a13.494 13.494 0 0 1-13.492 13.49z" fill="#A3E3FF" /><path d="M125.28 683.32h79.57v240.06H125.28z" fill="#80B0E3" /><path d="M356.27 683.322v-32.246a11.432 11.432 0 0 0-6.838-10.482c-43.872-19.188-161.226-15.862-184.374 3.554-17.218-19.278-98.252-22.694-130.95-3.962a11.454 11.454 0 0 0-5.764 9.942v33.192l327.926 0.002z" fill="#E5E5E5" /><path d="M374.704 766.25h-30.432a9.908 9.908 0 0 0-9.908 9.908v54.39a9.908 9.908 0 0 0 9.908 9.908h30.432a9.908 9.908 0 0 0 9.908-9.908v-54.39a9.906 9.906 0 0 0-9.908-9.908zM40.34 766.25H9.908A9.908 9.908 0 0 0 0 776.158v54.39a9.908 9.908 0 0 0 9.908 9.908H40.34a9.908 9.908 0 0 0 9.908-9.908v-54.39a9.906 9.906 0 0 0-9.908-9.908z" fill="#495059" /><path d="M384.622 818.356a15 15 0 0 1-6.282-28.628l206.454-95.052c7.528-3.464 16.434-0.174 19.898 7.352s0.174 16.434-7.352 19.898L390.886 816.98a14.956 14.956 0 0 1-6.264 1.376z" fill="#495059" /><path d="M591.094 736.112c-9.178 0-18.16-4.538-23.464-12.846-8.264-12.944-4.47-30.136 8.472-38.4 15.032-9.598 24.848-24.66 28.278-32.048 6.468-13.928 23-19.974 36.93-13.51 13.928 6.466 19.976 23.002 13.51 36.93-7.768 16.73-24.664 40.098-48.79 55.5a27.674 27.674 0 0 1-14.936 4.374z" fill="#498A68" /></svg>