<?xml version="1.0" standalone="no"?><!DOCTYPE svg PUBLIC "-//W3C//DTD SVG 1.1//EN" "http://www.w3.org/Graphics/SVG/1.1/DTD/svg11.dtd"><svg class="icon" width="200px" height="200.00px" viewBox="0 0 1024 1024" version="1.1" xmlns="http://www.w3.org/2000/svg"><path d="M830.947956 955.370009l-9.375998-19.757997a156.799979 156.799979 0 0 0-48.527994-58.921992c-4.515999-3.336-7.583999-8.285999-8.295999-13.853998-7.119999-55.669992-54.675993-98.697987-112.281984-98.697986-41.881994 0-78.445989 22.745997-98.025987 56.555992-2.736 4.723999-8.071999 7.307999-13.487998 6.627999-56.005992-7.019999-107.865985 30.581996-118.601984 85.993988l-4.425999 22.841997c-6.381999 32.929995 18.841997 63.509991 52.385993 63.509991h332.627954c22.769997 0.002 37.771995-23.725997 28.009996-44.297994z" fill="#CD5B5B" /><path d="M626.101984 767.228035c-30.569996 7.293999-56.325992 26.983996-71.66199 53.465993-2.736 4.723999-8.071999 7.307999-13.487998 6.627999-56.005992-7.019999-107.865985 30.581996-118.601984 85.995988l-4.425999 22.841997c-6.381999 32.929995 18.843997 63.509991 52.383993 63.509991h253.161965c-102.713986-37.023995-115.695984-174.527976-97.367987-232.441968z" opacity=".1" /><path d="M727.709971 919.890014a14.967998 14.967998 0 0 1-11.543999-5.413999c-29.057996-34.965995-38.705995-74.59399-38.047995-100.017986 0.214-8.283999 7.133999-14.895998 15.381998-14.605998a14.997998 14.997998 0 0 1 14.605998 15.381998c-0.492 19.057997 7.365999 51.461993 31.133996 80.067989a14.999998 14.999998 0 0 1-1.952 21.123997 14.919998 14.919998 0 0 1-9.577998 3.463999z" fill="#FAE17C" /><path d="M665.181979 930.688013a14.999998 14.999998 0 0 1-14.789998-17.607998c5.667999-32.111996-1.532-67.181991-3.895999-78.705989-0.294-1.444-0.532-2.602-0.686-3.438a14.997998 14.997998 0 0 1 12.015998-17.479997c8.143999-1.532 15.969998 3.869999 17.479998 12.015998 0.13 0.7 0.33 1.664 0.578 2.872 2.65 12.911998 10.711999 52.201993 4.049999 89.951987a15.001998 15.001998 0 0 1-14.751998 12.391999z" fill="#FAE17C" /><path d="M715.531972 831.384026a29.579996 29.579996 0 0 1-13.985998-3.515999c-29.993996-16.027998-49.195993-40.271994-55.505992-48.241994l-0.528-0.665999c-10.217999-12.855998-8.077999-31.559996 4.775999-41.775995 12.859998-10.217999 31.561996-8.077999 41.775994 4.776l0.592 0.747999c4.877999 6.157999 17.833998 22.515997 36.917995 32.711996 14.481998 7.739999 19.949997 25.751996 12.209999 40.235994-5.353999 10.019999-15.631998 15.727998-26.251997 15.727998z" fill="#498A68" /><path d="M464.826006 888.656019c-138.749981 0-298.423959 0-415.317943-74.62999-20.003997-12.769998-8.433999-43.613994 15.089998-40.473995 92.569987 12.357998 170.325977-11.205998 214.663971-49.375993l185.563974 164.479978z" fill="#5CB38E" /><path d="M226.924039 755.664037c1.546 44.309994 8.347999 88.539988 35.661995 125.315983 67.639991 7.673999 137.235981 7.675999 202.239972 7.675999l-185.563974-164.479978c-14.211998 12.233998-31.871996 22.955997-52.337993 31.487996z" opacity=".1" /><path d="M402.710015 1024c-1.178 0-2.362-0.044-3.558-0.136-25.187997-1.938-44.035994-23.927997-42.099994-49.115993 1.758-22.857997-0.126-99.097986-3.405999-115.977984-7.527999-22.663997 3.727999-47.593993 26.165996-56.735993 23.401997-9.531999 50.089993 1.706 59.621992 25.099997 12.333998 30.269996 9.397999 147.30798 8.833999 154.631979-1.846 23.989997-21.889997 42.231994-45.557994 42.233994z m-48.017993-162.399978a0.612 0.612 0 0 0 0.022 0.054l-0.022-0.054zM568.601992 1024c-1.18 0-2.366-0.044-3.557999-0.136-25.189997-1.938-44.035994-23.929997-42.099994-49.115993 1.76-22.855997-0.126-99.083986-3.406-115.975984-7.529999-22.663997 3.725999-47.591993 26.163996-56.737993 23.385997-9.533999 50.085993 1.702 59.623992 25.097997 12.337998 30.275996 9.397999 147.31198 8.835999 154.633979-1.848 23.993997-21.891997 42.233994-45.559994 42.233994z m-48.017993-162.395978l0.02 0.052-0.02-0.052z" fill="#498A68" /><path d="M614.867986 939.374012c-0.036-38.881995-1.712-93.029987-9.541999-112.241985-9.535999-23.395997-36.235995-34.631995-59.623992-25.097997-22.437997 9.145999-33.691995 34.073995-26.163996 56.737993 2.63 13.543998 4.361999 65.221991 4.037999 96.961986 35.313995-2.32 65.573991-7.717999 91.291988-16.359997zM379.814018 802.03203c-22.437997 9.141999-33.693995 34.071995-26.165996 56.735993 2.292 11.797998 3.899999 52.575993 4.061999 83.875988 25.951996 7.505999 56.201992 12.005998 91.177988 13.671998 0.424-38.015995-0.404-106.965985-9.453999-129.181982-9.531999-23.393997-36.219995-34.633995-59.619992-25.101997z" opacity=".1" /><path d="M689.915976 727.266041c0 106.787985-14.505998 184.057975-208.837972 184.057974s-208.839971-77.269989-208.839971-184.057974 93.499987-193.355974 208.837971-193.355974 208.839971 86.567988 208.839972 193.355974z" fill="#5CB38E" /><path d="M689.915976 727.266041c0-0.85-0.022-1.696-0.034-2.546-43.497994-11.161998-129.777982-14.409998-189.817974 49.397993-43.751994 46.495994-50.083993 96.671987-45.389994 136.689981 8.409999 0.342 17.203998 0.516 26.403996 0.516 194.333973 0 208.837971-77.269989 208.837972-184.057974z" fill="#9BDFC1" /><path d="M441.43201 537.404067c-96.375987 17.151998-169.191977 95.625987-169.191977 189.861974 0 98.879986 12.459998 172.441976 168.581977 182.795975-86.683988-87.983988-69.91799-269.647963 0.61-372.657949z" opacity=".05" /><path d="M672.769978 255.438105a192.607974 192.607974 0 0 0-160.655978-86.367988H432.640011c-112.989985 0-204.585972 91.595987-204.585972 204.585972v94.061987c0 101.407986 82.205989 183.613975 183.613975 183.613975h421.295942c75.96799 0 137.549981-61.583992 137.549981-137.549981v-64.015991c0-75.96599-61.583992-137.549981-137.549981-137.549982h-54.575992a126.621983 126.621983 0 0 1-105.617986-56.777992z" fill="#5CB38E" /><path d="M339.178024 512.42007m-14.079998 0a14.079998 14.079998 0 1 0 28.159996 0 14.079998 14.079998 0 1 0-28.159996 0Z" opacity=".1" /><path d="M439.27801 533.900067m-14.079998 0a14.079998 14.079998 0 1 0 28.159996 0 14.079998 14.079998 0 1 0-28.159996 0Z" opacity=".1" /><path d="M381.998018 581.94006m-14.079998 0a14.079998 14.079998 0 1 0 28.159996 0 14.079998 14.079998 0 1 0-28.159996 0Z" opacity=".1" /><path d="M325.110026 333.600094a35.487995 18.205998 0 1 0 70.97599 0 35.487995 18.205998 0 1 0-70.97599 0Z" fill="#FFA8CB" /><path d="M563.349993 333.600094a35.487995 18.205998 0 1 0 70.97599 0 35.487995 18.205998 0 1 0-70.97599 0Z" fill="#FFA8CB" /><path d="M432.976011 317.074097a14.999998 14.999998 0 0 1-14.999998-14.999998c0-6.815999-5.543999-12.361998-12.361998-12.361999s-12.361998 5.545999-12.361999 12.361999c0 8.285999-6.715999 14.999998-14.999998 14.999998s-14.999998-6.713999-14.999998-14.999998c0-23.357997 19.003997-42.361994 42.361995-42.361995s42.361994 19.003997 42.361994 42.361995a14.999998 14.999998 0 0 1-14.999998 14.999998zM581.185991 317.074097a14.997998 14.997998 0 0 1-14.999998-14.999998c0-6.815999-5.543999-12.361998-12.361999-12.361999s-12.361998 5.545999-12.361998 12.361999c0 8.285999-6.713999 14.999998-14.999998 14.999998s-14.999998-6.713999-14.999998-14.999998c0-23.357997 19.003997-42.361994 42.361994-42.361995s42.361994 19.003997 42.361994 42.361995a14.999998 14.999998 0 0 1-14.999997 14.999998z" fill="#495059" /><path d="M760.877966 384.060087m-14.079998 0a14.079998 14.079998 0 1 0 28.159996 0 14.079998 14.079998 0 1 0-28.159996 0Z" fill="#495059" /><path d="M850.597954 384.060087m-14.079998 0a14.079998 14.079998 0 1 0 28.159996 0 14.079998 14.079998 0 1 0-28.159996 0Z" fill="#495059" /><path d="M387.190017 174.146116c-91.113988 20.669997-159.135978 102.143986-159.135978 199.511973v94.061987c0 101.407986 82.205989 183.613975 183.613975 183.613975h111.417984c-162.263978-94.411987-189.767974-353.931952-135.895981-477.187935z" opacity=".05" /><path d="M406.182014 817.174028c-13.075998 0-25.059997-8.691999-28.665996-21.915997-4.319999-15.841998 5.019999-32.185996 20.861998-36.507995 20.897997-5.699999 37.173995-18.779997 43.301994-23.703996l0.73-0.586c12.815998-10.269999 31.527996-8.197999 41.793994 4.617999 10.265999 12.817998 8.195999 31.527996-4.622 41.793994l-0.651999 0.526c-7.927999 6.371999-32.057996 25.763996-64.905992 34.721995-2.62 0.714-5.251999 1.054-7.841999 1.054z" fill="#498A68" /><path d="M987.177935 584.56206c-4.895999-7.003999-6.585999-15.655998-5.037999-24.061997 4.289999-23.303997-2.564-48.253993-20.585997-66.275991-14.157998-14.157998-32.593996-21.419997-51.145993-21.805997-8.573999-0.178-16.869998-3.216-23.077997-9.133998-21.223997-20.229997-49.953993-32.653996-81.587989-32.653996-31.635996 0-60.365992 12.423998-81.589989 32.653996-6.207999 5.915999-14.503998 8.955999-23.075997 9.133998-18.553997 0.386-36.987995 7.645999-51.145993 21.805997-18.023998 18.021998-24.877997 42.971994-20.585997 66.275991 1.548 8.405999-0.142 17.057998-5.037999 24.061997a95.017987 95.017987 0 0 0-17.179998 54.631993c0 41.983994 27.089996 77.619989 64.739991 90.429987 11.193998 3.807999 20.447997 11.865998 25.097997 22.737997 18.053998 42.223994 59.951992 71.81599 108.779985 71.81599s90.725988-29.591996 108.779985-71.81599c4.647999-10.871999 13.903998-18.929997 25.097997-22.737997 37.649995-12.809998 64.739991-48.445993 64.739991-90.429987a95.049987 95.049987 0 0 0-17.183998-54.631993z" fill="#E5E5E5" /><path d="M805.74196 605.298057c-25.531997 0-46.229994-20.697997-46.229994-46.229993v-24.881997c0-11.789998 9.557999-21.345997 21.345997-21.345997h49.765993c11.789998 0 21.345997 9.557999 21.345998 21.345997v24.881997c0 25.531997-20.697997 46.229994-46.227994 46.229993z" fill="#495059" /><path d="M577.351991 143.34012C563.355993 47.668133 381.380018-52.251853 188.900044 31.214136 55.800062 88.930128 25.936066 228.966109 105.304056 324.668096c31.963996-94.239987 56.181992-167.137977 149.167979-122.467984l322.879956-58.859992z" fill="#CD5B5B" /><path d="M165.464047 130.258122c-22.525997 13.515998-27.279996 24.749997-37.347995 37.493995-23.109997 29.253996-53.585993 18.495997-58.051992-13.083998-18.103998 56.599992-6.659999 119.477984 35.239996 169.999977 31.963996-94.239987 56.181992-167.137977 149.169979-122.465984l91.153988-16.617997c-49.167993-82.315989-139.217981-79.891989-180.163976-55.325993z" opacity=".1" /><path d="M591.543989 211.000111l-329.791955 58.151992c-22.333997 3.937999-43.631994-10.973998-47.569993-33.307995l-4.894-27.753996c-3.937999-22.333997 10.973998-43.631994 33.307996-47.569994l329.791955-58.149992c22.333997-3.937999 43.631994 10.973998 47.569993 33.307995l4.894 27.753997c3.937999 22.333997-10.973998 43.629994-33.307996 47.567993zM80.978059 269.852103c12.215998-16.111998 36.435995-16.111998 48.651993 0a11.255998 11.255998 0 0 0 10.501999 4.35c20.029997-2.754 37.155995 14.371998 34.401995 34.401995a11.255998 11.255998 0 0 0 4.35 10.501998c16.111998 12.215998 16.111998 36.435995 0 48.651994a11.253998 11.253998 0 0 0-4.35 10.501998c2.754 20.029997-14.371998 37.155995-34.401995 34.401996a11.253998 11.253998 0 0 0-10.501999 4.349999c-12.215998 16.109998-36.435995 16.109998-48.651993 0a11.253998 11.253998 0 0 0-10.501999-4.349999c-20.029997 2.754-37.155995-14.371998-34.401995-34.401996a11.255998 11.255998 0 0 0-4.349999-10.501998c-16.111998-12.215998-16.111998-36.435995 0-48.651994a11.255998 11.255998 0 0 0 4.349999-10.501998c-2.754-20.029997 14.371998-37.155995 34.401995-34.401995a11.259998 11.259998 0 0 0 10.501999-4.35z" fill="#E5E5E5" /></svg>