<?xml version="1.0" standalone="no"?><!DOCTYPE svg PUBLIC "-//W3C//DTD SVG 1.1//EN" "http://www.w3.org/Graphics/SVG/1.1/DTD/svg11.dtd"><svg class="icon" width="200px" height="200.00px" viewBox="0 0 1024 1024" version="1.1" xmlns="http://www.w3.org/2000/svg"><path d="M654.905279 717.313401a28.160055 28.160055 0 0 1-5.10401-0.468001c-35.012068-6.438013-66.64213-21.950043-77.920152-30.91006-12.126024-9.634019-14.146028-27.276053-4.512009-39.402077 9.598019-12.080024 27.140053-14.130028 39.258077-4.626009 3.046006 2.184004 24.878049 14.548028 53.316104 19.776038 15.23203 2.800005 25.310049 17.420034 22.510044 32.652064-2.484005 13.520026-14.278028 22.978045-27.548054 22.978045z" fill="#498A68" /><path d="M401.388784 787.525538c-130.868256 0-281.47255 0-391.726765-70.390137-18.866037-12.046024-7.954016-41.13608 14.232028-38.174075 87.310171 11.656023 160.650314-10.570021 202.470395-46.570091l175.024342 155.134303z" fill="#5CB38E" /><path d="M177.000346 662.089293c1.458003 41.794082 7.874015 83.510163 33.636065 118.198231 63.796125 7.238014 129.440253 7.240014 190.752373 7.240014l-175.022342-155.136303c-13.406026 11.538023-30.062059 21.650042-49.366096 29.698058z" opacity=".1" /><path d="M342.80067 915.181787c-1.112002 0-2.228004-0.042-3.354007-0.13-23.758046-1.826004-41.536081-22.568044-39.708078-46.32409 1.658003-21.560042-0.12-93.466183-3.214006-109.390214-7.100014-21.376042 3.516007-44.890088 24.680048-53.514104 22.070043-8.988018 47.244092 1.610003 56.23411 23.674046 11.634023 28.552056 8.864017 138.942271 8.332016 145.846285-1.740003 22.632044-20.64604 39.838078-42.970083 39.838077z m-45.290089-153.174299l0.02 0.05-0.02-0.05zM499.270975 915.181787c-1.112002 0-2.228004-0.042-3.354006-0.13-23.758046-1.826004-41.536081-22.568044-39.708078-46.32409 1.658003-21.560042-0.12-93.466183-3.214006-109.390214-7.100014-21.376042 3.516007-44.890088 24.680048-53.514104 22.064043-8.988018 47.244092 1.608003 56.23411 23.674046 11.634023 28.552056 8.864017 138.942271 8.332016 145.846285-1.742003 22.632044-20.64604 39.838078-42.970084 39.838077z m-45.292088-153.174299l0.02 0.05-0.02-0.05z" fill="#498A68" /><path d="M542.90706 835.361632c-0.034-36.672072-1.616003-87.744171-9.000017-105.864207-8.992018-22.066043-34.170067-32.664064-56.23411-23.674046-21.162041 8.624017-31.780062 32.136063-24.680048 53.514104 2.480005 12.768025 4.114008 61.51612 3.810007 91.454179 33.308065-2.186004 61.848121-7.278014 86.104168-15.43003zM321.204627 705.823379c-21.164041 8.624017-31.778062 32.136063-24.680048 53.514104 2.162004 11.128022 3.680007 49.590097 3.832008 79.110155 24.478048 7.078014 53.010104 11.324022 86.000168 12.896025 0.400001-35.85607-0.380001-100.890197-8.918018-121.844238-8.990018-22.066043-34.164067-32.666064-56.23411-23.676046z" opacity=".1" /><path d="M613.693199 635.303241c0 100.722197-13.682027 173.602339-196.976385 173.602339s-196.976385-72.880142-196.976385-173.602339 88.188172-182.374356 196.976385-182.374356 196.976385 81.652159 196.976385 182.374356z" fill="#5CB38E" /><path d="M613.693199 635.303241c0-0.802002-0.022-1.600003-0.032-2.402005-41.02608-10.528021-122.406239-13.590027-179.03435 46.592091-41.266081 43.856086-47.238092 91.182178-42.812084 128.926252 7.934015 0.322001 16.226032 0.486001 24.904049 0.486001 183.292358 0 196.974385-72.880142 196.974385-173.602339z" fill="#9BDFC1" /><path d="M379.322741 456.226891c-90.902178 16.176032-159.582312 90.194176-159.582312 179.07635 0 93.264182 11.752023 162.646318 159.006311 172.412337-81.75816-82.984162-65.946129-254.328497 0.576001-351.488687z" opacity=".05" /><path d="M655.34128 201.792394a64.014125 64.014125 0 0 0-0.544001-10.48402c-4.140008-30.70606-30.226059-54.430106-61.19012-55.538109-36.484071-1.306003-66.47013 27.884054-66.470129 64.076125 0 4.304008 0.424001 8.508017 1.232002 12.572025 1.132002 5.690011-0.368001 11.644023-4.310008 15.902031a63.904125 63.904125 0 0 0-16.938034 47.374092c1.906004 32.570064 28.716056 58.872115 61.31412 60.210118 9.228018 0.378001 18.040035-1.202002 26.064051-4.350008 5.01001-1.966004 10.560021-1.548003 15.26403 1.068002 10.19402 5.670011 22.094043 8.640017 34.738068 7.944015 32.922064-1.814004 59.438116-29.028057 60.458118-61.984121 0.852002-27.510054-15.632031-51.2781-39.348077-61.204119-6.276012-2.630005-10.47802-8.784017-10.27002-15.586031z" fill="#E5E5E5" /><path d="M597.521167 190.278372a181.660355 181.660355 0 0 0-151.530296-81.460159h-74.960146c-106.572208 0-192.966377 86.394169-192.966377 192.966376v88.718174c0 95.648187 77.538151 173.184338 173.184338 173.184338h397.364776c71.65214 0 129.736253-58.086113 129.736254-129.736253v-60.380118c0-71.65214-58.084113-129.736253-129.736254-129.736254h-51.4761a119.442233 119.442233 0 0 1-99.616195-53.556104z" fill="#5CB38E" /><path d="M722.937412 370.264723c-66.140129 0-107.71621 31.692062-110.922217 76.116149-1.962004 27.190053 17.878035 51.746101 45.116088 52.882103a47.028092 47.028092 0 0 0 32.440064-11.092022 9.894019 9.894019 0 0 1 10.786021-1.344002c6.814013 3.342007 14.478028 5.22001 22.580044 5.22001s15.764031-1.878004 22.580044-5.22001a9.894019 9.894019 0 0 1 10.786021 1.344002 47.028092 47.028092 0 0 0 32.440064 11.092022c27.238053-1.138002 47.078092-25.69205 45.116088-52.882103-3.204006-44.424087-44.780087-76.116149-110.922217-76.116149z" fill="#E5E5E5" /><path d="M282.880553 432.678845m-13.280026 0a13.280026 13.280026 0 1 0 26.560051 0 13.280026 13.280026 0 1 0-26.560051 0Z" opacity=".1" /><path d="M377.300737 452.938885m-13.280026 0a13.280026 13.280026 0 1 0 26.560052 0 13.280026 13.280026 0 1 0-26.560052 0Z" opacity=".1" /><path d="M323.260631 498.238973m-13.280026 0a13.280026 13.280026 0 1 0 26.560052 0 13.280026 13.280026 0 1 0-26.560052 0Z" opacity=".1" /><path d="M284.708556 251.05849a33.472065 17.172034 0 1 0 66.944131 0 33.472065 17.172034 0 1 0-66.944131 0Z" fill="#FFA8CB" /><path d="M518.049012 251.05849a33.472065 17.172034 0 1 0 66.944131 0 33.472065 17.172034 0 1 0-66.944131 0Z" fill="#FFA8CB" /><path d="M364.956713 232.006453a15.000029 15.000029 0 0 1-15.000029-15.000029v-16.678033a15.000029 15.000029 0 0 1 30.000058 0v16.678033a15.000029 15.000029 0 0 1-15.000029 15.000029zM504.746986 232.006453a15.000029 15.000029 0 0 1-15.000029-15.000029v-16.678033a15.000029 15.000029 0 0 1 30.000058 0v16.678033a15.000029 15.000029 0 0 1-15.000029 15.000029z" fill="#495059" /><path d="M680.621329 311.598609m-13.280026 0a13.280026 13.280026 0 1 0 26.560052 0 13.280026 13.280026 0 1 0-26.560052 0Z" fill="#495059" /><path d="M765.261495 311.598609m-13.280026 0a13.280026 13.280026 0 1 0 26.560052 0 13.280026 13.280026 0 1 0-26.560052 0Z" fill="#495059" /><path d="M328.162641 113.602222c-85.938168 19.496038-150.096293 96.342188-150.096293 188.178367v88.718174c0 95.648187 77.538151 173.184338 173.184338 173.184338h105.088205c-153.046299-89.046174-178.98835-333.826652-128.17625-450.080879z" opacity=".05" /><path d="M140.884275 201.750394a64.014125 64.014125 0 0 1 0.544001-10.48402c4.140008-30.70606 30.226059-54.430106 61.19012-55.538109 36.484071-1.306003 66.47013 27.884054 66.47013 64.076125 0 4.304008-0.424001 8.508017-1.234003 12.572025-1.132002 5.690011 0.368001 11.644023 4.310009 15.902031a63.904125 63.904125 0 0 1 16.938033 47.374092c-1.906004 32.570064-28.716056 58.872115-61.31412 60.210118a63.986125 63.986125 0 0 1-26.064051-4.350009c-5.01001-1.966004-10.560021-1.548003-15.26403 1.068003-10.19402 5.670011-22.094043 8.640017-34.738068 7.944015-32.922064-1.814004-59.438116-29.028057-60.458118-61.984121-0.850002-27.510054 15.632031-51.2761 39.348077-61.20412 6.278012-2.630005 10.48002-8.784017 10.27202-15.58603z" fill="#E5E5E5" /><path d="M364.018711 276.36654c-37.330073 0-67.700132-30.370059-67.700132-67.700132s30.370059-67.698132 67.700132-67.698133 67.698132 30.370059 67.698132 67.698133c0 37.330073-30.370059 67.700132-67.698132 67.700132z m0-105.398206c-20.788041 0-37.700074 16.910033-37.700074 37.698074s16.912033 37.700074 37.700074 37.700073c20.788041 0 37.698074-16.912033 37.698074-37.700073 0-20.786041-16.912033-37.698074-37.698074-37.698074zM504.746986 276.36654c-37.330073 0-67.700132-30.370059-67.700132-67.700132s30.370059-67.698132 67.700132-67.698133 67.698132 30.370059 67.698132 67.698133c0 37.330073-30.370059 67.700132-67.698132 67.700132z m0-105.398206c-20.788041 0-37.700074 16.910033-37.700074 37.698074s16.912033 37.700074 37.700074 37.700073c20.788041 0 37.698074-16.912033 37.698073-37.700073 0-20.786041-16.912033-37.698074-37.698073-37.698074z" fill="#495059" /><path d="M452.046883 223.668437h-35.330069a15.000029 15.000029 0 0 1 0-30.000059h35.330069a15.000029 15.000029 0 0 1 0 30.000059z" fill="#495059" /><path d="M428.766837 742.015449c-11.722023 0-22.650044-7.406014-26.584051-19.132037-6.498013-19.370038-19.694038-33.990066-24.662049-39.494077l-0.592001-0.658002c-10.35802-11.514022-9.422018-29.246057 2.092004-39.604077 11.516022-10.35802 29.248057-9.420018 39.604078 2.092004l0.528001 0.588001c6.430013 7.122014 25.992051 28.794056 36.20607 59.236116 4.92601 14.684029-2.986006 30.58006-17.668034 35.508069a27.980055 27.980055 0 0 1-8.924018 1.464003z" fill="#498A68" /><path d="M865.28969 681.735332v-46.476091h74.644146v46.476091c0 8.704017 2.764005 17.180034 7.896015 24.210047l37.740074 51.710101c5.390011 7.386014 0.116 17.766035-9.028018 17.766034h-147.860288c-9.142018 0-14.418028-10.38002-9.028018-17.766034l37.740074-51.710101a41.05008 41.05008 0 0 0 7.896015-24.210047z" fill="#A3E3FF" /><path d="M976.541907 775.421514c9.144018 0 14.418028-10.38002 9.028018-17.766034l-35.92607-49.224096c-28.394055-0.01-62.092121-4.794009-90.098176-5.790012a41.12808 41.12808 0 0 1-2.150004 3.304007l-37.740074 51.710101c-5.390011 7.386014-0.116 17.766035 9.028018 17.766034h147.858288z" fill="#FAE17C" /><path d="M952.991861 635.259241h-100.762196c-12.684025 0-22.966045-10.28202-22.966045-22.966045 0-12.684025 10.28202-22.966045 22.966045-22.966045h100.762196c12.684025 0 22.966045 10.28202 22.966045 22.966045 0 12.684025-10.28202 22.966045-22.966045 22.966045z" fill="#80B0E3" /><path d="M734.203434 661.389292l-59.152116-21.530042-28.668056 78.764154c-5.946012 16.334032 2.476005 34.396067 18.812037 40.340078 16.334032 5.946012 34.396067-2.476005 40.340079-18.812036l28.668056-78.762154z" fill="#A3E3FF" /><path d="M735.337436 661.803293l-61.42212-22.356044c-11.918023-4.338008-18.064035-17.518034-13.726027-29.436058 4.338008-11.918023 17.516034-18.064035 29.436058-13.726026l61.42212 22.356043c11.918023 4.338008 18.064035 17.516034 13.726027 29.436058-4.338008 11.918023-17.516034 18.064035-29.436058 13.726027z" fill="#80B0E3" /><path d="M1008.043969 829.55362H676.607321a15.960031 15.960031 0 0 1-15.958031-15.958031V791.381546a15.960031 15.960031 0 0 1 15.958031-15.958032H1008.041969a15.960031 15.960031 0 0 1 15.958031 15.958032v22.214043a15.956031 15.956031 0 0 1-15.956031 15.958031zM751.085467 902.583763H717.961402a11.398022 11.398022 0 0 1-11.398022-11.398022v-61.632121h55.922109v61.632121a11.400022 11.400022 0 0 1-11.400022 11.398022z" fill="#806C6C" /><path d="M706.56138 829.55962h55.922109v27.782054H706.56138z" opacity=".1" /><path d="M933.567823 902.583763h33.124065a11.398022 11.398022 0 0 0 11.398022-11.398022v-61.632121h-55.922109v61.632121a11.400022 11.400022 0 0 0 11.400022 11.398022z" fill="#806C6C" /><path d="M922.161801 829.55962h55.922109v27.782054H922.161801z" opacity=".1" /></svg>