<?xml version="1.0" standalone="no"?><!DOCTYPE svg PUBLIC "-//W3C//DTD SVG 1.1//EN" "http://www.w3.org/Graphics/SVG/1.1/DTD/svg11.dtd"><svg class="icon" width="200px" height="200.00px" viewBox="0 0 1024 1024" version="1.1" xmlns="http://www.w3.org/2000/svg"><path d="M596.378 771.664c-5.296 0-10.644-1.56-15.322-4.814-8.604-5.982-29.766-11.856-39.936-14.678-5.4-1.498-8.966-2.488-11.858-3.618-13.826-5.404-20.656-20.992-15.252-34.818 5.374-13.754 20.828-20.576 34.594-15.34 1.06 0.358 4.288 1.252 6.894 1.976 15.014 4.166 40.142 11.14 56.25 22.342 12.188 8.476 15.198 25.226 6.722 37.412a26.844 26.844 0 0 1-22.092 11.538z" fill="#498A68" /><path d="M609.356 784.658a15 15 0 0 1-13.336-21.846l269.434-525.616a15 15 0 1 1 26.696 13.686L622.714 776.498a14.998 14.998 0 0 1-13.358 8.16z" fill="#495059" /><path d="M981.832 253.054l-200.954-17.582c-17.09-1.496-29.732-16.562-28.236-33.65l8.398-95.994c1.496-17.09 16.56-29.732 33.65-28.236l200.954 17.582c17.09 1.496 29.732 16.56 28.236 33.65l-8.398 95.996c-1.496 17.086-16.562 29.728-33.65 28.234z" fill="#FAE17C" /><path d="M948.74 250.204l-134.806-11.8 13.82-157.88 134.806 11.8z" fill="#A3E3FF" /><path d="M951.31 221.004c-14.902-9.342-27.726-22.054-37.19-37.514a175.64 175.64 0 0 0-88.976-73.068l-11.194 127.944 134.808 11.794 2.552-29.156z" fill="#5CB38E" /><path d="M789.12 153.44m-16.212 0a16.212 16.212 0 1 0 32.424 0 16.212 16.212 0 1 0-32.424 0Z" fill="#FFFFFF" /><path d="M690.212 271.98a15 15 0 0 1-6.006-28.754l28.454-12.412a14.996 14.996 0 0 1 19.746 7.752 15 15 0 0 1-7.75 19.748l-28.454 12.412a14.944 14.944 0 0 1-5.99 1.254zM668.044 191.142a15 15 0 0 1-1.994-29.866l32.524-4.408a14.998 14.998 0 1 1 4.026 29.728l-32.524 4.408c-0.68 0.094-1.36 0.138-2.032 0.138zM710.712 115.186a14.924 14.924 0 0 1-6.738-1.608l-27.992-14.104a15 15 0 1 1 13.5-26.79l27.992 14.104a15 15 0 0 1-6.762 28.398z" fill="#93B5E6" /><path d="M362.788 835.186c-118.282 0-254.404 0-354.054-63.622-17.052-10.886-7.19-37.18 12.864-34.504 78.914 10.534 145.202-9.552 183-42.092l158.19 140.218z" fill="#5CB38E" /><path d="M159.978 721.812c1.318 37.774 7.116 75.48 30.402 106.832 57.662 6.542 116.992 6.542 172.408 6.542l-158.192-140.218c-12.116 10.43-27.17 19.57-44.618 26.844z" opacity=".1" /><path d="M309.836 952.922c-1.066 0-2.136-0.04-3.216-0.124-22.772-1.752-39.81-21.632-38.058-44.402 1.474-19.158-0.098-83.506-2.846-98.112-6.698-20.446 3.48-42.884 23.71-51.128 21.15-8.616 45.284 1.542 53.896 22.694 2.33 5.718 6.226 15.284 7.898 67.986 0.672 21.254 0.898 50.63-0.2 64.904-1.668 21.692-19.786 38.182-41.184 38.182z m-43.122-139.918l0.02 0.05a0.372 0.372 0 0 1-0.02-0.05zM451.258 952.922c-1.066 0-2.136-0.04-3.216-0.124-22.772-1.752-39.81-21.632-38.058-44.402 1.474-19.158-0.098-83.506-2.846-98.112-6.698-20.446 3.48-42.884 23.71-51.128 21.152-8.616 45.282 1.542 53.896 22.694 2.33 5.718 6.228 15.284 7.898 67.986 0.672 21.254 0.898 50.63-0.2 64.904-1.668 21.692-19.788 38.182-41.184 38.182z m-43.122-139.918l0.02 0.05a0.372 0.372 0 0 1-0.02-0.05z" fill="#498A68" /><path d="M493.184 878.644a1185.606 1185.606 0 0 0-0.54-28.808c-1.672-52.702-5.568-62.268-7.898-67.986-8.616-21.152-32.744-31.31-53.896-22.694-20.232 8.242-30.408 30.68-23.71 51.128 2.232 11.876 3.69 56.628 3.364 83.246 32.238-1.952 59.628-6.854 82.68-14.886zM343.324 781.85c-8.614-21.152-32.746-31.31-53.896-22.694-20.232 8.242-30.408 30.68-23.71 51.128 1.924 10.232 3.27 44.854 3.398 71.268 23.3 6.98 50.678 11.082 82.626 12.444 0.154-14.058-0.092-30.728-0.518-44.16-1.674-52.7-5.57-62.268-7.9-67.986z" opacity=".1" /><path d="M554.674 697.602c0 91.036-12.366 156.908-178.034 156.908s-178.032-65.872-178.032-156.908 79.708-164.834 178.032-164.834c98.326 0 178.034 73.798 178.034 164.834z" fill="#5CB38E" /><path d="M554.674 697.602c0-0.726-0.02-1.446-0.03-2.17-37.082-9.516-110.634-12.284-161.818 42.11-37.298 39.638-42.696 82.412-38.694 116.528 7.17 0.29 14.666 0.44 22.508 0.44 165.67 0 178.034-65.872 178.034-156.908z" fill="#9BDFC1" /><path d="M342.844 535.748c-82.16 14.62-144.234 81.52-144.234 161.856 0 84.294 10.622 147.006 143.714 155.832-73.896-75.006-59.604-229.874 0.52-317.688z" opacity=".05" /><path d="M529.512 290.962a164.198 164.198 0 0 0-142.242-62.814l-67.548 5.24c-96.034 7.45-167.846 91.342-160.396 187.376l6.202 79.946c6.686 86.19 81.978 150.64 168.168 143.954l358.074-27.78c64.568-5.01 112.848-61.412 107.838-125.978l-4.222-54.41c-5.01-64.566-61.412-112.848-125.978-107.838l-46.386 3.598a107.94 107.94 0 0 1-93.51-41.294z" fill="#5CB38E" /><path d="M262.94 531.38m-12 0a12 12 0 1 0 24 0 12 12 0 1 0-24 0Z" opacity=".1" /><path d="M349.42 543.04m-12 0a12 12 0 1 0 24 0 12 12 0 1 0-24 0Z" opacity=".1" /><path d="M303.9 587.64m-12 0a12 12 0 1 0 24 0 12 12 0 1 0-24 0Z" opacity=".1" /><path d="M288.017598 371.429725a15.52 30.26 85.567 1 0-2.399184-30.947141 15.52 30.26 85.567 1 0 2.399184 30.947141Z" fill="#FFA8CB" /><path d="M488.132788 324.782555a15.52 30.26 85.561 1 0 2.402424 30.94689 15.52 30.26 85.561 1 0-2.402424-30.94689Z" fill="#FFA8CB" /><path d="M322.716 337.284a15 15 0 0 1-14.94-13.84l-1.166-15.03a15.002 15.002 0 0 1 29.91-2.322l1.166 15.03a15.002 15.002 0 0 1-14.97 16.162zM448.686 327.51a15 15 0 0 1-14.94-13.838l-1.168-15.03a15 15 0 0 1 13.792-16.118 14.99 14.99 0 0 1 16.118 13.792l1.168 15.03a15 15 0 0 1-14.97 16.164zM659.486 547.512a46.768 46.768 0 0 1-32.774-13.418 15 15 0 0 1 21.024-21.402 16.76 16.76 0 0 0 13.044 4.77 16.76 16.76 0 0 0 12.15-6.722 15 15 0 1 1 24.074 17.9 46.746 46.746 0 0 1-37.518 18.872z" fill="#495059" /><path d="M612.88 394.48m-12 0a12 12 0 1 0 24 0 12 12 0 1 0-24 0Z" fill="#495059" /><path d="M689.14 388.56m-12 0a12 12 0 1 0 24 0 12 12 0 1 0-24 0Z" fill="#495059" /><path d="M281.426 240.7c-76.078 23.576-128.52 97.308-122.1 180.066l6.202 79.946c6.686 86.19 81.978 150.64 168.168 143.954l94.698-7.346c-144.138-69.546-184.628-288.308-146.968-396.62z" opacity=".05" /><path d="M411.748 760.256c-3.644 0-7.346-0.744-10.892-2.318-16.58-7.358-34.148-7.486-40.76-7.534l-0.814-0.006c-14.842-0.132-26.77-12.274-26.636-27.118 0.132-14.762 12.142-26.64 26.872-26.64l0.244 0.002 0.718 0.006c8.752 0.062 35.376 0.254 62.186 12.156 13.568 6.022 19.684 21.904 13.662 35.472-4.448 10.022-14.278 15.98-24.58 15.98z" fill="#498A68" /></svg>