<?xml version="1.0" standalone="no"?><!DOCTYPE svg PUBLIC "-//W3C//DTD SVG 1.1//EN" "http://www.w3.org/Graphics/SVG/1.1/DTD/svg11.dtd"><svg class="icon" width="200px" height="200.00px" viewBox="0 0 1024 1024" version="1.1" xmlns="http://www.w3.org/2000/svg"><path d="M350.281949 685.026085c0 97.580824 13.25384 168.187973 190.8317 168.187973s190.8317-70.607149 190.8317-168.187973-85.43897-176.685871-190.8317-176.685871-190.8317 79.105047-190.8317 176.685871z" fill="#5CB38E" /><path d="M350.281949 685.026085c0-0.777991 0.02-1.549981 0.031999-2.325972 39.747521-10.199877 118.586571-13.165841 173.44991 45.139456 39.979518 42.487488 45.765448 88.336935 41.4775 124.904495-7.685907 0.311996-15.719811 0.471994-24.127709 0.471994-177.57786-0.002-190.8317-70.611149-190.8317-168.189973z" fill="#9BDFC1" /><path d="M577.341213 511.534176c88.066939 15.671811 154.604137 87.380947 154.604136 173.491909 0 90.354911-11.385863 157.574101-154.046143 167.033987 79.209045-80.397031 63.88923-246.397031-0.557993-340.525896z" opacity=".05" /><path d="M365.94976 253.879281a175.997879 175.997879 0 0 1 146.802231-78.921049h72.623125c103.248756 0 186.945747 83.698991 186.945747 186.947747v85.950964c0 92.662883-75.119095 167.781978-167.781978 167.781978H219.567524c-69.417163 0-125.690485-56.273322-125.690485-125.690485v-58.497295c0-69.417163 56.273322-125.690485 125.690485-125.690486h49.871399a115.694606 115.694606 0 0 0 96.510837-51.881374z" fill="#5CB38E" /><path d="M670.778087 488.706451m-12.865845 0a12.865845 12.865845 0 1 0 25.73169 0 12.865845 12.865845 0 1 0-25.73169 0Z" opacity=".1" /><path d="M579.299189 508.346214m-12.865845 0a12.865845 12.865845 0 1 0 25.73169 0 12.865845 12.865845 0 1 0-25.73169 0Z" opacity=".1" /><path d="M631.638558 552.225685m-12.865845 0a12.865845 12.865845 0 1 0 25.73169 0 12.865845 12.865845 0 1 0-25.73169 0Z" opacity=".1" /><path d="M602.070915 312.768571a32.427609 16.6358 0 1 0 64.855218 0 32.427609 16.6358 0 1 0-64.855218 0Z" fill="#FFA8CB" /><path d="M384.353538 312.768571a32.427609 16.6358 0 1 0 64.855219 0 32.427609 16.6358 0 1 0-64.855219 0Z" fill="#FFA8CB" /><path d="M474.530452 293.190807a14.999819 14.999819 0 0 1-14.99982-14.999819 6.239925 6.239925 0 0 0-6.233925-6.233925 6.239925 6.239925 0 0 0-6.233924 6.233925c0 8.2839-6.713919 14.999819-14.99982 14.999819s-14.999819-6.715919-14.999819-14.999819c0-19.979759 16.253804-36.233563 36.233563-36.233564s36.233563 16.253804 36.233564 36.233564a14.999819 14.999819 0 0 1-14.999819 14.999819zM619.208708 293.190807a14.999819 14.999819 0 0 1-14.999819-14.999819c0-3.437959-2.795966-6.233925-6.233925-6.233925s-6.233925 2.795966-6.233925 6.233925c0 8.2839-6.713919 14.999819-14.999819 14.999819s-14.999819-6.715919-14.999819-14.999819c0-19.979759 16.253804-36.233563 36.233563-36.233564s36.233563 16.253804 36.233563 36.233564a14.999819 14.999819 0 0 1-14.999819 14.999819zM244.443224 537.897858a49.027409 49.027409 0 0 1-36.971554-16.837797 14.999819 14.999819 0 0 1 22.617727-19.709763c3.625956 4.15995 8.857893 6.545921 14.355827 6.545921s10.731871-2.385971 14.357827-6.545921a14.999819 14.999819 0 0 1 22.617728 19.709763 49.051409 49.051409 0 0 1-36.977555 16.837797z" fill="#495059" /><path d="M285.44273 371.407864m-12.865845 0a12.865845 12.865845 0 1 0 25.73169 0 12.865845 12.865845 0 1 0-25.73169 0Z" fill="#495059" /><path d="M203.443718 371.407864m-12.865845 0a12.865845 12.865845 0 1 0 25.73169 0 12.865845 12.865845 0 1 0-25.73169 0Z" fill="#495059" /><path d="M626.904615 179.596176c83.256997 18.887772 145.414248 93.336875 145.414248 182.309803v85.950964c0 92.662883-75.119095 167.781978-167.781978 167.781978h-101.810773c148.274213-86.26896 173.40591-323.414103 124.178503-436.042745z" opacity=".05" /><path d="M398.237371 204.771872c-60.729268-22.36373-38.391537-75.349092-6.901917-85.646968 6.171926-2.017976 9.199889-9.209889 6.317924-15.027818-14.045831-28.345658-1.901977-67.719184 27.38367-84.246985 32.38161-18.27578 70.097155-6.215925 92.662883 12.323851 4.905941 4.029951 12.205853 2.939965 15.855809-2.253973 16.759798-23.849713 41.781497-33.703594 73.659113-28.595655 27.38767 4.387947 44.305466 19.92776 48.321417 47.399429 1.031988 7.053915 8.421899 11.007867 15.067819 8.433898 18.117782-7.015915 39.385525-0.249997 51.991373 13.469838 17.475789 19.021771 13.995831 41.815496 6.939917 53.863351-2.755967 4.703943-1.931977 10.75787 2.325971 14.163829 18.415778 14.737822 25.017699 49.7554-1.947976 77.699064l-331.676003-11.581861z" fill="#E5E5E5" /><path d="M483.356345 103.825089c-29.239648-12.695847-42.859484-64.625221-19.89576-92.95088-12.823845-0.563993-26.015686 1.971976-38.425537 8.975892-29.285647 16.527801-41.431501 55.901326-27.38367 84.246985 2.883965 5.81993-0.143998 13.009843-6.317924 15.027818-31.489621 10.299876-53.827351 63.283237 6.901917 85.646968l134.946374 4.711944c-54.80534-18.911772-56.133324-69.369164-45.035458-92.94288a9.459886 9.459886 0 0 0-4.789942-12.715847z" opacity=".05" /><path d="M747.65316 231.973545c-0.177998 0-0.355996-0.002-0.533993-0.008l-383.365381-13.387839a14.999819 14.999819 0 1 1 0.513994-29.989639c0.177998 0 0.355996 0.004 0.533994 0.008l383.36738 13.387839a14.999819 14.999819 0 0 1-0.515994 29.989639z" fill="#A3E3FF" /><path d="M483.880339 157.738439a14.995819 14.995819 0 0 1-12.857845-7.251912c-5.099939-8.453898-19.251768-15.633812-23.441718-15.931808a14.985819 14.985819 0 0 1-14.451826-15.511814c0.291996-8.2799 7.205913-14.725823 15.531813-14.467825 14.319827 0.499994 37.909543 13.611836 48.047421 30.411633a14.999819 14.999819 0 0 1-5.093938 20.591752 14.89982 14.89982 0 0 1-7.733907 2.159974zM541.89764 108.983027l-0.471995-0.006a14.999819 14.999819 0 0 1-14.527825-15.457814c0.395995-12.815846 23.819713-36.281563 39.783521-39.85552a14.991819 14.991819 0 0 1 17.915784 11.361863 14.999819 14.999819 0 0 1-11.361863 17.913785c-3.133962 0.701992-13.385839 9.319888-16.975795 15.359814a15.007819 15.007819 0 0 1-14.361827 10.683872z m14.983819-14.533825v0zM668.964108 152.118507a14.93582 14.93582 0 0 1-8.919892-2.949965c-3.961952-2.937965-19.383766-6.887917-32.685606-4.519945a14.993819 14.993819 0 0 1-17.393791-12.143854 14.999819 14.999819 0 0 1 12.143854-17.39379c19.161769-3.403959 43.673474 0.965988 55.797328 9.95588a14.997819 14.997819 0 0 1 3.117962 20.981747 14.96982 14.96982 0 0 1-12.059855 6.069927z" opacity=".1" /><path d="M928.926976 752.475272a20.339755 20.339755 0 0 1-8.433899-19.475765c0.86399-6.207925 1.317984-12.545849 1.317984-18.991771 0-76.573077-62.075252-138.648329-138.648329-138.64833-11.949856 0-23.539716 1.529982-34.597583 4.379948-5.265937 1.357984-10.843869 0.693992-15.76381-1.623981a92.11689 92.11689 0 0 0-39.373525-8.785894c-34.86558 0-65.215214 19.277768-81.003024 47.751425-4.535945 8.181901-13.449838 12.847845-22.779726 12.147853a138.162335 138.162335 0 0 0-10.337875-0.387995c-39.02153 0-74.259105 16.133806-99.450802 42.081493a20.873748 20.873748 0 0 1-24.553704 4.033951c-18.949772-9.723883-40.429513-15.215817-63.195238-15.215816-31.133625 0-59.863279 10.271876-83.003 27.601667-5.957928 4.459946-13.903832 5.413935-20.76975 2.541969a134.228382 134.228382 0 0 0-51.943374-10.395874c-68.235178 0-124.614498 50.705389-133.54239 116.490596-0.901989 6.64392-5.049939 12.327851-10.977868 15.463813-35.525572 18.791774-59.815279 55.987325-60.133275 98.898809-0.467994 62.931242 51.723377 113.65863 114.658618 113.65863h694.50363c81.995012 0 150.18019-65.249214 151.352177-147.236226 0.733991-51.359381-24.465705-96.850833-63.325237-124.288502z" fill="#A3E3FF" /><path d="M895.515378 475.846606m-58.787291 0a58.787292 58.787292 0 1 0 117.574583 0 58.787292 58.787292 0 1 0-117.574583 0Z" fill="#A3E3FF" /><path d="M192.52385 198.389949m-39.995518 0a39.995518 39.995518 0 1 0 79.991036 0 39.995518 39.995518 0 1 0-79.991036 0Z" fill="#A3E3FF" /><path d="M216.343563 935.949061a15.001819 15.001819 0 0 1-14.807822-12.731846c-6.161926-40.267515 21.58174-78.04106 61.849255-84.204986 40.281515-6.165926 78.04106 21.58374 84.206985 61.847255a14.999819 14.999819 0 0 1-12.557848 17.095794c-8.191901 1.259985-15.841809-4.367947-17.097794-12.557849-3.657956-23.915712-26.099685-40.395513-50.011398-36.733557-23.915712 3.661956-40.393513 26.095686-36.731557 50.011397a14.999819 14.999819 0 0 1-12.557849 17.095794 14.89982 14.89982 0 0 1-2.291972 0.177998zM731.567354 923.875207a14.97582 14.97582 0 0 1-11.935856-5.899929c-24.713702-32.38161-18.475777-78.83505 13.905832-103.548752 32.37561-24.713702 78.83305-18.479777 103.546752 13.905832a14.999819 14.999819 0 0 1-2.823965 21.023747 14.999819 14.999819 0 0 1-21.023747-2.823966c-14.681823-19.233768-42.271491-22.935724-61.501259-8.257901-19.231768 14.677823-22.937724 42.267491-8.2579 61.501259a14.999819 14.999819 0 0 1-11.909857 24.09971zM547.171576 815.834509a14.999819 14.999819 0 0 1-14.241828-19.719763c4.785942-14.447826-3.075963-30.095637-17.525789-34.879579-14.449826-4.785942-30.095637 3.077963-34.87958 17.525788a14.999819 14.999819 0 0 1-28.477657-9.433886c9.98588-30.149637 42.635486-46.551439 72.789123-36.569559 30.151637 9.98588 46.557439 42.639486 36.57356 72.791123a15.009819 15.009819 0 0 1-14.237829 10.285876z" opacity=".1" /></svg>