<?xml version="1.0" standalone="no"?><!DOCTYPE svg PUBLIC "-//W3C//DTD SVG 1.1//EN" "http://www.w3.org/Graphics/SVG/1.1/DTD/svg11.dtd"><svg class="icon" width="200px" height="200.00px" viewBox="0 0 1024 1024" version="1.1" xmlns="http://www.w3.org/2000/svg"><path d="M360.841295 754.466526c10.45598 0 20.57196-5.615989 25.84395-15.481969 10.04598-18.793963 26.153949-31.549938 32.217937-36.351929l0.729998-0.577999c12.657975-10.05798 14.763971-28.471944 4.705991-41.13192-10.05798-12.657975-28.471944-14.767971-41.131919-4.707991l-0.649999 0.515999c-7.845985 6.211988-31.719938 25.117951-47.505907 54.655894-7.621985 14.259972-2.239996 31.995938 12.017976 39.617922a29.139943 29.139943 0 0 0 13.771973 3.461993z" fill="#498A68" /><path d="M604.990818 808.106422c136.611733 0 293.829426 0 408.923202-73.481857 19.693962-12.573975 8.303984-42.941916-14.855971-39.849922-91.143822 12.167976-167.703672-11.033978-211.359587-48.615905l-182.707644 161.947684z" fill="#5CB38E" /><path d="M839.230361 677.162677c-1.521997 43.627915-8.219984 87.17783-35.111932 123.387759-66.59787 7.555985-135.123736 7.555985-199.125611 7.555986l182.707644-161.947684c13.989973 12.047976 31.377939 22.603956 51.529899 31.003939z" opacity=".1" /><path d="M621.290787 899.778243c-0.553999-7.207986-3.441993-122.443761 8.697983-152.243703 9.385982-23.035955 35.66793-34.101933 58.703885-24.717952 22.091957 8.999982 33.175935 33.545934 25.76395 55.861891-3.227994 16.621968-5.08399 91.687821-3.353994 114.197777 1.905996 24.799952-16.653967 46.449909-41.453919 48.357906-1.173998 0.09-2.341995 0.134-3.501993 0.133999-23.303954-0.002-43.037916-17.963965-44.855912-41.589918z m92.11982-118.261769l0.02-0.052-0.02 0.052zM457.955106 899.782243c-0.553999-7.207986-3.447993-122.443761 8.699983-152.253703 9.389982-23.035955 35.67993-34.097933 58.705885-24.709952 22.091957 9.003982 33.173935 33.549934 25.75995 55.863891-3.229994 16.629968-5.08599 91.685821-3.353994 114.187777 1.907996 24.799952-16.649967 46.451909-41.447919 48.359906-1.175998 0.092-2.345995 0.136-3.505993 0.135999-23.303954 0-43.039916-17.959965-44.857912-41.583918z m92.11582-118.259769l0.02-0.05-0.02 0.05z" fill="#498A68" /><path d="M457.259107 858.042324c0.036-38.281925 1.685997-91.595821 9.395982-110.513784 9.389982-23.035955 35.67993-34.097933 58.705885-24.709952 22.091957 9.003982 33.173935 33.549934 25.75995 55.863891-2.589995 13.335974-4.293992 64.217875-3.975993 95.467814-34.769932-2.283996-64.563874-7.597985-89.885824-16.107969zM688.692655 722.816588c22.091957 8.999982 33.175935 33.545934 25.76395 55.861891-2.255996 11.615977-3.839993 51.765899-3.999993 82.585839-25.55195 7.389986-55.337892 11.821977-89.775824 13.461974-0.415999-37.429927 0.399999-105.317794 9.307982-127.189752 9.385982-23.037955 35.66793-34.103933 58.703885-24.719952z" opacity=".1" /><path d="M383.365251 649.202732c0 105.143795 14.281972 181.223646 205.623599 181.223646s205.623598-76.079851 205.623598-181.223646-92.05982-190.379628-205.623598-190.379628-205.623598 85.235834-205.623599 190.379628z" fill="#5CB38E" /><path d="M383.365251 649.202732c0-0.837998 0.022-1.669997 0.034-2.505995 42.827916-10.991979 127.77975-14.187972 186.893635 48.635905 43.077916 45.781911 49.311904 95.183814 44.691913 134.585737-8.281984 0.335999-16.937967 0.507999-25.995949 0.507999-191.341626 0-205.623598-76.079851-205.623599-181.223646z" fill="#9BDFC1" /><path d="M628.024773 462.263097c94.891815 16.885967 166.587675 94.153816 166.587675 186.937635 0 97.35781-12.267976 169.787668-165.985676 179.981649 85.347833-86.627831 68.839866-265.493481-0.601999-366.919284z" opacity=".05" /><path d="M384.715249 193.037623a189.63963 189.63963 0 0 1 148.42571-101.105803l77.821848-8.179984c110.641784-11.629977 209.75959 68.635866 221.389567 179.27765l9.679981 92.10582c10.43598 99.299806-61.59988 188.257632-160.899685 198.693612l-412.535195 43.359916c-74.387855 7.817985-141.027725-46.14591-148.847709-120.533765l-6.587987-62.685878c-7.817985-74.387855 46.14591-141.027725 120.533765-148.845709l53.441895-5.617989a124.669757 124.669757 0 0 0 97.57781-66.46787z" fill="#5CB38E" /><path d="M737.820559 410.359199m-13.863973 0a13.863973 13.863973 0 1 0 27.727946 0 13.863973 13.863973 0 1 0-27.727946 0Z" opacity=".1" /><path d="M642.000746 441.679137m-13.863973 0a13.863973 13.863973 0 1 0 27.727946 0 13.863973 13.863973 0 1 0-27.727946 0Z" opacity=".1" /><path d="M703.040627 482.819057m-13.863973 0a13.863973 13.863973 0 1 0 27.727946 0 13.863973 13.863973 0 1 0-27.727946 0Z" opacity=".1" /><path d="M695.178266 206.146425a17.925965 34.941932 84.002 1 0 3.746303 35.65566 17.925965 34.941932 84.002 1 0-3.746303-35.65566Z" fill="#FFA8CB" /><path d="M465.590498 266.36417a17.925965 34.941932 84.002 1 0-3.746302-35.65566 17.925965 34.941932 84.002 1 0 3.746302 35.65566Z" fill="#FFA8CB" /><path d="M629.89477 212.261585a14.935971 14.935971 0 0 1-9.429982-3.343993 14.993971 14.993971 0 0 1-2.215996-21.095959l34.955932-43.165916a14.999971 14.999971 0 1 1 23.311955 18.877964l-34.955932 43.165915a14.959971 14.959971 0 0 1-11.665977 5.561989z" fill="#495059" /><path d="M668.956693 208.155593a14.935971 14.935971 0 0 1-9.429981-3.343993l-43.165916-34.953932a14.995971 14.995971 0 0 1-2.215996-21.095959 14.999971 14.999971 0 0 1 21.095959-2.217995l43.165916 34.953932a14.995971 14.995971 0 0 1 2.215996 21.095958 14.965971 14.965971 0 0 1-11.665978 5.561989zM523.826977 223.409564a14.935971 14.935971 0 0 1-9.429982-3.343994l-43.163915-34.955932a14.999971 14.999971 0 0 1 18.879963-23.313954l43.163915 34.955932a14.997971 14.997971 0 0 1 2.215996 21.097959 14.963971 14.963971 0 0 1-11.665977 5.559989z" fill="#495059" /><path d="M484.769053 227.513556a14.935971 14.935971 0 0 1-9.429981-3.343994 14.999971 14.999971 0 0 1-2.217996-21.095959l34.953932-43.163915a14.999971 14.999971 0 1 1 23.315954 18.877963l-34.953932 43.165915a14.977971 14.977971 0 0 1-11.667977 5.55999z" fill="#495059" /><path d="M311.681391 328.059359m-13.863973 0a13.863973 13.863973 0 1 0 27.727946 0 13.863973 13.863973 0 1 0-27.727946 0Z" fill="#495059" /><path d="M223.821563 337.299341m-13.863973 0a13.863973 13.863973 0 1 0 27.727946 0 13.863973 13.863973 0 1 0-27.727946 0Z" fill="#495059" /><path d="M655.992719 84.043836c91.345822 10.861979 166.339675 83.641837 176.361655 178.98565l9.679981 92.10582c10.43598 99.299806-61.59988 188.257632-160.899685 198.695612l-109.101787 11.467978c149.173709-109.151787 149.397708-366.107285 83.959836-481.25506z" opacity=".05" /><path d="M568.16489 754.500526c10.46198 0 20.57996-5.619989 25.84995-15.491969 10.04398-18.809963 26.159949-31.571938 32.227937-36.375929l0.729998-0.577999c12.657975-10.05798 14.763971-28.473944 4.705991-41.13192s-28.471944-14.765971-41.131919-4.707991l-0.647999 0.515999c-7.853985 6.217988-31.745938 25.137951-47.531907 54.701893-7.615985 14.261972-2.225996 31.997938 12.035976 39.611923a29.149943 29.149943 0 0 0 13.761973 3.455993z" fill="#498A68" /><path d="M334.823346 531.578962c-120.825764 120.827764-15.657969 312.879389-74.495854 358.2753-31.169939 24.047953-65.541872-4.299992-116.535773 7.115986-38.619925 8.645983-148.763709 56.821889-129.877746-91.809821 22.239957-175.035658 148.52571-288.853436 227.083556-367.409282 25.909949-25.909949 67.917867-25.909949 93.825817 0 25.907949 25.909949 25.907949 67.917867 0 93.827817z" fill="#FF85B6" /><path d="M349.943317 461.147099c8.949983 23.651954 3.923992 51.3879-15.119971 70.431863-120.825764 120.825764-15.657969 312.879389-74.495854 358.2753-20.31196 15.671969-41.989918 9.093982-68.735866 5.767989-15.48597-265.657481 82.553839-387.655243 158.351691-434.475152z" fill="#A3E3FF" /><path d="M240.995529 437.753145c21.543958-21.543958 54.209894-25.155951 79.503845-10.873979-104.477796 71.77386-246.993518 263.305486-220.649569 481.27906-45.519911 9.067982-99.625805 4.743991-85.935832-102.995799 22.237957-175.037658 148.52571-288.853436 227.081556-367.409282z" fill="#FAE17C" /><path d="M367.933281 830.902377c23.307954 14.233972 32.921936 46.381909 8.971983 64.727874-23.947953 18.345964-50.737901 7.199986-61.65188-19.729962-10.913979-26.929947 8.821983-71.78186 52.679897-44.997912z" fill="#A3E3FF" /><path d="M52.381898 518.204988c17.539966 1.475997 38.041926 26.427948 9.651981 49.267904s-49.965902 15.20197-58.483886 0-5.10799-53.809895 48.831905-49.267904z" fill="#FAE17C" /></svg>