<?xml version="1.0" standalone="no"?><!DOCTYPE svg PUBLIC "-//W3C//DTD SVG 1.1//EN" "http://www.w3.org/Graphics/SVG/1.1/DTD/svg11.dtd"><svg class="icon" width="200px" height="200.00px" viewBox="0 0 1024 1024" version="1.1" xmlns="http://www.w3.org/2000/svg"><path d="M165.89 258.99c71.53 27.974 230.006 211.362 240.244 249.32 27.912-84.266-74.772-333.566-115.106-390.73l-125.138 141.41z" fill="#FAE17C" /><path d="M140.416 197.44L112.086 173.604c-10.122-8.516-8.536-24.542 3.058-30.908l32.452-17.82a18.82 18.82 0 0 0 8.384-9.426l13.914-34.308c4.972-12.258 20.702-15.702 30.342-6.642l26.976 25.356a18.828 18.828 0 0 0 11.556 5.062l36.93 2.632c13.194 0.94 21.33 14.836 15.692 26.804l-15.78 33.492a18.824 18.824 0 0 0-1.242 12.554l8.908 35.934c3.184 12.84-7.52 24.872-20.642 23.208l-36.728-4.658a18.832 18.832 0 0 0-12.324 2.698l-31.424 19.578c-11.228 6.994-25.978 0.534-28.45-12.46l-6.92-36.37a18.81 18.81 0 0 0-6.372-10.89z" fill="#FF85B6" /><path d="M930.192 631.356c-74.052-3.118-285.34 97.194-309.144 126.734 8.128-85.274 195.782-265.496 253.636-300.292l55.508 173.558z" fill="#A3E3FF" /><path d="M976.632 586.908l34.29-10.03c12.252-3.584 17.084-18.352 9.32-28.486l-21.728-28.36a18.164 18.164 0 0 1-3.738-11.586l1.056-35.712c0.378-12.76-12.176-21.92-24.212-17.668l-33.686 11.9a18.168 18.168 0 0 1-12.174-0.026l-33.636-12.04c-12.018-4.302-24.61 4.806-24.284 17.566l0.908 35.716a18.172 18.172 0 0 1-3.786 11.57l-21.846 28.27c-7.806 10.1-3.034 24.89 9.202 28.524l34.248 10.174a18.16 18.16 0 0 1 9.834 7.176l20.136 29.512c7.194 10.544 22.734 10.576 29.972 0.062l20.258-29.428a18.176 18.176 0 0 1 9.866-7.134z" fill="#80B0E3" /><path d="M891.744 216.896c-69.188 26.576-223.19 202.612-233.29 239.18-26.44-81.478 74.108-321.446 113.364-376.37l119.926 137.19z" fill="#A9A6DE" /><path d="M916.688 157.65l27.476-22.834c9.818-8.158 8.382-23.632-2.77-29.844l-31.21-17.386a18.18 18.18 0 0 1-8.036-9.146l-13.226-33.188c-4.726-11.858-19.886-15.274-29.24-6.588l-26.18 24.31a18.164 18.164 0 0 1-11.18 4.816l-35.652 2.324c-12.738 0.83-20.67 14.192-15.3 25.772l15.03 32.412a18.17 18.17 0 0 1 1.126 12.122l-8.808 34.624c-3.146 12.372 7.11 24.044 19.784 22.516l35.47-4.28a18.164 18.164 0 0 1 11.876 2.676l30.208 19.076c10.794 6.816 25.066 0.668 27.528-11.858l6.89-35.056a18.152 18.152 0 0 1 6.214-10.468z" fill="#8783D2" /><path d="M332.542 795.418c-7.85 0-15.636-3.38-21.012-9.914-9.542-11.596-7.878-28.73 3.718-38.272 24.022-19.766 51.218-27.538 60.156-30.09l0.74-0.212c14.442-4.156 29.496 4.186 33.646 18.616 4.148 14.432-4.188 29.496-18.618 33.646l-0.83 0.238c-6.908 1.974-25.256 7.216-40.54 19.794a27.084 27.084 0 0 1-17.26 6.194z" fill="#498A68" /><path d="M572.738 862.85c126.886 0 272.91 0 379.81-68.25 18.292-11.678 7.714-39.886-13.8-37.014-84.656 11.302-155.764-10.248-196.312-45.154l-169.698 150.418z" fill="#5CB38E" /><path d="M790.3 741.228c-1.414 40.522-7.634 80.97-32.614 114.602-61.856 7.018-125.504 7.018-184.95 7.018l169.698-150.418c13 11.19 29.15 20.996 47.866 28.798z" opacity=".1" /><path d="M629.542 986.622c-21.648 0.002-39.976-16.682-41.664-38.628-0.514-6.696-3.196-113.724 8.078-141.404 8.718-21.396 33.126-31.672 54.522-22.96 20.522 8.36 30.818 31.158 23.932 51.886-2.998 15.438-4.722 85.16-3.114 106.068 1.77 23.034-15.468 43.144-38.502 44.914a43.46 43.46 0 0 1-3.252 0.124z m43.914-148.516l-0.018 0.046a1.116 1.116 0 0 1 0.018-0.046zM477.834 986.622c-21.648 0.002-39.974-16.68-41.664-38.624-0.514-6.696-3.202-113.724 8.08-141.414 8.72-21.396 33.136-31.666 54.526-22.954 20.52 8.362 30.812 31.16 23.926 51.886-3 15.44-4.724 85.158-3.114 106.06 1.774 23.034-15.464 43.144-38.498 44.918-1.092 0.086-2.18 0.128-3.256 0.128z m43.912-148.512a1.116 1.116 0 0 1-0.018 0.046l0.018-0.046z" fill="#498A68" /><path d="M498.776 783.632c-21.39-8.712-45.806 1.558-54.526 22.954-7.16 17.572-8.694 67.088-8.726 102.646 23.518 7.904 51.19 12.84 83.486 14.96-0.296-29.026 1.286-76.29 3.692-88.672 6.886-20.728-3.406-43.526-23.926-51.888zM650.478 783.63c-21.396-8.712-45.804 1.564-54.522 22.96-8.274 20.316-9.032 83.37-8.646 118.134 31.986-1.524 59.652-5.64 83.384-12.504 0.148-28.624 1.62-65.916 3.716-76.706 6.886-20.726-3.41-43.524-23.932-51.884z" opacity=".1" /><path d="M366.892 715.258c0 97.658 13.266 168.322 190.984 168.322s190.984-70.664 190.984-168.322-85.506-176.826-190.984-176.826-190.984 79.168-190.984 176.826z" fill="#5CB38E" /><path d="M366.892 715.258c0-0.778 0.022-1.552 0.032-2.328 39.78-10.208 118.682-13.178 173.588 45.174 40.012 42.522 45.802 88.408 41.51 125.004-7.692 0.312-15.732 0.472-24.146 0.472-177.72 0-190.984-70.664-190.984-168.322z" fill="#9BDFC1" /><path d="M594.132 541.628c88.136 15.684 154.726 87.45 154.726 173.63 0 90.426-11.396 157.698-154.168 167.168 79.272-80.462 63.94-246.594-0.558-340.798z" opacity=".05" /><path d="M382.572 283.77a176.138 176.138 0 0 1 146.92-78.984h72.68c103.33 0 187.096 83.766 187.096 187.096v86.02c0 92.738-75.178 167.916-167.916 167.916H236.074c-69.472 0-125.79-56.318-125.79-125.79v-58.544c0-69.472 56.318-125.79 125.79-125.79h49.91a115.796 115.796 0 0 0 96.588-51.924z" fill="#5CB38E" /><path d="M260.97 569.398c-23.498 0-43.602-16.878-47.672-40.02l-2.232-12.69c-2.088-11.876 7.05-22.762 19.108-22.762h61.588c12.06 0 21.198 10.884 19.108 22.762l-2.232 12.69c-4.066 23.144-24.17 40.02-47.668 40.02z" fill="#495059" /><path d="M687.64 518.78m-12.876 0a12.876 12.876 0 1 0 25.752 0 12.876 12.876 0 1 0-25.752 0Z" opacity=".1" /><path d="M596.1 538.44m-12.876 0a12.876 12.876 0 1 0 25.752 0 12.876 12.876 0 1 0-25.752 0Z" opacity=".1" /><path d="M648.48 582.36m-12.876 0a12.876 12.876 0 1 0 25.752 0 12.876 12.876 0 1 0-25.752 0Z" opacity=".1" /><path d="M635.606 342.7a32.454 16.65 0 1 0 64.908 0 32.454 16.65 0 1 0-64.908 0Z" fill="#FFA8CB" /><path d="M417.726 342.7a32.454 16.65 0 1 0 64.908 0 32.454 16.65 0 1 0-64.908 0Z" fill="#FFA8CB" /><path d="M626.886 324.686a15 15 0 0 1-15-15v-16.172c0-8.284 6.714-15 15-15s15 6.716 15 15v16.172a15 15 0 0 1-15 15zM491.348 324.686a15 15 0 0 1-15-15v-16.172c0-8.284 6.714-15 15-15s15 6.716 15 15v16.172a15 15 0 0 1-15 15z" fill="#495059" /><path d="M302 401.4m-12.876 0a12.876 12.876 0 1 0 25.752 0 12.876 12.876 0 1 0-25.752 0Z" fill="#495059" /><path d="M219.94 401.4m-12.876 0a12.876 12.876 0 1 0 25.752 0 12.876 12.876 0 1 0-25.752 0Z" fill="#495059" /><path d="M643.736 209.426c83.324 18.902 145.532 93.41 145.532 182.454v86.02c0 92.738-75.178 167.916-167.916 167.916H519.46c148.39-86.338 173.542-323.672 124.276-436.39z" opacity=".05" /><path d="M593.278 770.264a27.188 27.188 0 0 1-23.876-14.138c-7.21-13.172-2.378-29.696 10.794-36.908l0.754-0.412c6.312-3.442 23.078-12.582 35.236-28.22 9.218-11.858 26.3-13.992 38.154-4.774s13.994 26.3 4.776 38.156c-19.11 24.576-43.966 38.13-52.132 42.582l-0.676 0.368a27.06 27.06 0 0 1-13.03 3.346z" fill="#498A68" /><path d="M239.288 737.37H175.692a18.408 18.408 0 0 1-18.198-15.64l-14.526-95.526c-2.056-13.52 8.408-25.696 22.084-25.696h84.88c13.674 0 24.14 12.176 22.084 25.696l-14.526 95.526a18.412 18.412 0 0 1-18.202 15.64z" fill="#495059" /><path d="M276.084 683.94H138.898c-8.286 0-15-6.716-15-15s6.714-15 15-15h137.186a15 15 0 0 1 15 15 15 15 0 0 1-15 15z" fill="#A3E3FF" /><path d="M181.94 737.38h51.108v208.14H181.94z" fill="#959BA0" /><path d="M277.318 990.196H137.664c-6.822 0-11.254-7.182-8.196-13.28l4.636-9.242a40.18 40.18 0 0 1 35.914-22.164h74.946c15.2 0 29.1 8.578 35.914 22.164l4.636 9.242c3.058 6.098-1.374 13.28-8.196 13.28zM67.974 538.724a15.084 15.084 0 0 1-3.288-0.364l-44.128-9.868a15 15 0 0 1 6.546-29.278l44.128 9.868a15 15 0 0 1-3.258 29.642z" fill="#A3E3FF" /><path d="M44.436 800.418a15 15 0 0 1-7.802-27.822l36.898-22.418a15 15 0 1 1 15.578 25.638l-36.898 22.42a14.94 14.94 0 0 1-7.776 2.182z" fill="#FFA8CB" /><path d="M64.822 663.37H15c-8.286 0-15-6.716-15-15s6.714-15 15-15h49.822a15 15 0 0 1 15 15c0 8.286-6.714 15-15 15z" fill="#A9A6DE" /></svg>