<?xml version="1.0" standalone="no"?><!DOCTYPE svg PUBLIC "-//W3C//DTD SVG 1.1//EN" "http://www.w3.org/Graphics/SVG/1.1/DTD/svg11.dtd"><svg class="icon" width="200px" height="200.00px" viewBox="0 0 1024 1024" version="1.1" xmlns="http://www.w3.org/2000/svg"><path d="M695.39 1024h-137.754c-26.852 0-48.618-21.766-48.618-48.618s21.766-48.618 48.618-48.618h137.754c26.852 0 48.618 21.766 48.618 48.618S722.242 1024 695.39 1024z" fill="#498A68" /><path d="M695.39 926.764h-137.754c-26.852 0-48.618 21.766-48.618 48.618S530.784 1024 557.636 1024h88.46c10.276-7.522 19.412-15.972 27.462-25.392 18.034-21.1 28.91-44.844 35.46-69.87a48.508 48.508 0 0 0-13.628-1.974z" opacity=".1" /><path d="M698.046 910.464a31.54 31.54 0 0 1-24.444-11.552c-15.532-18.922-35.726-34.514-41.326-38.052-14.754-9.324-19.156-28.844-9.83-43.596 9.324-14.754 28.84-19.158 43.596-9.83 11.438 7.23 36.87 27.57 56.412 51.376 11.074 13.49 9.114 33.404-4.376 44.478a31.468 31.468 0 0 1-20.032 7.176z" fill="#498A68" /><path d="M454.534 1014.586c-147.43 3.496-317.096 7.518-443.184-68.836-21.576-13.066-10.06-46.132 15.014-43.386 98.672 10.798 180.702-16.198 226.852-57.874l201.318 170.096z" fill="#5CB38E" /><path d="M198.396 879.266c2.76 47.044 11.102 93.87 41.052 132.26 72.064 6.45 146.016 4.698 215.088 3.06l-201.32-170.096c-14.794 13.358-33.288 25.194-54.82 34.776z" opacity=".1" /><path d="M678.486 826.642c0 113.502-15.418 195.63-221.968 195.63s-221.968-82.128-221.968-195.63 99.378-205.514 221.968-205.514c122.59 0.002 221.968 92.012 221.968 205.514z" fill="#5CB38E" /><path d="M678.486 826.642c0-0.904-0.024-1.804-0.038-2.706-46.232-11.864-137.936-15.316-201.75 52.504-46.502 49.42-53.232 102.75-48.244 145.284 8.94 0.362 18.286 0.548 28.064 0.548 206.552 0 221.968-82.128 221.968-195.63z" fill="#9BDFC1" /><path d="M414.378 624.844c-102.436 18.23-179.83 101.638-179.83 201.798 0 105.096 13.244 183.284 179.18 194.288-92.13-93.514-74.31-286.6 0.65-396.086z" opacity=".05" /><path d="M665.454 358.644a204.712 204.712 0 0 0-162.106-106.33l-84.15-7.362c-119.636-10.466-225.106 78.032-235.574 197.67l-8.714 99.594c-9.394 107.372 70.034 202.032 177.406 211.424l446.078 39.026c80.436 7.038 151.346-52.464 158.384-132.9l5.93-67.782c7.038-80.436-52.464-151.346-132.9-158.384l-57.786-5.056a134.57 134.57 0 0 1-106.568-69.9z" fill="#5CB38E" /><path d="M288.44 599.86m-14.966 0a14.966 14.966 0 1 0 29.932 0 14.966 14.966 0 1 0-29.932 0Z" opacity=".1" /><path d="M392.44 631.86m-14.966 0a14.966 14.966 0 1 0 29.932 0 14.966 14.966 0 1 0-29.932 0Z" opacity=".1" /><path d="M327.34 677.42m-14.966 0a14.966 14.966 0 1 0 29.932 0 14.966 14.966 0 1 0-29.932 0Z" opacity=".1" /><path d="M327.240512 417.248628a37.72 19.35 5.003 1 0 3.374946-38.552558 37.72 19.35 5.003 1 0-3.374946 38.552558Z" fill="#FFA8CB" /><path d="M582.897124 400.721706a37.72 19.35 5.003 1 0-3.374946 38.552558 37.72 19.35 5.003 1 0 3.374946-38.552558Z" fill="#FFA8CB" /><path d="M373.672 382.6c-1.178 0-2.36-0.05-3.544-0.156-12.914-1.128-24.684-8.404-31.482-19.458a15 15 0 0 1 4.92-20.634 15 15 0 0 1 20.634 4.92 11.08 11.08 0 0 0 8.542 5.288 11.076 11.076 0 0 0 9.332-3.722 15 15 0 1 1 22.44 19.912 41.38 41.38 0 0 1-30.842 13.85zM546.884 397.754c-1.178 0-2.36-0.05-3.544-0.156-12.916-1.128-24.686-8.404-31.484-19.462a15 15 0 0 1 25.558-15.71 11.064 11.064 0 0 0 8.54 5.284 11.064 11.064 0 0 0 9.332-3.724 15 15 0 0 1 22.44 19.912 41.368 41.368 0 0 1-30.842 13.856z" fill="#495059" /><path d="M746.82 503m-14.964 0a14.964 14.964 0 1 0 29.928 0 14.964 14.964 0 1 0-29.928 0Z" fill="#495059" /><path d="M779.14 680.72m-14.966 0a14.966 14.966 0 1 0 29.932 0 14.966 14.966 0 1 0-29.932 0Z" fill="#495059" /><path d="M841.84 511.32m-14.966 0a14.966 14.966 0 1 0 29.932 0 14.966 14.966 0 1 0-29.932 0Z" fill="#495059" /><path d="M370.604 246.116c-98.388 13.446-177.96 93.41-186.98 196.506l-8.714 99.596c-9.394 107.372 70.034 202.03 177.406 211.424l117.972 10.322c-163.062-114.998-168.142-392.334-99.684-517.848z" opacity=".05" /><path d="M640.27 331.512L245.052 310.8c-30.786-1.614-54.434-27.878-52.822-58.664 1.614-30.786 27.878-54.434 58.664-52.82l395.216 20.712c30.786 1.614 54.434 27.878 52.822 58.664-1.612 30.786-27.876 54.434-58.662 52.82z" fill="#E5E5E5" /><path d="M357.984 204.928l-107.088-5.612c-30.786-1.614-57.05 22.036-58.664 52.822-1.614 30.786 22.036 57.05 52.822 58.664l112.532 5.898c-33.156-28.14-27.638-87.296 0.398-111.772z" opacity=".05" /><path d="M646.112 220.028C627.49 57.37 355.596-84.466 131.998 59.798c44.13 1.478 139.59 25.532 118.898 139.518l395.216 20.712z" fill="#80B0E3" /><path d="M250.896 199.316l121.404 6.362c-4.066-128.656-174.518-164.462-240.302-145.88 44.13 1.478 139.59 25.532 118.898 139.518z" opacity=".05" /><path d="M126.48 58.04m-57.996 0a57.996 57.996 0 1 0 115.992 0 57.996 57.996 0 1 0-115.992 0Z" fill="#E5E5E5" /><path d="M101.022 5.918c-18.296 8.956-31.324 27.292-32.466 49.078-1.676 31.986 22.894 59.274 54.882 60.952 24.512 1.284 46.25-12.852 55.832-33.92C122.902 102.678 78.514 48.996 101.022 5.918z" opacity=".05" /><path d="M399.03 83.436l23.158 19.022a15.244 15.244 0 0 1 5.264 8.75l5.95 29.372c2.126 10.494 14.126 15.582 23.148 9.814l25.246-16.148a15.24 15.24 0 0 1 9.95-2.302l29.774 3.418c10.638 1.222 19.184-8.62 16.486-18.982l-7.554-29.002a15.242 15.242 0 0 1 0.886-10.174l6.746-14.766c-28.398-19.332-61.062-35.11-96.446-45.97l-7.632 19.474a15.238 15.238 0 0 1-6.696 7.71l-26.096 14.734c-9.328 5.268-10.46 18.254-2.184 25.05z" fill="#FAE17C" /><path d="M505.428 906.348c-9.08 0-18.092-3.894-24.342-11.43-14.692-17.716-34.502-27.722-41.96-31.488l-0.896-0.454c-15.564-7.896-21.782-26.914-13.886-42.478 7.896-15.564 26.916-21.782 42.48-13.886l0.802 0.404c9.65 4.874 39.016 19.708 62.11 47.556 11.142 13.434 9.284 33.356-4.15 44.498a31.48 31.48 0 0 1-20.158 7.278z" fill="#498A68" /><path d="M956.038 492.498l-91.942 16.212c-9.022 1.592-15.508-8.274-10.618-16.022 9.072-14.372 16.72-34.424 11.226-65.584-7.586-43.024 21.45-85.28 65.104-92.976 44.39-7.828 86.688 22.446 93.338 67.33 6.412 43.26-24.04 83.446-67.108 91.04z" fill="#E5E5E5" /><path d="M552.132 1024h-137.754c-26.852 0-48.618-21.766-48.618-48.618s21.766-48.618 48.618-48.618h137.754c26.852 0 48.618 21.766 48.618 48.618S578.984 1024 552.132 1024z" fill="#498A68" /></svg>