<?xml version="1.0" standalone="no"?><!DOCTYPE svg PUBLIC "-//W3C//DTD SVG 1.1//EN" "http://www.w3.org/Graphics/SVG/1.1/DTD/svg11.dtd"><svg class="icon" width="200px" height="200.00px" viewBox="0 0 1024 1024" version="1.1" xmlns="http://www.w3.org/2000/svg"><path d="M149.78 151.822m-149.778 0a149.778 149.778 0 1 0 299.556 0 149.778 149.778 0 1 0-299.556 0Z" fill="#FAE17C" /><path d="M100.822 114.5m-42.538 0a42.538 42.538 0 1 0 85.076 0 42.538 42.538 0 1 0-85.076 0Z" opacity=".1" /><path d="M205.852 156.036c0 32.522 26.364 58.884 58.884 58.884 8.156 0 15.924-1.66 22.986-4.658 7.618-17.958 11.834-37.708 11.834-58.442a149.48 149.48 0 0 0-7.968-48.186 58.612 58.612 0 0 0-26.854-6.486c-32.518 0.004-58.882 26.366-58.882 58.888z" opacity=".1" /><path d="M690.904 777.094c-11.532 0-22.396-7.028-26.734-18.45-5.606-14.762 1.818-31.276 16.58-36.882l0.728-0.276c8.834-3.372 35.718-13.638 67.378-12.188 15.774 0.72 27.978 14.092 27.256 29.868-0.72 15.776-14.13 27.978-29.868 27.258-19.756-0.886-37.644 5.92-44.374 8.488l-0.818 0.312a28.568 28.568 0 0 1-10.148 1.87z" fill="#959BA0" /><path d="M510.964 885.846c-127.838 11.184-274.954 24.056-388.67-35.282-19.46-10.154-11.286-39.504 10.64-38.508 86.286 3.924 156.026-24.054 193.802-62.796l184.228 136.586z" fill="#E5E5E5" /><path d="M281.052 782.49c4.996 40.7 14.828 80.904 42.958 112.586 62.938 1.618 127.062-3.99 186.954-9.23l-184.228-136.586c-12.108 12.418-27.514 23.72-45.684 33.23z" opacity=".1" /><path d="M444.332 1021.956a43.836 43.836 0 0 1-30.428-12.228c-17.542-16.808-18.136-44.654-1.328-62.196 10.054-10.494 16.994-26.678 19.04-44.402 2.058-17.832-1.576-30.244-3.66-33.458-13.204-20.394-7.374-47.63 13.02-60.832 20.388-13.202 47.628-7.376 60.83 13.018 29.188 45.082 25.81 132.78-25.708 186.542a43.848 43.848 0 0 1-31.766 13.556zM637.794 1000.234a45.02 45.02 0 0 1-4.56-0.234c-24.166-2.49-41.74-24.098-39.25-48.264 2.178-21.152-11.77-63.718-20.514-73.948-18.578-14.49-22.482-41.208-8.558-60.452 14.24-19.682 41.742-24.094 61.424-9.854 38.302 27.712 59.538 110.786 55.162 153.266-2.332 22.632-21.438 39.484-43.704 39.486z m-63.054-121.494z" fill="#959BA0" /><path d="M626.334 807.48c-19.682-14.24-47.182-9.828-61.424 9.854-13.924 19.244-10.02 45.96 8.558 60.452 7.374 8.628 18.448 40.252 20.432 62.636 33.842-6.998 61.638-17.142 84.012-30.724-7.68-39.628-25.736-83.52-51.578-102.218zM440.978 808.84c-20.394 13.204-26.224 40.438-13.02 60.832 2.084 3.216 5.718 15.628 3.66 33.458-1.914 16.588-8.116 31.824-17.144 42.312 19.888 4.112 42.09 6.16 66.728 6.16 9.332 0 19.186-0.292 29.442-0.862 15.922-46.496 11.282-97.812-8.834-128.884-13.206-20.392-40.444-26.216-60.832-13.016z" opacity=".1" /><path d="M705.342 719.004c8.608 98.39 1.472 170.752-177.578 186.416s-198.642-54.36-207.25-152.748 70.56-185.686 176.828-194.984 199.392 62.928 208 161.316z" fill="#E5E5E5" /><path d="M654.912 776.292c2.314 26.454-17.254 49.776-43.71 52.09-26.454 2.314-49.776-17.254-52.09-43.71-2.314-26.454 15.574-68.98 42.028-71.294 26.456-2.314 51.458 36.46 53.772 62.914z" fill="#5CB38E" /><path d="M627.642 792.66m-16.178 0a16.178 16.178 0 1 0 32.356 0 16.178 16.178 0 1 0-32.356 0Z" fill="#FAE17C" /><path d="M573.186 743.484a16.096 16.096 0 0 0-6.516 2.026 95.06 95.06 0 0 0-6.522 21.35c2.89 5.744 9.06 9.45 15.856 8.856a16.18 16.18 0 0 0-2.818-32.232z" fill="#FAE17C" /><path d="M461.096 564.104c-87.414 23.57-148.178 101.744-140.582 188.568 7.97 91.104 25.38 157.876 170.058 154.83-86.956-74.074-86.154-242.804-29.476-343.398z" opacity=".05" /><path d="M862.322 634.13l-493.32 43.16c-97.44 8.524-183.342-63.556-191.868-160.996L169.988 434.6c-15.848-181.14 118.148-340.83 299.288-356.676l190.218-16.642c181.14-15.848 340.828 118.148 356.676 299.288l7.148 81.694c8.524 97.44-63.556 183.342-160.996 191.866z" fill="#A3E3FF" /><path d="M651.512 285.666a178.136 178.136 0 0 0-154.982-66.624l-73.224 6.406c-104.104 9.108-181.114 100.884-172.006 204.988l7.582 86.664c8.174 93.432 90.542 162.548 183.974 154.374l388.162-33.96c69.992-6.124 121.768-67.828 115.644-137.82l-5.16-58.982c-6.124-69.992-67.828-121.768-137.82-115.644l-50.284 4.4a117.112 117.112 0 0 1-101.886-43.802z" fill="#5CB38E" /><path d="M796.482 531.52m-35.722 0a35.722 35.722 0 1 0 71.444 0 35.722 35.722 0 1 0-71.444 0Z" fill="#495059" /><path d="M364.882 549.34m-13.022 0a13.022 13.022 0 1 0 26.044 0 13.022 13.022 0 1 0-26.044 0Z" opacity=".1" /><path d="M458.842 561.06m-13.022 0a13.022 13.022 0 1 0 26.044 0 13.022 13.022 0 1 0-26.044 0Z" opacity=".1" /><path d="M409.942 609.92m-13.022 0a13.022 13.022 0 1 0 26.044 0 13.022 13.022 0 1 0-26.044 0Z" opacity=".1" /><path d="M370.570391 386.955501a16.838 32.822 84.997 1 0-2.936813-33.547699 16.838 32.822 84.997 1 0 2.936813 33.547699Z" fill="#FFA8CB" /><path d="M587.099942 334.250135a16.838 32.822 84.997 1 0 2.936814 33.547699 16.838 32.822 84.997 1 0-2.936814-33.547699Z" fill="#FFA8CB" /><path d="M407.634 348.314a15 15 0 0 1-14.926-13.694l-1.426-16.292a15.002 15.002 0 0 1 13.634-16.252c8.272-0.694 15.53 5.384 16.252 13.636l1.426 16.292a15 15 0 0 1-14.96 16.31zM544.188 336.366a15 15 0 0 1-14.926-13.694l-1.426-16.292a15 15 0 1 1 29.886-2.614l1.426 16.292a15 15 0 0 1-14.96 16.308z" fill="#495059" /><path d="M743.062 397.08m-13.022 0a13.022 13.022 0 1 0 26.044 0 13.022 13.022 0 1 0-26.044 0Z" fill="#495059" /><path d="M825.722 389.84m-13.022 0a13.022 13.022 0 1 0 26.044 0 13.022 13.022 0 1 0-26.044 0Z" fill="#495059" /><path d="M403.418 808.684c-10.166 0-20.006-5.432-25.178-15-7.512-13.892-2.336-31.24 11.554-38.75 30.826-16.664 54.938-18.382 72.546-19.636 2.248-0.16 4.444-0.316 6.594-0.504 15.732-1.37 29.598 10.264 30.974 25.992 1.376 15.732-10.26 29.6-25.992 30.976-2.45 0.214-4.954 0.394-7.516 0.576-15.132 1.078-29.426 2.096-49.41 12.9a28.46 28.46 0 0 1-13.572 3.446z" fill="#959BA0" /><path d="M416.824 86.8C263.014 125.714 155.714 271.446 169.988 434.6l7.148 81.694c8.526 97.44 94.428 169.52 191.868 160.996l166.456-14.562C305.176 497.04 355.898 213.112 416.824 86.8z" opacity=".1" /><path d="M873.548 936.804l-22.808 6.472c-8.148 2.312-16.08-4.278-15.296-12.712l2.192-23.606a12.06 12.06 0 0 0-1.99-7.83l-13.204-19.69c-4.718-7.036-0.9-16.614 7.364-18.476l23.128-5.21a12.044 12.044 0 0 0 6.83-4.314l14.648-18.642c5.234-6.662 15.524-5.99 19.846 1.294l12.102 20.388a12.066 12.066 0 0 0 6.212 5.164l22.256 8.17c7.952 2.918 10.494 12.912 4.902 19.276l-15.65 17.81a12.072 12.072 0 0 0-2.992 7.504l-0.892 23.692c-0.318 8.464-9.038 13.97-16.818 10.618l-21.774-9.38a12.04 12.04 0 0 0-8.056-0.528zM104.098 726.83l-20.59 11.752c-7.356 4.198-16.636-0.298-17.898-8.676l-3.53-23.444a12.06 12.06 0 0 0-3.81-7.124l-17.54-15.952c-6.266-5.7-4.856-15.914 2.72-19.702l21.206-10.602a12.056 12.056 0 0 0 5.598-5.826L80.002 625.648c3.484-7.722 13.634-9.536 19.578-3.502l16.636 16.89a12.06 12.06 0 0 0 7.27 3.524l23.566 2.596c8.42 0.928 13.284 10.02 9.38 17.538l-10.924 21.042a12.048 12.048 0 0 0-1.104 8.002l4.814 23.214c1.72 8.294-5.426 15.73-13.782 14.342l-23.388-3.886a12.058 12.058 0 0 0-7.95 1.422z" fill="#FF85B6" /></svg>