<?xml version="1.0" standalone="no"?><!DOCTYPE svg PUBLIC "-//W3C//DTD SVG 1.1//EN" "http://www.w3.org/Graphics/SVG/1.1/DTD/svg11.dtd"><svg t="1627593651129" class="icon" viewBox="0 0 1024 1024" version="1.1" xmlns="http://www.w3.org/2000/svg" p-id="2940" xmlns:xlink="http://www.w3.org/1999/xlink" width="200" height="200"><defs><style type="text/css">@font-face { font-family: feedback-iconfont; src: url("//at.alicdn.com/t/font_1031158_1uhr8ri0pk5.eot?#iefix") format("embedded-opentype"), url("//at.alicdn.com/t/font_1031158_1uhr8ri0pk5.woff2") format("woff2"), url("//at.alicdn.com/t/font_1031158_1uhr8ri0pk5.woff") format("woff"), url("//at.alicdn.com/t/font_1031158_1uhr8ri0pk5.ttf") format("truetype"), url("//at.alicdn.com/t/font_1031158_1uhr8ri0pk5.svg#iconfont") format("svg"); }
</style></defs><path d="M150.308706 305.137404c-0.753999 0-1.515997-0.056-2.281995-0.174l-69.969863-10.673979a14.997971 14.997971 0 0 1-12.565976-17.089966c1.249998-8.191984 8.931983-13.809973 17.089967-12.565976l69.969863 10.673979a14.999971 14.999971 0 1 1-2.241996 29.829942zM212.574585 133.651739a14.931971 14.931971 0 0 1-9.425982-3.339994L156.506694 92.569819a14.999971 14.999971 0 0 1-2.223995-21.095959 14.995971 14.995971 0 0 1 21.095958-2.223995l46.641909 37.741926a14.999971 14.999971 0 0 1-9.445981 26.659948zM667.831696 122.071762a14.939971 14.939971 0 0 1-10.31798-4.115992 14.999971 14.999971 0 0 1-0.563999-21.205959l34.071933-35.93593a14.995971 14.995971 0 0 1 21.205959-0.563999 14.999971 14.999971 0 0 1 0.563999 21.205959L678.719674 117.391771a14.955971 14.955971 0 0 1-10.887978 4.679991zM466.480089 79.807844a14.997971 14.997971 0 0 1-14.999971-14.999971V14.999971c0-8.285984 6.713987-14.999971 14.999971-14.999971s14.999971 6.713987 14.999971 14.999971v49.807902c0 8.285984-6.713987 14.999971-14.999971 14.999971z" fill="#495059" p-id="2941"></path><path d="M684.887662 778.630479a30.75994 30.75994 0 0 1-23.705953-11.099978c-10.899979-13.083974-9.127982-32.527936 3.955992-43.425915 9.413982-7.839985 26.497948-18.955963 58.973885-38.363925 14.619971-8.731983 33.553934-3.965992 42.285917 10.649979 8.733983 14.617971 3.967992 33.549934-10.649979 42.285917-11.375978 6.797987-41.587919 24.853951-51.1419 32.809936a30.71194 30.71194 0 0 1-19.717962 7.143986z" fill="#498A68" p-id="2942"></path><path d="M470.452081 883.638274c-143.891719 0-309.483396 0-430.711159-77.395849-20.743959-13.243974-8.745983-45.231912 15.64797-41.973918 95.999813 12.815975 176.637655-11.619977 222.621565-51.2059l192.441624 170.575667z" fill="#5CB38E" p-id="2943"></path><path d="M223.732563 745.718544c1.603997 45.95191 8.657983 91.821821 36.983928 129.961746 70.145863 7.957984 142.321722 7.959984 209.73559 7.959984l-192.441624-170.575667c-14.737971 12.685975-33.053935 23.805954-54.277894 32.653937z" opacity=".1" p-id="2944"></path><path d="M406.034207 1023.998c-1.219998 0-2.449995-0.046-3.687993-0.142-26.119949-2.007996-45.669911-24.811952-43.661915-50.9359 1.821996-23.705954-0.132-102.773799-3.531993-120.279765-7.805985-23.503954 3.867992-49.357904 27.137947-58.837885 24.263953-9.879981 51.943899 1.771997 61.82988 26.033949 12.785975 31.389939 9.743981 152.763702 9.159982 160.355687C451.368118 1005.078037 430.582159 1023.998 406.034207 1023.998z m-49.799903-168.415671l0.02 0.054a0.339999 0.339999 0 0 0-0.02-0.054zM578.073871 1023.998c-1.221998 0-2.451995-0.046-3.691993-0.142-26.119949-2.009996-45.667911-24.815952-43.657915-50.9399 1.825996-23.699954-0.13-102.751799-3.531993-120.269765-7.807985-23.503954 3.863992-49.355904 27.131947-58.839885 24.251953-9.885981 51.941899 1.765997 61.83388 26.027949 12.793975 31.399939 9.745981 152.769702 9.163982 160.365687C623.405782 1005.082037 602.619823 1023.998 578.073871 1023.998z m-49.795903-168.409671l0.018 0.05-0.018-0.05z" fill="#498A68" p-id="2945"></path><path d="M626.053777 936.238171c-0.038-40.321921-1.775997-96.475812-9.89598-116.403772-9.889981-24.263953-37.581927-35.91393-61.83388-26.027949-23.269955 9.485981-34.939932 35.337931-27.131947 58.839885 2.727995 14.047973 4.523991 67.641868 4.187992 100.555803 36.621928-2.403995 68.003867-8.001984 94.673815-16.963967zM382.290253 793.80445c-23.269955 9.479981-34.943932 35.335931-27.137947 58.837885 2.375995 12.235976 4.043992 54.525894 4.211992 86.98583 26.913947 7.781985 58.287886 12.449976 94.559815 14.177972 0.437999-39.421923-0.419999-110.929783-9.80398-133.967738-9.883981-24.261953-37.565927-35.91393-61.82988-26.033949z" opacity=".1" p-id="2946"></path><path d="M703.885625 716.268601c0 110.745784-15.041971 190.879627-216.579577 190.879627s-216.579577-80.133843-216.579577-190.879627 96.965811-200.523608 216.579577-200.523608c119.613766 0 216.579577 89.777825 216.579577 200.523608z" fill="#5CB38E" p-id="2947"></path><path d="M703.885625 716.268601c0-0.881998-0.024-1.759997-0.036-2.639995-45.109912-11.575977-134.587737-14.943971-196.851615 51.2279-45.373911 48.219906-51.939899 100.255804-47.071908 141.755723 8.721983 0.353999 17.841965 0.533999 27.381946 0.533999 201.533606 0.002 216.577577-80.131843 216.577577-190.877627z" fill="#9BDFC1" p-id="2948"></path><path d="M446.190129 519.368986c-99.947805 17.785965-175.463657 99.171806-175.463658 196.899615 0 102.5458 12.921975 178.833651 174.829659 189.57163-89.893824-91.245822-72.507858-279.643454 0.633999-386.471245z" opacity=".05" p-id="2949"></path><path d="M686.10366 226.953557a199.74161 199.74161 0 0 0-166.609675-89.567825h-82.419839c-117.177771 0-212.169586 94.991814-212.169585 212.169585v97.54781c0 105.165795 85.253833 190.419628 190.419628 190.419628h436.909146c78.781846 0 142.647721-63.865875 142.647722-142.647722v-66.38987c0-78.781846-63.865875-142.647721-142.647722-142.647721h-56.599889a131.321744 131.321744 0 0 1-109.529786-58.883885z" fill="#5CB38E" p-id="2950"></path><path d="M757.339521 508.059008a75.237853 66.65987 90 1 0 133.319739 0 75.237853 66.65987 90 1 0-133.319739 0Z" fill="#495059" p-id="2951"></path><path d="M340.160336 493.459036m-14.601972 0a14.601971 14.601971 0 1 0 29.203943 0 14.601971 14.601971 0 1 0-29.203943 0Z" opacity=".1" p-id="2952"></path><path d="M443.960133 515.738993m-14.601972 0a14.601971 14.601971 0 1 0 29.203943 0 14.601971 14.601971 0 1 0-29.203943 0Z" opacity=".1" p-id="2953"></path><path d="M384.560249 565.558895m-14.601972 0a14.601971 14.601971 0 1 0 29.203943 0 14.601971 14.601971 0 1 0-29.203943 0Z" opacity=".1" p-id="2954"></path><path d="M325.556364 315.739383a36.803928 18.881963 0 1 0 73.607856 0 36.803928 18.881963 0 1 0-73.607856 0Z" fill="#FFA8CB" p-id="2955"></path><path d="M572.635882 315.739383a36.803928 18.881963 0 1 0 73.607856 0 36.803928 18.881963 0 1 0-73.607856 0Z" fill="#FFA8CB" p-id="2956"></path><path d="M777.479481 360.339296m-14.601971 0a14.601971 14.601971 0 1 0 29.203943 0 14.601971 14.601971 0 1 0-29.203943 0Z" fill="#495059" p-id="2957"></path><path d="M870.5393 360.339296m-14.601972 0a14.601971 14.601971 0 1 0 29.203943 0 14.601971 14.601971 0 1 0-29.203943 0Z" fill="#495059" p-id="2958"></path><path d="M389.938238 142.647721c-94.489815 21.435958-165.033678 105.929793-165.033677 206.905596v97.54781c0 105.165795 85.253833 190.419628 190.419628 190.419628h115.547774c-168.279671-97.909809-196.801616-367.049283-140.933725-494.873034z" opacity=".05" p-id="2959"></path><path d="M399.16022 240.179531m-68.955865 0a68.955865 68.955865 0 1 0 137.911731 0 68.955865 68.955865 0 1 0-137.911731 0Z" fill="#FFFFFF" p-id="2960"></path><path d="M399.16022 240.179531m-17.621965 0a17.621966 17.621966 0 1 0 35.243931 0 17.621966 17.621966 0 1 0-35.243931 0Z" fill="#495059" p-id="2961"></path><path d="M572.639882 240.179531m-68.955866 0a68.955865 68.955865 0 1 0 137.911731 0 68.955865 68.955865 0 1 0-137.911731 0Z" fill="#FFFFFF" p-id="2962"></path><path d="M572.639882 240.179531m-17.621966 0a17.621966 17.621966 0 1 0 35.243931 0 17.621966 17.621966 0 1 0-35.243931 0Z" fill="#495059" p-id="2963"></path><path d="M456.986107 778.630479a30.72594 30.72594 0 0 1-20.859959-8.133984c-7.667985-7.047986-23.913953-21.501958-46.559909-39.105923-13.443974-10.45398-15.867969-29.823942-5.417989-43.269916 10.45398-13.445974 29.821942-15.867969 43.269915-5.417989 24.391952 18.965963 42.071918 34.701932 50.441902 42.393917 12.537976 11.523977 13.357974 31.027939 1.831996 43.567915a30.75594 30.75594 0 0 1-22.705956 9.96598z" fill="#498A68" p-id="2964"></path></svg>