<?xml version="1.0" standalone="no"?><!DOCTYPE svg PUBLIC "-//W3C//DTD SVG 1.1//EN" "http://www.w3.org/Graphics/SVG/1.1/DTD/svg11.dtd"><svg class="icon" width="200px" height="200.00px" viewBox="0 0 1024 1024" version="1.1" xmlns="http://www.w3.org/2000/svg"><path d="M829.32162 203.998398m-127.71425 0a127.714249 127.714249 0 1 0 255.428499 0 127.714249 127.714249 0 1 0-255.428499 0Z" fill="#FAE17C" /><path d="M976.337907 115.660226a14.976029 14.976029 0 0 1-12.276024-6.366013 165.034322 165.034322 0 0 0-42.912084-42.014082 15.000029 15.000029 0 0 1-4.068008-20.81804 14.996029 14.996029 0 0 1 20.820041-4.068008 194.910381 194.910381 0 0 1 50.688099 49.626097 15.000029 15.000029 0 0 1-3.626007 20.900041 14.920029 14.920029 0 0 1-8.626017 2.740005z" fill="#FAE17C" /><path d="M694.367356 100.378196a15.000029 15.000029 0 0 1-11.258022-24.908049 194.80038 194.80038 0 0 1 146.214286-66.142129 15.000029 15.000029 0 0 1 0 30.000059 164.792322 164.792322 0 0 0-123.688242 55.958109 14.970029 14.970029 0 0 1-11.268022 5.09201z" fill="#FFA8CB" /><path d="M778.38952 391.360764c-1.406003 0-2.836006-0.2-4.252008-0.618001-39.468077-11.648023-74.974146-36.206071-99.978195-69.154135-25.84805-34.060067-39.510077-74.720146-39.510077-117.58423 0-8.286016 6.716013-15.000029 15.000029-15.000029s15.000029 6.714013 15.000029 15.000029c0 36.260071 11.552023 70.648138 33.408065 99.450195 21.162041 27.884054 51.1981 48.666095 84.572166 58.516114a15.000029 15.000029 0 0 1 10.140019 18.632036 15.008029 15.008029 0 0 1-14.380028 10.758021zM829.32562 398.680779c-8.284016 0-15.000029-6.714013-15.00003-15.00003s6.716013-15.000029 15.00003-15.000029c44.320087 0 85.894168-17.352034 117.068228-48.860095a14.998029 14.998029 0 0 1 21.214042-0.112001 15.000029 15.000029 0 0 1 0.114 21.212042c-36.854072 37.248073-86.004168 57.760113-138.39627 57.760113z" fill="#FAE17C" /><path d="M1003.107959 264.864517a15.000029 15.000029 0 0 1-14.516028-18.822036A165.238323 165.238323 0 0 0 994.001941 204.004398a164.570321 164.570321 0 0 0-7.896015-50.538098 15.000029 15.000029 0 1 1 28.554056-9.198018 194.56038 194.56038 0 0 1 9.340018 59.736116 195.252381 195.252381 0 0 1-6.398012 49.674097 15.006029 15.006029 0 0 1-14.494029 11.186022z" fill="#FFA8CB" /><path d="M284.624556 675.565319c0 108.320212 14.714029 186.700365 211.836414 186.700365s211.836414-78.380153 211.836413-186.700365-94.842185-196.132383-211.836413-196.132383-211.836414 87.810172-211.836414 196.132383z" fill="#5CB38E" /><path d="M284.624556 675.565319c0-0.864002 0.024-1.722003 0.036-2.582005 44.122086-11.322022 131.640257-14.616029 192.540376 50.106098 44.380087 47.164092 50.802099 98.060192 46.04209 138.652271-8.532017 0.346001-17.450034 0.524001-26.782052 0.524001-197.122385-0.002-211.836414-78.380153-211.836414-186.700365z" fill="#9BDFC1" /><path d="M536.675048 482.976943c97.760191 17.398034 171.620335 96.998189 171.620335 192.586376 0 100.300196-12.640025 174.916342-171.000334 185.420363 87.926172-89.246174 70.920139-273.516534-0.620001-378.006739z" opacity=".05" /><path d="M302.01659 196.964385a195.370382 195.370382 0 0 1 162.960318-87.606171h80.614158c114.612224 0 207.522405 92.910181 207.522405 207.522405v95.412186c0 102.862201-83.386163 186.250364-186.250364 186.250364H139.524273C62.466122 598.543169 0 536.075047 0 459.018897v-64.936127c0-77.058151 62.466122-139.524273 139.524273-139.524273h55.360108a128.440251 128.440251 0 0 0 107.132209-57.594112z" fill="#5CB38E" /><path d="M640.381251 457.638894m-14.282028 0a14.282028 14.282028 0 1 0 28.564056 0 14.282028 14.282028 0 1 0-28.564056 0Z" opacity=".1" /><path d="M538.861052 479.438936m-14.282027 0a14.282028 14.282028 0 1 0 28.564055 0 14.282028 14.282028 0 1 0-28.564055 0Z" opacity=".1" /><path d="M596.961166 528.139032m-14.282028 0a14.282028 14.282028 0 1 0 28.564056 0 14.282028 14.282028 0 1 0-28.564056 0Z" opacity=".1" /><path d="M582.683138 262.318512a35.99807 18.468036 0 1 0 71.996141 0 35.99807 18.468036 0 1 0-71.996141 0Z" fill="#FFA8CB" /><path d="M341.002666 262.318512a35.99807 18.468036 0 1 0 71.996141 0 35.99807 18.468036 0 1 0-71.996141 0Z" fill="#FFA8CB" /><path d="M573.005119 240.71047a15.000029 15.000029 0 0 1-15.000029-15.000029v-17.938035c0-8.286016 6.716013-15.000029 15.000029-15.000029s15.000029 6.714013 15.000029 15.000029v17.938035c0 8.286016-6.714013 15.000029-15.000029 15.000029zM422.670826 240.71047a15.000029 15.000029 0 0 1-15.00003-15.000029v-17.938035c0-8.286016 6.716013-15.000029 15.00003-15.000029s15.000029 6.714013 15.000029 15.000029v17.938035a15.000029 15.000029 0 0 1-15.000029 15.000029zM167.138326 510.590997a52.786103 52.786103 0 0 1-39.798077-18.124035 15.000029 15.000029 0 0 1 22.618044-19.710039 22.792045 22.792045 0 0 0 17.182033 7.834016c6.582013 0 12.842025-2.856006 17.180034-7.832016a15.000029 15.000029 0 1 1 22.616044 19.706039 52.776103 52.776103 0 0 1-39.798078 18.126035z" fill="#495059" /><path d="M212.640415 327.43864m-14.282028 0a14.282028 14.282028 0 1 0 28.564056 0 14.282028 14.282028 0 1 0-28.564056 0Z" fill="#495059" /><path d="M121.628238 327.43864m-14.282028 0a14.282028 14.282028 0 1 0 28.564055 0 14.282028 14.282028 0 1 0-28.564055 0Z" fill="#495059" /><path d="M591.695156 114.506224c92.422181 20.966041 161.420315 103.610202 161.420315 202.374395v95.412186c0 102.862201-83.386163 186.250364-186.250364 186.250364h-113.016221c164.592321-95.766187 192.492376-359.012701 137.84627-484.036945z" opacity=".05" /><path d="M719.127405 687.647343H308.468602c-13.834027-31.838062-45.544089-54.112106-82.470161-54.112106-49.646097 0-89.892176 40.246079-89.892175 89.892176s40.246079 89.892176 89.892175 89.892176h493.128964c34.704068 0 62.836123-28.132055 62.836122-62.838123 0-34.700068-28.132055-62.834123-62.836122-62.834123z" fill="#FAE17C" /><path d="M168.78633 773.867511h-50.480099c-19.334038 0-35.008068-15.674031-35.008068-35.008068 0-19.334038 15.674031-35.008068 35.008068-35.008068h50.480099c19.334038 0 35.008068 15.674031 35.008068 35.008068 0 19.334038-15.674031 35.008068-35.008068 35.008068z" fill="#FFA8CB" /><path d="M457.516894 757.053479c-1.918004 0-3.866008-0.186-5.818012-0.566001-16.348032-3.196006-27.008053-19.038037-23.814046-35.38607 5.962012-30.51006 20.144039-53.526105 25.480049-62.192121l0.448001-0.724001c8.714017-14.198028 27.284053-18.640036 41.480081-9.93002 14.196028 8.714017 18.640036 27.284053 9.92802 41.480081l-0.500001 0.814002c-3.768007 6.114012-13.776027 22.358044-17.638035 42.126082-2.812005 14.390028-15.43003 24.378048-29.566057 24.378048z" fill="#498A68" /><path d="M809.521581 777.265518l-35.028068-7.510015a172.654337 172.654337 0 0 0-110.488216 12.966026 172.660337 172.660337 0 0 1-129.786254 7.642015l-14.990029-5.08801a172.674337 172.674337 0 0 0-79.178155-7.528015l-143.56828 19.884039a172.660337 172.660337 0 0 1-84.298165-9.356018l-35.314069-13.240026a172.652337 172.652337 0 0 0-130.150254 3.634007 59.684117 59.684117 0 0 0-35.646069 54.628107v49.582096c0 72.784142 59.004115 131.788257 131.788257 131.788258h582.043137c72.784142 0 131.788257-59.004115 131.788257-131.788258v-47.260092c0-28.138055-19.656038-52.454102-47.172092-58.354114z" fill="#80B0E3" /><path d="M327.88664 793.285549l-31.404061 4.350009a172.660337 172.660337 0 0 1-84.298165-9.356018l-35.314069-13.240026a172.652337 172.652337 0 0 0-130.150254 3.634007A59.684117 59.684117 0 0 0 11.074022 833.301628v49.582096c0 72.784142 59.004115 131.788257 131.788257 131.788258h363.240709c-90.734177-22.350044-164.708322-140.876275-178.216348-221.386433z" opacity=".1" /><path d="M241.716472 728.207422a15.000029 15.000029 0 0 1-15.000029-15.000029v-8.968018a15.000029 15.000029 0 0 1 30.000058 0v8.968018a15.000029 15.000029 0 0 1-15.000029 15.000029z" fill="#495059" /><path d="M237.850465 945.319846a88.944174 88.944174 0 0 1-33.948067-6.766013 14.998029 14.998029 0 1 1 11.432023-27.736054c16.808033 6.928014 35.528069 5.784011 51.3641-3.136006a88.694173 88.694173 0 0 1 91.772179 2.706005 15.000029 15.000029 0 1 1-16.240032 25.222049 58.774115 58.774115 0 0 0-60.806118-1.792003c-13.564026 7.642015-28.530056 11.502022-43.574085 11.502022zM667.531304 895.215748a82.01616 82.01616 0 0 1-30.096059-5.692011 51.800101 51.800101 0 0 0-38.856076 0.260001 15.000029 15.000029 0 0 1-19.572038-8.182016 15.000029 15.000029 0 0 1 8.182016-19.572038c19.698038-8.082016 41.452081-8.230016 61.258119-0.412001 12.992025 5.12801 27.746054 4.778009 40.48208-0.956002a15.000029 15.000029 0 1 1 12.322024 27.352053 82.16616 82.16616 0 0 1-33.720066 7.202014z" opacity=".1" /></svg>