<?xml version="1.0" standalone="no"?><!DOCTYPE svg PUBLIC "-//W3C//DTD SVG 1.1//EN" "http://www.w3.org/Graphics/SVG/1.1/DTD/svg11.dtd"><svg class="icon" width="200px" height="200.00px" viewBox="0 0 1024 1024" version="1.1" xmlns="http://www.w3.org/2000/svg"><path d="M283.39 756.74c-5.2 0-10.474-1.246-15.38-3.866-15.926-8.51-21.936-28.32-13.426-44.244 17.632-32.994 44.296-54.106 53.06-61.044l0.726-0.574c14.136-11.228 34.704-8.878 45.934 5.26 11.232 14.136 8.878 34.702-5.26 45.936l-0.812 0.644c-6.772 5.362-24.76 19.604-35.978 40.596-5.888 11.016-17.186 17.292-28.864 17.292z" fill="#498A68" /><path d="M556.052 816.644c152.568 0 328.146 0 456.682-82.064 21.996-14.042 9.274-47.958-16.592-44.506-101.79 13.588-187.29-12.322-236.044-54.294l-204.046 180.864z" fill="#5CB38E" /><path d="M817.65 670.406c-1.7 48.724-9.18 97.358-39.214 137.798-74.376 8.438-150.904 8.44-222.382 8.44l204.046-180.862c15.626 13.452 35.046 25.242 57.55 34.624z" opacity=".1" /><path d="M624.356 965.466c-26.028 0-48.066-20.058-50.096-46.442-0.62-8.054-3.85-136.744 9.714-170.03 10.482-25.724 39.832-38.08 65.558-27.6 24.672 10.052 37.05 37.466 28.772 62.386-3.606 18.564-5.678 102.394-3.746 127.528 2.13 27.698-18.596 51.878-46.292 54.008-1.31 0.1-2.616 0.15-3.91 0.15z m52.8-178.572l-0.024 0.058 0.024-0.058zM415.644 961.184c-25.858 0-47.838-19.818-50.062-46.052-5.4-63.708 34.286-161.986 35.978-166.14 10.482-25.724 39.832-38.08 65.558-27.6 25.724 10.482 38.082 39.832 27.6 65.558-11.27 27.658-31.316 91.162-28.9 119.684 2.346 27.68-18.192 52.022-45.872 54.368-1.442 0.124-2.878 0.182-4.302 0.182z" fill="#498A68" /><path d="M649.532 721.394c-25.728-10.48-55.076 1.876-65.558 27.6-9.954 24.43-10.864 100.248-10.398 142.05 38.46-1.832 71.724-6.782 100.26-15.034 0.178-34.414 1.946-79.254 4.468-92.228 8.278-24.924-4.098-52.336-28.772-62.388zM467.118 721.394c-25.728-10.48-55.076 1.876-65.558 27.6-1.274 3.128-24.112 59.698-32.988 114.65 27.018 12.17 59.446 20.29 97.954 24.578 3.822-31.832 18.952-78.592 28.192-101.27 10.482-25.726-1.874-55.076-27.6-65.558z" opacity=".1" /><path d="M308.544 639.18c0 117.424 15.95 202.39 229.638 202.39S767.82 756.604 767.82 639.18s-102.812-212.614-229.638-212.614c-126.824-0.002-229.638 95.19-229.638 212.614z" fill="#5CB38E" /><path d="M308.544 639.18c0-0.936 0.026-1.866 0.038-2.8 47.83-12.274 142.702-15.844 208.722 54.318 48.11 51.128 55.072 106.302 49.91 150.304-9.248 0.376-18.918 0.568-29.034 0.568-213.686-0.002-229.636-84.966-229.636-202.39z" fill="#9BDFC1" /><path d="M581.778 430.408c105.974 18.86 186.044 105.15 186.044 208.772 0 108.728-13.702 189.618-185.372 201.002 95.314-96.746 76.88-296.504-0.672-409.774z" opacity=".05" /><path d="M725.962 613.294H321.828c-32.564 0-58.962-26.398-58.962-58.962v-31.478c0-32.564 26.398-58.962 58.962-58.962h404.134c32.564 0 58.962 26.398 58.962 58.962v31.478c0 32.564-26.398 58.962-58.962 58.962z" fill="#959BA0" /><path d="M508.9 463.9h30v149.4h-30zM412.9 463.9h30v149.4h-30zM327.58 463.9h30v149.4h-30zM604.9 463.9h30v149.4h-30zM690.22 463.9h30v149.4h-30z" opacity=".1" /><path d="M327.398 120.358a211.79 211.79 0 0 1 176.656-94.97h87.39c124.244 0 224.964 100.72 224.964 224.964v103.43c0 111.508-90.394 201.902-201.902 201.902H151.25C67.716 555.684 0 487.968 0 404.436v-70.394c0-83.532 67.716-151.25 151.25-151.25h60.012a139.232 139.232 0 0 0 116.136-62.434z" fill="#495059" /><path d="M633.672 210.514h-187.99c-37.95 0-68.716-30.764-68.716-68.716 0-37.95 30.764-68.716 68.716-68.716h187.99c37.95 0 68.716 30.764 68.716 68.716s-30.766 68.716-68.716 68.716z" fill="#5CB38E" /><path d="M694.2 402.94m-15.482 0a15.482 15.482 0 1 0 30.964 0 15.482 15.482 0 1 0-30.964 0Z" opacity=".1" /><path d="M584.14 426.56m-15.482 0a15.482 15.482 0 1 0 30.964 0 15.482 15.482 0 1 0-30.964 0Z" opacity=".1" /><path d="M647.12 479.38m-15.482 0a15.482 15.482 0 1 0 30.964 0 15.482 15.482 0 1 0-30.964 0Z" opacity=".1" /><path d="M621.162 181.61a15 15 0 0 1-15-15v-19.446c0-8.286 6.716-15 15-15s15 6.714 15 15v19.446a15 15 0 0 1-15 15zM458.192 181.61a15 15 0 0 1-15-15v-19.446c0-8.286 6.716-15 15-15s15 6.714 15 15v19.446a15 15 0 0 1-15 15z" fill="#495059" /><path d="M478.912 137.22c-0.424 0-0.852-0.018-1.284-0.052l-42.912-3.636a15.004 15.004 0 0 1-13.68-16.214c0.7-8.254 7.954-14.366 16.212-13.68l42.912 3.636a15 15 0 1 1-1.248 29.946zM600.442 137.22a15 15 0 0 1-1.25-29.946l42.912-3.636a15 15 0 1 1 2.532 29.894l-42.912 3.636a15.366 15.366 0 0 1-1.282 0.052z" fill="#495059" /><path d="M181.184 459.082a55.964 55.964 0 0 1-42.192-19.214 15 15 0 0 1 22.618-19.71c4.944 5.672 12.078 8.926 19.576 8.926s14.632-3.254 19.576-8.926a15.002 15.002 0 0 1 22.618 19.71 55.98 55.98 0 0 1-42.196 19.214z" fill="#FFFFFF" /><path d="M230.52 261.8m-15.482 0a15.482 15.482 0 1 0 30.964 0 15.482 15.482 0 1 0-30.964 0Z" fill="#FFFFFF" /><path d="M131.85 261.8m-15.482 0a15.482 15.482 0 1 0 30.964 0 15.482 15.482 0 1 0-30.964 0Z" fill="#FFFFFF" /><path d="M641.422 30.97c100.188 22.728 174.986 112.318 174.986 219.382v103.43c0 111.508-90.394 201.902-201.902 201.902h-122.514c178.424-103.814 208.666-389.182 149.43-524.714z" opacity=".05" /><path d="M548.722 753.546l-31.736-77.828c-5.76-14.126-24.762-16.504-33.824-4.232a165.984 165.984 0 0 1-59.586 50c-13.66 6.794-14.618 25.92-1.706 34.046l71.136 44.768 55.716-46.754z" fill="#E5E5E5" /><path d="M548.722 753.546l-31.736-77.828c-5.76-14.126-24.762-16.504-33.824-4.232a165.984 165.984 0 0 1-59.586 50c-13.66 6.794-14.618 25.92-1.706 34.046l71.136 44.768 55.716-46.754z" opacity=".05" /><path d="M702.638 761.35c49.58 59.088 43.588 118.674-37.894 187.044s-141.202 63.926-190.782 4.838-38.582-149.942 24.564-202.928c63.148-52.986 154.532-48.04 204.112 11.046z" fill="#E5E5E5" /><path d="M584.788 923.614a15 15 0 0 1-9.65-26.49l36.506-30.63c1.784-1.498 2.878-3.6 3.082-5.92s-0.51-4.582-2.006-6.366a8.656 8.656 0 0 0-5.922-3.082 8.626 8.626 0 0 0-6.364 2.006l-18.336 15.382c-7.92 6.65-17.952 9.83-28.264 8.912a38.464 38.464 0 0 1-26.288-13.686 38.47 38.47 0 0 1-8.912-28.262 38.476 38.476 0 0 1 13.686-26.29l36.502-30.628a15 15 0 1 1 19.284 22.98l-36.504 30.63a8.654 8.654 0 0 0-3.082 5.92 8.666 8.666 0 0 0 2.006 6.366c1.498 1.788 3.6 2.88 5.92 3.084a8.708 8.708 0 0 0 6.364-2.008l18.334-15.382c7.922-6.65 17.96-9.826 28.264-8.912a38.474 38.474 0 0 1 26.286 13.684 38.468 38.468 0 0 1 8.912 28.266 38.464 38.464 0 0 1-13.684 26.284l-36.506 30.632a14.914 14.914 0 0 1-9.628 3.51z" fill="#495059" /><path d="M551.134 827.99a14.962 14.962 0 0 1-11.498-5.358l-17.9-21.332a15 15 0 0 1 1.85-21.132c6.344-5.33 15.806-4.496 21.132 1.848l17.9 21.332a15 15 0 0 1-1.85 21.132 14.926 14.926 0 0 1-9.634 3.51zM630.024 922.006a14.962 14.962 0 0 1-11.498-5.358l-17.9-21.33a15 15 0 1 1 22.98-19.284l17.9 21.33a15 15 0 0 1-11.482 24.642z" fill="#495059" /><path d="M523.924 758.912c-11.566 0-22.772-6.15-28.714-17.012-8.664-15.844-2.846-35.708 12.996-44.372 12.634-6.912 18.606-21.696 19.378-25.848 0.492-17.626 14.934-31.766 32.68-31.766 18.056 0 32.694 14.638 32.694 32.694 0 22.046-16.56 62.152-53.376 82.286a32.536 32.536 0 0 1-15.658 4.018z m3.648-86.326v0z" fill="#498A68" /></svg>