<?xml version="1.0" standalone="no"?><!DOCTYPE svg PUBLIC "-//W3C//DTD SVG 1.1//EN" "http://www.w3.org/Graphics/SVG/1.1/DTD/svg11.dtd"><svg class="icon" width="200px" height="200.00px" viewBox="0 0 1024 1024" version="1.1" xmlns="http://www.w3.org/2000/svg"><path d="M379.54 0h309.138c17.042 0 30.858 13.816 30.858 30.858v94.37c0 17.042-13.816 30.858-30.858 30.858h-86.276a48.73 48.73 0 0 0-35.168 15L546.348 192.86c-6.676 6.96-17.804 6.96-24.478 0l-20.886-21.776a48.73 48.73 0 0 0-35.168-15H379.54c-17.042 0-30.858-13.816-30.858-30.858V30.858C348.684 13.816 362.498 0 379.54 0z" fill="#E5E5E5" /><path d="M318.958 847.746a27.48 27.48 0 0 1-12.988-3.264c-13.446-7.186-18.522-23.912-11.336-37.36 14.892-27.864 37.41-45.692 44.81-51.55l0.608-0.482c11.94-9.482 29.304-7.492 38.788 4.446 9.484 11.94 7.494 29.304-4.446 38.788l-0.68 0.54c-5.718 4.528-20.91 16.552-30.384 34.284a27.608 27.608 0 0 1-24.372 14.598z" fill="#498A68" /><path d="M549.2 898.332c128.832 0 277.094 0 385.632-69.296 18.574-11.858 7.832-40.498-14.01-37.582-85.954 11.474-158.152-10.404-199.322-45.846l-172.3 152.724z" fill="#5CB38E" /><path d="M770.098 774.844c-1.436 41.144-7.752 82.212-33.112 116.36-62.804 7.126-127.428 7.126-187.784 7.126l172.3-152.724c13.194 11.362 29.592 21.318 48.596 29.238z" opacity=".1" /><path d="M606.874 1024c-21.98 0.002-40.59-16.938-42.302-39.218-0.522-6.8-3.246-115.47 8.202-143.574 8.852-21.724 33.634-32.162 55.36-23.31 20.834 8.488 31.286 31.636 24.298 52.68-3.044 15.674-4.794 86.466-3.162 107.692 1.798 23.39-15.706 43.806-39.092 45.604-1.11 0.084-2.212 0.126-3.304 0.126z m44.588-150.792l-0.018 0.048 0.018-0.048zM452.84 1024c-21.978 0-40.588-16.938-42.302-39.218-0.524-6.798-3.25-115.468 8.204-143.578 8.852-21.722 33.642-32.156 55.36-23.306 20.834 8.49 31.286 31.636 24.296 52.682-3.046 15.676-4.796 86.464-3.164 107.688 1.8 23.388-15.702 43.804-39.09 45.604-1.108 0.086-2.212 0.128-3.304 0.128z m44.586-150.79l-0.02 0.048a0.488 0.488 0 0 0 0.02-0.048z" fill="#498A68" /><path d="M628.134 817.898c-21.726-8.852-46.508 1.586-55.36 23.31-8.402 20.626-9.17 84.648-8.778 119.946 32.476-1.548 60.566-5.726 84.662-12.696 0.15-29.062 1.644-66.926 3.772-77.88 6.99-21.044-3.462-44.192-24.296-52.68zM474.102 817.9c-21.718-8.85-46.508 1.584-55.36 23.306-7.268 17.838-8.826 68.116-8.86 104.218 23.878 8.024 51.974 13.036 84.764 15.19-0.3-29.472 1.308-77.462 3.75-90.032 6.99-21.046-3.46-44.194-24.294-52.682z" opacity=".1" /><path d="M340.198 748.476c0 99.156 13.468 170.902 193.912 170.902s193.912-71.748 193.912-170.902-86.818-179.536-193.912-179.536-193.912 80.382-193.912 179.536z" fill="#5CB38E" /><path d="M340.198 748.476c0-0.79 0.022-1.576 0.032-2.364 40.388-10.366 120.5-13.38 176.25 45.866 40.626 43.174 46.504 89.764 42.146 126.92-7.81 0.318-15.974 0.48-24.516 0.48-180.444 0-193.912-71.746-193.912-170.902z" fill="#9BDFC1" /><path d="M570.922 572.186c89.488 15.926 157.1 88.792 157.1 176.292 0 91.812-11.57 160.116-156.532 169.73 80.486-81.696 64.918-250.374-0.568-346.022z" opacity=".05" /><path d="M356.118 310.374a178.836 178.836 0 0 1 149.172-80.194h73.794c104.914 0 189.964 85.05 189.964 189.964v87.338c0 94.16-76.332 170.49-170.49 170.49H207.374c-70.538 0-127.718-57.182-127.718-127.718v-59.442c0-70.536 57.182-127.718 127.718-127.718h50.676a117.572 117.572 0 0 0 98.068-52.72z" fill="#5CB38E" /><path d="M665.86 549m-13.074 0a13.074 13.074 0 1 0 26.148 0 13.074 13.074 0 1 0-26.148 0Z" opacity=".1" /><path d="M572.92 568.94m-13.074 0a13.074 13.074 0 1 0 26.148 0 13.074 13.074 0 1 0-26.148 0Z" opacity=".1" /><path d="M626.1 613.54m-13.074 0a13.074 13.074 0 1 0 26.148 0 13.074 13.074 0 1 0-26.148 0Z" opacity=".1" /><path d="M589.668 353.2a32.952 16.904 0 1 0 65.904 0 32.952 16.904 0 1 0-65.904 0Z" fill="#FFA8CB" /><path d="M368.428 353.2a32.952 16.904 0 1 0 65.904 0 32.952 16.904 0 1 0-65.904 0Z" fill="#FFA8CB" /><path d="M580.808 334.686a15 15 0 0 1-15-15v-16.42c0-8.284 6.714-15 15-15s15 6.716 15 15v16.42a15 15 0 0 1-15 15zM443.192 334.686a15 15 0 0 1-15-15v-16.42a15 15 0 0 1 30 0v16.42a15 15 0 0 1-15 15z" fill="#495059" /><path d="M603.306 293.17h-0.036l-32.364-0.08a15 15 0 1 1 0.038-30h0.038l32.364 0.08a15 15 0 0 1-0.04 30zM453.014 294.504c-0.426 0-0.854-0.018-1.288-0.054l-32.246-2.742a15 15 0 0 1 2.54-29.892l32.246 2.742a15 15 0 0 1-1.252 29.946z" fill="#495059" /><path d="M274.32 429.8m-13.074 0a13.074 13.074 0 1 0 26.148 0 13.074 13.074 0 1 0-26.148 0Z" fill="#495059" /><path d="M191 429.8m-13.074 0a13.074 13.074 0 1 0 26.148 0 13.074 13.074 0 1 0-26.148 0Z" fill="#495059" /><path d="M621.286 234.892c84.602 19.192 147.762 94.844 147.762 185.252v87.338c0 94.16-76.332 170.49-170.49 170.49h-103.454c150.666-87.662 176.204-328.634 126.182-443.08z" opacity=".05" /><path d="M550.624 806.444c-3.418 0-6.892-0.638-10.258-1.986-33.392-13.374-55.234-35.758-64.92-66.528-4.576-14.544 3.502-30.046 18.044-34.624 14.544-4.578 30.044 3.5 34.622 18.044 4.662 14.814 14.774 24.636 32.784 31.85 14.154 5.668 21.032 21.738 15.362 35.892-4.32 10.79-14.682 17.352-25.634 17.352z" fill="#498A68" /><path d="M263.678 597.824a14.93 14.93 0 0 1-8.242-2.478c-5.88-3.876-16.46-8.494-33.48-8.494h-15.664a15 15 0 0 1 0-30h15.664c19.358 0 36.644 4.65 49.99 13.446a15 15 0 0 1-8.268 27.526z" fill="#495059" /><path d="M642.68 78.04m-26.516 0a26.516 26.516 0 1 0 53.032 0 26.516 26.516 0 1 0-53.032 0Z" fill="#495059" /><path d="M534.12 78.04m-26.516 0a26.516 26.516 0 1 0 53.032 0 26.516 26.516 0 1 0-53.032 0Z" fill="#495059" /><path d="M425.54 78.04m-26.516 0a26.516 26.516 0 1 0 53.032 0 26.516 26.516 0 1 0-53.032 0Z" fill="#495059" /></svg>