<?xml version="1.0" standalone="no"?><!DOCTYPE svg PUBLIC "-//W3C//DTD SVG 1.1//EN" "http://www.w3.org/Graphics/SVG/1.1/DTD/svg11.dtd"><svg class="icon" width="200px" height="200.00px" viewBox="0 0 1024 1024" version="1.1" xmlns="http://www.w3.org/2000/svg"><path d="M700.298 849.802c-12.452 0-23.886-8.236-27.396-20.818-5.568-19.96-18.164-35.46-22.906-41.296l-0.564-0.694c-9.892-12.214-8.008-30.134 4.206-40.026 12.214-9.89 30.132-8.008 40.026 4.204l0.504 0.622c6.136 7.548 24.806 30.526 33.558 61.894 4.224 15.138-4.626 30.836-19.764 35.058a28.398 28.398 0 0 1-7.664 1.056z" fill="#498A68" /><path d="M473.654 894.458c-132.802 0-285.632 0-397.516-71.432-19.146-12.224-8.072-41.744 14.442-38.74 88.602 11.828 163.026-10.726 205.464-47.258l177.61 157.43z" fill="#5CB38E" /><path d="M245.95 767.166c1.48 42.412 7.99 84.746 34.134 119.946 64.74 7.346 131.354 7.346 193.572 7.346l-177.61-157.43c-13.604 11.71-30.508 21.972-50.096 30.138z" opacity=".1" /><path d="M414.2 1024c-1.128 0-2.262-0.042-3.404-0.13-24.108-1.856-42.15-22.902-40.294-47.012 1.682-21.878-0.12-94.848-3.26-111.008-7.206-21.694 3.568-45.554 25.046-54.304 22.396-9.126 47.942 1.634 57.064 24.026 11.804 28.976 8.994 140.992 8.454 148.002-1.766 22.964-20.952 40.424-43.606 40.426z m-45.96-155.436a0.488 0.488 0 0 0 0.02 0.048c-0.006-0.016-0.012-0.034-0.02-0.048zM572.982 1024c-1.128 0-2.262-0.042-3.404-0.13-24.108-1.856-42.15-22.902-40.294-47.012 1.682-21.878-0.122-94.848-3.262-111.008-7.206-21.694 3.568-45.554 25.046-54.304 22.398-9.126 47.942 1.634 57.064 24.026 11.804 28.978 8.994 140.994 8.456 148.002-1.766 22.964-20.952 40.424-43.606 40.426z m-45.962-155.44l0.02 0.052-0.02-0.052z" fill="#498A68" /><path d="M617.264 943c-0.036-37.214-1.64-89.038-9.132-107.428-9.122-22.394-34.666-33.152-57.064-24.026-21.478 8.75-32.252 32.61-25.046 54.304 2.518 12.958 4.174 62.428 3.866 92.808 33.8-2.218 62.762-7.386 87.376-15.658zM392.288 811.546c-21.478 8.75-32.252 32.61-25.046 54.304 2.194 11.294 3.734 50.322 3.888 80.28 24.84 7.184 53.794 11.492 87.27 13.086 0.406-36.386-0.386-102.378-9.048-123.644-9.124-22.392-34.668-33.152-57.064-24.026z" opacity=".1" /><path d="M689.096 739.986c0 102.21-13.884 176.17-199.888 176.17s-199.888-73.958-199.888-176.17 89.492-185.07 199.888-185.07 199.888 82.86 199.888 185.07z" fill="#5CB38E" /><path d="M689.096 739.986c0-0.814-0.022-1.624-0.034-2.436-41.634-10.684-124.214-13.792-181.68 47.28-41.876 44.504-47.936 92.53-43.444 130.832 8.05 0.326 16.466 0.494 25.272 0.494 186.002-0.002 199.886-73.96 199.886-176.17z" fill="#9BDFC1" /><path d="M451.262 558.262c-92.246 16.416-161.94 91.528-161.94 181.724 0 94.642 11.926 165.05 161.356 174.96-82.968-84.212-66.92-258.088 0.584-356.684z" opacity=".05" /><path d="M409.734 846.092H360.14c-11.166 0-20.216-9.052-20.216-20.216v-135.312h90.028v135.312c-0.002 11.166-9.052 20.216-20.218 20.216z" fill="#A3E3FF" /><path d="M339.922 747.048a1016.01 1016.01 0 0 0 90.028 10.58v-67.064h-90.028v56.484z" opacity=".1" /><path d="M339.924 785.468v40.408c0 11.166 9.05 20.216 20.216 20.216h49.596c11.166 0 20.216-9.052 20.216-20.216v-40.408h-90.028z" fill="#FFFFFF" /><path d="M687.806 717.194a1016.32 1016.32 0 0 1-368.592 0c-24.974-4.604-43.102-26.38-43.102-51.774v-38.152c0-29.076 23.572-52.648 52.648-52.648h349.5c29.076 0 52.648 23.572 52.648 52.648v38.152c-0.002 25.394-18.128 47.168-43.102 51.774z" fill="#A3E3FF" /><path d="M364.37 724.47a1015.944 1015.944 0 0 0 92.392 8.494v-158.346h-92.392v149.852zM550.258 732.964a1016.66 1016.66 0 0 0 92.392-8.494v-149.852h-92.392v158.346z" fill="#FFFFFF" /><path d="M672.686 288.382a184.344 184.344 0 0 0-153.768-82.666h-76.068c-108.148 0-195.818 87.67-195.818 195.818v90.03c0 97.062 78.684 175.744 175.744 175.744h403.238c72.71 0 131.654-58.944 131.654-131.654V474.38c0-72.71-58.944-131.654-131.654-131.654h-52.238a121.192 121.192 0 0 1-101.09-54.344z" fill="#5CB38E" /><path d="M353.4 534.36m-13.476 0a13.476 13.476 0 1 0 26.952 0 13.476 13.476 0 1 0-26.952 0Z" opacity=".1" /><path d="M449.2 554.92m-13.476 0a13.476 13.476 0 1 0 26.952 0 13.476 13.476 0 1 0-26.952 0Z" opacity=".1" /><path d="M394.38 600.88m-13.476 0a13.476 13.476 0 1 0 26.952 0 13.476 13.476 0 1 0-26.952 0Z" opacity=".1" /><path d="M339.912 350.06a33.968 17.426 0 1 0 67.936 0 33.968 17.426 0 1 0-67.936 0Z" fill="#FFA8CB" /><path d="M567.952 350.06a33.968 17.426 0 1 0 67.936 0 33.968 17.426 0 1 0-67.936 0Z" fill="#FFA8CB" /><path d="M416.982 330.508a15 15 0 0 1-15-15v-16.928a15 15 0 0 1 30 0v16.928a15 15 0 0 1-15 15zM558.838 330.508a15 15 0 0 1-15-15v-16.928a15 15 0 0 1 30 0v16.928a15 15 0 0 1-15 15zM799.956 585.164a50.658 50.658 0 0 1-38.192-17.39 15 15 0 0 1 22.618-19.71c3.932 4.514 9.61 7.102 15.574 7.102s11.642-2.588 15.576-7.102a15 15 0 0 1 21.164-1.452 15 15 0 0 1 1.452 21.162 50.66 50.66 0 0 1-38.192 17.39z" fill="#495059" /><path d="M757.02 411.5m-13.476 0a13.476 13.476 0 1 0 26.952 0 13.476 13.476 0 1 0-26.952 0Z" fill="#495059" /><path d="M842.9 411.5m-13.476 0a13.476 13.476 0 1 0 26.952 0 13.476 13.476 0 1 0-26.952 0Z" fill="#495059" /><path d="M399.346 210.574c-87.208 19.784-152.316 97.766-152.316 190.96v90.03c0 97.06 78.684 175.744 175.744 175.744h106.642c-155.308-90.364-181.634-338.762-130.07-456.734z" opacity=".05" /><path d="M512.108 861.476c-11.832 0-22.882-7.438-26.926-19.26-6.71-19.62-20.188-34.376-25.262-39.93l-0.602-0.66c-10.582-11.62-9.738-29.62 1.884-40.2 11.622-10.584 29.622-9.74 40.2 1.884l0.54 0.59c6.566 7.19 26.55 29.062 37.096 59.902 5.084 14.87-2.848 31.05-17.718 36.134-3.052 1.044-6.158 1.54-9.212 1.54z" fill="#498A68" /><path d="M476.48 52.938m-52.938 0a52.938 52.938 0 1 0 105.876 0 52.938 52.938 0 1 0-105.876 0Z" fill="#E5E5E5" /><path d="M637.556 261.898H315.404c-21.7 0-39.29-17.59-39.29-39.29V196.912c0-21.7 17.59-39.29 39.29-39.29h322.152c21.7 0 39.29 17.59 39.29 39.29v25.696c0 21.7-17.592 39.29-39.29 39.29z" fill="#A3E3FF" /><path d="M637.556 157.622c-20.366-48.474-78.262-87.828-161.076-87.828s-140.71 39.354-161.076 87.828h322.152z" fill="#80B0E3" /></svg>