<?xml version="1.0" standalone="no"?><!DOCTYPE svg PUBLIC "-//W3C//DTD SVG 1.1//EN" "http://www.w3.org/Graphics/SVG/1.1/DTD/svg11.dtd"><svg class="icon" width="200px" height="200.00px" viewBox="0 0 1024 1024" version="1.1" xmlns="http://www.w3.org/2000/svg"><path d="M301.086531 824.284291c-14.031699 0-26.489431-10.015785-29.089375-24.309478-2.925937-16.083654 7.739834-31.495323 23.825488-34.42326 19.649578-3.573923 32.737297-19.413583 46.594999-36.181223 3.517924-4.257909 7.155846-8.659814 10.847767-12.731727 10.977764-12.11574 29.701362-13.03572 41.813102-2.055955 12.11574 10.979764 13.03572 29.699362 2.055956 41.813101-2.78394 3.071934-5.841874 6.771855-9.077805 10.689771-17.183631 20.793553-40.717125 49.270941-81.638246 56.716781-1.789962 0.323993-3.573923 0.48199-5.331886 0.48199z" fill="#498A68" /><path d="M122.582366 730.916297a14.999678 14.999678 0 0 1-14.093697-20.133568l10.293779-28.279392c6.441862-17.69962 19.391583-31.833316 36.465217-39.793145 17.071633-7.957829 36.223222-8.793811 53.920841-2.35395a14.999678 14.999678 0 0 1-10.259779 28.191395c-20.993549-7.639836-44.293048 3.221931-51.934885 24.217479l-10.293778 28.281393a15.011677 15.011677 0 0 1-14.097698 9.869788z" fill="#495059" /><path d="M159.531573 795.522909l128.583237 46.800994c12.233737 4.451904 25.759447-1.85596 30.211351-14.087697l4.263908-11.713748c4.451904-12.233737-1.85396-25.759447-14.087697-30.211351l-128.583237-46.798995-20.387562 56.010797z" fill="#806C6C" /><path d="M188.276955 805.986684l-28.727383-10.455775 20.387562-56.014797 28.725383 10.455775z" opacity=".1" /><path d="M70.115494 771.903416l26.123438-71.776458a10.449775 10.449775 0 0 1 13.395713-6.245866l66.904562 24.351477a10.451775 10.451775 0 0 1 6.247866 13.395712l-26.125439 71.776458a10.449775 10.449775 0 0 1-13.395712 6.245866l-66.904563-24.351477a10.449775 10.449775 0 0 1-6.245865-13.395712zM35.35624 867.403364l9.487797-26.06744a10.449775 10.449775 0 0 1 13.395712-6.245865l66.904562 24.351476a10.449775 10.449775 0 0 1 6.245866 13.395713l-9.487796 26.06744a10.449775 10.449775 0 0 1-13.395712 6.245865l-66.904563-24.351476a10.451775 10.451775 0 0 1-6.245866-13.395713z" fill="#959BA0" /><path d="M123.086356 858.691552a78.078323 78.078323 0 0 1 18.12161-49.790931l-62.788651-22.853509a78.068323 78.068323 0 0 1-18.12161 49.788931l62.788651 22.855509z" fill="#495059" /><path d="M565.570849 889.224896c138.143032 0 297.121617 0 413.505116-74.304404 19.915572-12.715727 8.39782-43.423067-15.023677-40.297134-92.16602 12.303736-169.582357-11.15576-213.727408-49.158944l-184.754031 163.760482z" fill="#5CB38E" /><path d="M802.43576 756.81374c-1.539967 44.117052-8.311821 88.154106-35.507237 124.76932-67.344553 7.641836-136.637064 7.641836-201.357674 7.641836l184.754031-163.762482c14.151696 12.181738 31.733318 22.857509 52.11088 31.351326z" opacity=".1" /><path d="M627.41752 1023.978c-23.567494 0.002-43.523065-18.16161-45.359025-42.053096-0.561988-7.289843-3.485925-123.81534 8.793811-153.954692 9.491796-23.2935 36.065225-34.483259 59.360725-24.991463 22.33952 9.103804 33.547279 33.923271 26.05144 56.488786-3.26593 16.809639-5.14189 92.714008-3.391927 115.473519 1.929959 25.077461-16.837638 46.970991-41.9151 48.900949-1.185975 0.091998-2.367949 0.135997-3.539924 0.135997z m47.806973-161.688526zM462.247069 1023.978c-23.567494 0.002-43.523065-18.16161-45.359026-42.053096-0.561988-7.289843-3.483925-123.81334 8.795811-153.954692 9.493796-23.2935 36.071225-34.479259 59.360725-24.991463 22.33952 9.103804 33.545279 33.923271 26.05144 56.488786-3.26593 16.809639-5.14189 92.714008-3.391927 115.471519 1.929959 25.077461-16.837638 46.970991-41.915099 48.900949-1.187974 0.093998-2.369949 0.137997-3.541924 0.137997z m47.810973-161.688526l-0.022 0.051999 0.022-0.051999z" fill="#498A68" /><path d="M485.044579 802.980748c-23.2895-9.487796-49.866929 1.697964-59.360725 24.991464-7.793833 19.127589-9.463797 73.040431-9.499795 111.749599 25.60545 8.603815 55.730803 13.9797 90.892047 16.28765-0.321993-31.603321 1.40197-83.060216 4.019913-96.539926 7.495839-22.565515-3.70992-47.386982-26.05144-56.488787zM650.213031 802.980748c-23.2955-9.493796-49.868929 1.697964-59.360725 24.991464-9.013806 22.119525-9.835789 90.77005-9.413798 128.619236 34.823252-1.659964 64.942605-6.139868 90.78205-13.613707 0.161997-31.161331 1.761962-71.762458 4.043913-83.508206 7.495839-22.567515-3.71192-47.386982-26.05144-56.488787z" opacity=".1" /><path d="M341.463664 728.540348c0 106.321716 14.44169 183.256063 207.927533 183.256063s207.927533-76.932347 207.927532-183.256063-93.092-192.513864-207.927532-192.513864-207.927533 86.190148-207.927533 192.513864z" fill="#5CB38E" /><path d="M341.463664 728.540348c0-0.847982 0.022-1.689964 0.033999-2.533946 43.30707-11.113761 129.211224-14.345692 188.98794 49.182944 43.561064 46.295005 49.864929 96.251932 45.191029 136.093076-8.37382 0.339993-17.127632 0.513989-26.287435 0.513989-193.483843-0.002-207.925533-76.934347-207.925533-183.256063z" fill="#9BDFC1" /><path d="M588.864349 539.506409c95.955938 17.075633 168.454381 95.209954 168.45438 189.033939 0 98.449885-12.405733 171.690311-167.846393 181.99809 86.304146-87.600118 69.612504-268.470232-0.607987-371.032029z" opacity=".05" /><path d="M358.535297 258.77044a191.76588 191.76588 0 0 1 159.954564-85.990152h79.1283c112.497583 0 203.693624 91.198041 203.693623 203.693624v93.651988c0 100.965831-81.848242 182.814072-182.814072 182.814072H199.040724c-75.634375 0-136.951058-61.314683-136.951058-136.951058v-63.73863c0-75.634375 61.314683-136.949058 136.951058-136.949058h54.338832a126.069291 126.069291 0 0 0 105.155741-56.530786z" fill="#5CB38E" /><path d="M690.656162 514.628944m-14.019699 0a14.019699 14.019699 0 1 0 28.039397 0 14.019699 14.019699 0 1 0-28.039397 0Z" opacity=".1" /><path d="M590.998303 536.028484m-14.019699 0a14.019699 14.019699 0 1 0 28.039398 0 14.019699 14.019699 0 1 0-28.039398 0Z" opacity=".1" /><path d="M648.037077 583.847456m-14.019698 0a14.019699 14.019699 0 1 0 28.039397 0 14.019699 14.019699 0 1 0-28.039397 0Z" opacity=".1" /><path d="M600.764093 335.072801a35.333241 18.119611 0 1 0 70.666482 0 35.333241 18.119611 0 1 0-70.666482 0Z" fill="#FFA8CB" /><path d="M363.549189 335.072801a35.333241 18.119611 0 1 0 70.666482 0 35.333241 18.119611 0 1 0-70.666482 0Z" fill="#FFA8CB" /><path d="M591.276297 314.133251a14.999678 14.999678 0 0 1-14.999678-14.999678v-17.607621a14.999678 14.999678 0 0 1 29.999356 0v17.607621a14.999678 14.999678 0 0 1-14.999678 14.999678zM443.713467 314.133251a14.999678 14.999678 0 0 1-14.999678-14.999678v-17.607621a14.999678 14.999678 0 0 1 29.999356 0v17.607621a14.999678 14.999678 0 0 1-14.999678 14.999678zM226.144141 566.887821a52.084881 52.084881 0 0 1-39.273156-17.885616 14.999678 14.999678 0 0 1 22.615514-19.709577c4.20591 4.825896 10.277779 7.593837 16.655642 7.593837s12.449733-2.767941 16.655643-7.593837a14.999678 14.999678 0 0 1 22.615514 19.709577 52.076881 52.076881 0 0 1-39.269157 17.885616z" fill="#495059" /><path d="M270.805182 386.831689m-14.019699 0a14.019699 14.019699 0 1 0 28.039398 0 14.019699 14.019699 0 1 0-28.039398 0Z" fill="#495059" /><path d="M181.467101 386.831689m-14.019699 0a14.019699 14.019699 0 1 0 28.039398 0 14.019699 14.019699 0 1 0-28.039398 0Z" fill="#495059" /><path d="M642.869188 177.832179c90.716051 20.579558 158.442596 101.697815 158.442596 198.641733v93.651988c0 100.965831-81.848242 182.814072-182.814072 182.814072h-110.931617c161.556529-93.99998 188.939941-352.388429 135.303093-475.107793z" opacity=".05" /><path d="M556.879036 789.533037c-27.211415 0-53.872843-10.979764-71.24247-30.137352-10.981764-12.11174-10.067784-30.833338 2.043956-41.815102 12.11374-10.983764 30.831338-10.065784 41.815102 2.043956 7.499839 8.269822 21.721533 12.407733 34.579257 10.061784 16.079655-2.931937 31.499323 7.727834 34.43326 23.811489s-7.727834 31.501323-23.811488 34.43326a99.431864 99.431864 0 0 1-17.817617 1.601965z" fill="#498A68" /><path d="M761.612637 230.735043c-31.845316 8.723813-61.218685 5.911873-107.693686 1.793961a20.00757 20.00757 0 0 0-12.54973 3.057935c-60.598698 38.801166-233.772978 6.563859-292.857709-17.107633-9.075805-3.635922-9.631793-16.27365-0.941979-20.755554l25.039462-12.915722c5.57188-2.873938 9.3078-8.315821 10.161781-14.525688 19.485581-141.640957 186.715989-230.265053 330.4969-122.219375 44.643041 33.547279 68.398531 88.096107 63.530635 143.726913l-2.007957 22.943507c-0.659986 7.545838-5.871874 13.999699-13.177717 16.001656z" fill="#FAE17C" /><path d="M522.067784 167.190408a14.999678 14.999678 0 0 1-14.777683-17.66962c4.321907-23.923486 12.165739-43.199072 19.997571-60.462701a14.999678 14.999678 0 0 1 27.319413 12.391733c-9.615793 21.201544-14.771683 36.673212-17.795618 53.404853a15.007678 15.007678 0 0 1-14.743683 12.335735zM457.475171 155.522659a14.999678 14.999678 0 0 1-14.777682-17.669621c4.321907-23.921486 12.165739-43.197072 19.99357-60.462701a14.995678 14.995678 0 0 1 19.855574-7.463839 14.999678 14.999678 0 0 1 7.465839 19.855573c-9.617793 21.203544-14.771683 36.675212-17.795617 53.406853a15.001678 15.001678 0 0 1-14.741684 12.333735z" opacity=".1" /><path d="M347.569533 197.723752l25.039462-12.915722c3.149932-1.623965 5.683878-4.087912 7.471839-7.027849 128.975229 0.875981 233.490984 36.567214 265.348299 55.8348a19.705577 19.705577 0 0 0-4.057912 1.971958c-60.598698 38.801166-233.772978 6.563859-292.857709-17.107633-9.077805-3.635922-9.633793-16.27365-0.943979-20.755554z" opacity=".05" /></svg>