<svg xmlns="http://www.w3.org/2000/svg" viewBox="0 0 300.28 300.28"><path d="M215.13,108.82a110.26,110.26,0,0,0-19.22-.79c0,7.67-.29,16.13-.83,25.33l-15.18-3q.6-11.09.67-20.57c-13.84,2.75-26.32,8.57-33.07,18.32-9.64,13.93-7.38,36.79,1.41,57.85q6-2.61,11.92-5.33,8-3.66,15.39-7.27,1.53-13.75,2.51-26l15.13,3c-.39,4.75-.84,9.65-1.35,14.73,28-14.9,46.26-28.29,51.44-38.08,1.78-3.36,1.23-4.88,1.05-5.39C243.34,117,232.54,111.11,215.13,108.82Z"/><path d="M155.73,199.77A104.4,104.4,0,0,0,169.06,218c.41.43.82.87,1.24,1.3q2.1-14.57,3.78-27.9-3.37,1.59-6.87,3.19C163.39,196.37,159.55,198.09,155.73,199.77Z"/><path d="M150.14,0A150.14,150.14,0,1,0,300.28,150.14,150.14,150.14,0,0,0,150.14,0ZM190.5,183.46q-2.82,24-7.12,52.12l-1.94,12.7-10.26-7.74a102,102,0,0,1-13.38-12.1,121,121,0,0,1-16.3-22.57c-29.79,12.48-56.71,21.94-67.72,24.79-2.47.64-10,2.58-15.94-2.06-8.36-6.53-7.86-20.91,1.58-45.28C65.73,167,75.85,147,86.56,129.5l16.11,3.14q-1.31,2.07-2.6,4.16a349.18,349.18,0,0,0-25.16,49c-8.47,20.89-7.93,28.43-7.48,30.43a14,14,0,0,0,2.51-.46c10.18-2.64,36.19-11.81,64.8-23.75-10.69-25.52-12.89-53.78.15-72.63,9.66-14,26.83-21.86,45.38-25.11l-.12-2c-1.74-28.43-8.31-32.12-9.61-32.57a4.65,4.65,0,0,0-1.51-.23c-5.74,0-18.18,8-37,31.42-6.18,7.69-12.78,16.7-19.35,26.36l-16.32-3.18c8-12,16.14-23.36,23.72-32.79,23.73-29.49,41.35-40.95,55.47-36.06,11.9,4.12,18.22,18.77,19.9,46.11,0,.43,0,.86.07,1.29a125,125,0,0,1,21.6.93c10.76,1.41,36.43,6.47,42.31,22.87,1.37,3.83,2.15,10-1.94,17.73C250.09,148.23,227.59,164.75,190.5,183.46Z"/></svg>