<svg xmlns="http://www.w3.org/2000/svg" viewBox="0 0 218.24 214.62"><path d="M186.4,214.62c-10.84,0-22.69-7.34-35.36-21.91-11.31,11.62-24,19.45-38.24,19.45-14.4,0-38.77-8.23-73-47.45-18.61-21.3-36.61-48.32-39.29-59C-1.24,98.89,2,94.38,5.59,92.45c8.33-4.48,15.42,3.29,20.6,9,16.64,18.23,32.25,29.07,46.38,32.2,11.12,2.47,21,.1,30.16-7.23a51.66,51.66,0,0,0,6.16-5.85l-.49-1.21C101.53,102.5,92.93,77.51,91,54c-1.41-16.64.34-38.56,16.68-48.43,15-9.08,29.22-7,38,5.49,15.59,22.36,9.4,77.46-13.68,112.24a292.13,292.13,0,0,0,19.71,36.55c8.94-13.16,16.94-27.95,23.15-39.43,4.61-8.52,8.6-15.87,12.1-21.27,2.93-4.51,9-13.88,18.4-11.88,10.17,2.18,11.08,14.29,11.52,20.11,5.05,67.52-2.9,101.39-25,106.59A23,23,0,0,1,186.4,214.62ZM164,177.11c12.42,15,20.49,18,23.15,17.42.15,0,14.21-4.19,10.4-74.13-1.76,3.17-3.56,6.49-5.23,9.57C184.26,144.91,174.89,162.23,164,177.11ZM50.63,146.63c1.39,1.67,2.83,3.35,4.3,5,22.51,25.73,43.6,40.49,57.87,40.49,8.67,0,17.49-6.29,25.9-15.57A294.09,294.09,0,0,1,117.64,140c-.79.7-1.6,1.38-2.42,2C103,151.81,80.84,162.11,50.63,146.63ZM125.16,20c-1.6,0-3.86.7-7.19,2.71-5.89,3.56-8.41,14.08-7.09,29.63C112,65.69,116,82.19,122.3,99.74a128.11,128.11,0,0,0,9.19-27.94c5.09-24.26,2.37-42.55-2.32-49.27C128.38,21.39,127.41,20,125.16,20Z"/></svg>