<svg xmlns="http://www.w3.org/2000/svg" xmlns:xlink="http://www.w3.org/1999/xlink" viewBox="0 0 188.5 188.5"><defs><style>.a{fill:url(#a);}.b{fill:url(#b);}.c{fill:url(#c);}</style><linearGradient id="a" y1="153.9" x2="136.4" y2="153.9" gradientTransform="matrix(1, 0, 0, -1, 0, 190)" gradientUnits="userSpaceOnUse"><stop offset="0" stop-color="#ff5567"/><stop offset="0.1" stop-color="#fd4c5e"/><stop offset="0.27" stop-color="#f63444"/><stop offset="0.49" stop-color="#ec0d1b"/><stop offset="0.55" stop-color="#e9000d"/><stop offset="0.99" stop-color="#bf0005"/></linearGradient><linearGradient id="b" y1="75.83" x2="188.5" y2="75.83" xlink:href="#a"/><linearGradient id="c" y1="125.2" x2="178.75" y2="125.2" xlink:href="#a"/></defs><path class="a" d="M85.43,72.19,136.4,0H44.08A44.2,44.2,0,0,0,0,44.08V45.7Z"/><path class="b" d="M0,117.49v26.93A44.2,44.2,0,0,0,44.08,188.5H144.42a44.2,44.2,0,0,0,44.08-44.08V44.08c0-1.44-.07-2.85-.21-4.25l-78.8,111.6Z"/><path class="c" d="M0,67.93V95.26l101.05,31.33,77.7-110.06A44.43,44.43,0,0,0,160.28,3L93.88,97Z"/></svg>