<svg xmlns="http://www.w3.org/2000/svg" xmlns:xlink="http://www.w3.org/1999/xlink" viewBox="0 0 790.75 188.5"><defs><style>.a{fill:url(#a);}.b{fill:url(#b);}.c{fill:url(#c);}</style><linearGradient id="a" y1="36.09" x2="136.4" y2="36.09" gradientUnits="userSpaceOnUse"><stop offset="0" stop-color="#ff5567"/><stop offset="0.1" stop-color="#fd4c5e"/><stop offset="0.27" stop-color="#f63444"/><stop offset="0.49" stop-color="#ec0d1b"/><stop offset="0.55" stop-color="#e9000d"/><stop offset="0.99" stop-color="#bf0005"/></linearGradient><linearGradient id="b" y1="114.16" x2="188.5" y2="114.16" xlink:href="#a"/><linearGradient id="c" y1="64.78" x2="178.75" y2="64.78" xlink:href="#a"/></defs><path d="M266.87,88.05a136.27,136.27,0,0,0-15.7.79V68.13a129.73,129.73,0,0,0,15.7.8h87.71a125.29,125.29,0,0,0,15.7-.8V88.84a138,138,0,0,0-15.7-.79H336.11v43.26c0,3,.93,3.56,6.86,3.56,6.33,0,8.18-1.05,9-5.27a159.67,159.67,0,0,0,1.19-18.47,61.22,61.22,0,0,0,19.39,6.07c-.79,17.15-1.85,23-4.49,28.09-3.29,6.34-9.36,8.05-28.22,8.05-19.65,0-24.27-2.51-24.27-13.32v-52H301.43c-.27,15.43-2,26.51-5.68,35.88-5.8,14.77-15.43,23.74-34.82,32.31a87.33,87.33,0,0,0-12.13-18.6C263.31,132.5,272,125.77,276.5,116c3.16-6.72,4.48-15.17,4.61-28ZM358,56.13a132.28,132.28,0,0,0-13.72-.66h-67a130.38,130.38,0,0,0-13.72.66V35.56a106.37,106.37,0,0,0,14.38.79h65.82A98.94,98.94,0,0,0,358,35.56Z"/><path d="M487.27,91.61c5,0,8.3-.13,12.26-.39-.26,3.29-.39,5.54-.39,9.62v15.7c0,2.51,0,4.49.13,7.25l2.37-.79c3.17,5.81,3.56,6.47,4.62,9a49.39,49.39,0,0,0,6.86,1.45c-1.19,10.82-3.17,16.23-6.73,18.6-2.24,1.32-4.88,1.85-10.95,2.11-2.11.13-13.85.4-15.82.4-11.61,0-19.66-.93-22-2.38-2-1.32-2.77-3.29-2.77-7.25V126.43H450.6c-1.85,9-4.09,13.46-9.37,18.47-6.46,6.33-13.58,9.63-25.19,11.87a50.18,50.18,0,0,0-8.57-15.7,52.45,52.45,0,0,1-7,15.44c-6.07-7.26-9-10.16-16-15.57,5.27-9.36,7-16.49,8.57-34,1.19-12.79,1.72-28.09,1.72-48.8a192.94,192.94,0,0,0-.8-19.39c5.28.4,10.95.66,17.68.66h30.07V38.33a31.56,31.56,0,0,0-.66-6.6h22.16a29.72,29.72,0,0,0-.53,6.73v.92h29.94a135.5,135.5,0,0,0,16.75-.79V54.15c-3.82-.26-7.78-.39-13.85-.39h-7.91V58h11.08a42.38,42.38,0,0,0,8.57-.53v12a52.8,52.8,0,0,0-8.57-.52h-3.82c4.35,3.69,9.23,6.06,17.14,8.57A78.3,78.3,0,0,0,504.81,92c-8.05-4.35-11.87-7.26-17.41-13.19a2.33,2.33,0,0,1,.13.79c0,.26,0,1.32.13,2.9V84c.13,1.85.26,3.7.4,5.28h-16a29.34,29.34,0,0,0,.26-5.41l.13-1.19a28.11,28.11,0,0,1,.13-3.69,40.41,40.41,0,0,1-8.17,8.31l2.24.26c-1.19,2-1.32,2.25-2.51,4.09Zm-59.49,34.82c-3.43,0-7,.13-10.16.27.27-2.64.4-5.67.4-8.84V99.26c0-2.37-.13-5.14-.26-8a11.45,11.45,0,0,0,2.11.13,46.59,46.59,0,0,0-5.94-8.44c-.53,26.9-2.37,43.13-6.33,57.64,14.24-1.59,20.58-5.28,23.48-14.12ZM414.19,53.76c0,16.35,0,16.35-.13,23.61A37.43,37.43,0,0,0,424,68.93a55.08,55.08,0,0,0-7.12.52v-12a54.83,54.83,0,0,0,8.58.53h4.08V53.76Zm31.26,37.85A24.12,24.12,0,0,0,448.88,85l12,1.71a45.16,45.16,0,0,0-5.68-7,56.16,56.16,0,0,0-3.95,5c-3.7-2.9-4.88-4-7-6.72,0,1.18.13,3.29.13,4.61v1.59c0,1,.13,3.16.26,4.88H429.23a22.21,22.21,0,0,0,.4-4.22v-2a8.17,8.17,0,0,1,.26-2c-2.9,4.35-5,6.59-9.89,10.42a89.23,89.23,0,0,0,9.36.26Zm-8.83,13.32h12.66V101.5H436.62Zm0,12h12.66v-3.57H436.62Zm19.91-47.49a50.84,50.84,0,0,0-7.12-.52c3.17,2.77,5.28,3.95,10.29,6.06,3.69-2.5,5.27-3.82,7.12-6.06a63.26,63.26,0,0,0-7.91.52v-12a40,40,0,0,0,7.78.53h5.67V53.76h-28V58h4.48a48,48,0,0,0,7.65-.53Zm10.29,35.48h14V101.5h-14Zm0,12h14v-3.57h-14Zm5.8,14.24c2,0,2,0,4-.13a31.69,31.69,0,0,0,2-4.62h-5.94Zm4.36,7.91a40.92,40.92,0,0,0-4.36.53c.14,2,1.46,2.24,10.69,2.24,10.68,0,11.74-.39,12.79-4.74C492.28,137.64,484,138.57,477,139.09Zm12.4-12.66c-1.19,2.38-1.46,3-2.11,4.22,4.08-.26,4.08-.26,7.25-.66-.79-1.58-1.06-2-2-3.56Z"/><path d="M525.12,129.47c3.16-.14,4-.14,7-.4,7.12-9.23,9.62-12.93,16.62-23.48-9.77-13.85-12.8-17.54-23.88-28.88L536.2,58.64l3.56,4C546,51.52,550.44,41,552.68,32.13l20.71,6.06c-1.45,2.77-1.45,2.77-5.93,12.93a217.75,217.75,0,0,1-14.91,27.17c3.56,4.75,4,5.14,7,9.63,6.73-11.74,11.34-20.71,13.72-27.17l20.18,8.44c-1.19,1.71-1.19,1.71-6.6,11.74-4,7.38-10,17-17.14,27.83L587,104.41c6.06,16.35,7.64,21.5,12.53,41.94l-19,6.73c-1-5.68-1.18-6.86-2.24-11.61-9.63,2.37-21.89,4.88-32.84,6.59-9.89,1.59-12.27,2-15.7,2.91Zm32-3.3c7.25-.92,9.76-1.45,16.48-2.77-1.32-4.49-2.24-7.26-4.61-13.72C564.42,116.54,562.84,118.65,557.17,126.17ZM599.51,59c-8,0-12.53.14-16.36.66V38.85a135.83,135.83,0,0,0,16.36.79h33.76c4.62,0,9.23-.13,13.06-.52-.4,3.43-.4,4.09-.53,17.54-.66,49.72-2.51,75.18-6.46,85.07a14.91,14.91,0,0,1-10.16,9.5c-3.69,1.05-8,1.45-14.77,1.45-2.77,0-4.88,0-9.89-.13-.66-9-1.59-13.32-4.22-20.18a122.3,122.3,0,0,0,14.37,1.32c5,0,6.07-1.85,7.52-13.32,2-14.38,2.77-31.92,2.9-61.34Z"/><path d="M690.12,91.88c-6.86,0-11.35.13-15.44.39a94.18,94.18,0,0,0,.79-15V49.8a97,97,0,0,0-.79-15.3c4.36.4,8.31.53,15.83.53h72.94c7.39,0,11.34-.13,15.7-.53-.66,4.09-.8,8-.8,15.3V77.24c0,7,.14,10.94.8,15-4.23-.26-8.71-.39-15.7-.39h-6.59c7.91,6.46,20,12,33.89,15.43a84,84,0,0,0-9.23,20,131.27,131.27,0,0,1-24.66-12.53v24.66a136.27,136.27,0,0,0,.79,15.7h-21.9c.4-4.75.66-9.63.66-15.83V115.09c0-4.48-.13-7.78-.39-10.68h7.25a80.94,80.94,0,0,1-11.61-12.53H721.24a76.94,76.94,0,0,1-10.94,12.39h9.62a30.09,30.09,0,0,0-.52,5.68c-.66,14.37-4,24-11.35,31.65-6.59,7.12-14.77,11.34-28.49,14.91-3.82-7.26-5.67-10-11.74-17.15,11.61-2.51,17.55-4.75,23.09-9.1,5-3.83,7.51-9.23,8-16.89a105.74,105.74,0,0,1-26.38,13.72c-3.16-8.18-5.14-12.26-9.63-19,15.7-4.09,25.72-9,33.37-16.22Zm5.27-35h21.37V51.25H695.39Zm0,19.52h21.37V70.77H695.39Zm40.76-19.52h22.16V51.25H736.15Zm0,19.52h22.16V70.77H736.15Z"/><path class="a" d="M85.43,72.19,136.4,0H44.08A44.21,44.21,0,0,0,0,44.08V45.7Z"/><path class="b" d="M0,117.49v26.93A44.21,44.21,0,0,0,44.08,188.5H144.42a44.21,44.21,0,0,0,44.08-44.08V44.08c0-1.44-.07-2.85-.21-4.25l-78.8,111.6Z"/><path class="c" d="M0,67.93V95.26l101.05,31.33,77.7-110.06A44.36,44.36,0,0,0,160.28,3L93.88,97Z"/></svg>